<?xml version="1.0" encoding="UTF-8" standalone="no"?><svg xmlns="http://www.w3.org/2000/svg" xmlns:xlink="http://www.w3.org/1999/xlink" contentStyleType="text/css" height="296px" preserveAspectRatio="none" style="width:1580px;height:296px;background:#FFFFFF;" version="1.1" viewBox="0 0 1580 296" width="1580px" zoomAndPan="magnify"><defs/><g><!--MD5=[1981719fa3982d92ef7fd3f06d73b3e7]
class Move--><g id="elem_Move"><rect codeLine="1" fill="#F1F1F1" height="48" id="Move" rx="2.5" ry="2.5" style="stroke:#181818;stroke-width:0.5;" width="70" x="744.4897" y="7"/><ellipse cx="759.4897" cy="23" fill="#ADD1B2" rx="11" ry="11" style="stroke:#181818;stroke-width:1.0;"/><path d="M761.8335,18.6719 C760.896,18.2344 760.3022,18.0938 759.4272,18.0938 C756.8022,18.0938 754.8022,20.1719 754.8022,22.8906 L754.8022,24.0156 C754.8022,26.5938 756.9116,28.4844 759.8022,28.4844 C761.021,28.4844 762.1772,28.1875 762.9272,27.6406 C763.5053,27.2344 763.8335,26.7813 763.8335,26.3906 C763.8335,25.9375 763.4428,25.5469 762.9741,25.5469 C762.7553,25.5469 762.5522,25.625 762.3647,25.8125 C761.9116,26.2969 761.9116,26.2969 761.7241,26.3906 C761.3022,26.6563 760.6147,26.7813 759.8491,26.7813 C757.8022,26.7813 756.5053,25.6875 756.5053,23.9844 L756.5053,22.8906 C756.5053,21.1094 757.7553,19.7969 759.4897,19.7969 C760.0678,19.7969 760.6772,19.9531 761.146,20.2031 C761.6303,20.4844 761.8022,20.7031 761.896,21.1094 C761.9585,21.5156 761.9897,21.6406 762.1303,21.7656 C762.271,21.9063 762.5053,22.0156 762.7241,22.0156 C762.9897,22.0156 763.2553,21.875 763.4272,21.6563 C763.5366,21.5 763.5678,21.3125 763.5678,20.8906 L763.5678,19.4688 C763.5678,19.0313 763.5522,18.9063 763.4585,18.75 C763.3022,18.4844 763.021,18.3438 762.7241,18.3438 C762.4272,18.3438 762.2241,18.4375 762.0053,18.75 L761.8335,18.6719 Z " fill="#000000"/><text fill="#000000" font-family="sans-serif" font-size="14" lengthAdjust="spacing" textLength="38" x="773.4897" y="27.8467">Move</text><line style="stroke:#181818;stroke-width:0.5;" x1="745.4897" x2="813.4897" y1="39" y2="39"/><line style="stroke:#181818;stroke-width:0.5;" x1="745.4897" x2="813.4897" y1="47" y2="47"/></g><!--MD5=[a4cb0f987c11031dc931233a0e7767af]
class Stock--><g id="elem_Stock"><rect codeLine="2" fill="#F1F1F1" height="48" id="Stock" rx="2.5" ry="2.5" style="stroke:#181818;stroke-width:0.5;" width="74" x="158.4897" y="241"/><ellipse cx="173.4897" cy="257" fill="#ADD1B2" rx="11" ry="11" style="stroke:#181818;stroke-width:1.0;"/><path d="M175.8335,252.6719 C174.896,252.2344 174.3022,252.0938 173.4272,252.0938 C170.8022,252.0938 168.8022,254.1719 168.8022,256.8906 L168.8022,258.0156 C168.8022,260.5938 170.9116,262.4844 173.8022,262.4844 C175.021,262.4844 176.1772,262.1875 176.9272,261.6406 C177.5053,261.2344 177.8335,260.7813 177.8335,260.3906 C177.8335,259.9375 177.4428,259.5469 176.9741,259.5469 C176.7553,259.5469 176.5522,259.625 176.3647,259.8125 C175.9116,260.2969 175.9116,260.2969 175.7241,260.3906 C175.3022,260.6563 174.6147,260.7813 173.8491,260.7813 C171.8022,260.7813 170.5053,259.6875 170.5053,257.9844 L170.5053,256.8906 C170.5053,255.1094 171.7553,253.7969 173.4897,253.7969 C174.0678,253.7969 174.6772,253.9531 175.146,254.2031 C175.6303,254.4844 175.8022,254.7031 175.896,255.1094 C175.9585,255.5156 175.9897,255.6406 176.1303,255.7656 C176.271,255.9063 176.5053,256.0156 176.7241,256.0156 C176.9897,256.0156 177.2553,255.875 177.4272,255.6563 C177.5366,255.5 177.5678,255.3125 177.5678,254.8906 L177.5678,253.4688 C177.5678,253.0313 177.5522,252.9063 177.4585,252.75 C177.3022,252.4844 177.021,252.3438 176.7241,252.3438 C176.4272,252.3438 176.2241,252.4375 176.0053,252.75 L175.8335,252.6719 Z " fill="#000000"/><text fill="#000000" font-family="sans-serif" font-size="14" lengthAdjust="spacing" textLength="42" x="187.4897" y="261.8467">Stock</text><line style="stroke:#181818;stroke-width:0.5;" x1="159.4897" x2="231.4897" y1="273" y2="273"/><line style="stroke:#181818;stroke-width:0.5;" x1="159.4897" x2="231.4897" y1="281" y2="281"/></g><!--MD5=[c3c256aac7e3870d53c0042288b21bdc]
class Waste--><g id="elem_Waste"><rect codeLine="3" fill="#F1F1F1" height="48" id="Waste" rx="2.5" ry="2.5" style="stroke:#181818;stroke-width:0.5;" width="77" x="365.9897" y="241"/><ellipse cx="380.9897" cy="257" fill="#ADD1B2" rx="11" ry="11" style="stroke:#181818;stroke-width:1.0;"/><path d="M383.3334,252.6719 C382.3959,252.2344 381.8022,252.0938 380.9272,252.0938 C378.3022,252.0938 376.3022,254.1719 376.3022,256.8906 L376.3022,258.0156 C376.3022,260.5938 378.4116,262.4844 381.3022,262.4844 C382.5209,262.4844 383.6772,262.1875 384.4272,261.6406 C385.0053,261.2344 385.3334,260.7813 385.3334,260.3906 C385.3334,259.9375 384.9428,259.5469 384.4741,259.5469 C384.2553,259.5469 384.0522,259.625 383.8647,259.8125 C383.4116,260.2969 383.4116,260.2969 383.2241,260.3906 C382.8022,260.6563 382.1147,260.7813 381.3491,260.7813 C379.3022,260.7813 378.0053,259.6875 378.0053,257.9844 L378.0053,256.8906 C378.0053,255.1094 379.2553,253.7969 380.9897,253.7969 C381.5678,253.7969 382.1772,253.9531 382.6459,254.2031 C383.1303,254.4844 383.3022,254.7031 383.3959,255.1094 C383.4584,255.5156 383.4897,255.6406 383.6303,255.7656 C383.7709,255.9063 384.0053,256.0156 384.2241,256.0156 C384.4897,256.0156 384.7553,255.875 384.9272,255.6563 C385.0366,255.5 385.0678,255.3125 385.0678,254.8906 L385.0678,253.4688 C385.0678,253.0313 385.0522,252.9063 384.9584,252.75 C384.8022,252.4844 384.5209,252.3438 384.2241,252.3438 C383.9272,252.3438 383.7241,252.4375 383.5053,252.75 L383.3334,252.6719 Z " fill="#000000"/><text fill="#000000" font-family="sans-serif" font-size="14" lengthAdjust="spacing" textLength="45" x="394.9897" y="261.8467">Waste</text><line style="stroke:#181818;stroke-width:0.5;" x1="366.9897" x2="441.9897" y1="273" y2="273"/><line style="stroke:#181818;stroke-width:0.5;" x1="366.9897" x2="441.9897" y1="281" y2="281"/></g><!--MD5=[d01ad859d436f6e28b36a553834670aa]
class Foundation--><g id="elem_Foundation"><rect codeLine="4" fill="#F1F1F1" height="48" id="Foundation" rx="2.5" ry="2.5" style="stroke:#181818;stroke-width:0.5;" width="112" x="939.4897" y="241"/><ellipse cx="954.4897" cy="257" fill="#ADD1B2" rx="11" ry="11" style="stroke:#181818;stroke-width:1.0;"/><path d="M956.8335,252.6719 C955.896,252.2344 955.3022,252.0938 954.4272,252.0938 C951.8022,252.0938 949.8022,254.1719 949.8022,256.8906 L949.8022,258.0156 C949.8022,260.5938 951.9116,262.4844 954.8022,262.4844 C956.021,262.4844 957.1772,262.1875 957.9272,261.6406 C958.5053,261.2344 958.8335,260.7813 958.8335,260.3906 C958.8335,259.9375 958.4428,259.5469 957.9741,259.5469 C957.7553,259.5469 957.5522,259.625 957.3647,259.8125 C956.9116,260.2969 956.9116,260.2969 956.7241,260.3906 C956.3022,260.6563 955.6147,260.7813 954.8491,260.7813 C952.8022,260.7813 951.5053,259.6875 951.5053,257.9844 L951.5053,256.8906 C951.5053,255.1094 952.7553,253.7969 954.4897,253.7969 C955.0678,253.7969 955.6772,253.9531 956.146,254.2031 C956.6303,254.4844 956.8022,254.7031 956.896,255.1094 C956.9585,255.5156 956.9897,255.6406 957.1303,255.7656 C957.271,255.9063 957.5053,256.0156 957.7241,256.0156 C957.9897,256.0156 958.2553,255.875 958.4272,255.6563 C958.5366,255.5 958.5678,255.3125 958.5678,254.8906 L958.5678,253.4688 C958.5678,253.0313 958.5522,252.9063 958.4585,252.75 C958.3022,252.4844 958.021,252.3438 957.7241,252.3438 C957.4272,252.3438 957.2241,252.4375 957.0053,252.75 L956.8335,252.6719 Z " fill="#000000"/><text fill="#000000" font-family="sans-serif" font-size="14" lengthAdjust="spacing" textLength="80" x="968.4897" y="261.8467">Foundation</text><line style="stroke:#181818;stroke-width:0.5;" x1="940.4897" x2="1050.4897" y1="273" y2="273"/><line style="stroke:#181818;stroke-width:0.5;" x1="940.4897" x2="1050.4897" y1="281" y2="281"/></g><!--MD5=[c033d16283544a66478df33ee92fe5a6]
class Tableau--><g id="elem_Tableau"><rect codeLine="5" fill="#F1F1F1" height="48" id="Tableau" rx="2.5" ry="2.5" style="stroke:#181818;stroke-width:0.5;" width="88" x="1259.4937" y="241"/><ellipse cx="1274.4937" cy="257" fill="#ADD1B2" rx="11" ry="11" style="stroke:#181818;stroke-width:1.0;"/><path d="M1276.8375,252.6719 C1275.9,252.2344 1275.3062,252.0938 1274.4312,252.0938 C1271.8062,252.0938 1269.8062,254.1719 1269.8062,256.8906 L1269.8062,258.0156 C1269.8062,260.5938 1271.9156,262.4844 1274.8062,262.4844 C1276.025,262.4844 1277.1812,262.1875 1277.9312,261.6406 C1278.5093,261.2344 1278.8375,260.7813 1278.8375,260.3906 C1278.8375,259.9375 1278.4468,259.5469 1277.9781,259.5469 C1277.7593,259.5469 1277.5562,259.625 1277.3687,259.8125 C1276.9156,260.2969 1276.9156,260.2969 1276.7281,260.3906 C1276.3062,260.6563 1275.6187,260.7813 1274.8531,260.7813 C1272.8062,260.7813 1271.5093,259.6875 1271.5093,257.9844 L1271.5093,256.8906 C1271.5093,255.1094 1272.7593,253.7969 1274.4937,253.7969 C1275.0718,253.7969 1275.6812,253.9531 1276.15,254.2031 C1276.6343,254.4844 1276.8062,254.7031 1276.9,255.1094 C1276.9625,255.5156 1276.9937,255.6406 1277.1343,255.7656 C1277.275,255.9063 1277.5093,256.0156 1277.7281,256.0156 C1277.9937,256.0156 1278.2593,255.875 1278.4312,255.6563 C1278.5406,255.5 1278.5718,255.3125 1278.5718,254.8906 L1278.5718,253.4688 C1278.5718,253.0313 1278.5562,252.9063 1278.4625,252.75 C1278.3062,252.4844 1278.025,252.3438 1277.7281,252.3438 C1277.4312,252.3438 1277.2281,252.4375 1277.0093,252.75 L1276.8375,252.6719 Z " fill="#000000"/><text fill="#000000" font-family="sans-serif" font-size="14" lengthAdjust="spacing" textLength="56" x="1288.4937" y="261.8467">Tableau</text><line style="stroke:#181818;stroke-width:0.5;" x1="1260.4937" x2="1346.4937" y1="273" y2="273"/><line style="stroke:#181818;stroke-width:0.5;" x1="1260.4937" x2="1346.4937" y1="281" y2="281"/></g><!--MD5=[630ddcd668e8e86da4ecb4f1527017b6]
class StockToWaste--><g id="elem_StockToWaste"><rect fill="#F1F1F1" height="48" id="StockToWaste" rx="2.5" ry="2.5" style="stroke:#181818;stroke-width:0.5;" width="137" x="310.9897" y="116"/><ellipse cx="325.9897" cy="132" fill="#ADD1B2" rx="11" ry="11" style="stroke:#181818;stroke-width:1.0;"/><path d="M328.3334,127.6719 C327.3959,127.2344 326.8022,127.0938 325.9272,127.0938 C323.3022,127.0938 321.3022,129.1719 321.3022,131.8906 L321.3022,133.0156 C321.3022,135.5938 323.4116,137.4844 326.3022,137.4844 C327.5209,137.4844 328.6772,137.1875 329.4272,136.6406 C330.0053,136.2344 330.3334,135.7813 330.3334,135.3906 C330.3334,134.9375 329.9428,134.5469 329.4741,134.5469 C329.2553,134.5469 329.0522,134.625 328.8647,134.8125 C328.4116,135.2969 328.4116,135.2969 328.2241,135.3906 C327.8022,135.6563 327.1147,135.7813 326.3491,135.7813 C324.3022,135.7813 323.0053,134.6875 323.0053,132.9844 L323.0053,131.8906 C323.0053,130.1094 324.2553,128.7969 325.9897,128.7969 C326.5678,128.7969 327.1772,128.9531 327.6459,129.2031 C328.1303,129.4844 328.3022,129.7031 328.3959,130.1094 C328.4584,130.5156 328.4897,130.6406 328.6303,130.7656 C328.7709,130.9063 329.0053,131.0156 329.2241,131.0156 C329.4897,131.0156 329.7553,130.875 329.9272,130.6563 C330.0366,130.5 330.0678,130.3125 330.0678,129.8906 L330.0678,128.4688 C330.0678,128.0313 330.0522,127.9063 329.9584,127.75 C329.8022,127.4844 329.5209,127.3438 329.2241,127.3438 C328.9272,127.3438 328.7241,127.4375 328.5053,127.75 L328.3334,127.6719 Z " fill="#000000"/><text fill="#000000" font-family="sans-serif" font-size="14" lengthAdjust="spacing" textLength="105" x="339.9897" y="136.8467">StockToWaste</text><line style="stroke:#181818;stroke-width:0.5;" x1="311.9897" x2="446.9897" y1="148" y2="148"/><line style="stroke:#181818;stroke-width:0.5;" x1="311.9897" x2="446.9897" y1="156" y2="156"/></g><!--MD5=[109a3f47ab116f822349cc24442c583a]
class WasteToTableau--><g id="elem_WasteToTableau"><rect fill="#F1F1F1" height="48" id="WasteToTableau" rx="2.5" ry="2.5" style="stroke:#181818;stroke-width:0.5;" width="151" x="497.9897" y="116"/><ellipse cx="512.9897" cy="132" fill="#ADD1B2" rx="11" ry="11" style="stroke:#181818;stroke-width:1.0;"/><path d="M515.3335,127.6719 C514.396,127.2344 513.8022,127.0938 512.9272,127.0938 C510.3022,127.0938 508.3022,129.1719 508.3022,131.8906 L508.3022,133.0156 C508.3022,135.5938 510.4116,137.4844 513.3022,137.4844 C514.521,137.4844 515.6772,137.1875 516.4272,136.6406 C517.0053,136.2344 517.3335,135.7813 517.3335,135.3906 C517.3335,134.9375 516.9428,134.5469 516.4741,134.5469 C516.2553,134.5469 516.0522,134.625 515.8647,134.8125 C515.4116,135.2969 515.4116,135.2969 515.2241,135.3906 C514.8022,135.6563 514.1147,135.7813 513.3491,135.7813 C511.3022,135.7813 510.0053,134.6875 510.0053,132.9844 L510.0053,131.8906 C510.0053,130.1094 511.2553,128.7969 512.9897,128.7969 C513.5678,128.7969 514.1772,128.9531 514.646,129.2031 C515.1303,129.4844 515.3022,129.7031 515.396,130.1094 C515.4585,130.5156 515.4897,130.6406 515.6303,130.7656 C515.771,130.9063 516.0053,131.0156 516.2241,131.0156 C516.4897,131.0156 516.7553,130.875 516.9272,130.6563 C517.0366,130.5 517.0678,130.3125 517.0678,129.8906 L517.0678,128.4688 C517.0678,128.0313 517.0522,127.9063 516.9585,127.75 C516.8022,127.4844 516.521,127.3438 516.2241,127.3438 C515.9272,127.3438 515.7241,127.4375 515.5053,127.75 L515.3335,127.6719 Z " fill="#000000"/><text fill="#000000" font-family="sans-serif" font-size="14" lengthAdjust="spacing" textLength="119" x="526.9897" y="136.8467">WasteToTableau</text><line style="stroke:#181818;stroke-width:0.5;" x1="498.9897" x2="647.9897" y1="148" y2="148"/><line style="stroke:#181818;stroke-width:0.5;" x1="498.9897" x2="647.9897" y1="156" y2="156"/></g><!--MD5=[690937d76b2f5dff6bed6ca7eb5e7caa]
class WasteToFoundation--><g id="elem_WasteToFoundation"><rect fill="#F1F1F1" height="48" id="WasteToFoundation" rx="2.5" ry="2.5" style="stroke:#181818;stroke-width:0.5;" width="175" x="691.9897" y="116"/><ellipse cx="706.9897" cy="132" fill="#ADD1B2" rx="11" ry="11" style="stroke:#181818;stroke-width:1.0;"/><path d="M709.3335,127.6719 C708.396,127.2344 707.8022,127.0938 706.9272,127.0938 C704.3022,127.0938 702.3022,129.1719 702.3022,131.8906 L702.3022,133.0156 C702.3022,135.5938 704.4116,137.4844 707.3022,137.4844 C708.521,137.4844 709.6772,137.1875 710.4272,136.6406 C711.0053,136.2344 711.3335,135.7813 711.3335,135.3906 C711.3335,134.9375 710.9428,134.5469 710.4741,134.5469 C710.2553,134.5469 710.0522,134.625 709.8647,134.8125 C709.4116,135.2969 709.4116,135.2969 709.2241,135.3906 C708.8022,135.6563 708.1147,135.7813 707.3491,135.7813 C705.3022,135.7813 704.0053,134.6875 704.0053,132.9844 L704.0053,131.8906 C704.0053,130.1094 705.2553,128.7969 706.9897,128.7969 C707.5678,128.7969 708.1772,128.9531 708.646,129.2031 C709.1303,129.4844 709.3022,129.7031 709.396,130.1094 C709.4585,130.5156 709.4897,130.6406 709.6303,130.7656 C709.771,130.9063 710.0053,131.0156 710.2241,131.0156 C710.4897,131.0156 710.7553,130.875 710.9272,130.6563 C711.0366,130.5 711.0678,130.3125 711.0678,129.8906 L711.0678,128.4688 C711.0678,128.0313 711.0522,127.9063 710.9585,127.75 C710.8022,127.4844 710.521,127.3438 710.2241,127.3438 C709.9272,127.3438 709.7241,127.4375 709.5053,127.75 L709.3335,127.6719 Z " fill="#000000"/><text fill="#000000" font-family="sans-serif" font-size="14" lengthAdjust="spacing" textLength="143" x="720.9897" y="136.8467">WasteToFoundation</text><line style="stroke:#181818;stroke-width:0.5;" x1="692.9897" x2="865.9897" y1="148" y2="148"/><line style="stroke:#181818;stroke-width:0.5;" x1="692.9897" x2="865.9897" y1="156" y2="156"/></g><!--MD5=[44ebf9273010e353196f1a73842f64c7]
class TableauToTableau--><g id="elem_TableauToTableau"><rect fill="#F1F1F1" height="48" id="TableauToTableau" rx="2.5" ry="2.5" style="stroke:#181818;stroke-width:0.5;" width="162" x="1362.4937" y="116"/><ellipse cx="1377.4937" cy="132" fill="#ADD1B2" rx="11" ry="11" style="stroke:#181818;stroke-width:1.0;"/><path d="M1379.8375,127.6719 C1378.9,127.2344 1378.3062,127.0938 1377.4312,127.0938 C1374.8062,127.0938 1372.8062,129.1719 1372.8062,131.8906 L1372.8062,133.0156 C1372.8062,135.5938 1374.9156,137.4844 1377.8062,137.4844 C1379.025,137.4844 1380.1812,137.1875 1380.9312,136.6406 C1381.5093,136.2344 1381.8375,135.7813 1381.8375,135.3906 C1381.8375,134.9375 1381.4468,134.5469 1380.9781,134.5469 C1380.7593,134.5469 1380.5562,134.625 1380.3687,134.8125 C1379.9156,135.2969 1379.9156,135.2969 1379.7281,135.3906 C1379.3062,135.6563 1378.6187,135.7813 1377.8531,135.7813 C1375.8062,135.7813 1374.5093,134.6875 1374.5093,132.9844 L1374.5093,131.8906 C1374.5093,130.1094 1375.7593,128.7969 1377.4937,128.7969 C1378.0718,128.7969 1378.6812,128.9531 1379.15,129.2031 C1379.6343,129.4844 1379.8062,129.7031 1379.9,130.1094 C1379.9625,130.5156 1379.9937,130.6406 1380.1343,130.7656 C1380.275,130.9063 1380.5093,131.0156 1380.7281,131.0156 C1380.9937,131.0156 1381.2593,130.875 1381.4312,130.6563 C1381.5406,130.5 1381.5718,130.3125 1381.5718,129.8906 L1381.5718,128.4688 C1381.5718,128.0313 1381.5562,127.9063 1381.4625,127.75 C1381.3062,127.4844 1381.025,127.3438 1380.7281,127.3438 C1380.4312,127.3438 1380.2281,127.4375 1380.0093,127.75 L1379.8375,127.6719 Z " fill="#000000"/><text fill="#000000" font-family="sans-serif" font-size="14" lengthAdjust="spacing" textLength="130" x="1391.4937" y="136.8467">TableauToTableau</text><line style="stroke:#181818;stroke-width:0.5;" x1="1363.4937" x2="1523.4937" y1="148" y2="148"/><line style="stroke:#181818;stroke-width:0.5;" x1="1363.4937" x2="1523.4937" y1="156" y2="156"/></g><!--MD5=[e1bfd4b0a988483f4a99f0d6efc4440f]
class TableauToFoundation--><g id="elem_TableauToFoundation"><rect fill="#F1F1F1" height="48" id="TableauToFoundation" rx="2.5" ry="2.5" style="stroke:#181818;stroke-width:0.5;" width="186" x="1128.4937" y="116"/><ellipse cx="1143.4937" cy="132" fill="#ADD1B2" rx="11" ry="11" style="stroke:#181818;stroke-width:1.0;"/><path d="M1145.8375,127.6719 C1144.9,127.2344 1144.3062,127.0938 1143.4312,127.0938 C1140.8062,127.0938 1138.8062,129.1719 1138.8062,131.8906 L1138.8062,133.0156 C1138.8062,135.5938 1140.9156,137.4844 1143.8062,137.4844 C1145.025,137.4844 1146.1812,137.1875 1146.9312,136.6406 C1147.5093,136.2344 1147.8375,135.7813 1147.8375,135.3906 C1147.8375,134.9375 1147.4468,134.5469 1146.9781,134.5469 C1146.7593,134.5469 1146.5562,134.625 1146.3687,134.8125 C1145.9156,135.2969 1145.9156,135.2969 1145.7281,135.3906 C1145.3062,135.6563 1144.6187,135.7813 1143.8531,135.7813 C1141.8062,135.7813 1140.5093,134.6875 1140.5093,132.9844 L1140.5093,131.8906 C1140.5093,130.1094 1141.7593,128.7969 1143.4937,128.7969 C1144.0718,128.7969 1144.6812,128.9531 1145.15,129.2031 C1145.6343,129.4844 1145.8062,129.7031 1145.9,130.1094 C1145.9625,130.5156 1145.9937,130.6406 1146.1343,130.7656 C1146.275,130.9063 1146.5093,131.0156 1146.7281,131.0156 C1146.9937,131.0156 1147.2593,130.875 1147.4312,130.6563 C1147.5406,130.5 1147.5718,130.3125 1147.5718,129.8906 L1147.5718,128.4688 C1147.5718,128.0313 1147.5562,127.9063 1147.4625,127.75 C1147.3062,127.4844 1147.025,127.3438 1146.7281,127.3438 C1146.4312,127.3438 1146.2281,127.4375 1146.0093,127.75 L1145.8375,127.6719 Z " fill="#000000"/><text fill="#000000" font-family="sans-serif" font-size="14" lengthAdjust="spacing" textLength="154" x="1157.4937" y="136.8467">TableauToFoundation</text><line style="stroke:#181818;stroke-width:0.5;" x1="1129.4937" x2="1313.4937" y1="148" y2="148"/><line style="stroke:#181818;stroke-width:0.5;" x1="1129.4937" x2="1313.4937" y1="156" y2="156"/></g><!--MD5=[dd0fc2da0f3a3b927157169f1e5ae786]
class RecicleWaste--><g id="elem_RecicleWaste"><rect fill="#F1F1F1" height="48" id="RecicleWaste" rx="2.5" ry="2.5" style="stroke:#181818;stroke-width:0.5;" width="129" x="90.9894" y="116"/><ellipse cx="105.9894" cy="132" fill="#ADD1B2" rx="11" ry="11" style="stroke:#181818;stroke-width:1.0;"/><path d="M108.3332,127.6719 C107.3957,127.2344 106.8019,127.0938 105.9269,127.0938 C103.3019,127.0938 101.3019,129.1719 101.3019,131.8906 L101.3019,133.0156 C101.3019,135.5938 103.4113,137.4844 106.3019,137.4844 C107.5207,137.4844 108.6769,137.1875 109.4269,136.6406 C110.005,136.2344 110.3332,135.7813 110.3332,135.3906 C110.3332,134.9375 109.9425,134.5469 109.4738,134.5469 C109.255,134.5469 109.0519,134.625 108.8644,134.8125 C108.4113,135.2969 108.4113,135.2969 108.2238,135.3906 C107.8019,135.6563 107.1144,135.7813 106.3488,135.7813 C104.3019,135.7813 103.005,134.6875 103.005,132.9844 L103.005,131.8906 C103.005,130.1094 104.255,128.7969 105.9894,128.7969 C106.5675,128.7969 107.1769,128.9531 107.6457,129.2031 C108.13,129.4844 108.3019,129.7031 108.3957,130.1094 C108.4582,130.5156 108.4894,130.6406 108.63,130.7656 C108.7707,130.9063 109.005,131.0156 109.2238,131.0156 C109.4894,131.0156 109.755,130.875 109.9269,130.6563 C110.0363,130.5 110.0675,130.3125 110.0675,129.8906 L110.0675,128.4688 C110.0675,128.0313 110.0519,127.9063 109.9582,127.75 C109.8019,127.4844 109.5207,127.3438 109.2238,127.3438 C108.9269,127.3438 108.7238,127.4375 108.505,127.75 L108.3332,127.6719 Z " fill="#000000"/><text fill="#000000" font-family="sans-serif" font-size="14" lengthAdjust="spacing" textLength="97" x="119.9894" y="136.8467">RecicleWaste</text><line style="stroke:#181818;stroke-width:0.5;" x1="91.9894" x2="218.9894" y1="148" y2="148"/><line style="stroke:#181818;stroke-width:0.5;" x1="91.9894" x2="218.9894" y1="156" y2="156"/></g><!--MD5=[b79ef1eb1faefcfff8240a7c186e9373]
class FoundationToTableau--><g id="elem_FoundationToTableau"><rect fill="#F1F1F1" height="48" id="FoundationToTableau" rx="2.5" ry="2.5" style="stroke:#181818;stroke-width:0.5;" width="186" x="902.4897" y="116"/><ellipse cx="917.4897" cy="132" fill="#ADD1B2" rx="11" ry="11" style="stroke:#181818;stroke-width:1.0;"/><path d="M919.8335,127.6719 C918.896,127.2344 918.3022,127.0938 917.4272,127.0938 C914.8022,127.0938 912.8022,129.1719 912.8022,131.8906 L912.8022,133.0156 C912.8022,135.5938 914.9116,137.4844 917.8022,137.4844 C919.021,137.4844 920.1772,137.1875 920.9272,136.6406 C921.5053,136.2344 921.8335,135.7813 921.8335,135.3906 C921.8335,134.9375 921.4428,134.5469 920.9741,134.5469 C920.7553,134.5469 920.5522,134.625 920.3647,134.8125 C919.9116,135.2969 919.9116,135.2969 919.7241,135.3906 C919.3022,135.6563 918.6147,135.7813 917.8491,135.7813 C915.8022,135.7813 914.5053,134.6875 914.5053,132.9844 L914.5053,131.8906 C914.5053,130.1094 915.7553,128.7969 917.4897,128.7969 C918.0678,128.7969 918.6772,128.9531 919.146,129.2031 C919.6303,129.4844 919.8022,129.7031 919.896,130.1094 C919.9585,130.5156 919.9897,130.6406 920.1303,130.7656 C920.271,130.9063 920.5053,131.0156 920.7241,131.0156 C920.9897,131.0156 921.2553,130.875 921.4272,130.6563 C921.5366,130.5 921.5678,130.3125 921.5678,129.8906 L921.5678,128.4688 C921.5678,128.0313 921.5522,127.9063 921.4585,127.75 C921.3022,127.4844 921.021,127.3438 920.7241,127.3438 C920.4272,127.3438 920.2241,127.4375 920.0053,127.75 L919.8335,127.6719 Z " fill="#000000"/><text fill="#000000" font-family="sans-serif" font-size="14" lengthAdjust="spacing" textLength="154" x="931.4897" y="136.8467">FoundationToTableau</text><line style="stroke:#181818;stroke-width:0.5;" x1="903.4897" x2="1087.4897" y1="148" y2="148"/><line style="stroke:#181818;stroke-width:0.5;" x1="903.4897" x2="1087.4897" y1="156" y2="156"/></g><!--MD5=[5e305716458bbdabbd2d7f572ed2bae2]
class Card--><g id="elem_Card"><rect fill="#F1F1F1" height="48" id="Card" rx="2.5" ry="2.5" style="stroke:#181818;stroke-width:0.5;" width="65" x="750.9897" y="241"/><ellipse cx="765.9897" cy="257" fill="#ADD1B2" rx="11" ry="11" style="stroke:#181818;stroke-width:1.0;"/><path d="M768.3335,252.6719 C767.396,252.2344 766.8022,252.0938 765.9272,252.0938 C763.3022,252.0938 761.3022,254.1719 761.3022,256.8906 L761.3022,258.0156 C761.3022,260.5938 763.4116,262.4844 766.3022,262.4844 C767.521,262.4844 768.6772,262.1875 769.4272,261.6406 C770.0053,261.2344 770.3335,260.7813 770.3335,260.3906 C770.3335,259.9375 769.9428,259.5469 769.4741,259.5469 C769.2553,259.5469 769.0522,259.625 768.8647,259.8125 C768.4116,260.2969 768.4116,260.2969 768.2241,260.3906 C767.8022,260.6563 767.1147,260.7813 766.3491,260.7813 C764.3022,260.7813 763.0053,259.6875 763.0053,257.9844 L763.0053,256.8906 C763.0053,255.1094 764.2553,253.7969 765.9897,253.7969 C766.5678,253.7969 767.1772,253.9531 767.646,254.2031 C768.1303,254.4844 768.3022,254.7031 768.396,255.1094 C768.4585,255.5156 768.4897,255.6406 768.6303,255.7656 C768.771,255.9063 769.0053,256.0156 769.2241,256.0156 C769.4897,256.0156 769.7553,255.875 769.9272,255.6563 C770.0366,255.5 770.0678,255.3125 770.0678,254.8906 L770.0678,253.4688 C770.0678,253.0313 770.0522,252.9063 769.9585,252.75 C769.8022,252.4844 769.521,252.3438 769.2241,252.3438 C768.9272,252.3438 768.7241,252.4375 768.5053,252.75 L768.3335,252.6719 Z " fill="#000000"/><text fill="#000000" font-family="sans-serif" font-size="14" lengthAdjust="spacing" textLength="33" x="779.9897" y="261.8467">Card</text><line style="stroke:#181818;stroke-width:0.5;" x1="751.9897" x2="814.9897" y1="273" y2="273"/><line style="stroke:#181818;stroke-width:0.5;" x1="751.9897" x2="814.9897" y1="281" y2="281"/></g><!--MD5=[2d03a1286c774861d4d26abff019a27b]
reverse link Move to StockToWaste--><g id="link_Move_StockToWaste"><path codeLine="7" d="M724.7247,46.65 C652.7717,65.897 526.3947,99.703 448.1317,120.638 " fill="none" id="Move-backto-StockToWaste" style="stroke:#181818;stroke-width:1.0;"/><polygon fill="none" points="723.2127,39.808,744.3427,41.402,726.8307,53.332,723.2127,39.808" style="stroke:#181818;stroke-width:1.0;"/></g><!--MD5=[7de2d9663a82805c52ca0fd3fe722055]
reverse link Move to WasteToTableau--><g id="link_Move_WasteToTableau"><path codeLine="8" d="M726.0467,59.759 C692.5337,77.166 649.8317,99.346 618.1337,115.811 " fill="none" id="Move-backto-WasteToTableau" style="stroke:#181818;stroke-width:1.0;"/><polygon fill="none" points="723.1017,53.401,744.0767,50.394,729.5547,65.825,723.1017,53.401" style="stroke:#181818;stroke-width:1.0;"/></g><!--MD5=[a20ac830ebe1bc61b4c8a739a902efa7]
reverse link Move to WasteToFoundation--><g id="link_Move_WasteToFoundation"><path codeLine="9" d="M779.4897,75.578 C779.4897,89.362 779.4897,104.057 779.4897,115.828 " fill="none" id="Move-backto-WasteToFoundation" style="stroke:#181818;stroke-width:1.0;"/><polygon fill="none" points="772.4897,75.217,779.4897,55.217,786.4897,75.217,772.4897,75.217" style="stroke:#181818;stroke-width:1.0;"/></g><!--MD5=[8282c0095ed05d187749733723a30ae9]
reverse link Move to TableauToTableau--><g id="link_Move_TableauToTableau"><path codeLine="10" d="M834.7677,39.451 C934.3427,53.086 1150.3537,83.641 1331.4937,116 C1341.4537,117.78 1351.8937,119.764 1362.2237,121.8 " fill="none" id="Move-backto-TableauToTableau" style="stroke:#181818;stroke-width:1.0;"/><polygon fill="none" points="833.6607,46.365,814.7887,36.729,835.5507,32.493,833.6607,46.365" style="stroke:#181818;stroke-width:1.0;"/></g><!--MD5=[be4ecedb3619fa17127144e47405fbd6]
reverse link Move to TableauToFoundation--><g id="link_Move_TableauToFoundation"><path codeLine="11" d="M834.0577,45.21 C907.4937,62.987 1039.1937,94.869 1128.4337,116.473 " fill="none" id="Move-backto-TableauToFoundation" style="stroke:#181818;stroke-width:1.0;"/><polygon fill="none" points="832.3337,51.995,814.5417,40.486,835.6277,38.388,832.3337,51.995" style="stroke:#181818;stroke-width:1.0;"/></g><!--MD5=[6ab63fbda3d83c52447f0c6082bea771]
reverse link Move to RecicleWaste--><g id="link_Move_RecicleWaste"><path codeLine="12" d="M724.1117,41.496 C608.7427,61.279 343.1797,106.816 220.1847,127.906 " fill="none" id="Move-backto-RecicleWaste" style="stroke:#181818;stroke-width:1.0;"/><polygon fill="none" points="723.2567,34.54,744.1527,38.059,725.6237,48.339,723.2567,34.54" style="stroke:#181818;stroke-width:1.0;"/></g><!--MD5=[cc7d09619f0d199b43eac82d05172bd0]
reverse link Move to FoundationToTableau--><g id="link_Move_FoundationToTableau"><path codeLine="13" d="M832.7107,58.364 C868.3587,76.023 914.8357,99.046 948.9967,115.969 " fill="none" id="Move-backto-FoundationToTableau" style="stroke:#181818;stroke-width:1.0;"/><polygon fill="none" points="829.4887,64.58,814.6747,49.43,835.7027,52.035,829.4887,64.58" style="stroke:#181818;stroke-width:1.0;"/></g><!--MD5=[4e85a9eb891aa94b45113c70d7ee55fa]
link StockToWaste to Stock--><g id="link_StockToWaste_Stock"><path codeLine="15" d="M337.6377,164 C321.9707,172.966 304.1757,183.581 288.4897,194 C268.1607,207.5028 246.3157,223.8437 228.9087,237.3402 " fill="none" id="StockToWaste-to-Stock" style="stroke:#181818;stroke-width:1.0;"/><polygon fill="#181818" points="224.5827,240.7067,234.1423,238.3373,228.529,237.6364,229.2299,232.0232,224.5827,240.7067" style="stroke:#181818;stroke-width:1.0;"/><text fill="#000000" font-family="sans-serif" font-size="13" lengthAdjust="spacing" textLength="35" x="289.4897" y="207.0669">origin</text></g><!--MD5=[d6e9ad06bda7f02e1debae9defa12bc7]
link StockToWaste to Waste--><g id="link_StockToWaste_Waste"><path codeLine="16" d="M350.7887,164.27 C338.0277,177.566 327.4937,194.7769 335.4897,211 C341.3257,222.8417 351.2187,232.7752 361.7187,240.7233 " fill="none" id="StockToWaste-to-Waste" style="stroke:#181818;stroke-width:1.0;"/><polygon fill="#181818" points="365.9247,243.7833,361.0001,235.254,361.8815,240.8418,356.2937,241.7232,365.9247,243.7833" style="stroke:#181818;stroke-width:1.0;"/><text fill="#000000" font-family="sans-serif" font-size="13" lengthAdjust="spacing" textLength="71" x="336.4897" y="207.0669">destination</text></g><!--MD5=[d4a4458654d1f2191ac2b574f1eea0c4]
link StockToWaste to Card--><g id="link_StockToWaste_Card"><path codeLine="17" d="M399.7937,164.3 C414.9057,180.071 436.9217,199.972 460.4897,211 C556.1097,255.7428 683.0497,263.4579 745.4957,264.3239 " fill="none" id="StockToWaste-to-Card" style="stroke:#181818;stroke-width:1.0;"/><polygon fill="#181818" points="750.6067,264.3814,741.6518,260.2814,745.607,264.3257,741.5627,268.2809,750.6067,264.3814" style="stroke:#181818;stroke-width:1.0;"/></g><!--MD5=[feda2d7756aab9f63297df0c07487a27]
link WasteToTableau to Waste--><g id="link_WasteToTableau_Waste"><path codeLine="18" d="M534.7657,164.015 C520.2927,172.983 503.8837,183.595 489.4897,194 C470.7787,207.5247 450.8057,223.8669 434.9247,237.3585 " fill="none" id="WasteToTableau-to-Waste" style="stroke:#181818;stroke-width:1.0;"/><polygon fill="#181818" points="430.9787,240.7237,440.4223,237.9275,434.7832,237.4794,435.2313,231.8403,430.9787,240.7237" style="stroke:#181818;stroke-width:1.0;"/><text fill="#000000" font-family="sans-serif" font-size="13" lengthAdjust="spacing" textLength="35" x="490.4897" y="207.0669">origin</text></g><!--MD5=[6aabfdbddf1d19bde5f69de7c8e7798e]
link WasteToTableau to Tableau--><g id="link_WasteToTableau_Tableau"><path codeLine="19" d="M576.9947,164.173 C580.7097,180.099 588.2647,200.2414 603.4897,211 C645.7717,240.8785 1016.8847,236.8112 1068.4937,241 C1132.7437,246.216 1206.7437,253.7036 1254.2637,258.7032 " fill="none" id="WasteToTableau-to-Tableau" style="stroke:#181818;stroke-width:1.0;"/><polygon fill="#181818" points="1259.3537,259.2396,1250.8269,254.3107,1254.3817,258.7111,1249.9813,262.2658,1259.3537,259.2396" style="stroke:#181818;stroke-width:1.0;"/><text fill="#000000" font-family="sans-serif" font-size="13" lengthAdjust="spacing" textLength="71" x="604.4897" y="207.0669">destination</text></g><!--MD5=[fce48501a9561a685ed8dabef08163c5]
link WasteToTableau to Card--><g id="link_WasteToTableau_Card"><path codeLine="20" d="M567.1907,164.172 C564.6037,179.082 564.2457,198.0271 574.4897,211 C595.5007,237.6109 691.4337,253.1 745.7307,259.8821 " fill="none" id="WasteToTableau-to-Card" style="stroke:#181818;stroke-width:1.0;"/><polygon fill="#181818" points="750.8517,260.5114,742.4069,255.4433,745.889,259.9014,741.4309,263.3835,750.8517,260.5114" style="stroke:#181818;stroke-width:1.0;"/></g><!--MD5=[4f060d7e08dddf1ada0b3aa5c8864108]
link WasteToFoundation to Waste--><g id="link_WasteToFoundation_Waste"><path codeLine="22" d="M754.8447,164.033 C736.7287,179.679 710.7817,199.5396 684.4897,211 C605.6857,245.349 504.8647,257.4863 448.2177,261.7398 " fill="none" id="WasteToFoundation-to-Waste" style="stroke:#181818;stroke-width:1.0;"/><polygon fill="#181818" points="443.2117,262.1037,452.4783,265.44,448.1985,261.7408,451.8977,257.4611,443.2117,262.1037" style="stroke:#181818;stroke-width:1.0;"/><text fill="#000000" font-family="sans-serif" font-size="13" lengthAdjust="spacing" textLength="35" x="714.4897" y="207.0669">origin</text></g><!--MD5=[406c711d6d9b2ab1ba047fb67f209146]
link WasteToFoundation to Foundation--><g id="link_WasteToFoundation_Foundation"><path codeLine="23" d="M820.1177,164.135 C857.2257,185.267 912.0037,216.4596 950.4397,238.3467 " fill="none" id="WasteToFoundation-to-Foundation" style="stroke:#181818;stroke-width:1.0;"/><polygon fill="#181818" points="955.0437,240.9684,949.2023,233.0389,950.6988,238.4942,945.2435,239.9907,955.0437,240.9684" style="stroke:#181818;stroke-width:1.0;"/><text fill="#000000" font-family="sans-serif" font-size="13" lengthAdjust="spacing" textLength="71" x="901.4897" y="207.0669">destination</text></g><!--MD5=[69445eb9698bf5f90787cb1939ef662f]
link WasteToFoundation to Card--><g id="link_WasteToFoundation_Card"><path codeLine="24" d="M780.2417,164.135 C780.9037,184.494 781.8697,214.1907 782.5757,235.908 " fill="none" id="WasteToFoundation-to-Card" style="stroke:#181818;stroke-width:1.0;"/><polygon fill="#181818" points="782.7407,240.9684,786.4459,231.8431,782.5781,235.971,778.4502,232.1032,782.7407,240.9684" style="stroke:#181818;stroke-width:1.0;"/></g><!--MD5=[d0335a0c6bb334bef9defdb25233cf26]
link TableauToTableau to Tableau--><g id="link_TableauToTableau_Tableau"><path codeLine="26" d="M1504.5337,164.056 C1527.9337,176.404 1545.9337,192.8084 1531.4937,211 C1509.5837,238.5869 1412.7737,253.1167 1352.5637,259.6221 " fill="none" id="TableauToTableau-to-Tableau" style="stroke:#181818;stroke-width:1.0;"/><polygon fill="#181818" points="1347.5737,260.1518,1356.9461,263.178,1352.5457,259.6232,1356.1004,255.2228,1347.5737,260.1518" style="stroke:#181818;stroke-width:1.0;"/><text fill="#000000" font-family="sans-serif" font-size="13" lengthAdjust="spacing" textLength="35" x="1537.4937" y="207.0669">origin</text></g><!--MD5=[d0335a0c6bb334bef9defdb25233cf26]
link TableauToTableau to Tableau--><g id="link_TableauToTableau_Tableau"><path codeLine="27" d="M1439.9737,164.188 C1436.6537,179.105 1430.3337,198.0513 1418.4937,211 C1400.9637,230.1553 1375.1337,242.9165 1352.3937,251.1064 " fill="none" id="TableauToTableau-to-Tableau-1" style="stroke:#181818;stroke-width:1.0;"/><polygon fill="#181818" points="1347.5937,252.7853,1357.4084,253.6044,1352.3158,251.1417,1354.7786,246.049,1347.5937,252.7853" style="stroke:#181818;stroke-width:1.0;"/><text fill="#000000" font-family="sans-serif" font-size="13" lengthAdjust="spacing" textLength="71" x="1430.4937" y="207.0669">destination</text></g><!--MD5=[2349d61ab7172b779af99d16c1162b32]
link TableauToTableau to Card--><g id="link_TableauToTableau_Card"><path codeLine="28" d="M1422.3437,164.31 C1406.0837,180.524 1382.1237,200.9633 1356.4937,211 C1266.2637,246.3279 1017.7227,229.6887 921.4897,241 C887.4257,245.0039 848.9517,251.5888 821.2987,256.6891 " fill="none" id="TableauToTableau-to-Card" style="stroke:#181818;stroke-width:1.0;"/><polygon fill="#181818" points="816.2647,257.6232,825.8437,259.9128,821.1807,256.7103,824.3832,252.0473,816.2647,257.6232" style="stroke:#181818;stroke-width:1.0;"/><text fill="#000000" font-family="sans-serif" font-size="13" lengthAdjust="spacing" textLength="32" x="824.0382" y="252.3297">1..13</text></g><!--MD5=[a6c2b49094f428d4859cd93e9739bd06]
link TableauToFoundation to Foundation--><g id="link_TableauToFoundation_Foundation"><path codeLine="30" d="M1215.6137,164.306 C1210.5837,179.665 1201.8237,199.0749 1187.4937,211 C1150.7837,241.5431 1097.8037,254.5567 1056.7937,260.065 " fill="none" id="TableauToFoundation-to-Foundation" style="stroke:#181818;stroke-width:1.0;"/><polygon fill="#181818" points="1051.6037,260.7314,1061.0352,263.568,1056.564,260.1027,1060.0293,255.6315,1051.6037,260.7314" style="stroke:#181818;stroke-width:1.0;"/><text fill="#000000" font-family="sans-serif" font-size="13" lengthAdjust="spacing" textLength="35" x="1202.4937" y="207.0669">origin</text></g><!--MD5=[64eaf76a749b7947a5cfb108995030c1]
link TableauToFoundation to Tableau--><g id="link_TableauToFoundation_Tableau"><path codeLine="31" d="M1241.6637,164.072 C1249.1937,173.134 1257.5837,183.795 1264.4937,194 C1273.5137,207.3394 1282.3537,222.9312 1289.3337,236.0094 " fill="none" id="TableauToFoundation-to-Tableau" style="stroke:#181818;stroke-width:1.0;"/><polygon fill="#181818" points="1291.8137,240.7052,1291.1386,230.8795,1289.4746,236.2861,1284.068,234.6221,1291.8137,240.7052" style="stroke:#181818;stroke-width:1.0;"/><text fill="#000000" font-family="sans-serif" font-size="13" lengthAdjust="spacing" textLength="71" x="1276.4937" y="207.0669">destination</text></g><!--MD5=[b5c1d18ba99d5d5782e9f959dbae1426]
link TableauToFoundation to Card--><g id="link_TableauToFoundation_Card"><path codeLine="32" d="M1203.4237,164.187 C1189.6337,180.119 1169.1937,200.2636 1146.4937,211 C1055.2837,254.1297 1021.2587,226.0387 921.4897,241 C887.4567,246.1035 848.8257,252.6029 821.1097,257.3899 " fill="none" id="TableauToFoundation-to-Card" style="stroke:#181818;stroke-width:1.0;"/><polygon fill="#181818" points="816.0647,258.2631,825.6151,260.6693,820.9914,257.4102,824.2505,252.7866,816.0647,258.2631" style="stroke:#181818;stroke-width:1.0;"/></g><!--MD5=[74c7b08add9e1fba4dcfc12e81a423c1]
link RecicleWaste to Stock--><g id="link_RecicleWaste_Stock"><path codeLine="34" d="M90.6075,152.691 C48.8215,163.242 6,181.687 27.4894,211 C56.0433,249.9493 113.2929,261.0137 152.9727,263.7744 " fill="none" id="RecicleWaste-to-Stock" style="stroke:#181818;stroke-width:1.0;"/><polygon fill="#181818" points="158.2067,264.0978,149.4707,259.55,153.2162,263.7892,148.977,267.5347,158.2067,264.0978" style="stroke:#181818;stroke-width:1.0;"/><text fill="#000000" font-family="sans-serif" font-size="13" lengthAdjust="spacing" textLength="35" x="28.4894" y="207.0669">origin</text></g><!--MD5=[bf1cbca78929deec55519da72b2005cf]
link RecicleWaste to Waste--><g id="link_RecicleWaste_Waste"><path codeLine="35" d="M121.4575,164.296 C105.2751,178.207 91.9272,196.024 104.4894,211 C112.7004,220.7888 279.4807,246.0024 360.7397,257.7736 " fill="none" id="RecicleWaste-to-Waste" style="stroke:#181818;stroke-width:1.0;"/><polygon fill="#181818" points="365.9667,258.5292,357.6305,253.2845,361.018,257.8149,356.4876,261.2024,365.9667,258.5292" style="stroke:#181818;stroke-width:1.0;"/><text fill="#000000" font-family="sans-serif" font-size="13" lengthAdjust="spacing" textLength="71" x="105.4894" y="207.0669">destination</text></g><!--MD5=[fde096a35828948b7e174fa13ecc9dc7]
link RecicleWaste to Card--><g id="link_RecicleWaste_Card"><path codeLine="36" d="M181.1177,164.043 C200.5997,180.125 228.8507,200.5155 257.4897,211 C303.0917,227.6946 632.7977,253.0094 745.6897,261.2812 " fill="none" id="RecicleWaste-to-Card" style="stroke:#181818;stroke-width:1.0;"/><polygon fill="#181818" points="750.8997,261.6621,742.215,257.017,745.913,261.2978,741.6322,264.9958,750.8997,261.6621" style="stroke:#181818;stroke-width:1.0;"/><text fill="#000000" font-family="sans-serif" font-size="13" lengthAdjust="spacing" textLength="24" x="718.9571" y="256.8103">1..n</text></g><!--MD5=[d6340b8faa3b72a87d88dc15f27b4886]
link FoundationToTableau to Tableau--><g id="link_FoundationToTableau_Tableau"><path codeLine="38" d="M1040.1937,164.101 C1068.9937,178.527 1107.4637,196.9602 1142.4937,211 C1179.3037,225.7572 1221.9837,239.6673 1254.1537,249.5313 " fill="none" id="FoundationToTableau-to-Tableau" style="stroke:#181818;stroke-width:1.0;"/><polygon fill="#181818" points="1259.2137,251.0792,1251.7704,244.6296,1254.4308,249.6218,1249.4386,252.2822,1259.2137,251.0792" style="stroke:#181818;stroke-width:1.0;"/><text fill="#000000" font-family="sans-serif" font-size="13" lengthAdjust="spacing" textLength="35" x="1143.4937" y="207.0669">origin</text></g><!--MD5=[bf548550206f346fe87e5c231485a3b0]
link FoundationToTableau to Foundation--><g id="link_FoundationToTableau_Foundation"><path codeLine="39" d="M993.6797,164.009 C992.8107,177.663 992.0457,195.3148 992.4897,211 C992.7137,218.9342 993.1267,227.5285 993.5757,235.4408 " fill="none" id="FoundationToTableau-to-Foundation" style="stroke:#181818;stroke-width:1.0;"/><polygon fill="#181818" points="993.8907,240.7931,997.3551,231.5737,993.597,235.8017,989.3689,232.0436,993.8907,240.7931" style="stroke:#181818;stroke-width:1.0;"/><text fill="#000000" font-family="sans-serif" font-size="13" lengthAdjust="spacing" textLength="71" x="993.4897" y="207.0669">destination</text></g><!--MD5=[5f0a57e79a42e958650b6e2e403d7f88]
link FoundationToTableau to Card--><g id="link_FoundationToTableau_Card"><path codeLine="40" d="M973.3367,164.071 C958.1237,178.939 936.8827,197.8742 915.4897,211 C885.6667,229.2974 848.4227,243.5756 821.1067,252.6788 " fill="none" id="FoundationToTableau-to-Card" style="stroke:#181818;stroke-width:1.0;"/><polygon fill="#181818" points="816.1257,254.3182,825.9253,255.3019,820.8747,252.754,823.4227,247.7035,816.1257,254.3182" style="stroke:#181818;stroke-width:1.0;"/></g><!--MD5=[873184112aa1ddbae8c24321ba4febe0]
@startuml
class Move
class Stock
class Waste
class Foundation
class Tableau

Move <|- - StockToWaste
Move <|- - WasteToTableau
Move <|- - WasteToFoundation
Move <|- - TableauToTableau
Move <|- - TableauToFoundation
Move <|- - RecicleWaste
Move <|- - FoundationToTableau

StockToWaste - -> Stock : origin
StockToWaste - -> Waste : destination
StockToWaste - -> Card
WasteToTableau - -> Waste : origin
WasteToTableau - -> Tableau : destination
WasteToTableau - -> Card

WasteToFoundation - -> Waste : origin
WasteToFoundation - -> Foundation : destination
WasteToFoundation - -> Card

TableauToTableau - -> Tableau : origin
TableauToTableau - -> Tableau : destination
TableauToTableau - ->"1..13" Card

TableauToFoundation - -> Foundation : origin
TableauToFoundation - -> Tableau : destination
TableauToFoundation - -> Card 

RecicleWaste - -> Stock : origin
RecicleWaste - -> Waste : destination
RecicleWaste - -> "1..n" Card

FoundationToTableau - -> Tableau : origin
FoundationToTableau - -> Foundation : destination
FoundationToTableau - -> Card
@enduml

PlantUML version 1.2022.3beta1(Unknown compile time)
(GPL source distribution)
Java Runtime: Java(TM) SE Runtime Environment
JVM: Java HotSpot(TM) 64-Bit Server VM
Default Encoding: UTF-8
Language: en
Country: US
--></g></svg>