<?xml version="1.0" encoding="UTF-8" standalone="no"?><svg xmlns="http://www.w3.org/2000/svg" xmlns:xlink="http://www.w3.org/1999/xlink" contentStyleType="text/css" height="875px" preserveAspectRatio="none" style="width:1062px;height:875px;background:#FFFFFF;" version="1.1" viewBox="0 0 1062 875" width="1062px" zoomAndPan="magnify"><defs/><g><!--MD5=[ce135f397e71694d574a1221b16fe9d6]
class Klondike--><g id="elem_Klondike"><rect codeLine="1" fill="#F1F1F1" height="48" id="Klondike" rx="2.5" ry="2.5" style="stroke:#181818;stroke-width:0.5;" width="95" x="190" y="7"/><ellipse cx="205" cy="23" fill="#ADD1B2" rx="11" ry="11" style="stroke:#181818;stroke-width:1.0;"/><path d="M207.3438,18.6719 C206.4063,18.2344 205.8125,18.0938 204.9375,18.0938 C202.3125,18.0938 200.3125,20.1719 200.3125,22.8906 L200.3125,24.0156 C200.3125,26.5938 202.4219,28.4844 205.3125,28.4844 C206.5313,28.4844 207.6875,28.1875 208.4375,27.6406 C209.0156,27.2344 209.3438,26.7813 209.3438,26.3906 C209.3438,25.9375 208.9531,25.5469 208.4844,25.5469 C208.2656,25.5469 208.0625,25.625 207.875,25.8125 C207.4219,26.2969 207.4219,26.2969 207.2344,26.3906 C206.8125,26.6563 206.125,26.7813 205.3594,26.7813 C203.3125,26.7813 202.0156,25.6875 202.0156,23.9844 L202.0156,22.8906 C202.0156,21.1094 203.2656,19.7969 205,19.7969 C205.5781,19.7969 206.1875,19.9531 206.6563,20.2031 C207.1406,20.4844 207.3125,20.7031 207.4063,21.1094 C207.4688,21.5156 207.5,21.6406 207.6406,21.7656 C207.7813,21.9063 208.0156,22.0156 208.2344,22.0156 C208.5,22.0156 208.7656,21.875 208.9375,21.6563 C209.0469,21.5 209.0781,21.3125 209.0781,20.8906 L209.0781,19.4688 C209.0781,19.0313 209.0625,18.9063 208.9688,18.75 C208.8125,18.4844 208.5313,18.3438 208.2344,18.3438 C207.9375,18.3438 207.7344,18.4375 207.5156,18.75 L207.3438,18.6719 Z " fill="#000000"/><text fill="#000000" font-family="sans-serif" font-size="14" lengthAdjust="spacing" textLength="63" x="219" y="27.8467">Klondike</text><line style="stroke:#181818;stroke-width:0.5;" x1="191" x2="284" y1="39" y2="39"/><line style="stroke:#181818;stroke-width:0.5;" x1="191" x2="284" y1="47" y2="47"/></g><!--MD5=[2cb47ba637a0d19583e6199456f6ad0b]
class Player--><g id="elem_Player"><rect fill="#F1F1F1" height="48" id="Player" rx="2.5" ry="2.5" style="stroke:#181818;stroke-width:0.5;" width="76" x="290.5" y="116"/><ellipse cx="305.5" cy="132" fill="#ADD1B2" rx="11" ry="11" style="stroke:#181818;stroke-width:1.0;"/><path d="M307.8438,127.6719 C306.9063,127.2344 306.3125,127.0938 305.4375,127.0938 C302.8125,127.0938 300.8125,129.1719 300.8125,131.8906 L300.8125,133.0156 C300.8125,135.5938 302.9219,137.4844 305.8125,137.4844 C307.0313,137.4844 308.1875,137.1875 308.9375,136.6406 C309.5156,136.2344 309.8438,135.7813 309.8438,135.3906 C309.8438,134.9375 309.4531,134.5469 308.9844,134.5469 C308.7656,134.5469 308.5625,134.625 308.375,134.8125 C307.9219,135.2969 307.9219,135.2969 307.7344,135.3906 C307.3125,135.6563 306.625,135.7813 305.8594,135.7813 C303.8125,135.7813 302.5156,134.6875 302.5156,132.9844 L302.5156,131.8906 C302.5156,130.1094 303.7656,128.7969 305.5,128.7969 C306.0781,128.7969 306.6875,128.9531 307.1563,129.2031 C307.6406,129.4844 307.8125,129.7031 307.9063,130.1094 C307.9688,130.5156 308,130.6406 308.1406,130.7656 C308.2813,130.9063 308.5156,131.0156 308.7344,131.0156 C309,131.0156 309.2656,130.875 309.4375,130.6563 C309.5469,130.5 309.5781,130.3125 309.5781,129.8906 L309.5781,128.4688 C309.5781,128.0313 309.5625,127.9063 309.4688,127.75 C309.3125,127.4844 309.0313,127.3438 308.7344,127.3438 C308.4375,127.3438 308.2344,127.4375 308.0156,127.75 L307.8438,127.6719 Z " fill="#000000"/><text fill="#000000" font-family="sans-serif" font-size="14" lengthAdjust="spacing" textLength="44" x="319.5" y="136.8467">Player</text><line style="stroke:#181818;stroke-width:0.5;" x1="291.5" x2="365.5" y1="148" y2="148"/><line style="stroke:#181818;stroke-width:0.5;" x1="291.5" x2="365.5" y1="156" y2="156"/></g><!--MD5=[5e305716458bbdabbd2d7f572ed2bae2]
class Card--><g id="elem_Card"><rect codeLine="16" fill="#F1F1F1" height="64.2969" id="Card" rx="2.5" ry="2.5" style="stroke:#181818;stroke-width:0.5;" width="132" x="709.5" y="381"/><ellipse cx="754.75" cy="397" fill="#ADD1B2" rx="11" ry="11" style="stroke:#181818;stroke-width:1.0;"/><path d="M757.0938,392.6719 C756.1563,392.2344 755.5625,392.0938 754.6875,392.0938 C752.0625,392.0938 750.0625,394.1719 750.0625,396.8906 L750.0625,398.0156 C750.0625,400.5938 752.1719,402.4844 755.0625,402.4844 C756.2813,402.4844 757.4375,402.1875 758.1875,401.6406 C758.7656,401.2344 759.0938,400.7813 759.0938,400.3906 C759.0938,399.9375 758.7031,399.5469 758.2344,399.5469 C758.0156,399.5469 757.8125,399.625 757.625,399.8125 C757.1719,400.2969 757.1719,400.2969 756.9844,400.3906 C756.5625,400.6563 755.875,400.7813 755.1094,400.7813 C753.0625,400.7813 751.7656,399.6875 751.7656,397.9844 L751.7656,396.8906 C751.7656,395.1094 753.0156,393.7969 754.75,393.7969 C755.3281,393.7969 755.9375,393.9531 756.4063,394.2031 C756.8906,394.4844 757.0625,394.7031 757.1563,395.1094 C757.2188,395.5156 757.25,395.6406 757.3906,395.7656 C757.5313,395.9063 757.7656,396.0156 757.9844,396.0156 C758.25,396.0156 758.5156,395.875 758.6875,395.6563 C758.7969,395.5 758.8281,395.3125 758.8281,394.8906 L758.8281,393.4688 C758.8281,393.0313 758.8125,392.9063 758.7188,392.75 C758.5625,392.4844 758.2813,392.3438 757.9844,392.3438 C757.6875,392.3438 757.4844,392.4375 757.2656,392.75 L757.0938,392.6719 Z " fill="#000000"/><text fill="#000000" font-family="sans-serif" font-size="14" lengthAdjust="spacing" textLength="33" x="775.25" y="401.8467">Card</text><line style="stroke:#181818;stroke-width:0.5;" x1="710.5" x2="840.5" y1="413" y2="413"/><text fill="#000000" font-family="sans-serif" font-size="14" lengthAdjust="spacing" textLength="120" x="715.5" y="429.9951">faceup : boolean</text><line style="stroke:#181818;stroke-width:0.5;" x1="710.5" x2="840.5" y1="437.2969" y2="437.2969"/></g><!--MD5=[a4cb0f987c11031dc931233a0e7767af]
class Stock--><g id="elem_Stock"><rect fill="#F1F1F1" height="48" id="Stock" rx="2.5" ry="2.5" style="stroke:#181818;stroke-width:0.5;" width="74" x="124.5" y="530.5"/><ellipse cx="139.5" cy="546.5" fill="#ADD1B2" rx="11" ry="11" style="stroke:#181818;stroke-width:1.0;"/><path d="M141.8438,542.1719 C140.9063,541.7344 140.3125,541.5938 139.4375,541.5938 C136.8125,541.5938 134.8125,543.6719 134.8125,546.3906 L134.8125,547.5156 C134.8125,550.0938 136.9219,551.9844 139.8125,551.9844 C141.0313,551.9844 142.1875,551.6875 142.9375,551.1406 C143.5156,550.7344 143.8438,550.2813 143.8438,549.8906 C143.8438,549.4375 143.4531,549.0469 142.9844,549.0469 C142.7656,549.0469 142.5625,549.125 142.375,549.3125 C141.9219,549.7969 141.9219,549.7969 141.7344,549.8906 C141.3125,550.1563 140.625,550.2813 139.8594,550.2813 C137.8125,550.2813 136.5156,549.1875 136.5156,547.4844 L136.5156,546.3906 C136.5156,544.6094 137.7656,543.2969 139.5,543.2969 C140.0781,543.2969 140.6875,543.4531 141.1563,543.7031 C141.6406,543.9844 141.8125,544.2031 141.9063,544.6094 C141.9688,545.0156 142,545.1406 142.1406,545.2656 C142.2813,545.4063 142.5156,545.5156 142.7344,545.5156 C143,545.5156 143.2656,545.375 143.4375,545.1563 C143.5469,545 143.5781,544.8125 143.5781,544.3906 L143.5781,542.9688 C143.5781,542.5313 143.5625,542.4063 143.4688,542.25 C143.3125,541.9844 143.0313,541.8438 142.7344,541.8438 C142.4375,541.8438 142.2344,541.9375 142.0156,542.25 L141.8438,542.1719 Z " fill="#000000"/><text fill="#000000" font-family="sans-serif" font-size="14" lengthAdjust="spacing" textLength="42" x="153.5" y="551.3467">Stock</text><line style="stroke:#181818;stroke-width:0.5;" x1="125.5" x2="197.5" y1="562.5" y2="562.5"/><line style="stroke:#181818;stroke-width:0.5;" x1="125.5" x2="197.5" y1="570.5" y2="570.5"/></g><!--MD5=[c3c256aac7e3870d53c0042288b21bdc]
class Waste--><g id="elem_Waste"><rect fill="#F1F1F1" height="48" id="Waste" rx="2.5" ry="2.5" style="stroke:#181818;stroke-width:0.5;" width="77" x="7" y="530.5"/><ellipse cx="22" cy="546.5" fill="#ADD1B2" rx="11" ry="11" style="stroke:#181818;stroke-width:1.0;"/><path d="M24.3438,542.1719 C23.4063,541.7344 22.8125,541.5938 21.9375,541.5938 C19.3125,541.5938 17.3125,543.6719 17.3125,546.3906 L17.3125,547.5156 C17.3125,550.0938 19.4219,551.9844 22.3125,551.9844 C23.5313,551.9844 24.6875,551.6875 25.4375,551.1406 C26.0156,550.7344 26.3438,550.2813 26.3438,549.8906 C26.3438,549.4375 25.9531,549.0469 25.4844,549.0469 C25.2656,549.0469 25.0625,549.125 24.875,549.3125 C24.4219,549.7969 24.4219,549.7969 24.2344,549.8906 C23.8125,550.1563 23.125,550.2813 22.3594,550.2813 C20.3125,550.2813 19.0156,549.1875 19.0156,547.4844 L19.0156,546.3906 C19.0156,544.6094 20.2656,543.2969 22,543.2969 C22.5781,543.2969 23.1875,543.4531 23.6563,543.7031 C24.1406,543.9844 24.3125,544.2031 24.4063,544.6094 C24.4688,545.0156 24.5,545.1406 24.6406,545.2656 C24.7813,545.4063 25.0156,545.5156 25.2344,545.5156 C25.5,545.5156 25.7656,545.375 25.9375,545.1563 C26.0469,545 26.0781,544.8125 26.0781,544.3906 L26.0781,542.9688 C26.0781,542.5313 26.0625,542.4063 25.9688,542.25 C25.8125,541.9844 25.5313,541.8438 25.2344,541.8438 C24.9375,541.8438 24.7344,541.9375 24.5156,542.25 L24.3438,542.1719 Z " fill="#000000"/><text fill="#000000" font-family="sans-serif" font-size="14" lengthAdjust="spacing" textLength="45" x="36" y="551.3467">Waste</text><line style="stroke:#181818;stroke-width:0.5;" x1="8" x2="83" y1="562.5" y2="562.5"/><line style="stroke:#181818;stroke-width:0.5;" x1="8" x2="83" y1="570.5" y2="570.5"/></g><!--MD5=[c033d16283544a66478df33ee92fe5a6]
class Tableau--><g id="elem_Tableau"><rect fill="#F1F1F1" height="48" id="Tableau" rx="2.5" ry="2.5" style="stroke:#181818;stroke-width:0.5;" width="88" x="560.5" y="530.5"/><ellipse cx="575.5" cy="546.5" fill="#ADD1B2" rx="11" ry="11" style="stroke:#181818;stroke-width:1.0;"/><path d="M577.8438,542.1719 C576.9063,541.7344 576.3125,541.5938 575.4375,541.5938 C572.8125,541.5938 570.8125,543.6719 570.8125,546.3906 L570.8125,547.5156 C570.8125,550.0938 572.9219,551.9844 575.8125,551.9844 C577.0313,551.9844 578.1875,551.6875 578.9375,551.1406 C579.5156,550.7344 579.8438,550.2813 579.8438,549.8906 C579.8438,549.4375 579.4531,549.0469 578.9844,549.0469 C578.7656,549.0469 578.5625,549.125 578.375,549.3125 C577.9219,549.7969 577.9219,549.7969 577.7344,549.8906 C577.3125,550.1563 576.625,550.2813 575.8594,550.2813 C573.8125,550.2813 572.5156,549.1875 572.5156,547.4844 L572.5156,546.3906 C572.5156,544.6094 573.7656,543.2969 575.5,543.2969 C576.0781,543.2969 576.6875,543.4531 577.1563,543.7031 C577.6406,543.9844 577.8125,544.2031 577.9063,544.6094 C577.9688,545.0156 578,545.1406 578.1406,545.2656 C578.2813,545.4063 578.5156,545.5156 578.7344,545.5156 C579,545.5156 579.2656,545.375 579.4375,545.1563 C579.5469,545 579.5781,544.8125 579.5781,544.3906 L579.5781,542.9688 C579.5781,542.5313 579.5625,542.4063 579.4688,542.25 C579.3125,541.9844 579.0313,541.8438 578.7344,541.8438 C578.4375,541.8438 578.2344,541.9375 578.0156,542.25 L577.8438,542.1719 Z " fill="#000000"/><text fill="#000000" font-family="sans-serif" font-size="14" lengthAdjust="spacing" textLength="56" x="589.5" y="551.3467">Tableau</text><line style="stroke:#181818;stroke-width:0.5;" x1="561.5" x2="647.5" y1="562.5" y2="562.5"/><line style="stroke:#181818;stroke-width:0.5;" x1="561.5" x2="647.5" y1="570.5" y2="570.5"/></g><!--MD5=[d01ad859d436f6e28b36a553834670aa]
class Foundation--><g id="elem_Foundation"><rect fill="#F1F1F1" height="48" id="Foundation" rx="2.5" ry="2.5" style="stroke:#181818;stroke-width:0.5;" width="112" x="252.5" y="530.5"/><ellipse cx="267.5" cy="546.5" fill="#ADD1B2" rx="11" ry="11" style="stroke:#181818;stroke-width:1.0;"/><path d="M269.8438,542.1719 C268.9063,541.7344 268.3125,541.5938 267.4375,541.5938 C264.8125,541.5938 262.8125,543.6719 262.8125,546.3906 L262.8125,547.5156 C262.8125,550.0938 264.9219,551.9844 267.8125,551.9844 C269.0313,551.9844 270.1875,551.6875 270.9375,551.1406 C271.5156,550.7344 271.8438,550.2813 271.8438,549.8906 C271.8438,549.4375 271.4531,549.0469 270.9844,549.0469 C270.7656,549.0469 270.5625,549.125 270.375,549.3125 C269.9219,549.7969 269.9219,549.7969 269.7344,549.8906 C269.3125,550.1563 268.625,550.2813 267.8594,550.2813 C265.8125,550.2813 264.5156,549.1875 264.5156,547.4844 L264.5156,546.3906 C264.5156,544.6094 265.7656,543.2969 267.5,543.2969 C268.0781,543.2969 268.6875,543.4531 269.1563,543.7031 C269.6406,543.9844 269.8125,544.2031 269.9063,544.6094 C269.9688,545.0156 270,545.1406 270.1406,545.2656 C270.2813,545.4063 270.5156,545.5156 270.7344,545.5156 C271,545.5156 271.2656,545.375 271.4375,545.1563 C271.5469,545 271.5781,544.8125 271.5781,544.3906 L271.5781,542.9688 C271.5781,542.5313 271.5625,542.4063 271.4688,542.25 C271.3125,541.9844 271.0313,541.8438 270.7344,541.8438 C270.4375,541.8438 270.2344,541.9375 270.0156,542.25 L269.8438,542.1719 Z " fill="#000000"/><text fill="#000000" font-family="sans-serif" font-size="14" lengthAdjust="spacing" textLength="80" x="281.5" y="551.3467">Foundation</text><line style="stroke:#181818;stroke-width:0.5;" x1="253.5" x2="363.5" y1="562.5" y2="562.5"/><line style="stroke:#181818;stroke-width:0.5;" x1="253.5" x2="363.5" y1="570.5" y2="570.5"/></g><!--MD5=[8afaa0cc9be9ac1cdc24999fa1642fa3]
class Suit--><g id="elem_Suit"><rect codeLine="30" fill="#F1F1F1" height="48" id="Suit" rx="2.5" ry="2.5" style="stroke:#181818;stroke-width:0.5;" width="60" x="811.5" y="530.5"/><ellipse cx="826.5" cy="546.5" fill="#ADD1B2" rx="11" ry="11" style="stroke:#181818;stroke-width:1.0;"/><path d="M828.8438,542.1719 C827.9063,541.7344 827.3125,541.5938 826.4375,541.5938 C823.8125,541.5938 821.8125,543.6719 821.8125,546.3906 L821.8125,547.5156 C821.8125,550.0938 823.9219,551.9844 826.8125,551.9844 C828.0313,551.9844 829.1875,551.6875 829.9375,551.1406 C830.5156,550.7344 830.8438,550.2813 830.8438,549.8906 C830.8438,549.4375 830.4531,549.0469 829.9844,549.0469 C829.7656,549.0469 829.5625,549.125 829.375,549.3125 C828.9219,549.7969 828.9219,549.7969 828.7344,549.8906 C828.3125,550.1563 827.625,550.2813 826.8594,550.2813 C824.8125,550.2813 823.5156,549.1875 823.5156,547.4844 L823.5156,546.3906 C823.5156,544.6094 824.7656,543.2969 826.5,543.2969 C827.0781,543.2969 827.6875,543.4531 828.1563,543.7031 C828.6406,543.9844 828.8125,544.2031 828.9063,544.6094 C828.9688,545.0156 829,545.1406 829.1406,545.2656 C829.2813,545.4063 829.5156,545.5156 829.7344,545.5156 C830,545.5156 830.2656,545.375 830.4375,545.1563 C830.5469,545 830.5781,544.8125 830.5781,544.3906 L830.5781,542.9688 C830.5781,542.5313 830.5625,542.4063 830.4688,542.25 C830.3125,541.9844 830.0313,541.8438 829.7344,541.8438 C829.4375,541.8438 829.2344,541.9375 829.0156,542.25 L828.8438,542.1719 Z " fill="#000000"/><text fill="#000000" font-family="sans-serif" font-size="14" lengthAdjust="spacing" textLength="28" x="840.5" y="551.3467">Suit</text><line style="stroke:#181818;stroke-width:0.5;" x1="812.5" x2="870.5" y1="562.5" y2="562.5"/><line style="stroke:#181818;stroke-width:0.5;" x1="812.5" x2="870.5" y1="570.5" y2="570.5"/></g><!--MD5=[0f690a215a17a0cf4b9f948ca5dd1b3e]
class Rank--><g id="elem_Rank"><rect codeLine="10" fill="#F1F1F1" height="96.8906" id="Rank" rx="2.5" ry="2.5" style="stroke:#181818;stroke-width:0.5;" width="68" x="708.5" y="506"/><ellipse cx="723.5" cy="522" fill="#EB937F" rx="11" ry="11" style="stroke:#181818;stroke-width:1.0;"/><path d="M722.2969,522.875 L723.75,522.875 L723.75,522.9844 C723.75,523.3906 723.7813,523.5469 723.8594,523.7031 C724.0156,523.9531 724.2969,524.1094 724.5938,524.1094 C724.8438,524.1094 725.1094,523.9688 725.2656,523.75 C725.3906,523.5938 725.4219,523.4375 725.4219,522.9844 L725.4219,521.0625 C725.4219,520.9063 725.4219,520.8594 725.4063,520.7031 C725.3438,520.2344 725.0313,519.9219 724.5781,519.9219 C724.3281,519.9219 724.0625,520.0625 723.8906,520.2813 C723.7813,520.4531 723.75,520.6094 723.75,521.0625 L723.75,521.1875 L722.2969,521.1875 L722.2969,518.7813 L726.2813,518.7813 L726.2813,519.6406 C726.2813,520.0469 726.3125,520.2188 726.3906,520.375 C726.5625,520.625 726.8438,520.7813 727.125,520.7813 C727.3906,520.7813 727.6563,520.6406 727.8281,520.4219 C727.9375,520.25 727.9688,520.1094 727.9688,519.6406 L727.9688,517.0938 L720.3438,517.0938 C719.9063,517.0938 719.7813,517.1094 719.625,517.2031 C719.375,517.3594 719.2188,517.6563 719.2188,517.9375 C719.2188,518.2188 719.3594,518.4688 719.5781,518.6406 C719.7344,518.75 719.9219,518.7813 720.3438,518.7813 L720.5938,518.7813 L720.5938,525.2969 L720.3438,525.2969 C719.9375,525.2969 719.7813,525.3125 719.625,525.4219 C719.375,525.5938 719.2188,525.8594 719.2188,526.1563 C719.2188,526.4219 719.3594,526.6719 719.5781,526.8281 C719.7188,526.9531 719.9531,527 720.3438,527 L728.3438,527 L728.3438,524.4219 C728.3438,523.9844 728.3125,523.8438 728.2344,523.6875 C728.0625,523.4375 727.7813,523.2813 727.5,523.2813 C727.2344,523.2813 726.9688,523.3906 726.7969,523.6406 C726.6875,523.7969 726.6563,523.9375 726.6563,524.4219 L726.6563,525.2969 L722.2969,525.2969 L722.2969,522.875 Z " fill="#000000"/><text fill="#000000" font-family="sans-serif" font-size="14" lengthAdjust="spacing" textLength="36" x="737.5" y="526.8467">Rank</text><line style="stroke:#181818;stroke-width:0.5;" x1="709.5" x2="775.5" y1="538" y2="538"/><text fill="#000000" font-family="sans-serif" font-size="14" lengthAdjust="spacing" textLength="15" x="714.5" y="554.9951">as</text><text fill="#000000" font-family="sans-serif" font-size="14" lengthAdjust="spacing" textLength="15" x="714.5" y="571.292">...</text><text fill="#000000" font-family="sans-serif" font-size="14" lengthAdjust="spacing" textLength="31" x="714.5" y="587.5889">king</text><line style="stroke:#181818;stroke-width:0.5;" x1="709.5" x2="775.5" y1="594.8906" y2="594.8906"/></g><!--MD5=[9d65f55e1ae89a5b4cf38812aa4a03f3]
class Pile--><g id="elem_Pile"><rect fill="#F1F1F1" height="48" id="Pile" rx="2.5" ry="2.5" style="stroke:#181818;stroke-width:0.5;" width="58" x="279.5" y="389"/><ellipse cx="294.5" cy="405" fill="#ADD1B2" rx="11" ry="11" style="stroke:#181818;stroke-width:1.0;"/><path d="M296.8438,400.6719 C295.9063,400.2344 295.3125,400.0938 294.4375,400.0938 C291.8125,400.0938 289.8125,402.1719 289.8125,404.8906 L289.8125,406.0156 C289.8125,408.5938 291.9219,410.4844 294.8125,410.4844 C296.0313,410.4844 297.1875,410.1875 297.9375,409.6406 C298.5156,409.2344 298.8438,408.7813 298.8438,408.3906 C298.8438,407.9375 298.4531,407.5469 297.9844,407.5469 C297.7656,407.5469 297.5625,407.625 297.375,407.8125 C296.9219,408.2969 296.9219,408.2969 296.7344,408.3906 C296.3125,408.6563 295.625,408.7813 294.8594,408.7813 C292.8125,408.7813 291.5156,407.6875 291.5156,405.9844 L291.5156,404.8906 C291.5156,403.1094 292.7656,401.7969 294.5,401.7969 C295.0781,401.7969 295.6875,401.9531 296.1563,402.2031 C296.6406,402.4844 296.8125,402.7031 296.9063,403.1094 C296.9688,403.5156 297,403.6406 297.1406,403.7656 C297.2813,403.9063 297.5156,404.0156 297.7344,404.0156 C298,404.0156 298.2656,403.875 298.4375,403.6563 C298.5469,403.5 298.5781,403.3125 298.5781,402.8906 L298.5781,401.4688 C298.5781,401.0313 298.5625,400.9063 298.4688,400.75 C298.3125,400.4844 298.0313,400.3438 297.7344,400.3438 C297.4375,400.3438 297.2344,400.4375 297.0156,400.75 L296.8438,400.6719 Z " fill="#000000"/><text fill="#000000" font-family="sans-serif" font-size="14" lengthAdjust="spacing" textLength="26" x="308.5" y="409.8467">Pile</text><line style="stroke:#181818;stroke-width:0.5;" x1="280.5" x2="336.5" y1="421" y2="421"/><line style="stroke:#181818;stroke-width:0.5;" x1="280.5" x2="336.5" y1="429" y2="429"/></g><!--MD5=[1981719fa3982d92ef7fd3f06d73b3e7]
class Move--><g id="elem_Move"><rect fill="#F1F1F1" height="48" id="Move" rx="2.5" ry="2.5" style="stroke:#181818;stroke-width:0.5;" width="70" x="293.5" y="225"/><ellipse cx="308.5" cy="241" fill="#ADD1B2" rx="11" ry="11" style="stroke:#181818;stroke-width:1.0;"/><path d="M310.8438,236.6719 C309.9063,236.2344 309.3125,236.0938 308.4375,236.0938 C305.8125,236.0938 303.8125,238.1719 303.8125,240.8906 L303.8125,242.0156 C303.8125,244.5938 305.9219,246.4844 308.8125,246.4844 C310.0313,246.4844 311.1875,246.1875 311.9375,245.6406 C312.5156,245.2344 312.8438,244.7813 312.8438,244.3906 C312.8438,243.9375 312.4531,243.5469 311.9844,243.5469 C311.7656,243.5469 311.5625,243.625 311.375,243.8125 C310.9219,244.2969 310.9219,244.2969 310.7344,244.3906 C310.3125,244.6563 309.625,244.7813 308.8594,244.7813 C306.8125,244.7813 305.5156,243.6875 305.5156,241.9844 L305.5156,240.8906 C305.5156,239.1094 306.7656,237.7969 308.5,237.7969 C309.0781,237.7969 309.6875,237.9531 310.1563,238.2031 C310.6406,238.4844 310.8125,238.7031 310.9063,239.1094 C310.9688,239.5156 311,239.6406 311.1406,239.7656 C311.2813,239.9063 311.5156,240.0156 311.7344,240.0156 C312,240.0156 312.2656,239.875 312.4375,239.6563 C312.5469,239.5 312.5781,239.3125 312.5781,238.8906 L312.5781,237.4688 C312.5781,237.0313 312.5625,236.9063 312.4688,236.75 C312.3125,236.4844 312.0313,236.3438 311.7344,236.3438 C311.4375,236.3438 311.2344,236.4375 311.0156,236.75 L310.8438,236.6719 Z " fill="#000000"/><text fill="#000000" font-family="sans-serif" font-size="14" lengthAdjust="spacing" textLength="38" x="322.5" y="245.8467">Move</text><line style="stroke:#181818;stroke-width:0.5;" x1="294.5" x2="362.5" y1="257" y2="257"/><line style="stroke:#181818;stroke-width:0.5;" x1="294.5" x2="362.5" y1="265" y2="265"/></g><!--MD5=[18eee71c88ab61f27581b8cbdd3ef5ee]
class Color--><g id="elem_Color"><rect codeLine="39" fill="#F1F1F1" height="48" id="Color" rx="2.5" ry="2.5" style="stroke:#181818;stroke-width:0.5;" width="70" x="670.5" y="820"/><ellipse cx="685.5" cy="836" fill="#ADD1B2" rx="11" ry="11" style="stroke:#181818;stroke-width:1.0;"/><path d="M687.8438,831.6719 C686.9063,831.2344 686.3125,831.0938 685.4375,831.0938 C682.8125,831.0938 680.8125,833.1719 680.8125,835.8906 L680.8125,837.0156 C680.8125,839.5938 682.9219,841.4844 685.8125,841.4844 C687.0313,841.4844 688.1875,841.1875 688.9375,840.6406 C689.5156,840.2344 689.8438,839.7813 689.8438,839.3906 C689.8438,838.9375 689.4531,838.5469 688.9844,838.5469 C688.7656,838.5469 688.5625,838.625 688.375,838.8125 C687.9219,839.2969 687.9219,839.2969 687.7344,839.3906 C687.3125,839.6563 686.625,839.7813 685.8594,839.7813 C683.8125,839.7813 682.5156,838.6875 682.5156,836.9844 L682.5156,835.8906 C682.5156,834.1094 683.7656,832.7969 685.5,832.7969 C686.0781,832.7969 686.6875,832.9531 687.1563,833.2031 C687.6406,833.4844 687.8125,833.7031 687.9063,834.1094 C687.9688,834.5156 688,834.6406 688.1406,834.7656 C688.2813,834.9063 688.5156,835.0156 688.7344,835.0156 C689,835.0156 689.2656,834.875 689.4375,834.6563 C689.5469,834.5 689.5781,834.3125 689.5781,833.8906 L689.5781,832.4688 C689.5781,832.0313 689.5625,831.9063 689.4688,831.75 C689.3125,831.4844 689.0313,831.3438 688.7344,831.3438 C688.4375,831.3438 688.2344,831.4375 688.0156,831.75 L687.8438,831.6719 Z " fill="#000000"/><text fill="#000000" font-family="sans-serif" font-size="14" lengthAdjust="spacing" textLength="38" x="699.5" y="840.8467">Color</text><line style="stroke:#181818;stroke-width:0.5;" x1="671.5" x2="739.5" y1="852" y2="852"/><line style="stroke:#181818;stroke-width:0.5;" x1="671.5" x2="739.5" y1="860" y2="860"/></g><!--MD5=[9bb5813e59df3e2529d11a5afaed7800]
class Heart--><g id="elem_Heart"><rect fill="#F1F1F1" height="48" id="Heart" rx="2.5" ry="2.5" style="stroke:#181818;stroke-width:0.5;" width="72" x="727.5" y="633"/><ellipse cx="742.5" cy="649" fill="#ADD1B2" rx="11" ry="11" style="stroke:#181818;stroke-width:1.0;"/><path d="M744.8438,644.6719 C743.9063,644.2344 743.3125,644.0938 742.4375,644.0938 C739.8125,644.0938 737.8125,646.1719 737.8125,648.8906 L737.8125,650.0156 C737.8125,652.5938 739.9219,654.4844 742.8125,654.4844 C744.0313,654.4844 745.1875,654.1875 745.9375,653.6406 C746.5156,653.2344 746.8438,652.7813 746.8438,652.3906 C746.8438,651.9375 746.4531,651.5469 745.9844,651.5469 C745.7656,651.5469 745.5625,651.625 745.375,651.8125 C744.9219,652.2969 744.9219,652.2969 744.7344,652.3906 C744.3125,652.6563 743.625,652.7813 742.8594,652.7813 C740.8125,652.7813 739.5156,651.6875 739.5156,649.9844 L739.5156,648.8906 C739.5156,647.1094 740.7656,645.7969 742.5,645.7969 C743.0781,645.7969 743.6875,645.9531 744.1563,646.2031 C744.6406,646.4844 744.8125,646.7031 744.9063,647.1094 C744.9688,647.5156 745,647.6406 745.1406,647.7656 C745.2813,647.9063 745.5156,648.0156 745.7344,648.0156 C746,648.0156 746.2656,647.875 746.4375,647.6563 C746.5469,647.5 746.5781,647.3125 746.5781,646.8906 L746.5781,645.4688 C746.5781,645.0313 746.5625,644.9063 746.4688,644.75 C746.3125,644.4844 746.0313,644.3438 745.7344,644.3438 C745.4375,644.3438 745.2344,644.4375 745.0156,644.75 L744.8438,644.6719 Z " fill="#000000"/><text fill="#000000" font-family="sans-serif" font-size="14" lengthAdjust="spacing" textLength="40" x="756.5" y="653.8467">Heart</text><line style="stroke:#181818;stroke-width:0.5;" x1="728.5" x2="798.5" y1="665" y2="665"/><line style="stroke:#181818;stroke-width:0.5;" x1="728.5" x2="798.5" y1="673" y2="673"/></g><!--MD5=[e07683d003131b9e2f36793e1d14f746]
class Spade--><g id="elem_Spade"><rect fill="#F1F1F1" height="48" id="Spade" rx="2.5" ry="2.5" style="stroke:#181818;stroke-width:0.5;" width="77" x="882" y="633"/><ellipse cx="897" cy="649" fill="#ADD1B2" rx="11" ry="11" style="stroke:#181818;stroke-width:1.0;"/><path d="M899.3438,644.6719 C898.4063,644.2344 897.8125,644.0938 896.9375,644.0938 C894.3125,644.0938 892.3125,646.1719 892.3125,648.8906 L892.3125,650.0156 C892.3125,652.5938 894.4219,654.4844 897.3125,654.4844 C898.5313,654.4844 899.6875,654.1875 900.4375,653.6406 C901.0156,653.2344 901.3438,652.7813 901.3438,652.3906 C901.3438,651.9375 900.9531,651.5469 900.4844,651.5469 C900.2656,651.5469 900.0625,651.625 899.875,651.8125 C899.4219,652.2969 899.4219,652.2969 899.2344,652.3906 C898.8125,652.6563 898.125,652.7813 897.3594,652.7813 C895.3125,652.7813 894.0156,651.6875 894.0156,649.9844 L894.0156,648.8906 C894.0156,647.1094 895.2656,645.7969 897,645.7969 C897.5781,645.7969 898.1875,645.9531 898.6563,646.2031 C899.1406,646.4844 899.3125,646.7031 899.4063,647.1094 C899.4688,647.5156 899.5,647.6406 899.6406,647.7656 C899.7813,647.9063 900.0156,648.0156 900.2344,648.0156 C900.5,648.0156 900.7656,647.875 900.9375,647.6563 C901.0469,647.5 901.0781,647.3125 901.0781,646.8906 L901.0781,645.4688 C901.0781,645.0313 901.0625,644.9063 900.9688,644.75 C900.8125,644.4844 900.5313,644.3438 900.2344,644.3438 C899.9375,644.3438 899.7344,644.4375 899.5156,644.75 L899.3438,644.6719 Z " fill="#000000"/><text fill="#000000" font-family="sans-serif" font-size="14" lengthAdjust="spacing" textLength="45" x="911" y="653.8467">Spade</text><line style="stroke:#181818;stroke-width:0.5;" x1="883" x2="958" y1="665" y2="665"/><line style="stroke:#181818;stroke-width:0.5;" x1="883" x2="958" y1="673" y2="673"/></g><!--MD5=[2a32276ae8faf0cd977a8dc45df70324]
class Diamon--><g id="elem_Diamon"><rect fill="#F1F1F1" height="48" id="Diamon" rx="2.5" ry="2.5" style="stroke:#181818;stroke-width:0.5;" width="87" x="798" y="711"/><ellipse cx="813" cy="727" fill="#ADD1B2" rx="11" ry="11" style="stroke:#181818;stroke-width:1.0;"/><path d="M815.3438,722.6719 C814.4063,722.2344 813.8125,722.0938 812.9375,722.0938 C810.3125,722.0938 808.3125,724.1719 808.3125,726.8906 L808.3125,728.0156 C808.3125,730.5938 810.4219,732.4844 813.3125,732.4844 C814.5313,732.4844 815.6875,732.1875 816.4375,731.6406 C817.0156,731.2344 817.3438,730.7813 817.3438,730.3906 C817.3438,729.9375 816.9531,729.5469 816.4844,729.5469 C816.2656,729.5469 816.0625,729.625 815.875,729.8125 C815.4219,730.2969 815.4219,730.2969 815.2344,730.3906 C814.8125,730.6563 814.125,730.7813 813.3594,730.7813 C811.3125,730.7813 810.0156,729.6875 810.0156,727.9844 L810.0156,726.8906 C810.0156,725.1094 811.2656,723.7969 813,723.7969 C813.5781,723.7969 814.1875,723.9531 814.6563,724.2031 C815.1406,724.4844 815.3125,724.7031 815.4063,725.1094 C815.4688,725.5156 815.5,725.6406 815.6406,725.7656 C815.7813,725.9063 816.0156,726.0156 816.2344,726.0156 C816.5,726.0156 816.7656,725.875 816.9375,725.6563 C817.0469,725.5 817.0781,725.3125 817.0781,724.8906 L817.0781,723.4688 C817.0781,723.0313 817.0625,722.9063 816.9688,722.75 C816.8125,722.4844 816.5313,722.3438 816.2344,722.3438 C815.9375,722.3438 815.7344,722.4375 815.5156,722.75 L815.3438,722.6719 Z " fill="#000000"/><text fill="#000000" font-family="sans-serif" font-size="14" lengthAdjust="spacing" textLength="55" x="827" y="731.8467">Diamon</text><line style="stroke:#181818;stroke-width:0.5;" x1="799" x2="884" y1="743" y2="743"/><line style="stroke:#181818;stroke-width:0.5;" x1="799" x2="884" y1="751" y2="751"/></g><!--MD5=[a7ca736ec2eaa3f5c977a8fac7fd0779]
class Club--><g id="elem_Club"><rect fill="#F1F1F1" height="48" id="Club" rx="2.5" ry="2.5" style="stroke:#181818;stroke-width:0.5;" width="64" x="991.5" y="711"/><ellipse cx="1006.5" cy="727" fill="#ADD1B2" rx="11" ry="11" style="stroke:#181818;stroke-width:1.0;"/><path d="M1008.8438,722.6719 C1007.9063,722.2344 1007.3125,722.0938 1006.4375,722.0938 C1003.8125,722.0938 1001.8125,724.1719 1001.8125,726.8906 L1001.8125,728.0156 C1001.8125,730.5938 1003.9219,732.4844 1006.8125,732.4844 C1008.0313,732.4844 1009.1875,732.1875 1009.9375,731.6406 C1010.5156,731.2344 1010.8438,730.7813 1010.8438,730.3906 C1010.8438,729.9375 1010.4531,729.5469 1009.9844,729.5469 C1009.7656,729.5469 1009.5625,729.625 1009.375,729.8125 C1008.9219,730.2969 1008.9219,730.2969 1008.7344,730.3906 C1008.3125,730.6563 1007.625,730.7813 1006.8594,730.7813 C1004.8125,730.7813 1003.5156,729.6875 1003.5156,727.9844 L1003.5156,726.8906 C1003.5156,725.1094 1004.7656,723.7969 1006.5,723.7969 C1007.0781,723.7969 1007.6875,723.9531 1008.1563,724.2031 C1008.6406,724.4844 1008.8125,724.7031 1008.9063,725.1094 C1008.9688,725.5156 1009,725.6406 1009.1406,725.7656 C1009.2813,725.9063 1009.5156,726.0156 1009.7344,726.0156 C1010,726.0156 1010.2656,725.875 1010.4375,725.6563 C1010.5469,725.5 1010.5781,725.3125 1010.5781,724.8906 L1010.5781,723.4688 C1010.5781,723.0313 1010.5625,722.9063 1010.4688,722.75 C1010.3125,722.4844 1010.0313,722.3438 1009.7344,722.3438 C1009.4375,722.3438 1009.2344,722.4375 1009.0156,722.75 L1008.8438,722.6719 Z " fill="#000000"/><text fill="#000000" font-family="sans-serif" font-size="14" lengthAdjust="spacing" textLength="32" x="1020.5" y="731.8467">Club</text><line style="stroke:#181818;stroke-width:0.5;" x1="992.5" x2="1054.5" y1="743" y2="743"/><line style="stroke:#181818;stroke-width:0.5;" x1="992.5" x2="1054.5" y1="751" y2="751"/></g><!--MD5=[08be530975453a47bdc5b5370100f2fc]
class Red--><g id="elem_Red"><rect fill="#F1F1F1" height="48" id="Red" rx="2.5" ry="2.5" style="stroke:#181818;stroke-width:0.5;" width="60" x="775.5" y="820"/><ellipse cx="790.5" cy="836" fill="#ADD1B2" rx="11" ry="11" style="stroke:#181818;stroke-width:1.0;"/><path d="M792.8438,831.6719 C791.9063,831.2344 791.3125,831.0938 790.4375,831.0938 C787.8125,831.0938 785.8125,833.1719 785.8125,835.8906 L785.8125,837.0156 C785.8125,839.5938 787.9219,841.4844 790.8125,841.4844 C792.0313,841.4844 793.1875,841.1875 793.9375,840.6406 C794.5156,840.2344 794.8438,839.7813 794.8438,839.3906 C794.8438,838.9375 794.4531,838.5469 793.9844,838.5469 C793.7656,838.5469 793.5625,838.625 793.375,838.8125 C792.9219,839.2969 792.9219,839.2969 792.7344,839.3906 C792.3125,839.6563 791.625,839.7813 790.8594,839.7813 C788.8125,839.7813 787.5156,838.6875 787.5156,836.9844 L787.5156,835.8906 C787.5156,834.1094 788.7656,832.7969 790.5,832.7969 C791.0781,832.7969 791.6875,832.9531 792.1563,833.2031 C792.6406,833.4844 792.8125,833.7031 792.9063,834.1094 C792.9688,834.5156 793,834.6406 793.1406,834.7656 C793.2813,834.9063 793.5156,835.0156 793.7344,835.0156 C794,835.0156 794.2656,834.875 794.4375,834.6563 C794.5469,834.5 794.5781,834.3125 794.5781,833.8906 L794.5781,832.4688 C794.5781,832.0313 794.5625,831.9063 794.4688,831.75 C794.3125,831.4844 794.0313,831.3438 793.7344,831.3438 C793.4375,831.3438 793.2344,831.4375 793.0156,831.75 L792.8438,831.6719 Z " fill="#000000"/><text fill="#000000" font-family="sans-serif" font-size="14" lengthAdjust="spacing" textLength="28" x="804.5" y="840.8467">Red</text><line style="stroke:#181818;stroke-width:0.5;" x1="776.5" x2="834.5" y1="852" y2="852"/><line style="stroke:#181818;stroke-width:0.5;" x1="776.5" x2="834.5" y1="860" y2="860"/></g><!--MD5=[365150d8163e865a226452c70cc7ad9f]
class Black--><g id="elem_Black"><rect fill="#F1F1F1" height="48" id="Black" rx="2.5" ry="2.5" style="stroke:#181818;stroke-width:0.5;" width="71" x="903" y="820"/><ellipse cx="918" cy="836" fill="#ADD1B2" rx="11" ry="11" style="stroke:#181818;stroke-width:1.0;"/><path d="M920.3438,831.6719 C919.4063,831.2344 918.8125,831.0938 917.9375,831.0938 C915.3125,831.0938 913.3125,833.1719 913.3125,835.8906 L913.3125,837.0156 C913.3125,839.5938 915.4219,841.4844 918.3125,841.4844 C919.5313,841.4844 920.6875,841.1875 921.4375,840.6406 C922.0156,840.2344 922.3438,839.7813 922.3438,839.3906 C922.3438,838.9375 921.9531,838.5469 921.4844,838.5469 C921.2656,838.5469 921.0625,838.625 920.875,838.8125 C920.4219,839.2969 920.4219,839.2969 920.2344,839.3906 C919.8125,839.6563 919.125,839.7813 918.3594,839.7813 C916.3125,839.7813 915.0156,838.6875 915.0156,836.9844 L915.0156,835.8906 C915.0156,834.1094 916.2656,832.7969 918,832.7969 C918.5781,832.7969 919.1875,832.9531 919.6563,833.2031 C920.1406,833.4844 920.3125,833.7031 920.4063,834.1094 C920.4688,834.5156 920.5,834.6406 920.6406,834.7656 C920.7813,834.9063 921.0156,835.0156 921.2344,835.0156 C921.5,835.0156 921.7656,834.875 921.9375,834.6563 C922.0469,834.5 922.0781,834.3125 922.0781,833.8906 L922.0781,832.4688 C922.0781,832.0313 922.0625,831.9063 921.9688,831.75 C921.8125,831.4844 921.5313,831.3438 921.2344,831.3438 C920.9375,831.3438 920.7344,831.4375 920.5156,831.75 L920.3438,831.6719 Z " fill="#000000"/><text fill="#000000" font-family="sans-serif" font-size="14" lengthAdjust="spacing" textLength="39" x="932" y="840.8467">Black</text><line style="stroke:#181818;stroke-width:0.5;" x1="904" x2="973" y1="852" y2="852"/><line style="stroke:#181818;stroke-width:0.5;" x1="904" x2="973" y1="860" y2="860"/></g><!--MD5=[4c0abcb474b56cdbbfb3c316b5e42628]
class AllCardsToFoundationsGoal--><g id="elem_AllCardsToFoundationsGoal"><rect fill="#F1F1F1" height="48" id="AllCardsToFoundationsGoal" rx="2.5" ry="2.5" style="stroke:#181818;stroke-width:0.5;" width="227" x="407" y="303"/><ellipse cx="422" cy="319" fill="#ADD1B2" rx="11" ry="11" style="stroke:#181818;stroke-width:1.0;"/><path d="M424.3438,314.6719 C423.4063,314.2344 422.8125,314.0938 421.9375,314.0938 C419.3125,314.0938 417.3125,316.1719 417.3125,318.8906 L417.3125,320.0156 C417.3125,322.5938 419.4219,324.4844 422.3125,324.4844 C423.5313,324.4844 424.6875,324.1875 425.4375,323.6406 C426.0156,323.2344 426.3438,322.7813 426.3438,322.3906 C426.3438,321.9375 425.9531,321.5469 425.4844,321.5469 C425.2656,321.5469 425.0625,321.625 424.875,321.8125 C424.4219,322.2969 424.4219,322.2969 424.2344,322.3906 C423.8125,322.6563 423.125,322.7813 422.3594,322.7813 C420.3125,322.7813 419.0156,321.6875 419.0156,319.9844 L419.0156,318.8906 C419.0156,317.1094 420.2656,315.7969 422,315.7969 C422.5781,315.7969 423.1875,315.9531 423.6563,316.2031 C424.1406,316.4844 424.3125,316.7031 424.4063,317.1094 C424.4688,317.5156 424.5,317.6406 424.6406,317.7656 C424.7813,317.9063 425.0156,318.0156 425.2344,318.0156 C425.5,318.0156 425.7656,317.875 425.9375,317.6563 C426.0469,317.5 426.0781,317.3125 426.0781,316.8906 L426.0781,315.4688 C426.0781,315.0313 426.0625,314.9063 425.9688,314.75 C425.8125,314.4844 425.5313,314.3438 425.2344,314.3438 C424.9375,314.3438 424.7344,314.4375 424.5156,314.75 L424.3438,314.6719 Z " fill="#000000"/><text fill="#000000" font-family="sans-serif" font-size="14" lengthAdjust="spacing" textLength="195" x="436" y="323.8467">AllCardsToFoundationsGoal</text><line style="stroke:#181818;stroke-width:0.5;" x1="408" x2="633" y1="335" y2="335"/><line style="stroke:#181818;stroke-width:0.5;" x1="408" x2="633" y1="343" y2="343"/></g><!--MD5=[d0e37a71a001f6053d69fd29d330fd4f]
link Klondike to Player--><g id="link_Klondike_Player"><path codeLine="2" d="M265.0199,64.3584 C265.0199,64.3584 289.224,92.818 300.09,105.595 " fill="none" id="Klondike-Player" style="stroke:#181818;stroke-width:1.0;"/><polygon fill="#181818" points="308.793,115.828,306.0089,106.3808,305.5535,112.0193,299.915,111.564,308.793,115.828" style="stroke:#181818;stroke-width:1.0;"/><line style="stroke:#181818;stroke-width:1.0;" x1="305.5535" x2="300.371" y1="112.0193" y2="105.925"/><polygon fill="#181818" points="257.246,55.217,258.0858,62.379,265.0199,64.3584,264.1801,57.1964,257.246,55.217" style="stroke:#181818;stroke-width:1.0;"/></g><!--MD5=[66e773952485c2ebd2097a6df943c858]
link Klondike to Card--><g id="link_Klondike_Card"><path codeLine="3" d="M297.111,31.3129 C297.111,31.3129 626.276,37.447 683.5,85 C767.696,154.966 778.162,295.393 777.553,367.314 " fill="none" id="Klondike-Card" style="stroke:#181818;stroke-width:1.0;"/><polygon fill="#181818" points="777.302,380.743,781.4694,371.8193,777.3954,375.7439,773.4708,371.6698,777.302,380.743" style="stroke:#181818;stroke-width:1.0;"/><line style="stroke:#181818;stroke-width:1.0;" x1="777.3954" x2="777.545" y1="375.7439" y2="367.745"/><polygon fill="#181818" points="285.111,31.338,291.1193,35.3255,297.111,31.3129,291.1026,27.3255,285.111,31.338" style="stroke:#181818;stroke-width:1.0;"/><text fill="#000000" font-family="sans-serif" font-size="13" lengthAdjust="spacing" textLength="16" x="760.0818" y="369.9666">52</text></g><!--MD5=[d3883b6e5521bc1a4fbc628d87a10151]
link Klondike to Stock--><g id="link_Klondike_Stock"><path codeLine="4" d="M179.4386,59.7052 C179.4386,59.7052 122.5,104.693 122.5,139 C122.5,139 122.5,139 122.5,414 C122.5,450.472 135.017,490.392 145.869,518.148 " fill="none" id="Klondike-Stock" style="stroke:#181818;stroke-width:1.0;"/><polygon fill="#181818" points="150.843,530.357,151.1519,520.513,148.9566,525.7265,143.7431,523.5312,150.843,530.357" style="stroke:#181818;stroke-width:1.0;"/><line style="stroke:#181818;stroke-width:1.0;" x1="148.9566" x2="145.9385" y1="525.7265" y2="518.3185"/><polygon fill="#181818" points="189.729,53.532,182.5261,53.1885,179.4386,59.7052,186.6415,60.0487,189.729,53.532" style="stroke:#181818;stroke-width:1.0;"/></g><!--MD5=[fc362caf7996dc1cff37dff6c24ba86b]
link Klondike to Waste--><g id="link_Klondike_Waste"><path codeLine="5" d="M177.9835,39.0785 C177.9835,39.0785 40.5,76.172 40.5,139 C40.5,139 40.5,139 40.5,414 C40.5,449.037 42.0947,488.991 43.4829,517.135 " fill="none" id="Klondike-Waste" style="stroke:#181818;stroke-width:1.0;"/><polygon fill="#181818" points="44.1601,530.307,47.693,521.1136,43.9035,525.3136,39.7035,521.5241,44.1601,530.307" style="stroke:#181818;stroke-width:1.0;"/><line style="stroke:#181818;stroke-width:1.0;" x1="43.9035" x2="43.4925" y1="525.3136" y2="517.3245"/><polygon fill="#181818" points="189.812,37.057,183.2239,34.1249,177.9835,39.0785,184.5716,42.0106,189.812,37.057" style="stroke:#181818;stroke-width:1.0;"/></g><!--MD5=[b1c209f4aa9271d424a51362b3ae8562]
link Klondike to Tableau--><g id="link_Klondike_Tableau"><path codeLine="6" d="M296.4164,51.1353 C296.4164,51.1353 566.257,165.392 635.5,303 C670.743,373.04 641.578,467.543 620.822,518.099 " fill="none" id="Klondike-Tableau" style="stroke:#181818;stroke-width:1.0;"/><polygon fill="#181818" points="615.641,530.257,622.8496,523.5461,617.6015,525.6574,615.4902,520.4093,615.641,530.257" style="stroke:#181818;stroke-width:1.0;"/><line style="stroke:#181818;stroke-width:1.0;" x1="617.6015" x2="620.7375" y1="525.6574" y2="518.298"/><polygon fill="#181818" points="285.117,47.095,289.4199,52.8816,296.4164,51.1353,292.1135,45.3487,285.117,47.095" style="stroke:#181818;stroke-width:1.0;"/><text fill="#000000" font-family="sans-serif" font-size="13" lengthAdjust="spacing" textLength="8" x="609.3816" y="519.6027">7</text></g><!--MD5=[6a4057357f913d5657fa9fe87f0edd29]
link Klondike to Foundation--><g id="link_Klondike_Foundation"><path codeLine="7" d="M233.7622,67.3144 C233.7622,67.3144 220.205,249.454 234.5,351 C240.559,394.043 246.831,404.083 261.5,445 C270.435,469.921 282.295,497.269 291.866,518.273 " fill="none" id="Klondike-Foundation" style="stroke:#181818;stroke-width:1.0;"/><polygon fill="#181818" points="297.34,530.147,297.2044,520.2991,295.2466,525.6063,289.9393,523.6485,297.34,530.147" style="stroke:#181818;stroke-width:1.0;"/><line style="stroke:#181818;stroke-width:1.0;" x1="295.2466" x2="291.897" y1="525.6063" y2="518.341"/><polygon fill="#181818" points="234.916,55.37,230.3576,60.9576,233.7622,67.3144,238.3206,61.7268,234.916,55.37" style="stroke:#181818;stroke-width:1.0;"/><text fill="#000000" font-family="sans-serif" font-size="13" lengthAdjust="spacing" textLength="8" x="285.6448" y="519.4659">4</text></g><!--MD5=[01ae9f68263e6bc4031c0aece6e20929]
link Card to Suit--><g id="link_Card_Suit"><path codeLine="8" d="M795.4447,456.1539 C795.4447,456.1539 816.011,499.626 824.751,518.099 " fill="none" id="Card-Suit" style="stroke:#181818;stroke-width:1.0;"/><polygon fill="#181818" points="830.434,530.112,830.2006,520.2659,828.2956,525.5923,822.9692,523.6873,830.434,530.112" style="stroke:#181818;stroke-width:1.0;"/><line style="stroke:#181818;stroke-width:1.0;" x1="828.2956" x2="824.875" y1="525.5923" y2="518.36"/><polygon fill="#181818" points="790.312,445.307,789.2627,452.4414,795.4447,456.1539,796.494,449.0196,790.312,445.307" style="stroke:#181818;stroke-width:1.0;"/></g><!--MD5=[dab4fdc688f775bd2cd14c67a04f3f7b]
link Card to Rank--><g id="link_Card_Rank"><path codeLine="9" d="M765.3312,456.9846 C765.3312,456.9846 759.609,481.176 756.843,492.87 " fill="none" id="Card-Rank" style="stroke:#181818;stroke-width:1.0;"/><polygon fill="#181818" points="753.771,505.853,759.7354,498.0156,754.922,500.9873,751.9503,496.1739,753.771,505.853" style="stroke:#181818;stroke-width:1.0;"/><line style="stroke:#181818;stroke-width:1.0;" x1="754.922" x2="756.764" y1="500.9873" y2="493.2025"/><polygon fill="#181818" points="768.094,445.307,762.8201,450.2249,765.3312,456.9846,770.6051,452.0667,768.094,445.307" style="stroke:#181818;stroke-width:1.0;"/></g><!--MD5=[0cc7312144b7b0e8e85651666602557e]
reverse link Pile to Waste--><g id="link_Pile_Waste"><path codeLine="19" d="M260.471,432.156 C218.511,448.876 156.64,475.638 106.5,506 C94.789,513.092 82.7263,522.073 72.4514,530.312 " fill="none" id="Pile-backto-Waste" style="stroke:#181818;stroke-width:1.0;"/><polygon fill="none" points="258.156,425.545,279.331,424.783,263.253,438.584,258.156,425.545" style="stroke:#181818;stroke-width:1.0;"/></g><!--MD5=[a3b0419bdb877a6921c502f7ab916277]
reverse link Pile to Stock--><g id="link_Pile_Stock"><path codeLine="20" d="M269.62,450.896 C243.024,476.135 208.591,508.812 185.81,530.43 " fill="none" id="Pile-backto-Stock" style="stroke:#181818;stroke-width:1.0;"/><polygon fill="none" points="264.9,445.725,284.226,437.036,274.537,455.88,264.9,445.725" style="stroke:#181818;stroke-width:1.0;"/></g><!--MD5=[b0173922ba304e58e67aa3279a656791]
reverse link Pile to Tableau--><g id="link_Pile_Tableau"><path codeLine="21" d="M355.949,436.362 C412.258,462.899 505.403,506.797 560.264,532.652 " fill="none" id="Pile-backto-Tableau" style="stroke:#181818;stroke-width:1.0;"/><polygon fill="none" points="352.799,442.616,337.692,427.758,358.767,429.952,352.799,442.616" style="stroke:#181818;stroke-width:1.0;"/></g><!--MD5=[6d28caff8698f66462643c822ec8500b]
reverse link Pile to Foundation--><g id="link_Pile_Foundation"><path codeLine="22" d="M308.5,457.043 C308.5,481.257 308.5,510.529 308.5,530.43 " fill="none" id="Pile-backto-Foundation" style="stroke:#181818;stroke-width:1.0;"/><polygon fill="none" points="301.5,457.036,308.5,437.036,315.5,457.036,301.5,457.036" style="stroke:#181818;stroke-width:1.0;"/></g><!--MD5=[1686cafc001cbb054836a454f368ddc9]
link Pile to Card--><g id="link_Pile_Card"><path codeLine="23" d="M349.688,413 C349.688,413 580.868,413 695.927,413 " fill="none" id="Pile-Card" style="stroke:#181818;stroke-width:1.0;"/><polygon fill="#181818" points="709.23,413,700.23,409,704.23,413,700.23,417,709.23,413" style="stroke:#181818;stroke-width:1.0;"/><line style="stroke:#181818;stroke-width:1.0;" x1="704.23" x2="696.23" y1="413" y2="413"/><polygon fill="none" points="337.688,413,343.688,417,349.688,413,343.688,409,337.688,413" style="stroke:#181818;stroke-width:1.0;"/><text fill="#000000" font-family="sans-serif" font-size="13" lengthAdjust="spacing" textLength="24" x="677.5253" y="409.3205">0..n</text></g><!--MD5=[7e30d075c7e28ae86a5e6e748d3cd0b6]
link Player to Move--><g id="link_Player_Move"><path codeLine="24" d="M328.5,164.217 C328.5,180.482 328.5,202.315 328.5,219.616 " fill="none" id="Player-to-Move" style="stroke:#181818;stroke-width:1.0;stroke-dasharray:7.0,7.0;"/><polygon fill="#181818" points="328.5,224.828,332.5,215.828,328.5,219.828,324.5,215.828,328.5,224.828" style="stroke:#181818;stroke-width:1.0;"/></g><!--MD5=[610353d3a72395b77e7f561f5987d448]
link Move to Card--><g id="link_Move_Card"><path codeLine="25" d="M363.83,249.557 C425.314,250.108 554.671,257.193 651.5,303 C671.151,312.296 711.051,348.846 740.303,377.087 " fill="none" id="Move-to-Card" style="stroke:#181818;stroke-width:1.0;"/><polygon fill="#181818" points="744.176,380.838,740.4924,371.7039,740.5838,377.3601,734.9277,377.4515,744.176,380.838" style="stroke:#181818;stroke-width:1.0;"/><text fill="#000000" font-family="sans-serif" font-size="13" lengthAdjust="spacing" textLength="32" x="710.5" y="331.5669">1..13</text></g><!--MD5=[9c96613f90e0ef613e532dfde2be76fd]
link Move to Pile--><g id="link_Move_Pile"><path codeLine="26" d="M293.179,263.855 C276.432,272.428 258.038,285.24 248.5,303 C238.407,321.794 240.418,331.257 248.5,351 C254.164,364.835 264.648,377.22 275.286,387.157 " fill="none" id="Move-to-Pile" style="stroke:#181818;stroke-width:1.0;"/><polygon fill="#181818" points="279.204,390.705,275.2177,381.6989,275.4978,387.3488,269.8479,387.6289,279.204,390.705" style="stroke:#181818;stroke-width:1.0;"/><text fill="#000000" font-family="sans-serif" font-size="13" lengthAdjust="spacing" textLength="35" x="249.5" y="331.5669">origin</text></g><!--MD5=[9c96613f90e0ef613e532dfde2be76fd]
link Move to Pile--><g id="link_Move_Pile"><path codeLine="27" d="M322.487,273.077 C320.285,282.322 317.974,293.109 316.5,303 C312.434,330.278 310.406,361.718 309.413,383.8 " fill="none" id="Move-to-Pile-1" style="stroke:#181818;stroke-width:1.0;"/><polygon fill="#181818" points="309.194,388.924,313.5735,380.1024,309.4068,383.9285,305.5807,379.7619,309.194,388.924" style="stroke:#181818;stroke-width:1.0;"/><text fill="#000000" font-family="sans-serif" font-size="13" lengthAdjust="spacing" textLength="71" x="317.5" y="331.5669">destination</text></g><!--MD5=[177767f5f369ddd7a2766db2fec86924]
link Suit to Color--><g id="link_Suit_Color"><path codeLine="28" d="M821.744,578.984 C813.677,587.45 803.82,596.507 793.5,603 C759.946,624.111 732.644,600.814 709.5,633 C670.45,687.306 685.307,771.6046 696.868,815.0337 " fill="none" id="Suit-to-Color" style="stroke:#181818;stroke-width:1.0;"/><polygon fill="#181818" points="698.187,819.8688,699.678,810.1335,696.8714,815.045,691.9599,812.2384,698.187,819.8688" style="stroke:#181818;stroke-width:1.0;"/></g><!--MD5=[4dce8a7c926835c26b617333aef55021]
reverse link Suit to Heart--><g id="link_Suit_Heart"><path codeLine="31" d="M811.16,594.592 C801.163,607.472 790.367,621.383 781.582,632.703 " fill="none" id="Suit-backto-Heart" style="stroke:#181818;stroke-width:1.0;"/><polygon fill="none" points="805.813,590.065,823.605,578.557,816.873,598.648,805.813,590.065" style="stroke:#181818;stroke-width:1.0;"/></g><!--MD5=[87a89b153beae7d393e9829af90018d5]
reverse link Suit to Spade--><g id="link_Suit_Spade"><path codeLine="32" d="M872.229,594.592 C882.354,607.472 893.289,621.383 902.187,632.703 " fill="none" id="Suit-backto-Spade" style="stroke:#181818;stroke-width:1.0;"/><polygon fill="none" points="866.481,598.606,859.624,578.557,877.487,589.954,866.481,598.606" style="stroke:#181818;stroke-width:1.0;"/></g><!--MD5=[3240b0668addca4158fb3cca1bb15e32]
reverse link Suit to Diamon--><g id="link_Suit_Diamon"><path codeLine="33" d="M841.5,599.076 C841.5,634.379 841.5,682.732 841.5,710.941 " fill="none" id="Suit-backto-Diamon" style="stroke:#181818;stroke-width:1.0;"/><polygon fill="none" points="834.5,598.836,841.5,578.836,848.5,598.836,834.5,598.836" style="stroke:#181818;stroke-width:1.0;"/></g><!--MD5=[988cd1dee8ea1cf2960e884b4b0ffb8b]
reverse link Suit to Club--><g id="link_Suit_Club"><path codeLine="34" d="M890.296,574.598 C918.418,587.603 952.784,607.161 976.5,633 C997.163,655.512 1010.22,688.709 1017.19,710.826 " fill="none" id="Suit-backto-Club" style="stroke:#181818;stroke-width:1.0;"/><polygon fill="none" points="887.149,580.863,871.599,566.468,892.732,568.024,887.149,580.863" style="stroke:#181818;stroke-width:1.0;"/></g><!--MD5=[39e04be43e1ad652dcf6d75fa160b251]
link Heart to Red--><g id="link_Heart_Red"><path codeLine="35" d="M766.555,681.023 C769.479,701.598 774.35,732.499 780.5,759 C784.864,777.805 791.043,798.6028 796.166,814.7991 " fill="none" id="Heart-to-Red" style="stroke:#181818;stroke-width:1.0;"/><polygon fill="#181818" points="797.719,819.6705,798.7958,809.8807,796.2,814.9068,791.1739,812.311,797.719,819.6705" style="stroke:#181818;stroke-width:1.0;"/></g><!--MD5=[c24cb79e4d35e118006c9454deabc9d6]
link Diamon to Red--><g id="link_Diamon_Red"><path codeLine="36" d="M833.689,759.217 C828.169,775.6225 820.744,797.692 814.9,815.0619 " fill="none" id="Diamon-to-Red" style="stroke:#181818;stroke-width:1.0;"/><polygon fill="#181818" points="813.296,819.8279,819.9573,812.5735,814.8905,815.089,812.375,810.0222,813.296,819.8279" style="stroke:#181818;stroke-width:1.0;"/></g><!--MD5=[5e71cd03c38ae2dc5991a4eb9d4f46b1]
link Spade to Black--><g id="link_Spade_Black"><path codeLine="37" d="M922.743,681.056 C926.04,714.938 932.187,778.1123 935.75,814.7397 " fill="none" id="Spade-to-Black" style="stroke:#181818;stroke-width:1.0;"/><polygon fill="#181818" points="936.257,819.9444,939.3663,810.5992,935.7726,814.9679,931.404,811.3742,936.257,819.9444" style="stroke:#181818;stroke-width:1.0;"/></g><!--MD5=[378246b792e7d73afd082aeb5825fcc6]
link Club to Black--><g id="link_Club_Black"><path codeLine="38" d="M1005.056,759.217 C991.913,775.7627 974.192,798.0696 960.341,815.5063 " fill="none" id="Club-to-Black" style="stroke:#181818;stroke-width:1.0;"/><polygon fill="#181818" points="956.908,819.8279,965.6386,815.2698,960.0185,815.9132,959.3751,810.293,956.908,819.8279" style="stroke:#181818;stroke-width:1.0;"/></g><!--MD5=[af66b58f2992f2e4db4f382db65f0624]
reverse link Color to Black--><g id="link_Color_Black"><path codeLine="40" d="M743.83,806.7693 C753.315,799.6943 763.949,793.3163 775,789.5 C820.11,773.9223 872.477,798.9121 905.547,819.9655 " fill="none" id="Color-backto-Black" style="stroke:#181818;stroke-width:1.0;"/><polygon fill="none" points="747.996,812.41,728.158,819.8544,739.024,801.6631,747.996,812.41" style="stroke:#181818;stroke-width:1.0;"/></g><!--MD5=[fab54b5999e935266d298ad54749f91a]
reverse link Color to Red--><g id="link_Color_Red"><path codeLine="41" d="M760.718,844 C765.598,844 770.478,844 775.358,844 " fill="none" id="Color-backto-Red" style="stroke:#181818;stroke-width:1.0;"/><polygon fill="none" points="760.656,850.9999,740.656,844,760.656,836.9999,760.656,850.9999" style="stroke:#181818;stroke-width:1.0;"/></g><!--MD5=[0c4ac1459b76e36ae8c72ba408689077]
link Player to AllCardsToFoundationsGoal--><g id="link_Player_AllCardsToFoundationsGoal"><path codeLine="42" d="M352.429,164.056 C388.025,198.354 454.774,262.67 492.56,299.079 " fill="none" id="Player-to-AllCardsToFoundationsGoal" style="stroke:#181818;stroke-width:1.0;"/><polygon fill="#181818" points="496.572,302.944,492.8681,293.8182,492.9721,299.4741,487.3162,299.5781,496.572,302.944" style="stroke:#181818;stroke-width:1.0;"/></g><!--MD5=[8214be69222729de39b9e1657fe05db9]
link AllCardsToFoundationsGoal to Foundation--><g id="link_AllCardsToFoundationsGoal_Foundation"><path codeLine="43" d="M498.611,351.283 C458.994,393.422 375.632,482.094 333.706,526.689 " fill="none" id="AllCardsToFoundationsGoal-to-Foundation" style="stroke:#181818;stroke-width:1.0;"/><polygon fill="#181818" points="330.27,530.344,339.3487,526.526,333.6946,526.7009,333.5197,521.0467,330.27,530.344" style="stroke:#181818;stroke-width:1.0;"/><text fill="#000000" font-family="sans-serif" font-size="13" lengthAdjust="spacing" textLength="8" x="326.8236" y="519.3161">4</text></g><!--MD5=[4dfba0cea188a793d42ba6e1a02f47b0]
@startuml
class Klondike
Klondike *-down-> Player
Klondike *-down-> "52"Card
Klondike *-down-> Stock
Klondike *-down-> Waste
Klondike *-down-> "7"Tableau
Klondike *-down-> "4" Foundation
Card *-down-> Suit
Card *-down-> Rank
enum Rank{
as
...
king
}

class Card{
faceup : boolean
}
Pile <|-down-Waste
Pile <|-down- Stock
Pile <|-down- Tableau
Pile <|-down- Foundation
Pile o-right->"0..n" Card
Player ..> Move
Move - -> Card : 1..13
Move -down-> Pile : origin
Move -down-> Pile : destination
Suit - -down-> Color
enum Color
Class Suit
Suit <|- Heart
Suit <|- Spade
Suit <|- Diamon
Suit <|- Club
Heart - -> Red
Diamon - -> Red
Spade - -> Black
Club - -> Black
class Color
Color <|-down Black
Color <|-down Red
Player - -> AllCardsToFoundationsGoal
AllCardsToFoundationsGoal - -> "4"Foundation
@enduml

PlantUML version 1.2022.3beta1(Unknown compile time)
(GPL source distribution)
Java Runtime: Java(TM) SE Runtime Environment
JVM: Java HotSpot(TM) 64-Bit Server VM
Default Encoding: UTF-8
Language: en
Country: US
--></g></svg>