<?xml version="1.0" encoding="UTF-8" standalone="no"?><svg xmlns="http://www.w3.org/2000/svg" xmlns:xlink="http://www.w3.org/1999/xlink" contentStyleType="text/css" height="758px" preserveAspectRatio="none" style="width:762px;height:758px;background:#FFFFFF;" version="1.1" viewBox="0 0 762 758" width="762px" zoomAndPan="magnify"><defs/><g><!--MD5=[10b1f240992e2c34b6908209bf85bfd2]
class Connect4--><g id="elem_Connect4"><rect codeLine="1" fill="#F1F1F1" height="48" id="Connect4" rx="2.5" ry="2.5" style="stroke:#181818;stroke-width:0.5;" width="101" x="78.5" y="7"/><ellipse cx="93.5" cy="23" fill="#ADD1B2" rx="11" ry="11" style="stroke:#181818;stroke-width:1.0;"/><path d="M95.8438,18.6719 C94.9063,18.2344 94.3125,18.0938 93.4375,18.0938 C90.8125,18.0938 88.8125,20.1719 88.8125,22.8906 L88.8125,24.0156 C88.8125,26.5938 90.9219,28.4844 93.8125,28.4844 C95.0313,28.4844 96.1875,28.1875 96.9375,27.6406 C97.5156,27.2344 97.8438,26.7813 97.8438,26.3906 C97.8438,25.9375 97.4531,25.5469 96.9844,25.5469 C96.7656,25.5469 96.5625,25.625 96.375,25.8125 C95.9219,26.2969 95.9219,26.2969 95.7344,26.3906 C95.3125,26.6563 94.625,26.7813 93.8594,26.7813 C91.8125,26.7813 90.5156,25.6875 90.5156,23.9844 L90.5156,22.8906 C90.5156,21.1094 91.7656,19.7969 93.5,19.7969 C94.0781,19.7969 94.6875,19.9531 95.1563,20.2031 C95.6406,20.4844 95.8125,20.7031 95.9063,21.1094 C95.9688,21.5156 96,21.6406 96.1406,21.7656 C96.2813,21.9063 96.5156,22.0156 96.7344,22.0156 C97,22.0156 97.2656,21.875 97.4375,21.6563 C97.5469,21.5 97.5781,21.3125 97.5781,20.8906 L97.5781,19.4688 C97.5781,19.0313 97.5625,18.9063 97.4688,18.75 C97.3125,18.4844 97.0313,18.3438 96.7344,18.3438 C96.4375,18.3438 96.2344,18.4375 96.0156,18.75 L95.8438,18.6719 Z " fill="#000000"/><text fill="#000000" font-family="sans-serif" font-size="14" lengthAdjust="spacing" textLength="69" x="107.5" y="27.8467">Connect4</text><line style="stroke:#181818;stroke-width:0.5;" x1="79.5" x2="178.5" y1="39" y2="39"/><line style="stroke:#181818;stroke-width:0.5;" x1="79.5" x2="178.5" y1="47" y2="47"/></g><!--MD5=[dd91eae41778c45e12552e5329e240e8]
class Turn--><g id="elem_Turn"><rect codeLine="2" fill="#F1F1F1" height="48" id="Turn" rx="2.5" ry="2.5" style="stroke:#181818;stroke-width:0.5;" width="64" x="97" y="115"/><ellipse cx="112" cy="131" fill="#ADD1B2" rx="11" ry="11" style="stroke:#181818;stroke-width:1.0;"/><path d="M114.3438,126.6719 C113.4063,126.2344 112.8125,126.0938 111.9375,126.0938 C109.3125,126.0938 107.3125,128.1719 107.3125,130.8906 L107.3125,132.0156 C107.3125,134.5938 109.4219,136.4844 112.3125,136.4844 C113.5313,136.4844 114.6875,136.1875 115.4375,135.6406 C116.0156,135.2344 116.3438,134.7813 116.3438,134.3906 C116.3438,133.9375 115.9531,133.5469 115.4844,133.5469 C115.2656,133.5469 115.0625,133.625 114.875,133.8125 C114.4219,134.2969 114.4219,134.2969 114.2344,134.3906 C113.8125,134.6563 113.125,134.7813 112.3594,134.7813 C110.3125,134.7813 109.0156,133.6875 109.0156,131.9844 L109.0156,130.8906 C109.0156,129.1094 110.2656,127.7969 112,127.7969 C112.5781,127.7969 113.1875,127.9531 113.6563,128.2031 C114.1406,128.4844 114.3125,128.7031 114.4063,129.1094 C114.4688,129.5156 114.5,129.6406 114.6406,129.7656 C114.7813,129.9063 115.0156,130.0156 115.2344,130.0156 C115.5,130.0156 115.7656,129.875 115.9375,129.6563 C116.0469,129.5 116.0781,129.3125 116.0781,128.8906 L116.0781,127.4688 C116.0781,127.0313 116.0625,126.9063 115.9688,126.75 C115.8125,126.4844 115.5313,126.3438 115.2344,126.3438 C114.9375,126.3438 114.7344,126.4375 114.5156,126.75 L114.3438,126.6719 Z " fill="#000000"/><text fill="#000000" font-family="sans-serif" font-size="14" lengthAdjust="spacing" textLength="32" x="126" y="135.8467">Turn</text><line style="stroke:#181818;stroke-width:0.5;" x1="98" x2="160" y1="147" y2="147"/><line style="stroke:#181818;stroke-width:0.5;" x1="98" x2="160" y1="155" y2="155"/></g><!--MD5=[9563755d011c5cec7ec66dc53565a59e]
class Board--><g id="elem_Board"><rect codeLine="3" fill="#F1F1F1" height="48" id="Board" rx="2.5" ry="2.5" style="stroke:#181818;stroke-width:0.5;" width="74" x="7" y="331"/><ellipse cx="22" cy="347" fill="#ADD1B2" rx="11" ry="11" style="stroke:#181818;stroke-width:1.0;"/><path d="M24.3438,342.6719 C23.4063,342.2344 22.8125,342.0938 21.9375,342.0938 C19.3125,342.0938 17.3125,344.1719 17.3125,346.8906 L17.3125,348.0156 C17.3125,350.5938 19.4219,352.4844 22.3125,352.4844 C23.5313,352.4844 24.6875,352.1875 25.4375,351.6406 C26.0156,351.2344 26.3438,350.7813 26.3438,350.3906 C26.3438,349.9375 25.9531,349.5469 25.4844,349.5469 C25.2656,349.5469 25.0625,349.625 24.875,349.8125 C24.4219,350.2969 24.4219,350.2969 24.2344,350.3906 C23.8125,350.6563 23.125,350.7813 22.3594,350.7813 C20.3125,350.7813 19.0156,349.6875 19.0156,347.9844 L19.0156,346.8906 C19.0156,345.1094 20.2656,343.7969 22,343.7969 C22.5781,343.7969 23.1875,343.9531 23.6563,344.2031 C24.1406,344.4844 24.3125,344.7031 24.4063,345.1094 C24.4688,345.5156 24.5,345.6406 24.6406,345.7656 C24.7813,345.9063 25.0156,346.0156 25.2344,346.0156 C25.5,346.0156 25.7656,345.875 25.9375,345.6563 C26.0469,345.5 26.0781,345.3125 26.0781,344.8906 L26.0781,343.4688 C26.0781,343.0313 26.0625,342.9063 25.9688,342.75 C25.8125,342.4844 25.5313,342.3438 25.2344,342.3438 C24.9375,342.3438 24.7344,342.4375 24.5156,342.75 L24.3438,342.6719 Z " fill="#000000"/><text fill="#000000" font-family="sans-serif" font-size="14" lengthAdjust="spacing" textLength="42" x="36" y="351.8467">Board</text><line style="stroke:#181818;stroke-width:0.5;" x1="8" x2="80" y1="363" y2="363"/><line style="stroke:#181818;stroke-width:0.5;" x1="8" x2="80" y1="371" y2="371"/></g><!--MD5=[2cb47ba637a0d19583e6199456f6ad0b]
class Player--><g id="elem_Player"><rect codeLine="4" fill="#F1F1F1" height="48" id="Player" rx="2.5" ry="2.5" style="stroke:#181818;stroke-width:0.5;" width="76" x="158" y="223"/><ellipse cx="173" cy="239" fill="#ADD1B2" rx="11" ry="11" style="stroke:#181818;stroke-width:1.0;"/><path d="M175.3438,234.6719 C174.4063,234.2344 173.8125,234.0938 172.9375,234.0938 C170.3125,234.0938 168.3125,236.1719 168.3125,238.8906 L168.3125,240.0156 C168.3125,242.5938 170.4219,244.4844 173.3125,244.4844 C174.5313,244.4844 175.6875,244.1875 176.4375,243.6406 C177.0156,243.2344 177.3438,242.7813 177.3438,242.3906 C177.3438,241.9375 176.9531,241.5469 176.4844,241.5469 C176.2656,241.5469 176.0625,241.625 175.875,241.8125 C175.4219,242.2969 175.4219,242.2969 175.2344,242.3906 C174.8125,242.6563 174.125,242.7813 173.3594,242.7813 C171.3125,242.7813 170.0156,241.6875 170.0156,239.9844 L170.0156,238.8906 C170.0156,237.1094 171.2656,235.7969 173,235.7969 C173.5781,235.7969 174.1875,235.9531 174.6563,236.2031 C175.1406,236.4844 175.3125,236.7031 175.4063,237.1094 C175.4688,237.5156 175.5,237.6406 175.6406,237.7656 C175.7813,237.9063 176.0156,238.0156 176.2344,238.0156 C176.5,238.0156 176.7656,237.875 176.9375,237.6563 C177.0469,237.5 177.0781,237.3125 177.0781,236.8906 L177.0781,235.4688 C177.0781,235.0313 177.0625,234.9063 176.9688,234.75 C176.8125,234.4844 176.5313,234.3438 176.2344,234.3438 C175.9375,234.3438 175.7344,234.4375 175.5156,234.75 L175.3438,234.6719 Z " fill="#000000"/><text fill="#000000" font-family="sans-serif" font-size="14" lengthAdjust="spacing" textLength="44" x="187" y="243.8467">Player</text><line style="stroke:#181818;stroke-width:0.5;" x1="159" x2="233" y1="255" y2="255"/><line style="stroke:#181818;stroke-width:0.5;" x1="159" x2="233" y1="263" y2="263"/></g><!--MD5=[5655ee3e2a0d028d03fe20f829576392]
class Square--><g id="elem_Square"><rect codeLine="28" fill="#F1F1F1" height="64.2969" id="Square" rx="2.5" ry="2.5" style="stroke:#181818;stroke-width:0.5;" width="131" x="317.5" y="547"/><ellipse cx="355" cy="563" fill="#ADD1B2" rx="11" ry="11" style="stroke:#181818;stroke-width:1.0;"/><path d="M357.3438,558.6719 C356.4063,558.2344 355.8125,558.0938 354.9375,558.0938 C352.3125,558.0938 350.3125,560.1719 350.3125,562.8906 L350.3125,564.0156 C350.3125,566.5938 352.4219,568.4844 355.3125,568.4844 C356.5313,568.4844 357.6875,568.1875 358.4375,567.6406 C359.0156,567.2344 359.3438,566.7813 359.3438,566.3906 C359.3438,565.9375 358.9531,565.5469 358.4844,565.5469 C358.2656,565.5469 358.0625,565.625 357.875,565.8125 C357.4219,566.2969 357.4219,566.2969 357.2344,566.3906 C356.8125,566.6563 356.125,566.7813 355.3594,566.7813 C353.3125,566.7813 352.0156,565.6875 352.0156,563.9844 L352.0156,562.8906 C352.0156,561.1094 353.2656,559.7969 355,559.7969 C355.5781,559.7969 356.1875,559.9531 356.6563,560.2031 C357.1406,560.4844 357.3125,560.7031 357.4063,561.1094 C357.4688,561.5156 357.5,561.6406 357.6406,561.7656 C357.7813,561.9063 358.0156,562.0156 358.2344,562.0156 C358.5,562.0156 358.7656,561.875 358.9375,561.6563 C359.0469,561.5 359.0781,561.3125 359.0781,560.8906 L359.0781,559.4688 C359.0781,559.0313 359.0625,558.9063 358.9688,558.75 C358.8125,558.4844 358.5313,558.3438 358.2344,558.3438 C357.9375,558.3438 357.7344,558.4375 357.5156,558.75 L357.3438,558.6719 Z " fill="#000000"/><text fill="#000000" font-family="sans-serif" font-size="14" lengthAdjust="spacing" textLength="49" x="374" y="567.8467">Square</text><line style="stroke:#181818;stroke-width:0.5;" x1="318.5" x2="447.5" y1="579" y2="579"/><text fill="#000000" font-family="sans-serif" font-size="14" lengthAdjust="spacing" textLength="119" x="323.5" y="595.9951">empty : boolean</text><line style="stroke:#181818;stroke-width:0.5;" x1="318.5" x2="447.5" y1="603.2969" y2="603.2969"/></g><!--MD5=[d8c8cfd5ca149094f5b67f9f607a5ec7]
class Token--><g id="elem_Token"><rect codeLine="6" fill="#F1F1F1" height="48" id="Token" rx="2.5" ry="2.5" style="stroke:#181818;stroke-width:0.5;" width="77" x="610.5" y="555"/><ellipse cx="625.5" cy="571" fill="#ADD1B2" rx="11" ry="11" style="stroke:#181818;stroke-width:1.0;"/><path d="M627.8438,566.6719 C626.9063,566.2344 626.3125,566.0938 625.4375,566.0938 C622.8125,566.0938 620.8125,568.1719 620.8125,570.8906 L620.8125,572.0156 C620.8125,574.5938 622.9219,576.4844 625.8125,576.4844 C627.0313,576.4844 628.1875,576.1875 628.9375,575.6406 C629.5156,575.2344 629.8438,574.7813 629.8438,574.3906 C629.8438,573.9375 629.4531,573.5469 628.9844,573.5469 C628.7656,573.5469 628.5625,573.625 628.375,573.8125 C627.9219,574.2969 627.9219,574.2969 627.7344,574.3906 C627.3125,574.6563 626.625,574.7813 625.8594,574.7813 C623.8125,574.7813 622.5156,573.6875 622.5156,571.9844 L622.5156,570.8906 C622.5156,569.1094 623.7656,567.7969 625.5,567.7969 C626.0781,567.7969 626.6875,567.9531 627.1563,568.2031 C627.6406,568.4844 627.8125,568.7031 627.9063,569.1094 C627.9688,569.5156 628,569.6406 628.1406,569.7656 C628.2813,569.9063 628.5156,570.0156 628.7344,570.0156 C629,570.0156 629.2656,569.875 629.4375,569.6563 C629.5469,569.5 629.5781,569.3125 629.5781,568.8906 L629.5781,567.4688 C629.5781,567.0313 629.5625,566.9063 629.4688,566.75 C629.3125,566.4844 629.0313,566.3438 628.7344,566.3438 C628.4375,566.3438 628.2344,566.4375 628.0156,566.75 L627.8438,566.6719 Z " fill="#000000"/><text fill="#000000" font-family="sans-serif" font-size="14" lengthAdjust="spacing" textLength="45" x="639.5" y="575.8467">Token</text><line style="stroke:#181818;stroke-width:0.5;" x1="611.5" x2="686.5" y1="587" y2="587"/><line style="stroke:#181818;stroke-width:0.5;" x1="611.5" x2="686.5" y1="595" y2="595"/></g><!--MD5=[159d3fd61928b2693d7ec9cc356bb569]
class Connet4Goal--><g id="elem_Connet4Goal"><rect codeLine="7" fill="#F1F1F1" height="48" id="Connet4Goal" rx="2.5" ry="2.5" style="stroke:#181818;stroke-width:0.5;" width="125" x="116.5" y="331"/><ellipse cx="131.5" cy="347" fill="#ADD1B2" rx="11" ry="11" style="stroke:#181818;stroke-width:1.0;"/><path d="M133.8438,342.6719 C132.9063,342.2344 132.3125,342.0938 131.4375,342.0938 C128.8125,342.0938 126.8125,344.1719 126.8125,346.8906 L126.8125,348.0156 C126.8125,350.5938 128.9219,352.4844 131.8125,352.4844 C133.0313,352.4844 134.1875,352.1875 134.9375,351.6406 C135.5156,351.2344 135.8438,350.7813 135.8438,350.3906 C135.8438,349.9375 135.4531,349.5469 134.9844,349.5469 C134.7656,349.5469 134.5625,349.625 134.375,349.8125 C133.9219,350.2969 133.9219,350.2969 133.7344,350.3906 C133.3125,350.6563 132.625,350.7813 131.8594,350.7813 C129.8125,350.7813 128.5156,349.6875 128.5156,347.9844 L128.5156,346.8906 C128.5156,345.1094 129.7656,343.7969 131.5,343.7969 C132.0781,343.7969 132.6875,343.9531 133.1563,344.2031 C133.6406,344.4844 133.8125,344.7031 133.9063,345.1094 C133.9688,345.5156 134,345.6406 134.1406,345.7656 C134.2813,345.9063 134.5156,346.0156 134.7344,346.0156 C135,346.0156 135.2656,345.875 135.4375,345.6563 C135.5469,345.5 135.5781,345.3125 135.5781,344.8906 L135.5781,343.4688 C135.5781,343.0313 135.5625,342.9063 135.4688,342.75 C135.3125,342.4844 135.0313,342.3438 134.7344,342.3438 C134.4375,342.3438 134.2344,342.4375 134.0156,342.75 L133.8438,342.6719 Z " fill="#000000"/><text fill="#000000" font-family="sans-serif" font-size="14" lengthAdjust="spacing" textLength="93" x="145.5" y="351.8467">Connet4Goal</text><line style="stroke:#181818;stroke-width:0.5;" x1="117.5" x2="240.5" y1="363" y2="363"/><line style="stroke:#181818;stroke-width:0.5;" x1="117.5" x2="240.5" y1="371" y2="371"/></g><!--MD5=[18eee71c88ab61f27581b8cbdd3ef5ee]
class Color--><g id="elem_Color"><rect codeLine="20" fill="#F1F1F1" height="80.5938" id="Color" rx="2.5" ry="2.5" style="stroke:#181818;stroke-width:0.5;" width="70" x="614" y="671"/><ellipse cx="629" cy="687" fill="#EB937F" rx="11" ry="11" style="stroke:#181818;stroke-width:1.0;"/><path d="M627.7969,687.875 L629.25,687.875 L629.25,687.9844 C629.25,688.3906 629.2813,688.5469 629.3594,688.7031 C629.5156,688.9531 629.7969,689.1094 630.0938,689.1094 C630.3438,689.1094 630.6094,688.9688 630.7656,688.75 C630.8906,688.5938 630.9219,688.4375 630.9219,687.9844 L630.9219,686.0625 C630.9219,685.9063 630.9219,685.8594 630.9063,685.7031 C630.8438,685.2344 630.5313,684.9219 630.0781,684.9219 C629.8281,684.9219 629.5625,685.0625 629.3906,685.2813 C629.2813,685.4531 629.25,685.6094 629.25,686.0625 L629.25,686.1875 L627.7969,686.1875 L627.7969,683.7813 L631.7813,683.7813 L631.7813,684.6406 C631.7813,685.0469 631.8125,685.2188 631.8906,685.375 C632.0625,685.625 632.3438,685.7813 632.625,685.7813 C632.8906,685.7813 633.1563,685.6406 633.3281,685.4219 C633.4375,685.25 633.4688,685.1094 633.4688,684.6406 L633.4688,682.0938 L625.8438,682.0938 C625.4063,682.0938 625.2813,682.1094 625.125,682.2031 C624.875,682.3594 624.7188,682.6563 624.7188,682.9375 C624.7188,683.2188 624.8594,683.4688 625.0781,683.6406 C625.2344,683.75 625.4219,683.7813 625.8438,683.7813 L626.0938,683.7813 L626.0938,690.2969 L625.8438,690.2969 C625.4375,690.2969 625.2813,690.3125 625.125,690.4219 C624.875,690.5938 624.7188,690.8594 624.7188,691.1563 C624.7188,691.4219 624.8594,691.6719 625.0781,691.8281 C625.2188,691.9531 625.4531,692 625.8438,692 L633.8438,692 L633.8438,689.4219 C633.8438,688.9844 633.8125,688.8438 633.7344,688.6875 C633.5625,688.4375 633.2813,688.2813 633,688.2813 C632.7344,688.2813 632.4688,688.3906 632.2969,688.6406 C632.1875,688.7969 632.1563,688.9375 632.1563,689.4219 L632.1563,690.2969 L627.7969,690.2969 L627.7969,687.875 Z " fill="#000000"/><text fill="#000000" font-family="sans-serif" font-size="14" lengthAdjust="spacing" textLength="38" x="643" y="691.8467">Color</text><line style="stroke:#181818;stroke-width:0.5;" x1="615" x2="683" y1="703" y2="703"/><text fill="#000000" font-family="sans-serif" font-size="14" lengthAdjust="spacing" textLength="24" x="620" y="719.9951">red</text><text fill="#000000" font-family="sans-serif" font-size="14" lengthAdjust="spacing" textLength="45" x="620" y="736.292">yellow</text><line style="stroke:#181818;stroke-width:0.5;" x1="615" x2="683" y1="743.5938" y2="743.5938"/></g><!--MD5=[80913b1cc667c5997af01db625a44293]
class Put--><g id="elem_Put"><rect fill="#F1F1F1" height="48" id="Put" rx="2.5" ry="2.5" style="stroke:#181818;stroke-width:0.5;" width="56" x="409" y="439"/><ellipse cx="424" cy="455" fill="#ADD1B2" rx="11" ry="11" style="stroke:#181818;stroke-width:1.0;"/><path d="M426.3438,450.6719 C425.4063,450.2344 424.8125,450.0938 423.9375,450.0938 C421.3125,450.0938 419.3125,452.1719 419.3125,454.8906 L419.3125,456.0156 C419.3125,458.5938 421.4219,460.4844 424.3125,460.4844 C425.5313,460.4844 426.6875,460.1875 427.4375,459.6406 C428.0156,459.2344 428.3438,458.7813 428.3438,458.3906 C428.3438,457.9375 427.9531,457.5469 427.4844,457.5469 C427.2656,457.5469 427.0625,457.625 426.875,457.8125 C426.4219,458.2969 426.4219,458.2969 426.2344,458.3906 C425.8125,458.6563 425.125,458.7813 424.3594,458.7813 C422.3125,458.7813 421.0156,457.6875 421.0156,455.9844 L421.0156,454.8906 C421.0156,453.1094 422.2656,451.7969 424,451.7969 C424.5781,451.7969 425.1875,451.9531 425.6563,452.2031 C426.1406,452.4844 426.3125,452.7031 426.4063,453.1094 C426.4688,453.5156 426.5,453.6406 426.6406,453.7656 C426.7813,453.9063 427.0156,454.0156 427.2344,454.0156 C427.5,454.0156 427.7656,453.875 427.9375,453.6563 C428.0469,453.5 428.0781,453.3125 428.0781,452.8906 L428.0781,451.4688 C428.0781,451.0313 428.0625,450.9063 427.9688,450.75 C427.8125,450.4844 427.5313,450.3438 427.2344,450.3438 C426.9375,450.3438 426.7344,450.4375 426.5156,450.75 L426.3438,450.6719 Z " fill="#000000"/><text fill="#000000" font-family="sans-serif" font-size="14" lengthAdjust="spacing" textLength="24" x="438" y="459.8467">Put</text><line style="stroke:#181818;stroke-width:0.5;" x1="410" x2="464" y1="471" y2="471"/><line style="stroke:#181818;stroke-width:0.5;" x1="410" x2="464" y1="479" y2="479"/></g><!--MD5=[31b5ae40478c4e9e86c1d56782efcc17]
class 4InRow--><g id="elem_4InRow"><rect fill="#F1F1F1" height="48" id="4InRow" rx="2.5" ry="2.5" style="stroke:#181818;stroke-width:0.5;" width="83" x="568.5" y="331"/><ellipse cx="583.5" cy="347" fill="#ADD1B2" rx="11" ry="11" style="stroke:#181818;stroke-width:1.0;"/><path d="M585.8438,342.6719 C584.9063,342.2344 584.3125,342.0938 583.4375,342.0938 C580.8125,342.0938 578.8125,344.1719 578.8125,346.8906 L578.8125,348.0156 C578.8125,350.5938 580.9219,352.4844 583.8125,352.4844 C585.0313,352.4844 586.1875,352.1875 586.9375,351.6406 C587.5156,351.2344 587.8438,350.7813 587.8438,350.3906 C587.8438,349.9375 587.4531,349.5469 586.9844,349.5469 C586.7656,349.5469 586.5625,349.625 586.375,349.8125 C585.9219,350.2969 585.9219,350.2969 585.7344,350.3906 C585.3125,350.6563 584.625,350.7813 583.8594,350.7813 C581.8125,350.7813 580.5156,349.6875 580.5156,347.9844 L580.5156,346.8906 C580.5156,345.1094 581.7656,343.7969 583.5,343.7969 C584.0781,343.7969 584.6875,343.9531 585.1563,344.2031 C585.6406,344.4844 585.8125,344.7031 585.9063,345.1094 C585.9688,345.5156 586,345.6406 586.1406,345.7656 C586.2813,345.9063 586.5156,346.0156 586.7344,346.0156 C587,346.0156 587.2656,345.875 587.4375,345.6563 C587.5469,345.5 587.5781,345.3125 587.5781,344.8906 L587.5781,343.4688 C587.5781,343.0313 587.5625,342.9063 587.4688,342.75 C587.3125,342.4844 587.0313,342.3438 586.7344,342.3438 C586.4375,342.3438 586.2344,342.4375 586.0156,342.75 L585.8438,342.6719 Z " fill="#000000"/><text fill="#000000" font-family="sans-serif" font-size="14" lengthAdjust="spacing" textLength="51" x="597.5" y="351.8467">4InRow</text><line style="stroke:#181818;stroke-width:0.5;" x1="569.5" x2="650.5" y1="363" y2="363"/><line style="stroke:#181818;stroke-width:0.5;" x1="569.5" x2="650.5" y1="371" y2="371"/></g><!--MD5=[a118334562be5e28683d6a8e2de634f6]
class 4InColunm--><g id="elem_4InColunm"><rect fill="#F1F1F1" height="48" id="4InColunm" rx="2.5" ry="2.5" style="stroke:#181818;stroke-width:0.5;" width="107" x="426.5" y="331"/><ellipse cx="441.5" cy="347" fill="#ADD1B2" rx="11" ry="11" style="stroke:#181818;stroke-width:1.0;"/><path d="M443.8438,342.6719 C442.9063,342.2344 442.3125,342.0938 441.4375,342.0938 C438.8125,342.0938 436.8125,344.1719 436.8125,346.8906 L436.8125,348.0156 C436.8125,350.5938 438.9219,352.4844 441.8125,352.4844 C443.0313,352.4844 444.1875,352.1875 444.9375,351.6406 C445.5156,351.2344 445.8438,350.7813 445.8438,350.3906 C445.8438,349.9375 445.4531,349.5469 444.9844,349.5469 C444.7656,349.5469 444.5625,349.625 444.375,349.8125 C443.9219,350.2969 443.9219,350.2969 443.7344,350.3906 C443.3125,350.6563 442.625,350.7813 441.8594,350.7813 C439.8125,350.7813 438.5156,349.6875 438.5156,347.9844 L438.5156,346.8906 C438.5156,345.1094 439.7656,343.7969 441.5,343.7969 C442.0781,343.7969 442.6875,343.9531 443.1563,344.2031 C443.6406,344.4844 443.8125,344.7031 443.9063,345.1094 C443.9688,345.5156 444,345.6406 444.1406,345.7656 C444.2813,345.9063 444.5156,346.0156 444.7344,346.0156 C445,346.0156 445.2656,345.875 445.4375,345.6563 C445.5469,345.5 445.5781,345.3125 445.5781,344.8906 L445.5781,343.4688 C445.5781,343.0313 445.5625,342.9063 445.4688,342.75 C445.3125,342.4844 445.0313,342.3438 444.7344,342.3438 C444.4375,342.3438 444.2344,342.4375 444.0156,342.75 L443.8438,342.6719 Z " fill="#000000"/><text fill="#000000" font-family="sans-serif" font-size="14" lengthAdjust="spacing" textLength="75" x="455.5" y="351.8467">4InColunm</text><line style="stroke:#181818;stroke-width:0.5;" x1="427.5" x2="532.5" y1="363" y2="363"/><line style="stroke:#181818;stroke-width:0.5;" x1="427.5" x2="532.5" y1="371" y2="371"/></g><!--MD5=[a312c5c8a2540654e47dac18ff39e741]
class 4InDiagonal--><g id="elem_4InDiagonal"><rect fill="#F1F1F1" height="48" id="4InDiagonal" rx="2.5" ry="2.5" style="stroke:#181818;stroke-width:0.5;" width="115" x="276.5" y="331"/><ellipse cx="291.5" cy="347" fill="#ADD1B2" rx="11" ry="11" style="stroke:#181818;stroke-width:1.0;"/><path d="M293.8438,342.6719 C292.9063,342.2344 292.3125,342.0938 291.4375,342.0938 C288.8125,342.0938 286.8125,344.1719 286.8125,346.8906 L286.8125,348.0156 C286.8125,350.5938 288.9219,352.4844 291.8125,352.4844 C293.0313,352.4844 294.1875,352.1875 294.9375,351.6406 C295.5156,351.2344 295.8438,350.7813 295.8438,350.3906 C295.8438,349.9375 295.4531,349.5469 294.9844,349.5469 C294.7656,349.5469 294.5625,349.625 294.375,349.8125 C293.9219,350.2969 293.9219,350.2969 293.7344,350.3906 C293.3125,350.6563 292.625,350.7813 291.8594,350.7813 C289.8125,350.7813 288.5156,349.6875 288.5156,347.9844 L288.5156,346.8906 C288.5156,345.1094 289.7656,343.7969 291.5,343.7969 C292.0781,343.7969 292.6875,343.9531 293.1563,344.2031 C293.6406,344.4844 293.8125,344.7031 293.9063,345.1094 C293.9688,345.5156 294,345.6406 294.1406,345.7656 C294.2813,345.9063 294.5156,346.0156 294.7344,346.0156 C295,346.0156 295.2656,345.875 295.4375,345.6563 C295.5469,345.5 295.5781,345.3125 295.5781,344.8906 L295.5781,343.4688 C295.5781,343.0313 295.5625,342.9063 295.4688,342.75 C295.3125,342.4844 295.0313,342.3438 294.7344,342.3438 C294.4375,342.3438 294.2344,342.4375 294.0156,342.75 L293.8438,342.6719 Z " fill="#000000"/><text fill="#000000" font-family="sans-serif" font-size="14" lengthAdjust="spacing" textLength="83" x="305.5" y="351.8467">4InDiagonal</text><line style="stroke:#181818;stroke-width:0.5;" x1="277.5" x2="390.5" y1="363" y2="363"/><line style="stroke:#181818;stroke-width:0.5;" x1="277.5" x2="390.5" y1="371" y2="371"/></g><!--MD5=[6824fd9902778444ee49992acd2ffe7e]
link Connect4 to Turn--><g id="link_Connect4_Turn"><path codeLine="9" d="M129,67 C129,67 129,90.677 129,101.364 " fill="none" id="Connect4-Turn" style="stroke:#181818;stroke-width:1.0;"/><polygon fill="#181818" points="129,114.678,133,105.678,129,109.678,125,105.678,129,114.678" style="stroke:#181818;stroke-width:1.0;"/><line style="stroke:#181818;stroke-width:1.0;" x1="129" x2="129" y1="109.678" y2="101.678"/><polygon fill="#181818" points="129,55,125,61,129,67,133,61,129,55" style="stroke:#181818;stroke-width:1.0;"/></g><!--MD5=[46750473935a00282743b47f522de7be]
link Connect4 to Player--><g id="link_Connect4_Player"><path codeLine="10" d="M152.6375,65.116 C152.6375,65.116 172.054,97.916 178,115 C188.731,145.833 193.094,182.835 194.853,209.638 " fill="none" id="Connect4-Player" style="stroke:#181818;stroke-width:1.0;"/><polygon fill="#181818" points="195.555,222.638,199.0635,213.4353,195.2852,217.6453,191.0752,213.867,195.555,222.638" style="stroke:#181818;stroke-width:1.0;"/><line style="stroke:#181818;stroke-width:1.0;" x1="195.2852" x2="194.854" y1="217.6453" y2="209.6565"/><polygon fill="#181818" points="146.036,55.095,145.9964,62.306,152.6375,65.116,152.6771,57.905,146.036,55.095" style="stroke:#181818;stroke-width:1.0;"/><text fill="#000000" font-family="sans-serif" font-size="13" lengthAdjust="spacing" textLength="8" x="186.4715" y="211.9547">2</text></g><!--MD5=[5426a1d26e36fcd61d30da6b8a6545ec]
link Connect4 to Board--><g id="link_Connect4_Board"><path codeLine="11" d="M104.9781,65.0272 C104.9781,65.0272 85.1296,97.879 79,115 C54.3519,183.846 47.0431,269.791 44.8882,317.599 " fill="none" id="Connect4-Board" style="stroke:#181818;stroke-width:1.0;"/><polygon fill="#181818" points="44.3801,330.87,48.7214,322.0296,44.5713,325.8737,40.7272,321.7236,44.3801,330.87" style="stroke:#181818;stroke-width:1.0;"/><line style="stroke:#181818;stroke-width:1.0;" x1="44.5713" x2="44.8776" y1="325.8737" y2="317.879"/><polygon fill="#181818" points="111.668,55.065,105.0023,57.8161,104.9781,65.0272,111.6438,62.2761,111.668,55.065" style="stroke:#181818;stroke-width:1.0;"/></g><!--MD5=[d5a9ec064f4899e589a93cc733924baa]
link Player to Connet4Goal--><g id="link_Player_Connet4Goal"><path codeLine="12" d="M192.311,271 C189.745,287.003 186.306,308.446 183.566,325.528 " fill="none" id="Player-to-Connet4Goal" style="stroke:#181818;stroke-width:1.0;"/><polygon fill="#181818" points="182.74,330.678,188.1164,322.4261,183.5328,325.7413,180.2176,321.1576,182.74,330.678" style="stroke:#181818;stroke-width:1.0;"/></g><!--MD5=[c1f7e88598f78d9459764ed93737eb14]
link Player to Board--><g id="link_Player_Board"><path codeLine="13" d="M163.018,271 C139,287.75 106.4337,310.461 81.4384,327.892 " fill="none" id="Player-to-Board" style="stroke:#181818;stroke-width:1.0;"/><polygon fill="#181818" points="77.1795,330.862,86.8498,328.995,81.2808,328.002,82.2737,322.433,77.1795,330.862" style="stroke:#181818;stroke-width:1.0;"/></g><!--MD5=[6362d373c70c914ff64d9e096162a755]
link Player to Put--><g id="link_Player_Put"><path codeLine="14" d="M234.139,248.666 C336.502,251.339 613.305,264.681 669,331 C729.471,403.007 547.61,443.26 470.151,456.784 " fill="none" id="Player-to-Put" style="stroke:#181818;stroke-width:1.0;stroke-dasharray:7.0,7.0;"/><polygon fill="#181818" points="465.204,457.636,474.7523,460.0504,470.1315,456.7874,473.3945,452.1665,465.204,457.636" style="stroke:#181818;stroke-width:1.0;"/></g><!--MD5=[81f1826cba707dbfb80657083e3298b2]
link Put to Square--><g id="link_Put_Square"><path codeLine="15" d="M426.072,487.07 C418.635,502.77 408.641,523.869 400.152,541.791 " fill="none" id="Put-to-Square" style="stroke:#181818;stroke-width:1.0;"/><polygon fill="#181818" points="397.8,546.755,405.2673,540.3332,399.9401,542.2362,398.0372,536.909,397.8,546.755" style="stroke:#181818;stroke-width:1.0;"/></g><!--MD5=[525e20984b3f0335f86e1ed389de5b3d]
link Player to Token--><g id="link_Player_Token"><path codeLine="16" d="M234.353,248.203 C341.627,249.665 640.834,260.138 701,331 C755.1,394.718 699.713,500.609 667.96,550.454 " fill="none" id="Player-to-Token" style="stroke:#181818;stroke-width:1.0;"/><polygon fill="#181818" points="665.153,554.811,673.3907,549.4128,667.8616,550.6082,666.6661,545.0791,665.153,554.811" style="stroke:#181818;stroke-width:1.0;"/><text fill="#000000" font-family="sans-serif" font-size="13" lengthAdjust="spacing" textLength="36" x="628.6797" y="543.7746">6x7/2</text></g><!--MD5=[d81713d91ad05be3b975338c4816ee0b]
link Turn to Player--><g id="link_Turn_Player"><path codeLine="17" d="M143.538,163 C153.827,179.279 167.675,201.187 178.56,218.408 " fill="none" id="Turn-to-Player" style="stroke:#181818;stroke-width:1.0;"/><polygon fill="#181818" points="181.259,222.678,179.8323,212.933,178.5879,218.4513,173.0696,217.2069,181.259,222.678" style="stroke:#181818;stroke-width:1.0;"/></g><!--MD5=[4ad96441c8a01d959d4bf4f2a5e1a798]
link Board to Square--><g id="link_Board_Square"><path codeLine="18" d="M89.3586,385.7041 C89.3586,385.7041 258.123,496.222 324.502,539.692 " fill="none" id="Board-Square" style="stroke:#181818;stroke-width:1.0;"/><polygon fill="#181818" points="335.599,546.959,330.2608,538.6823,331.416,544.22,325.8783,545.3751,335.599,546.959" style="stroke:#181818;stroke-width:1.0;"/><line style="stroke:#181818;stroke-width:1.0;" x1="331.416" x2="324.7235" y1="544.22" y2="539.8365"/><polygon fill="#181818" points="79.3196,379.13,82.1477,385.7634,89.3586,385.7041,86.5305,379.0707,79.3196,379.13" style="stroke:#181818;stroke-width:1.0;"/><text fill="#000000" font-family="sans-serif" font-size="13" lengthAdjust="spacing" textLength="24" x="299.3475" y="535.8536">6x7</text></g><!--MD5=[304335c530676c0c2555e056aeeb939b]
link Token to Color--><g id="link_Token_Color"><path codeLine="19" d="M649,603.03 C649,620.372 649,644.686 649,665.8025 " fill="none" id="Token-to-Color" style="stroke:#181818;stroke-width:1.0;"/><polygon fill="#181818" points="649,670.8142,653,661.8142,649,665.8142,645,661.8142,649,670.8142" style="stroke:#181818;stroke-width:1.0;"/></g><!--MD5=[5d5fb7c3c6fe485a4b22b78b4994e525]
reverse link Connet4Goal to 4InRow--><g id="link_Connet4Goal_4InRow"><path codeLine="24" d="M229.679,320.635 C244.181,312.586 260.429,305.153 276.5,301 C387.089,272.421 424.63,266.446 533.5,301 C552.249,306.951 570.365,319.34 584.257,330.752 " fill="none" id="Connet4Goal-backto-4InRow" style="stroke:#181818;stroke-width:1.0;"/><polygon fill="none" points="233.149,326.716,212.389,330.958,225.972,314.695,233.149,326.716" style="stroke:#181818;stroke-width:1.0;"/></g><!--MD5=[425184b4b73b889118ede6ec01bb5829]
reverse link Connet4Goal to 4InColunm--><g id="link_Connet4Goal_4InColunm"><path codeLine="25" d="M229.679,320.635 C244.181,312.586 260.429,305.153 276.5,301 C325.985,288.212 342.295,287.173 391.5,301 C412.64,306.94 433.73,319.483 450.017,330.986 " fill="none" id="Connet4Goal-backto-4InColunm" style="stroke:#181818;stroke-width:1.0;"/><polygon fill="none" points="233.149,326.716,212.389,330.958,225.972,314.695,233.149,326.716" style="stroke:#181818;stroke-width:1.0;"/></g><!--MD5=[3f9ca8d0e881fc4f0cfa4268ab59b2ce]
reverse link Connet4Goal to 4InDiagonal--><g id="link_Connet4Goal_4InDiagonal"><path codeLine="26" d="M261.684,355 C266.553,355 271.422,355 276.291,355 " fill="none" id="Connet4Goal-backto-4InDiagonal" style="stroke:#181818;stroke-width:1.0;"/><polygon fill="none" points="261.666,362,241.666,355,261.666,348,261.666,362" style="stroke:#181818;stroke-width:1.0;"/></g><!--MD5=[cc9be1dc4e75d70a947802d19e5dc31b]
link Put to Token--><g id="link_Put_Token"><path codeLine="27" d="M465.152,479.138 C501.123,498.481 563.75,532.158 605.784,554.761 " fill="none" id="Put-to-Token" style="stroke:#181818;stroke-width:1.0;"/><polygon fill="#181818" points="610.294,557.186,604.2601,549.4019,605.8898,554.8189,600.4728,556.4486,610.294,557.186" style="stroke:#181818;stroke-width:1.0;"/></g><!--MD5=[fdeef590d3203757c8135e146e6f94d9]
link Connet4Goal to Put--><g id="link_Connet4Goal_Put"><path codeLine="31" d="M234.982,379 C286.641,400.224 361.593,431.019 404.18,448.516 " fill="none" id="Connet4Goal-to-Put" style="stroke:#181818;stroke-width:1.0;stroke-dasharray:7.0,7.0;"/><polygon fill="#181818" points="408.956,450.478,402.1507,443.3585,404.331,448.5783,399.1111,450.7585,408.956,450.478" style="stroke:#181818;stroke-width:1.0;"/></g><!--MD5=[0975d82961204cc1e24e9c66de6d43de]
@startuml
class Connect4
class Turn
class Board
class Player
class Square
class Token
class Connet4Goal
class Color
Connect4 *- -> Turn
Connect4 *- -> "2" Player
Connect4 *- -> Board
Player - -> Connet4Goal
Player - -> Board
Player ..> Put
Put - -> Square
Player - -> "6x7/2"Token
Turn - -> Player
Board *-> "6x7"Square
Token - -> Color
enum Color{
red
yellow
}
Connet4Goal <|- 4InRow
Connet4Goal <|- 4InColunm
Connet4Goal <|- 4InDiagonal
Put - -> Token
class Square{
empty : boolean
}
Connet4Goal ..> Put
@enduml

PlantUML version 1.2022.3beta1(Unknown compile time)
(GPL source distribution)
Java Runtime: Java(TM) SE Runtime Environment
JVM: Java HotSpot(TM) 64-Bit Server VM
Default Encoding: UTF-8
Language: en
Country: US
--></g></svg>