<?xml version="1.0" encoding="UTF-8" standalone="no"?><svg xmlns="http://www.w3.org/2000/svg" xmlns:xlink="http://www.w3.org/1999/xlink" contentStyleType="text/css" height="944px" preserveAspectRatio="none" style="width:1895px;height:944px;background:#FFFFFF;" version="1.1" viewBox="0 0 1895 944" width="1895px" zoomAndPan="magnify"><defs/><g><rect height="26.2969" style="stroke:#00000000;stroke-width:1.0;fill:none;" width="256" x="812.7239" y="5"/><text fill="#000000" font-family="sans-serif" font-size="14" font-weight="bold" lengthAdjust="spacing" textLength="246" x="817.7239" y="22.9951">CARD LOCATION DURING GAME</text><g id="SHUFFLED"><rect fill="#F1F1F1" height="50" rx="12.5" ry="12.5" style="stroke:#181818;stroke-width:0.5;" width="111" x="1515.9477" y="140.2969"/><line style="stroke:#181818;stroke-width:0.5;" x1="1515.9477" x2="1626.9477" y1="166.5938" y2="166.5938"/><text fill="#000000" font-family="sans-serif" font-size="14" lengthAdjust="spacing" textLength="91" x="1525.9477" y="158.292">Card In Deck</text></g><g id="CARDINSTOCK"><rect fill="#F1F1F1" height="50" rx="12.5" ry="12.5" style="stroke:#181818;stroke-width:0.5;" width="116" x="1393.4477" y="352.2969"/><line style="stroke:#181818;stroke-width:0.5;" x1="1393.4477" x2="1509.4477" y1="378.5938" y2="378.5938"/><text fill="#000000" font-family="sans-serif" font-size="14" lengthAdjust="spacing" textLength="96" x="1403.4477" y="370.292">Card In Stock</text></g><g id="CARDINTABLEAU"><rect fill="#F1F1F1" height="50" rx="12.5" ry="12.5" style="stroke:#181818;stroke-width:0.5;" width="130" x="942.4437" y="863.7969"/><line style="stroke:#181818;stroke-width:0.5;" x1="942.4437" x2="1072.4437" y1="890.0938" y2="890.0938"/><text fill="#000000" font-family="sans-serif" font-size="14" lengthAdjust="spacing" textLength="110" x="952.4437" y="881.792">Card In Tableau</text></g><g id="CARDINWASTE"><rect fill="#F1F1F1" height="50" rx="12.5" ry="12.5" style="stroke:#181818;stroke-width:0.5;" width="119" x="1128.9477" y="479.2969"/><line style="stroke:#181818;stroke-width:0.5;" x1="1128.9477" x2="1247.9477" y1="505.5938" y2="505.5938"/><text fill="#000000" font-family="sans-serif" font-size="14" lengthAdjust="spacing" textLength="99" x="1138.9477" y="497.292">Card In Waste</text></g><g id="CARDINFOUNDATION"><rect fill="#F1F1F1" height="50" rx="12.5" ry="12.5" style="stroke:#181818;stroke-width:0.5;" width="154" x="266.4437" y="649.7969"/><line style="stroke:#181818;stroke-width:0.5;" x1="266.4437" x2="420.4437" y1="676.0938" y2="676.0938"/><text fill="#000000" font-family="sans-serif" font-size="14" lengthAdjust="spacing" textLength="134" x="276.4437" y="667.792">Card In Foundation</text></g><g id="elem_Bif"><polygon fill="#F1F1F1" points="1571.4477,251.2969,1583.4477,263.2969,1571.4477,275.2969,1559.4477,263.2969,1571.4477,251.2969" style="stroke:#181818;stroke-width:0.5;"/></g><ellipse cx="1571.4477" cy="53.2969" fill="#222222" rx="10" ry="10" style="stroke:none;stroke-width:1.0;"/><ellipse cx="41.4437" cy="888.7969" fill="none" rx="10" ry="10" style="stroke:#222222;stroke-width:1.0;"/><ellipse cx="41.9437" cy="889.2969" fill="#222222" rx="6" ry="6" style="stroke:none;stroke-width:1.0;"/><!--MD5=[321f1be40acb09d847cca69bf0d91329]
link *start to SHUFFLED--><g id="link_*start_SHUFFLED"><path d="M1571.4477,63.2989 C1571.4477,78.7549 1571.4477,110.9819 1571.4477,134.8969 " fill="none" id="*start-to-SHUFFLED" style="stroke:#181818;stroke-width:1.0;"/><polygon fill="#181818" points="1571.4477,140.1699,1575.4477,131.1699,1571.4477,135.1699,1567.4477,131.1699,1571.4477,140.1699" style="stroke:#181818;stroke-width:1.0;"/><text fill="#000000" font-family="sans-serif" font-size="13" lengthAdjust="spacing" textLength="45" x="1572.4477" y="106.3638">Shuffle</text></g><!--MD5=[aff1cae4f5e14c075dfc494b9c8aa2f5]
link SHUFFLED to Bif--><g id="link_SHUFFLED_Bif"><path d="M1571.4477,190.5219 C1571.4477,207.8359 1571.4477,230.6729 1571.4477,245.8889 " fill="none" id="SHUFFLED-to-Bif" style="stroke:#181818;stroke-width:1.0;"/><polygon fill="#181818" points="1571.4477,251.1259,1575.4477,242.1259,1571.4477,246.1259,1567.4477,242.1259,1571.4477,251.1259" style="stroke:#181818;stroke-width:1.0;"/></g><!--MD5=[90b381f6644201c856cc13f7879d7a83]
link Bif to CARDINSTOCK--><g id="link_Bif_CARDINSTOCK"><path d="M1565.6577,269.6989 C1550.6477,283.7079 1509.6477,321.9699 1481.0977,348.6189 " fill="none" id="Bif-to-CARDINSTOCK" style="stroke:#181818;stroke-width:1.0;"/><polygon fill="#181818" points="1477.3277,352.1349,1486.6415,348.9328,1480.9883,348.729,1481.1921,343.0758,1477.3277,352.1349" style="stroke:#181818;stroke-width:1.0;"/><text fill="#000000" font-family="sans-serif" font-size="13" lengthAdjust="spacing" textLength="29" x="1527.4477" y="318.3638">Deal</text></g><!--MD5=[1c0dcd0e1a87364541932f865761d5a3]
link Bif to CARDINTABLEAU--><g id="link_Bif_CARDINTABLEAU"><path d="M1575.7277,271.0689 C1586.0477,288.0639 1611.4477,334.1759 1611.4477,376.2969 C1611.4477,376.2969 1611.4477,376.2969 1611.4477,675.7969 C1611.4477,787.7969 1237.0177,854.8536 1077.7677,878.3081 " fill="none" id="Bif-to-CARDINTABLEAU" style="stroke:#181818;stroke-width:1.0;"/><polygon fill="#181818" points="1072.6577,879.0567,1082.1444,881.7027,1077.6043,878.3282,1080.9789,873.7881,1072.6577,879.0567" style="stroke:#181818;stroke-width:1.0;"/><text fill="#000000" font-family="sans-serif" font-size="13" lengthAdjust="spacing" textLength="275" x="1612.4477" y="508.8638">Deal  [Card is one of first 28 cards of deck]</text></g><!--MD5=[251f2be3262dc192734436d8c1a32687]
link CARDINSTOCK to CARDINWASTE--><g id="link_CARDINSTOCK_CARDINWASTE"><path d="M1443.9177,402.4749 C1437.8477,418.0869 1427.7477,437.5979 1412.4477,449.2969 C1366.7477,484.2159 1301.7377,496.9459 1253.5077,501.3959 " fill="none" id="CARDINSTOCK-to-CARDINWASTE" style="stroke:#181818;stroke-width:1.0;"/><polygon fill="#181818" points="1248.3077,501.8499,1257.6174,505.0637,1253.2893,501.4213,1256.9317,497.0931,1248.3077,501.8499" style="stroke:#181818;stroke-width:1.0;"/><text fill="#000000" font-family="sans-serif" font-size="13" lengthAdjust="spacing" textLength="135" x="1429.4477" y="445.3638">move stock to waste</text></g><!--MD5=[e1a5d59bb3679603af9ba2b6b35d5f95]
link CARDINWASTE to CARDINSTOCK--><g id="link_CARDINWASTE_CARDINSTOCK"><path d="M1172.1877,479.2699 C1164.2677,464.3109 1158.5477,445.4759 1169.4477,432.2969 C1196.6177,399.4209 1313.4977,386.3679 1387.9877,381.3269 " fill="none" id="CARDINWASTE-to-CARDINSTOCK" style="stroke:#181818;stroke-width:1.0;"/><polygon fill="#181818" points="1393.2777,380.9769,1384.0343,377.577,1388.2885,381.3055,1384.56,385.5597,1393.2777,380.9769" style="stroke:#181818;stroke-width:1.0;"/><text fill="#000000" font-family="sans-serif" font-size="13" lengthAdjust="spacing" textLength="233" x="1170.4477" y="445.3638">move recicle waste [stock is empty]</text></g><!--MD5=[45bca03ce679a82ad470a87323ab51a9]
link CARDINWASTE to CARDINTABLEAU--><g id="link_CARDINWASTE_CARDINTABLEAU"><path d="M1195.4977,529.5429 C1209.7977,583.9739 1236.2777,717.9429 1179.4477,805.2969 C1156.6277,840.3669 1114.4477,860.9143 1077.5677,872.7326 " fill="none" id="CARDINWASTE-to-CARDINTABLEAU" style="stroke:#181818;stroke-width:1.0;"/><polygon fill="#181818" points="1072.6377,874.2721,1082.4198,875.4164,1077.4118,872.786,1080.0422,867.7779,1072.6377,874.2721" style="stroke:#181818;stroke-width:1.0;"/><text fill="#000000" font-family="sans-serif" font-size="13" lengthAdjust="spacing" textLength="243" x="1271.4477" y="654.3638">move waste to tableau :[isValidMove]</text><path d="M1219.4477,663.4297 L1219.4477,703.4297 L1566.4477,703.4297 L1566.4477,673.4297 L1556.4477,663.4297 L1219.4477,663.4297 " fill="#FEFFDD" style="stroke:#181818;stroke-width:0.5;"/><path d="M1556.4477,663.4297 L1556.4477,673.4297 L1566.4477,673.4297 L1556.4477,663.4297 " fill="#FEFFDD" style="stroke:#181818;stroke-width:0.5;"/><text fill="#000000" font-family="sans-serif" font-size="13" lengthAdjust="spacing" textLength="289" x="1225.4477" y="680.4966">card.color!=tableauDestination.topCard.color</text><text fill="#000000" font-family="sans-serif" font-size="13" lengthAdjust="spacing" textLength="326" x="1225.4477" y="695.6294">&amp;&amp;card.rank==tableauDestination.topCard.rank+1</text></g><!--MD5=[f5b45ea76dfee1ae7a5166c0d5e1d5fc]
link CARDINTABLEAU to CARDINFOUNDATION--><g id="link_CARDINTABLEAU_CARDINFOUNDATION"><path d="M942.4077,885.7646 C764.2967,879.5337 278.6947,857.8373 231.4437,805.2969 C211.5317,783.1559 216.3667,763.9759 231.4437,738.2969 C240.2817,723.2439 254.2087,711.5499 269.2797,702.5689 " fill="none" id="CARDINTABLEAU-to-CARDINFOUNDATION" style="stroke:#181818;stroke-width:1.0;"/><polygon fill="#181818" points="273.9897,699.8679,264.1925,700.8751,269.6523,702.3552,268.1722,707.815,273.9897,699.8679" style="stroke:#181818;stroke-width:1.0;"/><text fill="#000000" font-family="sans-serif" font-size="13" lengthAdjust="spacing" textLength="273" x="364.4437" y="758.8638">move tableau to foundation :[isValidMove]</text><path d="M236.4437,767.9297 L236.4437,792.9297 L765.4437,792.9297 L765.4437,777.9297 L755.4437,767.9297 L236.4437,767.9297 " fill="#FEFFDD" style="stroke:#181818;stroke-width:0.5;"/><path d="M755.4437,767.9297 L755.4437,777.9297 L765.4437,777.9297 L755.4437,767.9297 " fill="#FEFFDD" style="stroke:#181818;stroke-width:0.5;"/><text fill="#000000" font-family="sans-serif" font-size="13" lengthAdjust="spacing" textLength="508" x="242.4437" y="784.9966">card.suit==foundation.topCard.suit &amp;&amp; card.rank==foundation.topCard.rank-1]</text></g><!--MD5=[5f4afd759c12ab909f1ad91a6c33a851]
link CARDINFOUNDATION to CARDINTABLEAU--><g id="link_CARDINFOUNDATION_CARDINTABLEAU"><path d="M420.5607,678.7539 C528.7957,684.2649 718.7797,699.3199 774.4437,738.2969 C802.1337,757.6869 785.4157,782.5739 810.4437,805.2969 C846.1887,837.7509 896.5357,858.5332 937.3837,871.1217 " fill="none" id="CARDINFOUNDATION-to-CARDINTABLEAU" style="stroke:#181818;stroke-width:1.0;"/><polygon fill="#181818" points="942.3157,872.6165,934.8625,866.1783,937.5306,871.1664,932.5425,873.8345,942.3157,872.6165" style="stroke:#181818;stroke-width:1.0;"/><text fill="#000000" font-family="sans-serif" font-size="13" lengthAdjust="spacing" textLength="277" x="854.4437" y="751.3638">move foundation to tableau : [isValidMove]</text><path d="M815.4437,760.4297 L815.4437,800.4297 L1170.4437,800.4297 L1170.4437,770.4297 L1160.4437,760.4297 L815.4437,760.4297 " fill="#FEFFDD" style="stroke:#181818;stroke-width:0.5;"/><path d="M1160.4437,760.4297 L1160.4437,770.4297 L1170.4437,770.4297 L1160.4437,760.4297 " fill="#FEFFDD" style="stroke:#181818;stroke-width:0.5;"/><text fill="#000000" font-family="sans-serif" font-size="13" lengthAdjust="spacing" textLength="292" x="821.4437" y="777.4966">[card.color!=tableaudestination.topCard.color</text><text fill="#000000" font-family="sans-serif" font-size="13" lengthAdjust="spacing" textLength="334" x="821.4437" y="792.6294">&amp;&amp; card.rank==tableaudestination.topCard.rang+1]</text></g><!--MD5=[9d670eccbc7fe695f1cc153ded8fc1d4]
link CARDINTABLEAU to CARDINTABLEAU--><g id="link_CARDINTABLEAU_CARDINTABLEAU"><path d="M1072.8477,867.0947 C1092.3077,867.7425 1107.4477,874.9766 1107.4477,888.7969 C1107.4477,901.3216 1095.0077,908.437 1078.1977,910.1432 " fill="none" id="CARDINTABLEAU-to-CARDINTABLEAU" style="stroke:#181818;stroke-width:1.0;"/><polygon fill="#181818" points="1072.8477,910.4991,1082.0911,913.899,1077.8369,910.1705,1081.5654,905.9163,1072.8477,910.4991" style="stroke:#181818;stroke-width:1.0;"/><text fill="#000000" font-family="sans-serif" font-size="13" lengthAdjust="spacing" textLength="252" x="1163.4477" y="853.3638">move tableau to tableau :[isValidMove]</text><path d="M1112.4477,867.4297 L1112.4477,937.4297 L1466.4477,937.4297 L1466.4477,877.4297 L1456.4477,867.4297 L1112.4477,867.4297 " fill="#FEFFDD" style="stroke:#181818;stroke-width:0.5;"/><path d="M1456.4477,867.4297 L1456.4477,877.4297 L1466.4477,877.4297 L1456.4477,867.4297 " fill="#FEFFDD" style="stroke:#181818;stroke-width:0.5;"/><text fill="#000000" font-family="sans-serif" font-size="13" lengthAdjust="spacing" textLength="321" x="1118.4477" y="884.4966">(tableaudestination.isEmpty &amp;&amp; card.rank = KING)</text><text fill="#000000" font-family="sans-serif" font-size="13" lengthAdjust="spacing" textLength="19" x="1118.4477" y="899.6294">OR</text><text fill="#000000" font-family="sans-serif" font-size="13" lengthAdjust="spacing" textLength="292" x="1118.4477" y="914.7622">(card.color!=tableaudestination.topCard.color</text><text fill="#000000" font-family="sans-serif" font-size="13" lengthAdjust="spacing" textLength="333" x="1118.4477" y="929.895">&amp;&amp; card.rank==tableaudestination.topCard.rank+1)</text></g><!--MD5=[6cc81047d61d9d420fe2d02e2a9661dc]
link CARDINWASTE to CARDINFOUNDATION--><g id="link_CARDINWASTE_CARDINFOUNDATION"><path d="M1128.8377,506.9419 C1031.4077,510.6389 832.4897,522.4229 668.4437,559.2969 C573.5887,580.6179 468.1897,621.0129 403.8607,647.6719 " fill="none" id="CARDINWASTE-to-CARDINFOUNDATION" style="stroke:#181818;stroke-width:1.0;"/><polygon fill="#181818" points="398.9177,649.7269,408.7637,649.9646,403.5344,647.807,405.692,642.5778,398.9177,649.7269" style="stroke:#181818;stroke-width:1.0;"/><text fill="#000000" font-family="sans-serif" font-size="13" lengthAdjust="spacing" textLength="268" x="787.9437" y="572.3638">move waste to foundation : [isValidMove]</text><path d="M673.4437,581.4297 L673.4437,606.4297 L1170.4437,606.4297 L1170.4437,591.4297 L1160.4437,581.4297 L673.4437,581.4297 " fill="#FEFFDD" style="stroke:#181818;stroke-width:0.5;"/><path d="M1160.4437,581.4297 L1160.4437,591.4297 L1170.4437,591.4297 L1160.4437,581.4297 " fill="#FEFFDD" style="stroke:#181818;stroke-width:0.5;"/><text fill="#000000" font-family="sans-serif" font-size="13" lengthAdjust="spacing" textLength="476" x="679.4437" y="598.4966">card.suit==foundation.topCard.suit &amp;&amp; card.rank==foundation.topCard-1]</text></g><!--MD5=[a15fb8118dff69f88c0a06819bb40dff]
link CARDINFOUNDATION to *end--><g id="link_CARDINFOUNDATION_*end"><path d="M266.2777,680.7449 C185.5477,687.7199 66.6761,703.6929 38.4437,738.2969 C6,778.0629 25.4545,845.5673 35.9991,874.2531 " fill="none" id="CARDINFOUNDATION-to-*end" style="stroke:#181818;stroke-width:1.0;"/><polygon fill="#181818" points="37.8497,879.1422,38.4045,869.309,36.0796,874.466,30.9226,872.1411,37.8497,879.1422" style="stroke:#181818;stroke-width:1.0;"/><text fill="#000000" font-family="sans-serif" font-size="13" lengthAdjust="spacing" textLength="151" x="39.4437" y="776.3638">[all cards in foundation]</text></g><!--MD5=[c3777fea8884e5de69ccea625ec7499f]
@startuml
title CARD LOCATION DURING GAME

state SHUFFLED as "Card In Deck"
state CARDINSTOCK as "Card In Stock"
state CARDINTABLEAU as "Card In Tableau"
state CARDINWASTE as "Card In Waste"
state CARDINFOUNDATION as "Card In Foundation"
state Bif <<choice>>


[*] -down-> SHUFFLED : Shuffle
SHUFFLED -down-> Bif 
Bif -down-> CARDINSTOCK : Deal
Bif -down-> CARDINTABLEAU : Deal  [Card is one of first 28 cards of deck]
CARDINSTOCK -down-> CARDINWASTE :move stock to waste
CARDINWASTE - -> CARDINSTOCK: move recicle waste [stock is empty]
CARDINWASTE - -> CARDINTABLEAU :move waste to tableau :[isValidMove]
note on link
card.color!=tableauDestination.topCard.color
&&card.rank==tableauDestination.topCard.rank+1
end note
CARDINTABLEAU - -> CARDINFOUNDATION : move tableau to foundation :[isValidMove]
note on link
card.suit==foundation.topCard.suit && card.rank==foundation.topCard.rank-1]
end note
CARDINTABLEAU - -> CARDINTABLEAU : move tableau to tableau :[isValidMove]
note on link
(tableaudestination.isEmpty && card.rank = KING)
OR
(card.color!=tableaudestination.topCard.color
&& card.rank==tableaudestination.topCard.rank+1)
end note

CARDINFOUNDATION - -> CARDINTABLEAU : move foundation to tableau : [isValidMove]
note on link
[card.color!=tableaudestination.topCard.color
&& card.rank==tableaudestination.topCard.rang+1]
end note
CARDINWASTE - -> CARDINFOUNDATION : move waste to foundation : [isValidMove]
note on link
card.suit==foundation.topCard.suit && card.rank==foundation.topCard-1]
end note
CARDINFOUNDATION - -> [*] :[all cards in foundation]
@enduml

PlantUML version 1.2022.3beta2(Unknown compile time)
(GPL source distribution)
Java Runtime: Java(TM) SE Runtime Environment
JVM: Java HotSpot(TM) 64-Bit Server VM
Default Encoding: UTF-8
Language: en
Country: US
--></g></svg>