<?xml version="1.0" encoding="UTF-8" standalone="no"?><svg xmlns="http://www.w3.org/2000/svg" xmlns:xlink="http://www.w3.org/1999/xlink" contentStyleType="text/css" height="594px" preserveAspectRatio="none" style="width:2659px;height:594px;background:#FFFFFF;" version="1.1" viewBox="0 0 2659 594" width="2659px" zoomAndPan="magnify"><defs/><g><rect height="26.2969" style="stroke:#00000000;stroke-width:1.0;fill:none;" width="206" x="1219.5" y="5"/><text fill="#000000" font-family="sans-serif" font-size="14" font-weight="bold" lengthAdjust="spacing" textLength="196" x="1224.5" y="22.9951">INITIAL STATE KLONDIKE</text><g id="elem_klondike"><rect fill="#F1F1F1" height="36.2969" style="stroke:#181818;stroke-width:0.5;" width="82" x="1832" y="44.2969"/><text fill="#000000" font-family="sans-serif" font-size="14" lengthAdjust="spacing" textLength="68" x="1839" y="59.292">:Klondike</text><line style="stroke:#181818;stroke-width:0.5;" x1="1833" x2="1913" y1="64.5938" y2="64.5938"/></g><g id="elem_tableau1"><rect fill="#F1F1F1" height="36.2969" style="stroke:#181818;stroke-width:0.5;" width="75" x="85.5" y="140.2969"/><text fill="#000000" font-family="sans-serif" font-size="14" lengthAdjust="spacing" textLength="61" x="92.5" y="155.292">:Tableau</text><line style="stroke:#181818;stroke-width:0.5;" x1="86.5" x2="159.5" y1="160.5938" y2="160.5938"/></g><g id="elem_tableau2"><rect fill="#F1F1F1" height="36.2969" style="stroke:#181818;stroke-width:0.5;" width="75" x="252.5" y="140.2969"/><text fill="#000000" font-family="sans-serif" font-size="14" lengthAdjust="spacing" textLength="61" x="259.5" y="155.292">:Tableau</text><line style="stroke:#181818;stroke-width:0.5;" x1="253.5" x2="326.5" y1="160.5938" y2="160.5938"/></g><g id="elem_tableau3"><rect fill="#F1F1F1" height="36.2969" style="stroke:#181818;stroke-width:0.5;" width="75" x="532.5" y="140.2969"/><text fill="#000000" font-family="sans-serif" font-size="14" lengthAdjust="spacing" textLength="61" x="539.5" y="155.292">:Tableau</text><line style="stroke:#181818;stroke-width:0.5;" x1="533.5" x2="606.5" y1="160.5938" y2="160.5938"/></g><g id="elem_tableau4"><rect fill="#F1F1F1" height="36.2969" style="stroke:#181818;stroke-width:0.5;" width="75" x="853.5" y="140.2969"/><text fill="#000000" font-family="sans-serif" font-size="14" lengthAdjust="spacing" textLength="61" x="860.5" y="155.292">:Tableau</text><line style="stroke:#181818;stroke-width:0.5;" x1="854.5" x2="927.5" y1="160.5938" y2="160.5938"/></g><g id="elem_tableau5"><rect fill="#F1F1F1" height="36.2969" style="stroke:#181818;stroke-width:0.5;" width="75" x="1159.5" y="140.2969"/><text fill="#000000" font-family="sans-serif" font-size="14" lengthAdjust="spacing" textLength="61" x="1166.5" y="155.292">:Tableau</text><line style="stroke:#181818;stroke-width:0.5;" x1="1160.5" x2="1233.5" y1="160.5938" y2="160.5938"/></g><g id="elem_tableau6"><rect fill="#F1F1F1" height="36.2969" style="stroke:#181818;stroke-width:0.5;" width="75" x="1465.5" y="140.2969"/><text fill="#000000" font-family="sans-serif" font-size="14" lengthAdjust="spacing" textLength="61" x="1472.5" y="155.292">:Tableau</text><line style="stroke:#181818;stroke-width:0.5;" x1="1466.5" x2="1539.5" y1="160.5938" y2="160.5938"/></g><g id="elem_tableau7"><rect fill="#F1F1F1" height="36.2969" style="stroke:#181818;stroke-width:0.5;" width="75" x="1771.5" y="140.2969"/><text fill="#000000" font-family="sans-serif" font-size="14" lengthAdjust="spacing" textLength="61" x="1778.5" y="155.292">:Tableau</text><line style="stroke:#181818;stroke-width:0.5;" x1="1772.5" x2="1845.5" y1="160.5938" y2="160.5938"/></g><g id="elem_stock"><rect fill="#F1F1F1" height="36.2969" style="stroke:#181818;stroke-width:0.5;" width="61" x="1906.5" y="140.2969"/><text fill="#000000" font-family="sans-serif" font-size="14" lengthAdjust="spacing" textLength="47" x="1913.5" y="155.292">:Stock</text><line style="stroke:#181818;stroke-width:0.5;" x1="1907.5" x2="1966.5" y1="160.5938" y2="160.5938"/></g><g id="elem_player"><rect fill="#F1F1F1" height="36.2969" style="stroke:#181818;stroke-width:0.5;" width="63" x="2235.5" y="140.2969"/><text fill="#000000" font-family="sans-serif" font-size="14" lengthAdjust="spacing" textLength="49" x="2242.5" y="155.292">:Player</text><line style="stroke:#181818;stroke-width:0.5;" x1="2236.5" x2="2297.5" y1="160.5938" y2="160.5938"/></g><g id="elem_foundation1"><rect fill="#F1F1F1" height="36.2969" style="stroke:#181818;stroke-width:0.5;" width="99" x="2084.5" y="393.7969"/><text fill="#000000" font-family="sans-serif" font-size="14" lengthAdjust="spacing" textLength="85" x="2091.5" y="408.792">:Foundation</text><line style="stroke:#181818;stroke-width:0.5;" x1="2085.5" x2="2182.5" y1="414.0938" y2="414.0938"/></g><g id="elem_foundation2"><rect fill="#F1F1F1" height="36.2969" style="stroke:#181818;stroke-width:0.5;" width="99" x="2218.5" y="393.7969"/><text fill="#000000" font-family="sans-serif" font-size="14" lengthAdjust="spacing" textLength="85" x="2225.5" y="408.792">:Foundation</text><line style="stroke:#181818;stroke-width:0.5;" x1="2219.5" x2="2316.5" y1="414.0938" y2="414.0938"/></g><g id="elem_foundation3"><rect fill="#F1F1F1" height="36.2969" style="stroke:#181818;stroke-width:0.5;" width="99" x="2352.5" y="393.7969"/><text fill="#000000" font-family="sans-serif" font-size="14" lengthAdjust="spacing" textLength="85" x="2359.5" y="408.792">:Foundation</text><line style="stroke:#181818;stroke-width:0.5;" x1="2353.5" x2="2450.5" y1="414.0938" y2="414.0938"/></g><g id="elem_foundation4"><rect fill="#F1F1F1" height="36.2969" style="stroke:#181818;stroke-width:0.5;" width="99" x="2486.5" y="393.7969"/><text fill="#000000" font-family="sans-serif" font-size="14" lengthAdjust="spacing" textLength="85" x="2493.5" y="408.792">:Foundation</text><line style="stroke:#181818;stroke-width:0.5;" x1="2487.5" x2="2584.5" y1="414.0938" y2="414.0938"/></g><g id="elem_goal"><rect fill="#F1F1F1" height="36.2969" style="stroke:#181818;stroke-width:0.5;" width="214" x="2198" y="256.7969"/><text fill="#000000" font-family="sans-serif" font-size="14" lengthAdjust="spacing" textLength="200" x="2205" y="271.792">:AllCardsToFoundationsGoal</text><line style="stroke:#181818;stroke-width:0.5;" x1="2199" x2="2411" y1="277.0938" y2="277.0938"/></g><g id="elem_waste"><rect fill="#F1F1F1" height="36.2969" style="stroke:#181818;stroke-width:0.5;" width="64" x="2589" y="140.2969"/><text fill="#000000" font-family="sans-serif" font-size="14" lengthAdjust="spacing" textLength="50" x="2596" y="155.292">:Waste</text><line style="stroke:#181818;stroke-width:0.5;" x1="2590" x2="2652" y1="160.5938" y2="160.5938"/></g><g id="elem_card1"><rect fill="#F1F1F1" height="77.1875" style="stroke:#181818;stroke-width:0.5;" width="118" x="1903" y="236.2969"/><text fill="#000000" font-family="sans-serif" font-size="14" lengthAdjust="spacing" textLength="40" x="1942" y="251.292">card1</text><line style="stroke:#181818;stroke-width:0.5;" x1="1904" x2="2020" y1="256.5938" y2="256.5938"/><text fill="#000000" font-family="sans-serif" font-size="14" lengthAdjust="spacing" textLength="102" x="1909" y="273.5889">faceup = false</text><text fill="#000000" font-family="sans-serif" font-size="14" lengthAdjust="spacing" textLength="106" x="1909" y="289.8857">rank = random</text><text fill="#000000" font-family="sans-serif" font-size="14" lengthAdjust="spacing" textLength="100" x="1909" y="306.1826">suit = random</text></g><g id="elem_GMN548712"><path d="M1848.5,399.2969 L1848.5,424.4297 A0,0 0 0 0 1848.5,424.4297 L2049.5,424.4297 A0,0 0 0 0 2049.5,424.4297 L2049.5,409.2969 L2039.5,399.2969 L1954.12,399.2969 L1958.38,313.4019 L1946.12,399.2969 L1848.5,399.2969 A0,0 0 0 0 1848.5,399.2969 " fill="#FEFFDD" style="stroke:#181818;stroke-width:0.5;"/><path d="M2039.5,399.2969 L2039.5,409.2969 L2049.5,409.2969 L2039.5,399.2969 " fill="#FEFFDD" style="stroke:#181818;stroke-width:0.5;"/><text fill="#000000" font-family="sans-serif" font-size="13" lengthAdjust="spacing" textLength="180" x="1854.5" y="416.3638">"24 facedown cards in total"</text></g><g id="elem_card2"><rect fill="#F1F1F1" height="77.1875" style="stroke:#181818;stroke-width:0.5;" width="118" x="7" y="236.2969"/><text fill="#000000" font-family="sans-serif" font-size="14" lengthAdjust="spacing" textLength="38" x="47" y="251.292">:Card</text><line style="stroke:#181818;stroke-width:0.5;" x1="8" x2="124" y1="256.5938" y2="256.5938"/><text fill="#000000" font-family="sans-serif" font-size="14" lengthAdjust="spacing" textLength="98" x="13" y="273.5889">faceup = true</text><text fill="#000000" font-family="sans-serif" font-size="14" lengthAdjust="spacing" textLength="106" x="13" y="289.8857">rank = random</text><text fill="#000000" font-family="sans-serif" font-size="14" lengthAdjust="spacing" textLength="100" x="13" y="306.1826">suit = random</text></g><g id="elem_card3"><rect fill="#F1F1F1" height="77.1875" style="stroke:#181818;stroke-width:0.5;" width="118" x="231" y="236.2969"/><text fill="#000000" font-family="sans-serif" font-size="14" lengthAdjust="spacing" textLength="38" x="271" y="251.292">:Card</text><line style="stroke:#181818;stroke-width:0.5;" x1="232" x2="348" y1="256.5938" y2="256.5938"/><text fill="#000000" font-family="sans-serif" font-size="14" lengthAdjust="spacing" textLength="102" x="237" y="273.5889">faceup = false</text><text fill="#000000" font-family="sans-serif" font-size="14" lengthAdjust="spacing" textLength="106" x="237" y="289.8857">rank = random</text><text fill="#000000" font-family="sans-serif" font-size="14" lengthAdjust="spacing" textLength="100" x="237" y="306.1826">suit = random</text></g><g id="elem_card4"><rect fill="#F1F1F1" height="77.1875" style="stroke:#181818;stroke-width:0.5;" width="118" x="175" y="373.2969"/><text fill="#000000" font-family="sans-serif" font-size="14" lengthAdjust="spacing" textLength="38" x="215" y="388.292">:Card</text><line style="stroke:#181818;stroke-width:0.5;" x1="176" x2="292" y1="393.5938" y2="393.5938"/><text fill="#000000" font-family="sans-serif" font-size="14" lengthAdjust="spacing" textLength="98" x="181" y="410.5889">faceup = true</text><text fill="#000000" font-family="sans-serif" font-size="14" lengthAdjust="spacing" textLength="106" x="181" y="426.8857">rank = random</text><text fill="#000000" font-family="sans-serif" font-size="14" lengthAdjust="spacing" textLength="100" x="181" y="443.1826">suit = random</text></g><g id="elem_card5"><rect fill="#F1F1F1" height="77.1875" style="stroke:#181818;stroke-width:0.5;" width="118" x="455" y="236.2969"/><text fill="#000000" font-family="sans-serif" font-size="14" lengthAdjust="spacing" textLength="38" x="495" y="251.292">:Card</text><line style="stroke:#181818;stroke-width:0.5;" x1="456" x2="572" y1="256.5938" y2="256.5938"/><text fill="#000000" font-family="sans-serif" font-size="14" lengthAdjust="spacing" textLength="102" x="461" y="273.5889">faceup = false</text><text fill="#000000" font-family="sans-serif" font-size="14" lengthAdjust="spacing" textLength="106" x="461" y="289.8857">rank = random</text><text fill="#000000" font-family="sans-serif" font-size="14" lengthAdjust="spacing" textLength="100" x="461" y="306.1826">suit = random</text></g><g id="elem_card6"><rect fill="#F1F1F1" height="77.1875" style="stroke:#181818;stroke-width:0.5;" width="118" x="399" y="510.2969"/><text fill="#000000" font-family="sans-serif" font-size="14" lengthAdjust="spacing" textLength="38" x="439" y="525.292">:Card</text><line style="stroke:#181818;stroke-width:0.5;" x1="400" x2="516" y1="530.5938" y2="530.5938"/><text fill="#000000" font-family="sans-serif" font-size="14" lengthAdjust="spacing" textLength="98" x="405" y="547.5889">faceup = true</text><text fill="#000000" font-family="sans-serif" font-size="14" lengthAdjust="spacing" textLength="106" x="405" y="563.8857">rank = random</text><text fill="#000000" font-family="sans-serif" font-size="14" lengthAdjust="spacing" textLength="100" x="405" y="580.1826">suit = random</text></g><g id="elem_card43"><rect fill="#F1F1F1" height="77.1875" style="stroke:#181818;stroke-width:0.5;" width="118" x="455" y="373.2969"/><text fill="#000000" font-family="sans-serif" font-size="14" lengthAdjust="spacing" textLength="38" x="495" y="388.292">:Card</text><line style="stroke:#181818;stroke-width:0.5;" x1="456" x2="572" y1="393.5938" y2="393.5938"/><text fill="#000000" font-family="sans-serif" font-size="14" lengthAdjust="spacing" textLength="102" x="461" y="410.5889">faceup = false</text><text fill="#000000" font-family="sans-serif" font-size="14" lengthAdjust="spacing" textLength="106" x="461" y="426.8857">rank = random</text><text fill="#000000" font-family="sans-serif" font-size="14" lengthAdjust="spacing" textLength="100" x="461" y="443.1826">suit = random</text></g><g id="elem_card7"><rect fill="#F1F1F1" height="77.1875" style="stroke:#181818;stroke-width:0.5;" width="118" x="679" y="236.2969"/><text fill="#000000" font-family="sans-serif" font-size="14" lengthAdjust="spacing" textLength="38" x="719" y="251.292">:Card</text><line style="stroke:#181818;stroke-width:0.5;" x1="680" x2="796" y1="256.5938" y2="256.5938"/><text fill="#000000" font-family="sans-serif" font-size="14" lengthAdjust="spacing" textLength="102" x="685" y="273.5889">faceup = false</text><text fill="#000000" font-family="sans-serif" font-size="14" lengthAdjust="spacing" textLength="106" x="685" y="289.8857">rank = random</text><text fill="#000000" font-family="sans-serif" font-size="14" lengthAdjust="spacing" textLength="100" x="685" y="306.1826">suit = random</text></g><g id="elem_GMN548735"><path d="M640.5,399.2969 L640.5,424.4297 A0,0 0 0 0 640.5,424.4297 L835.5,424.4297 A0,0 0 0 0 835.5,424.4297 L835.5,409.2969 L825.5,399.2969 L742,399.2969 L738,313.4019 L734,399.2969 L640.5,399.2969 A0,0 0 0 0 640.5,399.2969 " fill="#FEFFDD" style="stroke:#181818;stroke-width:0.5;"/><path d="M825.5,399.2969 L825.5,409.2969 L835.5,409.2969 L825.5,399.2969 " fill="#FEFFDD" style="stroke:#181818;stroke-width:0.5;"/><text fill="#000000" font-family="sans-serif" font-size="13" lengthAdjust="spacing" textLength="174" x="646.5" y="416.3638">"3 faceDown cards in total"</text></g><g id="elem_card8"><rect fill="#F1F1F1" height="77.1875" style="stroke:#181818;stroke-width:0.5;" width="118" x="832" y="236.2969"/><text fill="#000000" font-family="sans-serif" font-size="14" lengthAdjust="spacing" textLength="38" x="872" y="251.292">:Card</text><line style="stroke:#181818;stroke-width:0.5;" x1="833" x2="949" y1="256.5938" y2="256.5938"/><text fill="#000000" font-family="sans-serif" font-size="14" lengthAdjust="spacing" textLength="98" x="838" y="273.5889">faceup = true</text><text fill="#000000" font-family="sans-serif" font-size="14" lengthAdjust="spacing" textLength="106" x="838" y="289.8857">rank = random</text><text fill="#000000" font-family="sans-serif" font-size="14" lengthAdjust="spacing" textLength="100" x="838" y="306.1826">suit = random</text></g><g id="elem_card9"><rect fill="#F1F1F1" height="77.1875" style="stroke:#181818;stroke-width:0.5;" width="118" x="985" y="236.2969"/><text fill="#000000" font-family="sans-serif" font-size="14" lengthAdjust="spacing" textLength="38" x="1025" y="251.292">:Card</text><line style="stroke:#181818;stroke-width:0.5;" x1="986" x2="1102" y1="256.5938" y2="256.5938"/><text fill="#000000" font-family="sans-serif" font-size="14" lengthAdjust="spacing" textLength="102" x="991" y="273.5889">faceup = false</text><text fill="#000000" font-family="sans-serif" font-size="14" lengthAdjust="spacing" textLength="106" x="991" y="289.8857">rank = random</text><text fill="#000000" font-family="sans-serif" font-size="14" lengthAdjust="spacing" textLength="100" x="991" y="306.1826">suit = random</text></g><g id="elem_GMN548743"><path d="M946.5,399.2969 L946.5,424.4297 A0,0 0 0 0 946.5,424.4297 L1141.5,424.4297 A0,0 0 0 0 1141.5,424.4297 L1141.5,409.2969 L1131.5,399.2969 L1048,399.2969 L1044,313.4019 L1040,399.2969 L946.5,399.2969 A0,0 0 0 0 946.5,399.2969 " fill="#FEFFDD" style="stroke:#181818;stroke-width:0.5;"/><path d="M1131.5,399.2969 L1131.5,409.2969 L1141.5,409.2969 L1131.5,399.2969 " fill="#FEFFDD" style="stroke:#181818;stroke-width:0.5;"/><text fill="#000000" font-family="sans-serif" font-size="13" lengthAdjust="spacing" textLength="174" x="952.5" y="416.3638">"4 faceDown cards in total"</text></g><g id="elem_card10"><rect fill="#F1F1F1" height="77.1875" style="stroke:#181818;stroke-width:0.5;" width="118" x="1138" y="236.2969"/><text fill="#000000" font-family="sans-serif" font-size="14" lengthAdjust="spacing" textLength="38" x="1178" y="251.292">:Card</text><line style="stroke:#181818;stroke-width:0.5;" x1="1139" x2="1255" y1="256.5938" y2="256.5938"/><text fill="#000000" font-family="sans-serif" font-size="14" lengthAdjust="spacing" textLength="98" x="1144" y="273.5889">faceup = true</text><text fill="#000000" font-family="sans-serif" font-size="14" lengthAdjust="spacing" textLength="106" x="1144" y="289.8857">rank = random</text><text fill="#000000" font-family="sans-serif" font-size="14" lengthAdjust="spacing" textLength="100" x="1144" y="306.1826">suit = random</text></g><g id="elem_card11"><rect fill="#F1F1F1" height="77.1875" style="stroke:#181818;stroke-width:0.5;" width="118" x="1291" y="236.2969"/><text fill="#000000" font-family="sans-serif" font-size="14" lengthAdjust="spacing" textLength="38" x="1331" y="251.292">:Card</text><line style="stroke:#181818;stroke-width:0.5;" x1="1292" x2="1408" y1="256.5938" y2="256.5938"/><text fill="#000000" font-family="sans-serif" font-size="14" lengthAdjust="spacing" textLength="102" x="1297" y="273.5889">faceup = false</text><text fill="#000000" font-family="sans-serif" font-size="14" lengthAdjust="spacing" textLength="106" x="1297" y="289.8857">rank = random</text><text fill="#000000" font-family="sans-serif" font-size="14" lengthAdjust="spacing" textLength="100" x="1297" y="306.1826">suit = random</text></g><g id="elem_GMN548751"><path d="M1252.5,399.2969 L1252.5,424.4297 A0,0 0 0 0 1252.5,424.4297 L1447.5,424.4297 A0,0 0 0 0 1447.5,424.4297 L1447.5,409.2969 L1437.5,399.2969 L1354,399.2969 L1350,313.4019 L1346,399.2969 L1252.5,399.2969 A0,0 0 0 0 1252.5,399.2969 " fill="#FEFFDD" style="stroke:#181818;stroke-width:0.5;"/><path d="M1437.5,399.2969 L1437.5,409.2969 L1447.5,409.2969 L1437.5,399.2969 " fill="#FEFFDD" style="stroke:#181818;stroke-width:0.5;"/><text fill="#000000" font-family="sans-serif" font-size="13" lengthAdjust="spacing" textLength="174" x="1258.5" y="416.3638">"5 faceDown cards in total"</text></g><g id="elem_card12"><rect fill="#F1F1F1" height="77.1875" style="stroke:#181818;stroke-width:0.5;" width="118" x="1444" y="236.2969"/><text fill="#000000" font-family="sans-serif" font-size="14" lengthAdjust="spacing" textLength="38" x="1484" y="251.292">:Card</text><line style="stroke:#181818;stroke-width:0.5;" x1="1445" x2="1561" y1="256.5938" y2="256.5938"/><text fill="#000000" font-family="sans-serif" font-size="14" lengthAdjust="spacing" textLength="98" x="1450" y="273.5889">faceup = true</text><text fill="#000000" font-family="sans-serif" font-size="14" lengthAdjust="spacing" textLength="106" x="1450" y="289.8857">rank = random</text><text fill="#000000" font-family="sans-serif" font-size="14" lengthAdjust="spacing" textLength="100" x="1450" y="306.1826">suit = random</text></g><g id="elem_card13"><rect fill="#F1F1F1" height="77.1875" style="stroke:#181818;stroke-width:0.5;" width="118" x="1597" y="236.2969"/><text fill="#000000" font-family="sans-serif" font-size="14" lengthAdjust="spacing" textLength="38" x="1637" y="251.292">:Card</text><line style="stroke:#181818;stroke-width:0.5;" x1="1598" x2="1714" y1="256.5938" y2="256.5938"/><text fill="#000000" font-family="sans-serif" font-size="14" lengthAdjust="spacing" textLength="102" x="1603" y="273.5889">faceup = false</text><text fill="#000000" font-family="sans-serif" font-size="14" lengthAdjust="spacing" textLength="106" x="1603" y="289.8857">rank = random</text><text fill="#000000" font-family="sans-serif" font-size="14" lengthAdjust="spacing" textLength="100" x="1603" y="306.1826">suit = random</text></g><g id="elem_GMN548759"><path d="M1558.5,399.2969 L1558.5,424.4297 A0,0 0 0 0 1558.5,424.4297 L1753.5,424.4297 A0,0 0 0 0 1753.5,424.4297 L1753.5,409.2969 L1743.5,399.2969 L1660,399.2969 L1656,313.4019 L1652,399.2969 L1558.5,399.2969 A0,0 0 0 0 1558.5,399.2969 " fill="#FEFFDD" style="stroke:#181818;stroke-width:0.5;"/><path d="M1743.5,399.2969 L1743.5,409.2969 L1753.5,409.2969 L1743.5,399.2969 " fill="#FEFFDD" style="stroke:#181818;stroke-width:0.5;"/><text fill="#000000" font-family="sans-serif" font-size="13" lengthAdjust="spacing" textLength="174" x="1564.5" y="416.3638">"6 faceDown cards in total"</text></g><g id="elem_card14"><rect fill="#F1F1F1" height="77.1875" style="stroke:#181818;stroke-width:0.5;" width="118" x="1750" y="236.2969"/><text fill="#000000" font-family="sans-serif" font-size="14" lengthAdjust="spacing" textLength="38" x="1790" y="251.292">:Card</text><line style="stroke:#181818;stroke-width:0.5;" x1="1751" x2="1867" y1="256.5938" y2="256.5938"/><text fill="#000000" font-family="sans-serif" font-size="14" lengthAdjust="spacing" textLength="98" x="1756" y="273.5889">faceup = true</text><text fill="#000000" font-family="sans-serif" font-size="14" lengthAdjust="spacing" textLength="106" x="1756" y="289.8857">rank = random</text><text fill="#000000" font-family="sans-serif" font-size="14" lengthAdjust="spacing" textLength="100" x="1756" y="306.1826">suit = random</text></g><!--MD5=[96c8cfa369f12aafcda8d6e6432f1546]
link klondike to foundation1--><g id="link_klondike_foundation1"><path codeLine="18" d="M1916.0459,86.3845 C1916.0459,86.3845 1965.63,118.9349 1985,140.2969 C2053.41,215.7509 2102.34,328.1699 2123.03,381.1479 " fill="none" id="klondike-foundation1" style="stroke:#181818;stroke-width:1.0;"/><polygon fill="#181818" points="2127.78,393.5679,2128.2941,383.7324,2125.9906,388.8991,2120.8239,386.5955,2127.78,393.5679" style="stroke:#181818;stroke-width:1.0;"/><line style="stroke:#181818;stroke-width:1.0;" x1="2125.9906" x2="2123.135" y1="388.8991" y2="381.4269"/><polygon fill="#181818" points="1905.7,80.3049,1908.8464,86.7933,1916.0459,86.3845,1912.8995,79.896,1905.7,80.3049" style="stroke:#181818;stroke-width:1.0;"/></g><!--MD5=[e16cc73ba8d051d7099ed2b9544f8874]
link klondike to foundation2--><g id="link_klondike_foundation2"><path codeLine="19" d="M1925.1157,83.9245 C1925.1157,83.9245 1994.89,117.1869 2025,140.2969 C2106.9,203.1479 2110.97,236.5339 2180,313.2969 C2201.45,337.1549 2225.91,364.2419 2243.59,383.8009 " fill="none" id="klondike-foundation2" style="stroke:#181818;stroke-width:1.0;"/><polygon fill="#181818" points="2252.4,393.5539,2249.3318,384.1951,2249.047,389.8448,2243.3973,389.5599,2252.4,393.5539" style="stroke:#181818;stroke-width:1.0;"/><line style="stroke:#181818;stroke-width:1.0;" x1="2249.047" x2="2243.685" y1="389.8448" y2="383.9099"/><polygon fill="#181818" points="1914.1,79.1649,1918.0213,85.2166,1925.1157,83.9245,1921.1944,77.8728,1914.1,79.1649" style="stroke:#181818;stroke-width:1.0;"/></g><!--MD5=[b6c8757c0262ac2424f4c5d03fe164dc]
link klondike to foundation3--><g id="link_klondike_foundation3"><path codeLine="20" d="M1926.2365,63.642 C1926.2365,63.642 2185.83,79.3059 2316,140.2969 C2375.67,168.2569 2401.33,176.4869 2429,236.2969 C2451.01,283.8739 2431.57,345.7499 2416.23,381.5939 " fill="none" id="klondike-foundation3" style="stroke:#181818;stroke-width:1.0;"/><polygon fill="#181818" points="2410.85,393.5479,2418.191,386.982,2412.9018,388.9883,2410.8956,383.6991,2410.85,393.5479" style="stroke:#181818;stroke-width:1.0;"/><line style="stroke:#181818;stroke-width:1.0;" x1="2412.9018" x2="2416.19" y1="388.9883" y2="381.6934"/><polygon fill="#181818" points="1914.24,63.3519,1920.1415,67.4958,1926.2365,63.642,1920.335,59.4981,1914.24,63.3519" style="stroke:#181818;stroke-width:1.0;"/></g><!--MD5=[138e02963448fbc781b60389d772b717]
link klondike to foundation4--><g id="link_klondike_foundation4"><path codeLine="21" d="M1926.2884,66.8481 C1926.2884,66.8481 2299.44,98.2789 2376,140.2969 C2469.43,191.5759 2513.44,322.0939 2529.05,381.0689 " fill="none" id="klondike-foundation4" style="stroke:#181818;stroke-width:1.0;"/><polygon fill="#181818" points="2532.26,393.7949,2533.9345,384.0894,2531.0357,388.9471,2526.178,386.0483,2532.26,393.7949" style="stroke:#181818;stroke-width:1.0;"/><line style="stroke:#181818;stroke-width:1.0;" x1="2531.0357" x2="2529.075" y1="388.9471" y2="381.1919"/><polygon fill="#181818" points="1914.32,65.9779,1920.0141,70.4025,1926.2884,66.8481,1920.5943,62.4235,1914.32,65.9779" style="stroke:#181818;stroke-width:1.0;"/></g><!--MD5=[dc3ce9bb748f29abe953416d64d14ca9]
link player to goal--><g id="link_player_goal"><path codeLine="22" d="M2272.77,176.6869 C2279.45,196.8109 2290.46,229.9799 2297.72,251.8589 " fill="none" id="player-to-goal" style="stroke:#181818;stroke-width:1.0;"/><polygon fill="#181818" points="2299.3,256.6179,2300.2611,246.816,2297.7249,251.8725,2292.6684,249.3362,2299.3,256.6179" style="stroke:#181818;stroke-width:1.0;"/></g><!--MD5=[060bf8344952a1e6a12932c8a2598877]
link goal to foundation1--><g id="link_goal_foundation1"><path codeLine="23" d="M2283.34,292.8949 C2251.82,317.7799 2193.4,363.8999 2159.73,390.4829 " fill="none" id="goal-to-foundation1" style="stroke:#181818;stroke-width:1.0;"/><polygon fill="#181818" points="2155.75,393.6249,2165.2922,391.1865,2159.674,390.5262,2160.3343,384.908,2155.75,393.6249" style="stroke:#181818;stroke-width:1.0;"/></g><!--MD5=[dbb69cd64a84ee39d11dbff1d14e1d30]
link goal to foundation2--><g id="link_goal_foundation2"><path codeLine="24" d="M2300.31,292.8949 C2293.68,317.1069 2281.53,361.4189 2274.17,388.2829 " fill="none" id="goal-to-foundation2" style="stroke:#181818;stroke-width:1.0;"/><polygon fill="#181818" points="2272.76,393.4119,2278.9996,385.7916,2274.0835,388.5902,2271.2849,383.6741,2272.76,393.4119" style="stroke:#181818;stroke-width:1.0;"/></g><!--MD5=[1d67a3e767e0b53bfdd8b30e9376c386]
link goal to foundation3--><g id="link_goal_foundation3"><path codeLine="25" d="M2317.29,292.8949 C2334.9,317.4089 2367.32,362.5299 2386.54,389.2819 " fill="none" id="goal-to-foundation3" style="stroke:#181818;stroke-width:1.0;"/><polygon fill="#181818" points="2389.51,393.4119,2387.5037,383.7695,2386.5911,389.3523,2381.0083,388.4398,2389.51,393.4119" style="stroke:#181818;stroke-width:1.0;"/></g><!--MD5=[9d4186067dc66b3f9f7bf09a887641a3]
link goal to foundation4--><g id="link_goal_foundation4"><path codeLine="26" d="M2334.26,292.8949 C2377.1,317.9319 2456.72,364.4629 2502.07,390.9669 " fill="none" id="goal-to-foundation4" style="stroke:#181818;stroke-width:1.0;"/><polygon fill="#181818" points="2506.62,393.6249,2500.8559,385.639,2502.2993,391.1085,2496.8298,392.552,2506.62,393.6249" style="stroke:#181818;stroke-width:1.0;"/></g><!--MD5=[65a51531303425f1796fa83f80986e73]
link klondike to player--><g id="link_klondike_player"><path codeLine="27" d="M1925.7229,75.8736 C1925.7229,75.8736 2149.75,129.3239 2222.57,146.6979 " fill="none" id="klondike-player" style="stroke:#181818;stroke-width:1.0;"/><polygon fill="#181818" points="2235.31,149.7349,2227.4893,143.7485,2230.4475,148.5702,2225.6258,151.5285,2235.31,149.7349" style="stroke:#181818;stroke-width:1.0;"/><line style="stroke:#181818;stroke-width:1.0;" x1="2230.4475" x2="2222.66" y1="148.5702" y2="146.7184"/><polygon fill="#181818" points="1914.05,73.0909,1918.9589,78.3732,1925.7229,75.8736,1920.814,70.5913,1914.05,73.0909" style="stroke:#181818;stroke-width:1.0;"/></g><!--MD5=[287a83405bd00fc32fac09f2a6d13eac]
link klondike to waste--><g id="link_klondike_waste"><path codeLine="28" d="M1926.1189,66.172 C1926.1189,66.172 2328.34,93.9249 2562,140.2969 C2566.53,141.1959 2571.21,142.2769 2575.87,143.4529 " fill="none" id="klondike-waste" style="stroke:#181818;stroke-width:1.0;"/><polygon fill="#181818" points="2588.78,146.9469,2581.1327,140.7405,2583.9526,145.6444,2579.0487,148.4643,2588.78,146.9469" style="stroke:#181818;stroke-width:1.0;"/><line style="stroke:#181818;stroke-width:1.0;" x1="2583.9526" x2="2576.235" y1="145.6444" y2="143.5509"/><polygon fill="#181818" points="1914.14,65.4599,1919.8921,69.8089,1926.1189,66.172,1920.3668,61.823,1914.14,65.4599" style="stroke:#181818;stroke-width:1.0;"/></g><!--MD5=[26386b361e4bb51276f779af84de29d4]
link klondike to stock--><g id="link_klondike_stock"><path codeLine="29" d="M1891.4892,90.46 C1891.4892,90.46 1909.83,117.3879 1918,129.3959 " fill="none" id="klondike-stock" style="stroke:#181818;stroke-width:1.0;"/><polygon fill="#181818" points="1925.34,140.1649,1923.5804,130.4745,1922.5257,136.0321,1916.968,134.9774,1925.34,140.1649" style="stroke:#181818;stroke-width:1.0;"/><line style="stroke:#181818;stroke-width:1.0;" x1="1922.5257" x2="1918.02" y1="136.0321" y2="129.4194"/><polygon fill="#181818" points="1884.74,80.5379,1884.8072,87.7487,1891.4892,90.46,1891.422,83.2492,1884.74,80.5379" style="stroke:#181818;stroke-width:1.0;"/></g><!--MD5=[2bf5c00998ada9c70274a8a49a571124]
link stock to card1--><g id="link_stock_card1"><path codeLine="30" d="M1943.357,188.4113 C1943.357,188.4113 1948.4,211.5149 1950.87,222.8149 " fill="none" id="stock-card1" style="stroke:#181818;stroke-width:1.0;"/><polygon fill="#181818" points="1953.71,235.8219,1955.6971,226.1756,1952.6429,230.9371,1947.8814,227.8829,1953.71,235.8219" style="stroke:#181818;stroke-width:1.0;"/><line style="stroke:#181818;stroke-width:1.0;" x1="1952.6429" x2="1950.935" y1="230.9371" y2="223.1209"/><polygon fill="none" points="1940.8,176.6869,1938.1704,183.4014,1943.357,188.4113,1945.9866,181.6968,1940.8,176.6869" style="stroke:#181818;stroke-width:1.0;"/></g><!--MD5=[1beb51137f0f5ba80534e5ba4c61c933]
link klondike to tableau1--><g id="link_klondike_tableau1"><path codeLine="37" d="M1819.7407,63.7947 C1819.7407,63.7947 854.957,78.8419 235,140.2969 C214.902,142.2889 192.906,145.4189 173.769,148.4519 " fill="none" id="klondike-tableau1" style="stroke:#181818;stroke-width:1.0;"/><polygon fill="#181818" points="160.722,150.5739,170.2474,153.077,165.6571,149.7711,168.9631,145.1808,160.722,150.5739" style="stroke:#181818;stroke-width:1.0;"/><line style="stroke:#181818;stroke-width:1.0;" x1="165.6571" x2="173.5535" y1="149.7711" y2="148.4869"/><polygon fill="#181818" points="1831.74,63.6629,1825.6964,59.7291,1819.7407,63.7947,1825.7843,67.7286,1831.74,63.6629" style="stroke:#181818;stroke-width:1.0;"/></g><!--MD5=[bb8d2c0da65194304766e7489c680cf0]
link tableau1 to card2--><g id="link_tableau1_card2"><path codeLine="43" d="M108.9948,187.4292 C108.9948,187.4292 96.8705,211.7849 90.8298,223.9199 " fill="none" id="tableau1-card2" style="stroke:#181818;stroke-width:1.0;"/><polygon fill="#181818" points="84.9047,235.8219,92.4967,229.548,87.1332,231.346,85.3353,225.9824,84.9047,235.8219" style="stroke:#181818;stroke-width:1.0;"/><line style="stroke:#181818;stroke-width:1.0;" x1="87.1332" x2="90.6982" y1="231.346" y2="224.1839"/><polygon fill="none" points="114.343,176.6869,108.0881,180.2753,108.9948,187.4292,115.2497,183.8408,114.343,176.6869" style="stroke:#181818;stroke-width:1.0;"/></g><!--MD5=[094ecbaf38ab99f9356a703fa8fa35ce]
link klondike to tableau2--><g id="link_klondike_tableau2"><path codeLine="44" d="M1819.8853,65.9534 C1819.8853,65.9534 1021.62,106.7979 515,140.2969 C455.182,144.2519 386.478,149.5539 340.887,153.1779 " fill="none" id="klondike-tableau2" style="stroke:#181818;stroke-width:1.0;"/><polygon fill="#181818" points="327.805,154.2229,337.0947,157.4941,332.7891,153.8251,336.4582,149.5195,327.805,154.2229" style="stroke:#181818;stroke-width:1.0;"/><line style="stroke:#181818;stroke-width:1.0;" x1="332.7891" x2="340.763" y1="153.8251" y2="153.1884"/><polygon fill="#181818" points="1831.87,65.3469,1825.6755,61.6553,1819.8853,65.9534,1826.0799,69.645,1831.87,65.3469" style="stroke:#181818;stroke-width:1.0;"/></g><!--MD5=[98c65ceb1887cf167382108c09cf4611]
link tableau2 to card3--><g id="link_tableau2_card3"><path codeLine="55" d="M290,188.6869 C290,188.6869 290,211.5149 290,222.8149 " fill="none" id="tableau2-card3" style="stroke:#181818;stroke-width:1.0;"/><polygon fill="#181818" points="290,235.8219,294,226.8219,290,230.8219,286,226.8219,290,235.8219" style="stroke:#181818;stroke-width:1.0;"/><line style="stroke:#181818;stroke-width:1.0;" x1="290" x2="290" y1="230.8219" y2="222.8219"/><polygon fill="none" points="290,176.6869,286,182.6869,290,188.6869,294,182.6869,290,176.6869" style="stroke:#181818;stroke-width:1.0;"/></g><!--MD5=[a910a18bbb6bb2fc85941fc481d27f80]
link tableau2 to card4--><g id="link_tableau2_card4"><path codeLine="56" d="M254.9266,183.9734 C254.9266,183.9734 221.406,216.0029 213,236.2969 C196.568,275.9669 204.546,324.7509 215.063,360.6419 " fill="none" id="tableau2-card4" style="stroke:#181818;stroke-width:1.0;"/><polygon fill="#181818" points="219.013,373.2409,220.1387,363.4566,217.5178,368.4697,212.5047,365.8488,219.013,373.2409" style="stroke:#181818;stroke-width:1.0;"/><line style="stroke:#181818;stroke-width:1.0;" x1="217.5178" x2="215.1245" y1="368.4697" y2="360.8364"/><polygon fill="none" points="264.284,176.4609,257.1011,177.098,254.9266,183.9734,262.1095,183.3363,264.284,176.4609" style="stroke:#181818;stroke-width:1.0;"/></g><!--MD5=[b1984f88708746d0b940a7c45d4aa8ac]
link card3 to card4--><!--MD5=[cbefa5983e82e20b321139d4c5bae802]
link klondike to tableau3--><g id="link_klondike_tableau3"><path codeLine="58" d="M1819.8807,67.1221 C1819.8807,67.1221 827.41,138.7269 620.713,153.6379 " fill="none" id="klondike-tableau3" style="stroke:#181818;stroke-width:1.0;"/><polygon fill="#181818" points="607.66,154.5799,616.9246,157.9217,612.647,154.22,616.3488,149.9425,607.66,154.5799" style="stroke:#181818;stroke-width:1.0;"/><line style="stroke:#181818;stroke-width:1.0;" x1="612.647" x2="620.6265" y1="154.22" y2="153.6444"/><polygon fill="#181818" points="1831.85,66.2649,1825.5796,62.7037,1819.8807,67.1221,1826.1511,70.6833,1831.85,66.2649" style="stroke:#181818;stroke-width:1.0;"/></g><!--MD5=[b736dbc6d55931ec00e179cd289a5703]
link tableau3 to card5--><g id="link_tableau3_card5"><path codeLine="74" d="M556.2231,187.4668 C556.2231,187.4668 544.329,211.7849 538.394,223.9199 " fill="none" id="tableau3-card5" style="stroke:#181818;stroke-width:1.0;"/><polygon fill="#181818" points="532.573,235.8219,540.1203,229.4942,534.7696,231.3302,532.9336,225.9796,532.573,235.8219" style="stroke:#181818;stroke-width:1.0;"/><line style="stroke:#181818;stroke-width:1.0;" x1="534.7696" x2="538.2845" y1="231.3302" y2="224.1439"/><polygon fill="none" points="561.495,176.6869,555.2657,180.3195,556.2231,187.4668,562.4523,183.8341,561.495,176.6869" style="stroke:#181818;stroke-width:1.0;"/></g><!--MD5=[334c963ce450c0404a75239568a066a0]
link tableau3 to card6--><g id="link_tableau3_card6"><path codeLine="75" d="M521.0616,173.7324 C521.0616,173.7324 454.783,205.4539 437,236.2969 C389.791,318.1779 416.638,433.0389 438.558,497.9599 " fill="none" id="tableau3-card6" style="stroke:#181818;stroke-width:1.0;"/><polygon fill="#181818" points="442.853,510.2538,443.661,500.4381,441.204,505.5335,436.1086,503.0765,442.853,510.2538" style="stroke:#181818;stroke-width:1.0;"/><line style="stroke:#181818;stroke-width:1.0;" x1="441.204" x2="438.5655" y1="505.5335" y2="497.9811"/><polygon fill="none" points="532.325,169.5929,525.3135,167.9082,521.0616,173.7324,528.0731,175.4171,532.325,169.5929" style="stroke:#181818;stroke-width:1.0;"/></g><!--MD5=[ddec354dd1faf5fb4335627432ac1275]
link tableau3 to card43--><g id="link_tableau3_card43"><path codeLine="76" d="M581.194,187.7349 C581.194,187.7349 604.339,271.5779 590,313.2969 C583.881,331.0989 573.034,348.1479 561.416,362.8699 " fill="none" id="tableau3-card43" style="stroke:#181818;stroke-width:1.0;"/><polygon fill="#181818" points="552.877,373.1559,561.7034,368.7862,556.0708,369.3088,555.5482,363.6762,552.877,373.1559" style="stroke:#181818;stroke-width:1.0;"/><line style="stroke:#181818;stroke-width:1.0;" x1="556.0708" x2="561.181" y1="369.3088" y2="363.1534"/><polygon fill="none" points="577.147,176.4379,575.4048,183.4354,581.194,187.7349,582.9362,180.7374,577.147,176.4379" style="stroke:#181818;stroke-width:1.0;"/></g><!--MD5=[2f24203ffe91da2b8a3b40aa24d85ec1]
link card5 to card43--><!--MD5=[3ae06b5c5647a0a69ef00c124815a3a7]
link card43 to card6--><!--MD5=[f874c454589ec8a79631ad5608d2170e]
link klondike to tableau4--><g id="link_klondike_tableau4"><path codeLine="79" d="M1819.795,68.3932 C1819.795,68.3932 1109.3,136.4009 941.627,152.4509 " fill="none" id="klondike-tableau4" style="stroke:#181818;stroke-width:1.0;"/><polygon fill="#181818" points="928.603,153.6979,937.9431,156.8222,933.5803,153.2215,937.181,148.8586,928.603,153.6979" style="stroke:#181818;stroke-width:1.0;"/><line style="stroke:#181818;stroke-width:1.0;" x1="933.5803" x2="941.5435" y1="153.2215" y2="152.4584"/><polygon fill="#181818" points="1831.74,67.2459,1825.3851,63.8378,1819.795,68.3932,1826.1499,71.8012,1831.74,67.2459" style="stroke:#181818;stroke-width:1.0;"/></g><!--MD5=[ea33bd9e5e4df755ee1d32ee7f662ab7]
link tableau4 to card7--><g id="link_tableau4_card7"><path codeLine="91" d="M858.4861,183.6283 C858.4861,183.6283 818.887,213.2639 798.912,228.2119 " fill="none" id="tableau4-card7" style="stroke:#181818;stroke-width:1.0;"/><polygon fill="#181818" points="788.32,236.1389,797.9224,233.9494,792.3233,233.1433,793.1294,227.5442,788.32,236.1389" style="stroke:#181818;stroke-width:1.0;"/><line style="stroke:#181818;stroke-width:1.0;" x1="792.3233" x2="798.728" y1="233.1433" y2="228.3499"/><polygon fill="none" points="868.094,176.4389,860.8936,176.831,858.4861,183.6283,865.6865,183.2362,868.094,176.4389" style="stroke:#181818;stroke-width:1.0;"/></g><!--MD5=[c85e82f72378ebf10955c8660d0556c1]
link tableau4 to card8--><g id="link_tableau4_card8"><path codeLine="92" d="M891,188.6869 C891,188.6869 891,211.5149 891,222.8149 " fill="none" id="tableau4-card8" style="stroke:#181818;stroke-width:1.0;"/><polygon fill="#181818" points="891,235.8219,895,226.8219,891,230.8219,887,226.8219,891,235.8219" style="stroke:#181818;stroke-width:1.0;"/><line style="stroke:#181818;stroke-width:1.0;" x1="891" x2="891" y1="230.8219" y2="222.8219"/><polygon fill="none" points="891,176.6869,887,182.6869,891,188.6869,895,182.6869,891,176.6869" style="stroke:#181818;stroke-width:1.0;"/></g><!--MD5=[22e3cb307af7d2ee0a41353ee5b8f2d6]
link klondike to tableau5--><g id="link_klondike_tableau5"><path codeLine="93" d="M1820.0937,70.6482 C1820.0937,70.6482 1372.59,132.8809 1248,150.2059 " fill="none" id="klondike-tableau5" style="stroke:#181818;stroke-width:1.0;"/><polygon fill="#181818" points="1234.83,152.0369,1244.2942,154.7626,1239.7826,151.35,1243.1952,146.8384,1234.83,152.0369" style="stroke:#181818;stroke-width:1.0;"/><line style="stroke:#181818;stroke-width:1.0;" x1="1239.7826" x2="1247.705" y1="151.35" y2="150.2464"/><polygon fill="#181818" points="1831.98,68.9999,1825.4874,65.8619,1820.0937,70.6482,1826.5863,73.7861,1831.98,68.9999" style="stroke:#181818;stroke-width:1.0;"/></g><!--MD5=[512dd39fa2719085612c45eb2d02485d]
link tableau5 to card9--><g id="link_tableau5_card9"><path codeLine="105" d="M1164.4808,183.6266 C1164.4808,183.6266 1124.89,213.2639 1104.91,228.2119 " fill="none" id="tableau5-card9" style="stroke:#181818;stroke-width:1.0;"/><polygon fill="#181818" points="1094.32,236.1389,1103.9228,233.9511,1098.3238,233.144,1099.131,227.545,1094.32,236.1389" style="stroke:#181818;stroke-width:1.0;"/><line style="stroke:#181818;stroke-width:1.0;" x1="1098.3238" x2="1104.725" y1="233.144" y2="228.3499"/><polygon fill="none" points="1174.09,176.4389,1166.8895,176.8297,1164.4808,183.6266,1171.6813,183.2358,1174.09,176.4389" style="stroke:#181818;stroke-width:1.0;"/></g><!--MD5=[c79af4e04de6e64d9d15a62976ed2abb]
link tableau5 to card10--><g id="link_tableau5_card10"><path codeLine="106" d="M1197,188.6869 C1197,188.6869 1197,211.5149 1197,222.8149 " fill="none" id="tableau5-card10" style="stroke:#181818;stroke-width:1.0;"/><polygon fill="#181818" points="1197,235.8219,1201,226.8219,1197,230.8219,1193,226.8219,1197,235.8219" style="stroke:#181818;stroke-width:1.0;"/><line style="stroke:#181818;stroke-width:1.0;" x1="1197" x2="1197" y1="230.8219" y2="222.8219"/><polygon fill="none" points="1197,176.6869,1193,182.6869,1197,188.6869,1201,182.6869,1197,176.6869" style="stroke:#181818;stroke-width:1.0;"/></g><!--MD5=[047fe72304626cc4c9e9d56a34578381]
link klondike to tableau6--><g id="link_klondike_tableau6"><path codeLine="107" d="M1820.3592,76.6697 C1820.3592,76.6697 1622.78,126.8679 1553.3,144.5179 " fill="none" id="klondike-tableau6" style="stroke:#181818;stroke-width:1.0;"/><polygon fill="#181818" points="1540.58,147.7479,1550.2877,149.4094,1545.4262,146.5171,1548.3185,141.6556,1540.58,147.7479" style="stroke:#181818;stroke-width:1.0;"/><line style="stroke:#181818;stroke-width:1.0;" x1="1545.4262" x2="1553.18" y1="146.5171" y2="144.5469"/><polygon fill="#181818" points="1831.99,73.7159,1825.19,71.3159,1820.3592,76.6697,1827.1592,79.0697,1831.99,73.7159" style="stroke:#181818;stroke-width:1.0;"/></g><!--MD5=[9200c2cd76dbb8e6c89bd0bf9b757e5d]
link tableau6 to card11--><g id="link_tableau6_card11"><path codeLine="119" d="M1470.4808,183.6266 C1470.4808,183.6266 1430.89,213.2639 1410.91,228.2119 " fill="none" id="tableau6-card11" style="stroke:#181818;stroke-width:1.0;"/><polygon fill="#181818" points="1400.32,236.1389,1409.9228,233.9511,1404.3238,233.144,1405.131,227.545,1400.32,236.1389" style="stroke:#181818;stroke-width:1.0;"/><line style="stroke:#181818;stroke-width:1.0;" x1="1404.3238" x2="1410.725" y1="233.144" y2="228.3499"/><polygon fill="none" points="1480.09,176.4389,1472.8895,176.8297,1470.4808,183.6266,1477.6813,183.2358,1480.09,176.4389" style="stroke:#181818;stroke-width:1.0;"/></g><!--MD5=[8621e85c15af0695c6edc0f8220932eb]
link tableau6 to card12--><g id="link_tableau6_card12"><path codeLine="120" d="M1503,188.6869 C1503,188.6869 1503,211.5149 1503,222.8149 " fill="none" id="tableau6-card12" style="stroke:#181818;stroke-width:1.0;"/><polygon fill="#181818" points="1503,235.8219,1507,226.8219,1503,230.8219,1499,226.8219,1503,235.8219" style="stroke:#181818;stroke-width:1.0;"/><line style="stroke:#181818;stroke-width:1.0;" x1="1503" x2="1503" y1="230.8219" y2="222.8219"/><polygon fill="none" points="1503,176.6869,1499,182.6869,1503,188.6869,1507,182.6869,1503,176.6869" style="stroke:#181818;stroke-width:1.0;"/></g><!--MD5=[5bf424f0b04789d7fed758d9dd5bb2fb]
link klondike to tableau7--><g id="link_klondike_tableau7"><path codeLine="121" d="M1854.5108,90.46 C1854.5108,90.46 1836.17,117.3879 1828,129.3959 " fill="none" id="klondike-tableau7" style="stroke:#181818;stroke-width:1.0;"/><polygon fill="#181818" points="1820.66,140.1649,1829.032,134.9774,1823.4743,136.0321,1822.4196,130.4745,1820.66,140.1649" style="stroke:#181818;stroke-width:1.0;"/><line style="stroke:#181818;stroke-width:1.0;" x1="1823.4743" x2="1827.98" y1="136.0321" y2="129.4194"/><polygon fill="#181818" points="1861.26,80.5379,1854.578,83.2492,1854.5108,90.46,1861.1928,87.7487,1861.26,80.5379" style="stroke:#181818;stroke-width:1.0;"/></g><!--MD5=[89c4cdecb7408085bb033479870f1036]
link tableau7 to card13--><g id="link_tableau7_card13"><path codeLine="133" d="M1776.4808,183.6266 C1776.4808,183.6266 1736.89,213.2639 1716.91,228.2119 " fill="none" id="tableau7-card13" style="stroke:#181818;stroke-width:1.0;"/><polygon fill="#181818" points="1706.32,236.1389,1715.9228,233.9511,1710.3238,233.144,1711.131,227.545,1706.32,236.1389" style="stroke:#181818;stroke-width:1.0;"/><line style="stroke:#181818;stroke-width:1.0;" x1="1710.3238" x2="1716.725" y1="233.144" y2="228.3499"/><polygon fill="none" points="1786.09,176.4389,1778.8895,176.8297,1776.4808,183.6266,1783.6813,183.2358,1786.09,176.4389" style="stroke:#181818;stroke-width:1.0;"/></g><!--MD5=[4ba418072b7e503591f788017d7a97d5]
link tableau7 to card14--><g id="link_tableau7_card14"><path codeLine="134" d="M1809,188.6869 C1809,188.6869 1809,211.5149 1809,222.8149 " fill="none" id="tableau7-card14" style="stroke:#181818;stroke-width:1.0;"/><polygon fill="#181818" points="1809,235.8219,1813,226.8219,1809,230.8219,1805,226.8219,1809,235.8219" style="stroke:#181818;stroke-width:1.0;"/><line style="stroke:#181818;stroke-width:1.0;" x1="1809" x2="1809" y1="230.8219" y2="222.8219"/><polygon fill="none" points="1809,176.6869,1805,182.6869,1809,188.6869,1813,182.6869,1809,176.6869" style="stroke:#181818;stroke-width:1.0;"/></g><!--MD5=[1f1579bde6c312c465ea2df47f9e0994]
@startuml
title INITIAL STATE KLONDIKE
object ":Klondike" as klondike
object ":Tableau" as tableau1
object ":Tableau" as tableau2
object ":Tableau" as tableau3
object ":Tableau" as tableau4
object ":Tableau" as tableau5
object ":Tableau" as tableau6
object ":Tableau" as tableau7
object ":Stock" as stock
object ":Player" as player
object ":Foundation" as foundation1
object ":Foundation" as foundation2
object ":Foundation" as foundation3
object ":Foundation" as foundation4
object ":AllCardsToFoundationsGoal" as goal
object ":Waste" as waste
klondike *- -> foundation1
klondike *- -> foundation2
klondike *- -> foundation3
klondike *- -> foundation4
player - -> goal
goal - -> foundation1
goal - -> foundation2
goal - -> foundation3
goal - -> foundation4
klondike *- -> player
klondike *- -> waste
klondike *- -> stock
stock o- -> card1
object ":Card" as card1{
faceup = false
rank = random
suit = random
}
note bottom: "24 facedown cards in total"
klondike *- -> tableau1
object ":Card" as card2{
faceup = true
rank = random
suit = random
}
tableau1 o- -> card2
klondike *- -> tableau2
object ":Card" as card3{
faceup = false
rank = random
suit = random
}
object ":Card" as card4{
faceup = true
rank = random
suit = random
}
tableau2 o- -> card3
tableau2 o- -> card4
card3-d[hidden]->card4
klondike *- -> tableau3
object ":Card" as card5{
faceup = false
rank = random
suit = random
}
object ":Card" as card6{
faceup = true
rank = random
suit = random
}
object ":Card" as card43{
faceup = false
rank = random
suit = random
}
tableau3 o- -> card5
tableau3 o- -> card6
tableau3 o- -> card43
card5-d[hidden]->card43
card43-d[hidden]->card6
klondike *- -> tableau4
object ":Card" as card7{
faceup = false
rank = random
suit = random
}
note bottom: "3 faceDown cards in total"
object ":Card" as card8{
faceup = true
rank = random
suit = random
}
tableau4 o- -> card7
tableau4 o- -> card8
klondike *- -> tableau5
object ":Card" as card9{
faceup = false
rank = random
suit = random
}
note bottom: "4 faceDown cards in total"
object ":Card" as card10{
faceup = true
rank = random
suit = random
}
tableau5 o- -> card9
tableau5 o- -> card10
klondike *- -> tableau6
object ":Card" as card11{
faceup = false
rank = random
suit = random
}
note bottom: "5 faceDown cards in total"
object ":Card" as card12{
faceup = true
rank = random
suit = random
}
tableau6 o- -> card11
tableau6 o- -> card12
klondike *- -> tableau7
object ":Card" as card13{
faceup = false
rank = random
suit = random
}
note bottom: "6 faceDown cards in total"
object ":Card" as card14{
faceup = true
rank = random
suit = random
}
tableau7 o- -> card13
tableau7 o- -> card14
@enduml

PlantUML version 1.2022.3beta2(Unknown compile time)
(GPL source distribution)
Java Runtime: Java(TM) SE Runtime Environment
JVM: Java HotSpot(TM) 64-Bit Server VM
Default Encoding: UTF-8
Language: en
Country: US
--></g></svg>