<?xml version="1.0" encoding="UTF-8" standalone="no"?><svg xmlns="http://www.w3.org/2000/svg" xmlns:xlink="http://www.w3.org/1999/xlink" contentStyleType="text/css" height="732px" preserveAspectRatio="none" style="width:456px;height:732px;background:#FFFFFF;" version="1.1" viewBox="0 0 456 732" width="456px" zoomAndPan="magnify"><defs/><g><g id="InitialState"><rect fill="#F1F1F1" height="50" rx="12.5" ry="12.5" style="stroke:#181818;stroke-width:0.5;" width="107" x="90.5" y="230"/><line style="stroke:#181818;stroke-width:0.5;" x1="90.5" x2="197.5" y1="256.2969" y2="256.2969"/><text fill="#000000" font-family="sans-serif" font-size="14" lengthAdjust="spacing" textLength="87" x="100.5" y="247.9951">Initial_State</text></g><g id="Shuffled"><rect fill="#F1F1F1" height="50" rx="12.5" ry="12.5" style="stroke:#181818;stroke-width:0.5;" width="50" x="119" y="103"/><line style="stroke:#181818;stroke-width:0.5;" x1="119" x2="169" y1="129.2969" y2="129.2969"/><text fill="#000000" font-family="sans-serif" font-size="14" lengthAdjust="spacing" textLength="4" x="142" y="120.9951"> </text></g><g id="InsertA"><rect fill="#F1F1F1" height="50" rx="12.5" ry="12.5" style="stroke:#181818;stroke-width:0.5;" width="50" x="119" y="341"/><line style="stroke:#181818;stroke-width:0.5;" x1="119" x2="169" y1="367.2969" y2="367.2969"/><text fill="#000000" font-family="sans-serif" font-size="14" lengthAdjust="spacing" textLength="4" x="142" y="358.9951"> </text></g><g id="InsertB"><rect fill="#F1F1F1" height="50" rx="12.5" ry="12.5" style="stroke:#181818;stroke-width:0.5;" width="50" x="119" y="468"/><line style="stroke:#181818;stroke-width:0.5;" x1="119" x2="169" y1="494.2969" y2="494.2969"/><text fill="#000000" font-family="sans-serif" font-size="14" lengthAdjust="spacing" textLength="4" x="142" y="485.9951"> </text></g><g id="InsertA2"><rect fill="#F1F1F1" height="50" rx="12.5" ry="12.5" style="stroke:#181818;stroke-width:0.5;" width="98" x="7" y="595"/><line style="stroke:#181818;stroke-width:0.5;" x1="7" x2="105" y1="621.2969" y2="621.2969"/><text fill="#000000" font-family="sans-serif" font-size="14" lengthAdjust="spacing" textLength="78" x="17" y="612.9951">Player_Win</text></g><g id="InsertB2"><rect fill="#F1F1F1" height="50" rx="12.5" ry="12.5" style="stroke:#181818;stroke-width:0.5;" width="181" x="143.5" y="595"/><line style="stroke:#181818;stroke-width:0.5;" x1="143.5" x2="324.5" y1="621.2969" y2="621.2969"/><text fill="#000000" font-family="sans-serif" font-size="14" lengthAdjust="spacing" textLength="161" x="153.5" y="612.9951">Winning_is_impossible</text></g><ellipse cx="144" cy="16" fill="#222222" rx="10" ry="10" style="stroke:none;stroke-width:1.0;"/><ellipse cx="161" cy="716" fill="none" rx="10" ry="10" style="stroke:#222222;stroke-width:1.0;"/><ellipse cx="161.5" cy="716.5" fill="#222222" rx="6" ry="6" style="stroke:none;stroke-width:1.0;"/><!--MD5=[f21ee65ef7d85c787a770545d4a39c06]
link *start to Shuffled--><g id="link_*start_Shuffled"><path d="M144,26.002 C144,41.458 144,73.685 144,97.6 " fill="none" id="*start-to-Shuffled" style="stroke:#181818;stroke-width:1.0;"/><polygon fill="#181818" points="144,102.873,148,93.873,144,97.873,140,93.873,144,102.873" style="stroke:#181818;stroke-width:1.0;"/><text fill="#000000" font-family="sans-serif" font-size="13" lengthAdjust="spacing" textLength="44" x="145" y="69.0669">shuffle</text></g><!--MD5=[7bdf472b589b0223fd8ee527eedc4eb2]
link Shuffled to InitialState--><g id="link_Shuffled_InitialState"><path d="M144,153.101 C144,173.593 144,203.076 144,224.884 " fill="none" id="Shuffled-to-InitialState" style="stroke:#181818;stroke-width:1.0;"/><polygon fill="#181818" points="144,229.973,148,220.973,144,224.973,140,220.973,144,229.973" style="stroke:#181818;stroke-width:1.0;"/><text fill="#000000" font-family="sans-serif" font-size="13" lengthAdjust="spacing" textLength="27" x="145" y="196.0669">deal</text></g><!--MD5=[4effdf8fdd4fc878ae5ce9fa98939877]
link InitialState to InsertA--><g id="link_InitialState_InsertA"><path d="M144,280.191 C144,296.56 144,318.279 144,335.64 " fill="none" id="InitialState-to-InsertA" style="stroke:#181818;stroke-width:1.0;"/><polygon fill="#181818" points="144,340.877,148,331.877,144,335.877,140,331.877,144,340.877" style="stroke:#181818;stroke-width:1.0;"/></g><!--MD5=[a2c564ad89747bee6408ba42c8c32961]
link InsertA to InsertB--><g id="link_InsertA_InsertB"><path d="M118.865,380.698 C104.5958,389.993 88.0251,403.729 80,421 C69.6196,443.34 92.7958,463.644 114.103,476.763 " fill="none" id="InsertA-to-InsertB" style="stroke:#181818;stroke-width:1.0;"/><polygon fill="#181818" points="118.609,479.451,112.9306,471.4039,114.3155,476.8886,108.8308,478.2735,118.609,479.451" style="stroke:#181818;stroke-width:1.0;"/><text fill="#000000" font-family="sans-serif" font-size="13" lengthAdjust="spacing" textLength="81" x="81" y="434.0669">Player move</text></g><!--MD5=[2a36e1690456d149fa821563fb174ea2]
link InsertB to InsertA--><g id="link_InsertB_InsertA"><path d="M156.699,467.942 C160.848,458.825 164.922,448.184 167,438 C169.885,423.867 165.911,408.598 160.498,395.855 " fill="none" id="InsertB-to-InsertA" style="stroke:#181818;stroke-width:1.0;"/><polygon fill="#181818" points="158.448,391.282,158.4774,401.1308,160.4923,395.845,165.7782,397.8599,158.448,391.282" style="stroke:#181818;stroke-width:1.0;"/><text fill="#000000" font-family="sans-serif" font-size="13" lengthAdjust="spacing" textLength="81" x="169" y="434.0669">Player move</text></g><!--MD5=[0cd0108289ea854f0fca0546cdfbdc89]
link InsertB to InsertA2--><g id="link_InsertB_InsertA2"><path d="M118.833,500.354 C95.8296,507.646 63.1566,522.085 48,548 C40.6937,560.493 41.7087,576.346 44.9778,589.901 " fill="none" id="InsertB-to-InsertA2" style="stroke:#181818;stroke-width:1.0;"/><polygon fill="#181818" points="46.2729,594.781,47.8299,585.056,44.9901,589.9484,40.0977,587.1085,46.2729,594.781" style="stroke:#181818;stroke-width:1.0;"/><text fill="#000000" font-family="sans-serif" font-size="13" lengthAdjust="spacing" textLength="144" x="49" y="561.0669">[AllCardsInFoundation]</text></g><!--MD5=[d2cf3d5c4ea4cbf82ee875c4e81bdd4d]
link InsertB to InsertB2--><g id="link_InsertB_InsertB2"><path d="M169.122,515.913 C178.873,525.197 189.673,536.515 198,548 C207.393,560.955 215.653,576.714 221.884,590.092 " fill="none" id="InsertB-to-InsertB2" style="stroke:#181818;stroke-width:1.0;"/><polygon fill="#181818" points="224.086,594.903,223.976,585.0548,222.0044,590.3569,216.7022,588.3853,224.086,594.903" style="stroke:#181818;stroke-width:1.0;"/><text fill="#000000" font-family="sans-serif" font-size="13" lengthAdjust="spacing" textLength="238" x="210" y="561.0669">[PlayerCanNoMakeMeaningfullMoves]</text></g><!--MD5=[d420d0c1ae61a5c058b93710b3d68eed]
link InsertA2 to *end--><g id="link_InsertA2_*end"><path d="M83.0401,645.2073 C104.5902,664.4998 133.692,690.5526 149.543,704.7433 " fill="none" id="InsertA2-to-*end" style="stroke:#181818;stroke-width:1.0;"/><polygon fill="#181818" points="153.645,708.4158,149.6065,699.433,149.9194,705.0812,144.2712,705.394,153.645,708.4158" style="stroke:#181818;stroke-width:1.0;"/></g><!--MD5=[fbf9e7d0e409c165c134260c27bd6ea4]
link InsertB2 to *end--><g id="link_InsertB2_*end"><path d="M215.201,645.2073 C200.653,663.9405 181.154,689.0478 169.947,703.4797 " fill="none" id="InsertB2-to-*end" style="stroke:#181818;stroke-width:1.0;"/><polygon fill="#181818" points="166.749,707.597,175.4288,702.9428,169.8161,703.6482,169.1106,698.0355,166.749,707.597" style="stroke:#181818;stroke-width:1.0;"/></g><!--MD5=[08daf3633f18601f79555456be367c16]
@startuml
state InitialState as "Initial_State"
state Shuffled as " "
state InsertA as " "
state InsertB as " "
state InsertA2 as "Player_Win"
state InsertB2 as "Winning_is_impossible"
[*] - -> Shuffled : shuffle 
Shuffled - -> InitialState : deal
InitialState  - -> InsertA
InsertA  -down-> InsertB :Player move
InsertB  - -> InsertA : Player move
InsertB - -> InsertA2 : [AllCardsInFoundation]
InsertB - -> InsertB2 : [PlayerCanNoMakeMeaningfullMoves]
InsertA2 - -> [*] 
InsertB2 - -> [*]
@enduml

PlantUML version 1.2022.3beta2(Unknown compile time)
(GPL source distribution)
Java Runtime: Java(TM) SE Runtime Environment
JVM: Java HotSpot(TM) 64-Bit Server VM
Default Encoding: UTF-8
Language: en
Country: US
--></g></svg>