<?xml version="1.0" encoding="UTF-8" standalone="no"?><svg xmlns="http://www.w3.org/2000/svg" xmlns:xlink="http://www.w3.org/1999/xlink" contentStyleType="text/css" height="1031px" preserveAspectRatio="none" style="width:843px;height:1031px;background:#FFFFFF;" version="1.1" viewBox="0 0 843 1031" width="843px" zoomAndPan="magnify"><defs/><g><!--MD5=[ce135f397e71694d574a1221b16fe9d6]
class Klondike--><g id="elem_Klondike"><rect codeLine="1" fill="#F1F1F1" height="48" id="Klondike" rx="2.5" ry="2.5" style="stroke:#181818;stroke-width:0.5;" width="95" x="437.5" y="7"/><ellipse cx="452.5" cy="23" fill="#ADD1B2" rx="11" ry="11" style="stroke:#181818;stroke-width:1.0;"/><path d="M454.8438,18.6719 C453.9063,18.2344 453.3125,18.0938 452.4375,18.0938 C449.8125,18.0938 447.8125,20.1719 447.8125,22.8906 L447.8125,24.0156 C447.8125,26.5938 449.9219,28.4844 452.8125,28.4844 C454.0313,28.4844 455.1875,28.1875 455.9375,27.6406 C456.5156,27.2344 456.8438,26.7813 456.8438,26.3906 C456.8438,25.9375 456.4531,25.5469 455.9844,25.5469 C455.7656,25.5469 455.5625,25.625 455.375,25.8125 C454.9219,26.2969 454.9219,26.2969 454.7344,26.3906 C454.3125,26.6563 453.625,26.7813 452.8594,26.7813 C450.8125,26.7813 449.5156,25.6875 449.5156,23.9844 L449.5156,22.8906 C449.5156,21.1094 450.7656,19.7969 452.5,19.7969 C453.0781,19.7969 453.6875,19.9531 454.1563,20.2031 C454.6406,20.4844 454.8125,20.7031 454.9063,21.1094 C454.9688,21.5156 455,21.6406 455.1406,21.7656 C455.2813,21.9063 455.5156,22.0156 455.7344,22.0156 C456,22.0156 456.2656,21.875 456.4375,21.6563 C456.5469,21.5 456.5781,21.3125 456.5781,20.8906 L456.5781,19.4688 C456.5781,19.0313 456.5625,18.9063 456.4688,18.75 C456.3125,18.4844 456.0313,18.3438 455.7344,18.3438 C455.4375,18.3438 455.2344,18.4375 455.0156,18.75 L454.8438,18.6719 Z " fill="#000000"/><text fill="#000000" font-family="sans-serif" font-size="14" lengthAdjust="spacing" textLength="63" x="466.5" y="27.8467">Klondike</text><line style="stroke:#181818;stroke-width:0.5;" x1="438.5" x2="531.5" y1="39" y2="39"/><line style="stroke:#181818;stroke-width:0.5;" x1="438.5" x2="531.5" y1="47" y2="47"/></g><!--MD5=[2cb47ba637a0d19583e6199456f6ad0b]
class Player--><g id="elem_Player"><rect fill="#F1F1F1" height="48" id="Player" rx="2.5" ry="2.5" style="stroke:#181818;stroke-width:0.5;" width="76" x="151" y="116"/><ellipse cx="166" cy="132" fill="#ADD1B2" rx="11" ry="11" style="stroke:#181818;stroke-width:1.0;"/><path d="M168.3438,127.6719 C167.4063,127.2344 166.8125,127.0938 165.9375,127.0938 C163.3125,127.0938 161.3125,129.1719 161.3125,131.8906 L161.3125,133.0156 C161.3125,135.5938 163.4219,137.4844 166.3125,137.4844 C167.5313,137.4844 168.6875,137.1875 169.4375,136.6406 C170.0156,136.2344 170.3438,135.7813 170.3438,135.3906 C170.3438,134.9375 169.9531,134.5469 169.4844,134.5469 C169.2656,134.5469 169.0625,134.625 168.875,134.8125 C168.4219,135.2969 168.4219,135.2969 168.2344,135.3906 C167.8125,135.6563 167.125,135.7813 166.3594,135.7813 C164.3125,135.7813 163.0156,134.6875 163.0156,132.9844 L163.0156,131.8906 C163.0156,130.1094 164.2656,128.7969 166,128.7969 C166.5781,128.7969 167.1875,128.9531 167.6563,129.2031 C168.1406,129.4844 168.3125,129.7031 168.4063,130.1094 C168.4688,130.5156 168.5,130.6406 168.6406,130.7656 C168.7813,130.9063 169.0156,131.0156 169.2344,131.0156 C169.5,131.0156 169.7656,130.875 169.9375,130.6563 C170.0469,130.5 170.0781,130.3125 170.0781,129.8906 L170.0781,128.4688 C170.0781,128.0313 170.0625,127.9063 169.9688,127.75 C169.8125,127.4844 169.5313,127.3438 169.2344,127.3438 C168.9375,127.3438 168.7344,127.4375 168.5156,127.75 L168.3438,127.6719 Z " fill="#000000"/><text fill="#000000" font-family="sans-serif" font-size="14" lengthAdjust="spacing" textLength="44" x="180" y="136.8467">Player</text><line style="stroke:#181818;stroke-width:0.5;" x1="152" x2="226" y1="148" y2="148"/><line style="stroke:#181818;stroke-width:0.5;" x1="152" x2="226" y1="156" y2="156"/></g><!--MD5=[30299a58ba6b78debaaed5ddbb42f29a]
class Deck--><g id="elem_Deck"><rect fill="#F1F1F1" height="48" id="Deck" rx="2.5" ry="2.5" style="stroke:#181818;stroke-width:0.5;" width="69" x="490.5" y="225"/><ellipse cx="505.5" cy="241" fill="#ADD1B2" rx="11" ry="11" style="stroke:#181818;stroke-width:1.0;"/><path d="M507.8438,236.6719 C506.9063,236.2344 506.3125,236.0938 505.4375,236.0938 C502.8125,236.0938 500.8125,238.1719 500.8125,240.8906 L500.8125,242.0156 C500.8125,244.5938 502.9219,246.4844 505.8125,246.4844 C507.0313,246.4844 508.1875,246.1875 508.9375,245.6406 C509.5156,245.2344 509.8438,244.7813 509.8438,244.3906 C509.8438,243.9375 509.4531,243.5469 508.9844,243.5469 C508.7656,243.5469 508.5625,243.625 508.375,243.8125 C507.9219,244.2969 507.9219,244.2969 507.7344,244.3906 C507.3125,244.6563 506.625,244.7813 505.8594,244.7813 C503.8125,244.7813 502.5156,243.6875 502.5156,241.9844 L502.5156,240.8906 C502.5156,239.1094 503.7656,237.7969 505.5,237.7969 C506.0781,237.7969 506.6875,237.9531 507.1563,238.2031 C507.6406,238.4844 507.8125,238.7031 507.9063,239.1094 C507.9688,239.5156 508,239.6406 508.1406,239.7656 C508.2813,239.9063 508.5156,240.0156 508.7344,240.0156 C509,240.0156 509.2656,239.875 509.4375,239.6563 C509.5469,239.5 509.5781,239.3125 509.5781,238.8906 L509.5781,237.4688 C509.5781,237.0313 509.5625,236.9063 509.4688,236.75 C509.3125,236.4844 509.0313,236.3438 508.7344,236.3438 C508.4375,236.3438 508.2344,236.4375 508.0156,236.75 L507.8438,236.6719 Z " fill="#000000"/><text fill="#000000" font-family="sans-serif" font-size="14" lengthAdjust="spacing" textLength="37" x="519.5" y="245.8467">Deck</text><line style="stroke:#181818;stroke-width:0.5;" x1="491.5" x2="558.5" y1="257" y2="257"/><line style="stroke:#181818;stroke-width:0.5;" x1="491.5" x2="558.5" y1="265" y2="265"/></g><!--MD5=[5e305716458bbdabbd2d7f572ed2bae2]
class Card--><g id="elem_Card"><rect codeLine="23" fill="#F1F1F1" height="64.2969" id="Card" rx="2.5" ry="2.5" style="stroke:#181818;stroke-width:0.5;" width="132" x="433" y="381"/><ellipse cx="478.25" cy="397" fill="#ADD1B2" rx="11" ry="11" style="stroke:#181818;stroke-width:1.0;"/><path d="M480.5938,392.6719 C479.6563,392.2344 479.0625,392.0938 478.1875,392.0938 C475.5625,392.0938 473.5625,394.1719 473.5625,396.8906 L473.5625,398.0156 C473.5625,400.5938 475.6719,402.4844 478.5625,402.4844 C479.7813,402.4844 480.9375,402.1875 481.6875,401.6406 C482.2656,401.2344 482.5938,400.7813 482.5938,400.3906 C482.5938,399.9375 482.2031,399.5469 481.7344,399.5469 C481.5156,399.5469 481.3125,399.625 481.125,399.8125 C480.6719,400.2969 480.6719,400.2969 480.4844,400.3906 C480.0625,400.6563 479.375,400.7813 478.6094,400.7813 C476.5625,400.7813 475.2656,399.6875 475.2656,397.9844 L475.2656,396.8906 C475.2656,395.1094 476.5156,393.7969 478.25,393.7969 C478.8281,393.7969 479.4375,393.9531 479.9063,394.2031 C480.3906,394.4844 480.5625,394.7031 480.6563,395.1094 C480.7188,395.5156 480.75,395.6406 480.8906,395.7656 C481.0313,395.9063 481.2656,396.0156 481.4844,396.0156 C481.75,396.0156 482.0156,395.875 482.1875,395.6563 C482.2969,395.5 482.3281,395.3125 482.3281,394.8906 L482.3281,393.4688 C482.3281,393.0313 482.3125,392.9063 482.2188,392.75 C482.0625,392.4844 481.7813,392.3438 481.4844,392.3438 C481.1875,392.3438 480.9844,392.4375 480.7656,392.75 L480.5938,392.6719 Z " fill="#000000"/><text fill="#000000" font-family="sans-serif" font-size="14" lengthAdjust="spacing" textLength="33" x="498.75" y="401.8467">Card</text><line style="stroke:#181818;stroke-width:0.5;" x1="434" x2="564" y1="413" y2="413"/><text fill="#000000" font-family="sans-serif" font-size="14" lengthAdjust="spacing" textLength="120" x="439" y="429.9951">faceup : boolean</text><line style="stroke:#181818;stroke-width:0.5;" x1="434" x2="564" y1="437.2969" y2="437.2969"/></g><!--MD5=[a4cb0f987c11031dc931233a0e7767af]
class Stock--><g id="elem_Stock"><rect fill="#F1F1F1" height="48" id="Stock" rx="2.5" ry="2.5" style="stroke:#181818;stroke-width:0.5;" width="74" x="581" y="530.5"/><ellipse cx="596" cy="546.5" fill="#ADD1B2" rx="11" ry="11" style="stroke:#181818;stroke-width:1.0;"/><path d="M598.3438,542.1719 C597.4063,541.7344 596.8125,541.5938 595.9375,541.5938 C593.3125,541.5938 591.3125,543.6719 591.3125,546.3906 L591.3125,547.5156 C591.3125,550.0938 593.4219,551.9844 596.3125,551.9844 C597.5313,551.9844 598.6875,551.6875 599.4375,551.1406 C600.0156,550.7344 600.3438,550.2813 600.3438,549.8906 C600.3438,549.4375 599.9531,549.0469 599.4844,549.0469 C599.2656,549.0469 599.0625,549.125 598.875,549.3125 C598.4219,549.7969 598.4219,549.7969 598.2344,549.8906 C597.8125,550.1563 597.125,550.2813 596.3594,550.2813 C594.3125,550.2813 593.0156,549.1875 593.0156,547.4844 L593.0156,546.3906 C593.0156,544.6094 594.2656,543.2969 596,543.2969 C596.5781,543.2969 597.1875,543.4531 597.6563,543.7031 C598.1406,543.9844 598.3125,544.2031 598.4063,544.6094 C598.4688,545.0156 598.5,545.1406 598.6406,545.2656 C598.7813,545.4063 599.0156,545.5156 599.2344,545.5156 C599.5,545.5156 599.7656,545.375 599.9375,545.1563 C600.0469,545 600.0781,544.8125 600.0781,544.3906 L600.0781,542.9688 C600.0781,542.5313 600.0625,542.4063 599.9688,542.25 C599.8125,541.9844 599.5313,541.8438 599.2344,541.8438 C598.9375,541.8438 598.7344,541.9375 598.5156,542.25 L598.3438,542.1719 Z " fill="#000000"/><text fill="#000000" font-family="sans-serif" font-size="14" lengthAdjust="spacing" textLength="42" x="610" y="551.3467">Stock</text><line style="stroke:#181818;stroke-width:0.5;" x1="582" x2="654" y1="562.5" y2="562.5"/><line style="stroke:#181818;stroke-width:0.5;" x1="582" x2="654" y1="570.5" y2="570.5"/></g><!--MD5=[c3c256aac7e3870d53c0042288b21bdc]
class Waste--><g id="elem_Waste"><rect fill="#F1F1F1" height="48" id="Waste" rx="2.5" ry="2.5" style="stroke:#181818;stroke-width:0.5;" width="77" x="254.5" y="530.5"/><ellipse cx="269.5" cy="546.5" fill="#ADD1B2" rx="11" ry="11" style="stroke:#181818;stroke-width:1.0;"/><path d="M271.8438,542.1719 C270.9063,541.7344 270.3125,541.5938 269.4375,541.5938 C266.8125,541.5938 264.8125,543.6719 264.8125,546.3906 L264.8125,547.5156 C264.8125,550.0938 266.9219,551.9844 269.8125,551.9844 C271.0313,551.9844 272.1875,551.6875 272.9375,551.1406 C273.5156,550.7344 273.8438,550.2813 273.8438,549.8906 C273.8438,549.4375 273.4531,549.0469 272.9844,549.0469 C272.7656,549.0469 272.5625,549.125 272.375,549.3125 C271.9219,549.7969 271.9219,549.7969 271.7344,549.8906 C271.3125,550.1563 270.625,550.2813 269.8594,550.2813 C267.8125,550.2813 266.5156,549.1875 266.5156,547.4844 L266.5156,546.3906 C266.5156,544.6094 267.7656,543.2969 269.5,543.2969 C270.0781,543.2969 270.6875,543.4531 271.1563,543.7031 C271.6406,543.9844 271.8125,544.2031 271.9063,544.6094 C271.9688,545.0156 272,545.1406 272.1406,545.2656 C272.2813,545.4063 272.5156,545.5156 272.7344,545.5156 C273,545.5156 273.2656,545.375 273.4375,545.1563 C273.5469,545 273.5781,544.8125 273.5781,544.3906 L273.5781,542.9688 C273.5781,542.5313 273.5625,542.4063 273.4688,542.25 C273.3125,541.9844 273.0313,541.8438 272.7344,541.8438 C272.4375,541.8438 272.2344,541.9375 272.0156,542.25 L271.8438,542.1719 Z " fill="#000000"/><text fill="#000000" font-family="sans-serif" font-size="14" lengthAdjust="spacing" textLength="45" x="283.5" y="551.3467">Waste</text><line style="stroke:#181818;stroke-width:0.5;" x1="255.5" x2="330.5" y1="562.5" y2="562.5"/><line style="stroke:#181818;stroke-width:0.5;" x1="255.5" x2="330.5" y1="570.5" y2="570.5"/></g><!--MD5=[c033d16283544a66478df33ee92fe5a6]
class Tableau--><g id="elem_Tableau"><rect fill="#F1F1F1" height="48" id="Tableau" rx="2.5" ry="2.5" style="stroke:#181818;stroke-width:0.5;" width="88" x="721" y="530.5"/><ellipse cx="736" cy="546.5" fill="#ADD1B2" rx="11" ry="11" style="stroke:#181818;stroke-width:1.0;"/><path d="M738.3438,542.1719 C737.4063,541.7344 736.8125,541.5938 735.9375,541.5938 C733.3125,541.5938 731.3125,543.6719 731.3125,546.3906 L731.3125,547.5156 C731.3125,550.0938 733.4219,551.9844 736.3125,551.9844 C737.5313,551.9844 738.6875,551.6875 739.4375,551.1406 C740.0156,550.7344 740.3438,550.2813 740.3438,549.8906 C740.3438,549.4375 739.9531,549.0469 739.4844,549.0469 C739.2656,549.0469 739.0625,549.125 738.875,549.3125 C738.4219,549.7969 738.4219,549.7969 738.2344,549.8906 C737.8125,550.1563 737.125,550.2813 736.3594,550.2813 C734.3125,550.2813 733.0156,549.1875 733.0156,547.4844 L733.0156,546.3906 C733.0156,544.6094 734.2656,543.2969 736,543.2969 C736.5781,543.2969 737.1875,543.4531 737.6563,543.7031 C738.1406,543.9844 738.3125,544.2031 738.4063,544.6094 C738.4688,545.0156 738.5,545.1406 738.6406,545.2656 C738.7813,545.4063 739.0156,545.5156 739.2344,545.5156 C739.5,545.5156 739.7656,545.375 739.9375,545.1563 C740.0469,545 740.0781,544.8125 740.0781,544.3906 L740.0781,542.9688 C740.0781,542.5313 740.0625,542.4063 739.9688,542.25 C739.8125,541.9844 739.5313,541.8438 739.2344,541.8438 C738.9375,541.8438 738.7344,541.9375 738.5156,542.25 L738.3438,542.1719 Z " fill="#000000"/><text fill="#000000" font-family="sans-serif" font-size="14" lengthAdjust="spacing" textLength="56" x="750" y="551.3467">Tableau</text><line style="stroke:#181818;stroke-width:0.5;" x1="722" x2="808" y1="562.5" y2="562.5"/><line style="stroke:#181818;stroke-width:0.5;" x1="722" x2="808" y1="570.5" y2="570.5"/></g><!--MD5=[d01ad859d436f6e28b36a553834670aa]
class Foundation--><g id="elem_Foundation"><rect fill="#F1F1F1" height="48" id="Foundation" rx="2.5" ry="2.5" style="stroke:#181818;stroke-width:0.5;" width="112" x="87" y="530.5"/><ellipse cx="102" cy="546.5" fill="#ADD1B2" rx="11" ry="11" style="stroke:#181818;stroke-width:1.0;"/><path d="M104.3438,542.1719 C103.4063,541.7344 102.8125,541.5938 101.9375,541.5938 C99.3125,541.5938 97.3125,543.6719 97.3125,546.3906 L97.3125,547.5156 C97.3125,550.0938 99.4219,551.9844 102.3125,551.9844 C103.5313,551.9844 104.6875,551.6875 105.4375,551.1406 C106.0156,550.7344 106.3438,550.2813 106.3438,549.8906 C106.3438,549.4375 105.9531,549.0469 105.4844,549.0469 C105.2656,549.0469 105.0625,549.125 104.875,549.3125 C104.4219,549.7969 104.4219,549.7969 104.2344,549.8906 C103.8125,550.1563 103.125,550.2813 102.3594,550.2813 C100.3125,550.2813 99.0156,549.1875 99.0156,547.4844 L99.0156,546.3906 C99.0156,544.6094 100.2656,543.2969 102,543.2969 C102.5781,543.2969 103.1875,543.4531 103.6563,543.7031 C104.1406,543.9844 104.3125,544.2031 104.4063,544.6094 C104.4688,545.0156 104.5,545.1406 104.6406,545.2656 C104.7813,545.4063 105.0156,545.5156 105.2344,545.5156 C105.5,545.5156 105.7656,545.375 105.9375,545.1563 C106.0469,545 106.0781,544.8125 106.0781,544.3906 L106.0781,542.9688 C106.0781,542.5313 106.0625,542.4063 105.9688,542.25 C105.8125,541.9844 105.5313,541.8438 105.2344,541.8438 C104.9375,541.8438 104.7344,541.9375 104.5156,542.25 L104.3438,542.1719 Z " fill="#000000"/><text fill="#000000" font-family="sans-serif" font-size="14" lengthAdjust="spacing" textLength="80" x="116" y="551.3467">Foundation</text><line style="stroke:#181818;stroke-width:0.5;" x1="88" x2="198" y1="562.5" y2="562.5"/><line style="stroke:#181818;stroke-width:0.5;" x1="88" x2="198" y1="570.5" y2="570.5"/></g><!--MD5=[fe139ee4e479f23285df0f8136f9d541]
class Deal--><g id="elem_Deal"><rect fill="#F1F1F1" height="48" id="Deal" rx="2.5" ry="2.5" style="stroke:#181818;stroke-width:0.5;" width="64" x="572" y="116"/><ellipse cx="587" cy="132" fill="#ADD1B2" rx="11" ry="11" style="stroke:#181818;stroke-width:1.0;"/><path d="M589.3438,127.6719 C588.4063,127.2344 587.8125,127.0938 586.9375,127.0938 C584.3125,127.0938 582.3125,129.1719 582.3125,131.8906 L582.3125,133.0156 C582.3125,135.5938 584.4219,137.4844 587.3125,137.4844 C588.5313,137.4844 589.6875,137.1875 590.4375,136.6406 C591.0156,136.2344 591.3438,135.7813 591.3438,135.3906 C591.3438,134.9375 590.9531,134.5469 590.4844,134.5469 C590.2656,134.5469 590.0625,134.625 589.875,134.8125 C589.4219,135.2969 589.4219,135.2969 589.2344,135.3906 C588.8125,135.6563 588.125,135.7813 587.3594,135.7813 C585.3125,135.7813 584.0156,134.6875 584.0156,132.9844 L584.0156,131.8906 C584.0156,130.1094 585.2656,128.7969 587,128.7969 C587.5781,128.7969 588.1875,128.9531 588.6563,129.2031 C589.1406,129.4844 589.3125,129.7031 589.4063,130.1094 C589.4688,130.5156 589.5,130.6406 589.6406,130.7656 C589.7813,130.9063 590.0156,131.0156 590.2344,131.0156 C590.5,131.0156 590.7656,130.875 590.9375,130.6563 C591.0469,130.5 591.0781,130.3125 591.0781,129.8906 L591.0781,128.4688 C591.0781,128.0313 591.0625,127.9063 590.9688,127.75 C590.8125,127.4844 590.5313,127.3438 590.2344,127.3438 C589.9375,127.3438 589.7344,127.4375 589.5156,127.75 L589.3438,127.6719 Z " fill="#000000"/><text fill="#000000" font-family="sans-serif" font-size="14" lengthAdjust="spacing" textLength="32" x="601" y="136.8467">Deal</text><line style="stroke:#181818;stroke-width:0.5;" x1="573" x2="635" y1="148" y2="148"/><line style="stroke:#181818;stroke-width:0.5;" x1="573" x2="635" y1="156" y2="156"/></g><!--MD5=[2743c34aa2b8a300d8bab9b4b445451e]
class Shuffle--><g id="elem_Shuffle"><rect fill="#F1F1F1" height="48" id="Shuffle" rx="2.5" ry="2.5" style="stroke:#181818;stroke-width:0.5;" width="83" x="382.5" y="116"/><ellipse cx="397.5" cy="132" fill="#ADD1B2" rx="11" ry="11" style="stroke:#181818;stroke-width:1.0;"/><path d="M399.8438,127.6719 C398.9063,127.2344 398.3125,127.0938 397.4375,127.0938 C394.8125,127.0938 392.8125,129.1719 392.8125,131.8906 L392.8125,133.0156 C392.8125,135.5938 394.9219,137.4844 397.8125,137.4844 C399.0313,137.4844 400.1875,137.1875 400.9375,136.6406 C401.5156,136.2344 401.8438,135.7813 401.8438,135.3906 C401.8438,134.9375 401.4531,134.5469 400.9844,134.5469 C400.7656,134.5469 400.5625,134.625 400.375,134.8125 C399.9219,135.2969 399.9219,135.2969 399.7344,135.3906 C399.3125,135.6563 398.625,135.7813 397.8594,135.7813 C395.8125,135.7813 394.5156,134.6875 394.5156,132.9844 L394.5156,131.8906 C394.5156,130.1094 395.7656,128.7969 397.5,128.7969 C398.0781,128.7969 398.6875,128.9531 399.1563,129.2031 C399.6406,129.4844 399.8125,129.7031 399.9063,130.1094 C399.9688,130.5156 400,130.6406 400.1406,130.7656 C400.2813,130.9063 400.5156,131.0156 400.7344,131.0156 C401,131.0156 401.2656,130.875 401.4375,130.6563 C401.5469,130.5 401.5781,130.3125 401.5781,129.8906 L401.5781,128.4688 C401.5781,128.0313 401.5625,127.9063 401.4688,127.75 C401.3125,127.4844 401.0313,127.3438 400.7344,127.3438 C400.4375,127.3438 400.2344,127.4375 400.0156,127.75 L399.8438,127.6719 Z " fill="#000000"/><text fill="#000000" font-family="sans-serif" font-size="14" lengthAdjust="spacing" textLength="51" x="411.5" y="136.8467">Shuffle</text><line style="stroke:#181818;stroke-width:0.5;" x1="383.5" x2="464.5" y1="148" y2="148"/><line style="stroke:#181818;stroke-width:0.5;" x1="383.5" x2="464.5" y1="156" y2="156"/></g><!--MD5=[8afaa0cc9be9ac1cdc24999fa1642fa3]
class Suit--><g id="elem_Suit"><rect codeLine="37" fill="#F1F1F1" height="48" id="Suit" rx="2.5" ry="2.5" style="stroke:#181818;stroke-width:0.5;" width="60" x="483" y="530.5"/><ellipse cx="498" cy="546.5" fill="#ADD1B2" rx="11" ry="11" style="stroke:#181818;stroke-width:1.0;"/><path d="M500.3438,542.1719 C499.4063,541.7344 498.8125,541.5938 497.9375,541.5938 C495.3125,541.5938 493.3125,543.6719 493.3125,546.3906 L493.3125,547.5156 C493.3125,550.0938 495.4219,551.9844 498.3125,551.9844 C499.5313,551.9844 500.6875,551.6875 501.4375,551.1406 C502.0156,550.7344 502.3438,550.2813 502.3438,549.8906 C502.3438,549.4375 501.9531,549.0469 501.4844,549.0469 C501.2656,549.0469 501.0625,549.125 500.875,549.3125 C500.4219,549.7969 500.4219,549.7969 500.2344,549.8906 C499.8125,550.1563 499.125,550.2813 498.3594,550.2813 C496.3125,550.2813 495.0156,549.1875 495.0156,547.4844 L495.0156,546.3906 C495.0156,544.6094 496.2656,543.2969 498,543.2969 C498.5781,543.2969 499.1875,543.4531 499.6563,543.7031 C500.1406,543.9844 500.3125,544.2031 500.4063,544.6094 C500.4688,545.0156 500.5,545.1406 500.6406,545.2656 C500.7813,545.4063 501.0156,545.5156 501.2344,545.5156 C501.5,545.5156 501.7656,545.375 501.9375,545.1563 C502.0469,545 502.0781,544.8125 502.0781,544.3906 L502.0781,542.9688 C502.0781,542.5313 502.0625,542.4063 501.9688,542.25 C501.8125,541.9844 501.5313,541.8438 501.2344,541.8438 C500.9375,541.8438 500.7344,541.9375 500.5156,542.25 L500.3438,542.1719 Z " fill="#000000"/><text fill="#000000" font-family="sans-serif" font-size="14" lengthAdjust="spacing" textLength="28" x="512" y="551.3467">Suit</text><line style="stroke:#181818;stroke-width:0.5;" x1="484" x2="542" y1="562.5" y2="562.5"/><line style="stroke:#181818;stroke-width:0.5;" x1="484" x2="542" y1="570.5" y2="570.5"/></g><!--MD5=[0f690a215a17a0cf4b9f948ca5dd1b3e]
class Rank--><g id="elem_Rank"><rect codeLine="17" fill="#F1F1F1" height="96.8906" id="Rank" rx="2.5" ry="2.5" style="stroke:#181818;stroke-width:0.5;" width="68" x="380" y="506"/><ellipse cx="395" cy="522" fill="#EB937F" rx="11" ry="11" style="stroke:#181818;stroke-width:1.0;"/><path d="M393.7969,522.875 L395.25,522.875 L395.25,522.9844 C395.25,523.3906 395.2813,523.5469 395.3594,523.7031 C395.5156,523.9531 395.7969,524.1094 396.0938,524.1094 C396.3438,524.1094 396.6094,523.9688 396.7656,523.75 C396.8906,523.5938 396.9219,523.4375 396.9219,522.9844 L396.9219,521.0625 C396.9219,520.9063 396.9219,520.8594 396.9063,520.7031 C396.8438,520.2344 396.5313,519.9219 396.0781,519.9219 C395.8281,519.9219 395.5625,520.0625 395.3906,520.2813 C395.2813,520.4531 395.25,520.6094 395.25,521.0625 L395.25,521.1875 L393.7969,521.1875 L393.7969,518.7813 L397.7813,518.7813 L397.7813,519.6406 C397.7813,520.0469 397.8125,520.2188 397.8906,520.375 C398.0625,520.625 398.3438,520.7813 398.625,520.7813 C398.8906,520.7813 399.1563,520.6406 399.3281,520.4219 C399.4375,520.25 399.4688,520.1094 399.4688,519.6406 L399.4688,517.0938 L391.8438,517.0938 C391.4063,517.0938 391.2813,517.1094 391.125,517.2031 C390.875,517.3594 390.7188,517.6563 390.7188,517.9375 C390.7188,518.2188 390.8594,518.4688 391.0781,518.6406 C391.2344,518.75 391.4219,518.7813 391.8438,518.7813 L392.0938,518.7813 L392.0938,525.2969 L391.8438,525.2969 C391.4375,525.2969 391.2813,525.3125 391.125,525.4219 C390.875,525.5938 390.7188,525.8594 390.7188,526.1563 C390.7188,526.4219 390.8594,526.6719 391.0781,526.8281 C391.2188,526.9531 391.4531,527 391.8438,527 L399.8438,527 L399.8438,524.4219 C399.8438,523.9844 399.8125,523.8438 399.7344,523.6875 C399.5625,523.4375 399.2813,523.2813 399,523.2813 C398.7344,523.2813 398.4688,523.3906 398.2969,523.6406 C398.1875,523.7969 398.1563,523.9375 398.1563,524.4219 L398.1563,525.2969 L393.7969,525.2969 L393.7969,522.875 Z " fill="#000000"/><text fill="#000000" font-family="sans-serif" font-size="14" lengthAdjust="spacing" textLength="36" x="409" y="526.8467">Rank</text><line style="stroke:#181818;stroke-width:0.5;" x1="381" x2="447" y1="538" y2="538"/><text fill="#000000" font-family="sans-serif" font-size="14" lengthAdjust="spacing" textLength="15" x="386" y="554.9951">as</text><text fill="#000000" font-family="sans-serif" font-size="14" lengthAdjust="spacing" textLength="15" x="386" y="571.292">...</text><text fill="#000000" font-family="sans-serif" font-size="14" lengthAdjust="spacing" textLength="31" x="386" y="587.5889">king</text><line style="stroke:#181818;stroke-width:0.5;" x1="381" x2="447" y1="594.8906" y2="594.8906"/></g><!--MD5=[9d65f55e1ae89a5b4cf38812aa4a03f3]
class Pile--><g id="elem_Pile"><rect fill="#F1F1F1" height="48" id="Pile" rx="2.5" ry="2.5" style="stroke:#181818;stroke-width:0.5;" width="58" x="340" y="389"/><ellipse cx="355" cy="405" fill="#ADD1B2" rx="11" ry="11" style="stroke:#181818;stroke-width:1.0;"/><path d="M357.3438,400.6719 C356.4063,400.2344 355.8125,400.0938 354.9375,400.0938 C352.3125,400.0938 350.3125,402.1719 350.3125,404.8906 L350.3125,406.0156 C350.3125,408.5938 352.4219,410.4844 355.3125,410.4844 C356.5313,410.4844 357.6875,410.1875 358.4375,409.6406 C359.0156,409.2344 359.3438,408.7813 359.3438,408.3906 C359.3438,407.9375 358.9531,407.5469 358.4844,407.5469 C358.2656,407.5469 358.0625,407.625 357.875,407.8125 C357.4219,408.2969 357.4219,408.2969 357.2344,408.3906 C356.8125,408.6563 356.125,408.7813 355.3594,408.7813 C353.3125,408.7813 352.0156,407.6875 352.0156,405.9844 L352.0156,404.8906 C352.0156,403.1094 353.2656,401.7969 355,401.7969 C355.5781,401.7969 356.1875,401.9531 356.6563,402.2031 C357.1406,402.4844 357.3125,402.7031 357.4063,403.1094 C357.4688,403.5156 357.5,403.6406 357.6406,403.7656 C357.7813,403.9063 358.0156,404.0156 358.2344,404.0156 C358.5,404.0156 358.7656,403.875 358.9375,403.6563 C359.0469,403.5 359.0781,403.3125 359.0781,402.8906 L359.0781,401.4688 C359.0781,401.0313 359.0625,400.9063 358.9688,400.75 C358.8125,400.4844 358.5313,400.3438 358.2344,400.3438 C357.9375,400.3438 357.7344,400.4375 357.5156,400.75 L357.3438,400.6719 Z " fill="#000000"/><text fill="#000000" font-family="sans-serif" font-size="14" lengthAdjust="spacing" textLength="26" x="369" y="409.8467">Pile</text><line style="stroke:#181818;stroke-width:0.5;" x1="341" x2="397" y1="421" y2="421"/><line style="stroke:#181818;stroke-width:0.5;" x1="341" x2="397" y1="429" y2="429"/></g><!--MD5=[1981719fa3982d92ef7fd3f06d73b3e7]
class Move--><g id="elem_Move"><rect fill="#F1F1F1" height="48" id="Move" rx="2.5" ry="2.5" style="stroke:#181818;stroke-width:0.5;" width="70" x="364" y="225"/><ellipse cx="379" cy="241" fill="#ADD1B2" rx="11" ry="11" style="stroke:#181818;stroke-width:1.0;"/><path d="M381.3438,236.6719 C380.4063,236.2344 379.8125,236.0938 378.9375,236.0938 C376.3125,236.0938 374.3125,238.1719 374.3125,240.8906 L374.3125,242.0156 C374.3125,244.5938 376.4219,246.4844 379.3125,246.4844 C380.5313,246.4844 381.6875,246.1875 382.4375,245.6406 C383.0156,245.2344 383.3438,244.7813 383.3438,244.3906 C383.3438,243.9375 382.9531,243.5469 382.4844,243.5469 C382.2656,243.5469 382.0625,243.625 381.875,243.8125 C381.4219,244.2969 381.4219,244.2969 381.2344,244.3906 C380.8125,244.6563 380.125,244.7813 379.3594,244.7813 C377.3125,244.7813 376.0156,243.6875 376.0156,241.9844 L376.0156,240.8906 C376.0156,239.1094 377.2656,237.7969 379,237.7969 C379.5781,237.7969 380.1875,237.9531 380.6563,238.2031 C381.1406,238.4844 381.3125,238.7031 381.4063,239.1094 C381.4688,239.5156 381.5,239.6406 381.6406,239.7656 C381.7813,239.9063 382.0156,240.0156 382.2344,240.0156 C382.5,240.0156 382.7656,239.875 382.9375,239.6563 C383.0469,239.5 383.0781,239.3125 383.0781,238.8906 L383.0781,237.4688 C383.0781,237.0313 383.0625,236.9063 382.9688,236.75 C382.8125,236.4844 382.5313,236.3438 382.2344,236.3438 C381.9375,236.3438 381.7344,236.4375 381.5156,236.75 L381.3438,236.6719 Z " fill="#000000"/><text fill="#000000" font-family="sans-serif" font-size="14" lengthAdjust="spacing" textLength="38" x="393" y="245.8467">Move</text><line style="stroke:#181818;stroke-width:0.5;" x1="365" x2="433" y1="257" y2="257"/><line style="stroke:#181818;stroke-width:0.5;" x1="365" x2="433" y1="265" y2="265"/></g><!--MD5=[18eee71c88ab61f27581b8cbdd3ef5ee]
class Color--><g id="elem_Color"><rect codeLine="46" fill="#F1F1F1" height="48" id="Color" rx="2.5" ry="2.5" style="stroke:#181818;stroke-width:0.5;" width="70" x="478" y="867"/><ellipse cx="493" cy="883" fill="#ADD1B2" rx="11" ry="11" style="stroke:#181818;stroke-width:1.0;"/><path d="M495.3438,878.6719 C494.4063,878.2344 493.8125,878.0938 492.9375,878.0938 C490.3125,878.0938 488.3125,880.1719 488.3125,882.8906 L488.3125,884.0156 C488.3125,886.5938 490.4219,888.4844 493.3125,888.4844 C494.5313,888.4844 495.6875,888.1875 496.4375,887.6406 C497.0156,887.2344 497.3438,886.7813 497.3438,886.3906 C497.3438,885.9375 496.9531,885.5469 496.4844,885.5469 C496.2656,885.5469 496.0625,885.625 495.875,885.8125 C495.4219,886.2969 495.4219,886.2969 495.2344,886.3906 C494.8125,886.6563 494.125,886.7813 493.3594,886.7813 C491.3125,886.7813 490.0156,885.6875 490.0156,883.9844 L490.0156,882.8906 C490.0156,881.1094 491.2656,879.7969 493,879.7969 C493.5781,879.7969 494.1875,879.9531 494.6563,880.2031 C495.1406,880.4844 495.3125,880.7031 495.4063,881.1094 C495.4688,881.5156 495.5,881.6406 495.6406,881.7656 C495.7813,881.9063 496.0156,882.0156 496.2344,882.0156 C496.5,882.0156 496.7656,881.875 496.9375,881.6563 C497.0469,881.5 497.0781,881.3125 497.0781,880.8906 L497.0781,879.4688 C497.0781,879.0313 497.0625,878.9063 496.9688,878.75 C496.8125,878.4844 496.5313,878.3438 496.2344,878.3438 C495.9375,878.3438 495.7344,878.4375 495.5156,878.75 L495.3438,878.6719 Z " fill="#000000"/><text fill="#000000" font-family="sans-serif" font-size="14" lengthAdjust="spacing" textLength="38" x="507" y="887.8467">Color</text><line style="stroke:#181818;stroke-width:0.5;" x1="479" x2="547" y1="899" y2="899"/><line style="stroke:#181818;stroke-width:0.5;" x1="479" x2="547" y1="907" y2="907"/></g><!--MD5=[9bb5813e59df3e2529d11a5afaed7800]
class Heart--><g id="elem_Heart"><rect fill="#F1F1F1" height="48" id="Heart" rx="2.5" ry="2.5" style="stroke:#181818;stroke-width:0.5;" width="72" x="404" y="633"/><ellipse cx="419" cy="649" fill="#ADD1B2" rx="11" ry="11" style="stroke:#181818;stroke-width:1.0;"/><path d="M421.3438,644.6719 C420.4063,644.2344 419.8125,644.0938 418.9375,644.0938 C416.3125,644.0938 414.3125,646.1719 414.3125,648.8906 L414.3125,650.0156 C414.3125,652.5938 416.4219,654.4844 419.3125,654.4844 C420.5313,654.4844 421.6875,654.1875 422.4375,653.6406 C423.0156,653.2344 423.3438,652.7813 423.3438,652.3906 C423.3438,651.9375 422.9531,651.5469 422.4844,651.5469 C422.2656,651.5469 422.0625,651.625 421.875,651.8125 C421.4219,652.2969 421.4219,652.2969 421.2344,652.3906 C420.8125,652.6563 420.125,652.7813 419.3594,652.7813 C417.3125,652.7813 416.0156,651.6875 416.0156,649.9844 L416.0156,648.8906 C416.0156,647.1094 417.2656,645.7969 419,645.7969 C419.5781,645.7969 420.1875,645.9531 420.6563,646.2031 C421.1406,646.4844 421.3125,646.7031 421.4063,647.1094 C421.4688,647.5156 421.5,647.6406 421.6406,647.7656 C421.7813,647.9063 422.0156,648.0156 422.2344,648.0156 C422.5,648.0156 422.7656,647.875 422.9375,647.6563 C423.0469,647.5 423.0781,647.3125 423.0781,646.8906 L423.0781,645.4688 C423.0781,645.0313 423.0625,644.9063 422.9688,644.75 C422.8125,644.4844 422.5313,644.3438 422.2344,644.3438 C421.9375,644.3438 421.7344,644.4375 421.5156,644.75 L421.3438,644.6719 Z " fill="#000000"/><text fill="#000000" font-family="sans-serif" font-size="14" lengthAdjust="spacing" textLength="40" x="433" y="653.8467">Heart</text><line style="stroke:#181818;stroke-width:0.5;" x1="405" x2="475" y1="665" y2="665"/><line style="stroke:#181818;stroke-width:0.5;" x1="405" x2="475" y1="673" y2="673"/></g><!--MD5=[e07683d003131b9e2f36793e1d14f746]
class Spade--><g id="elem_Spade"><rect fill="#F1F1F1" height="48" id="Spade" rx="2.5" ry="2.5" style="stroke:#181818;stroke-width:0.5;" width="77" x="558.5" y="789"/><ellipse cx="573.5" cy="805" fill="#ADD1B2" rx="11" ry="11" style="stroke:#181818;stroke-width:1.0;"/><path d="M575.8438,800.6719 C574.9063,800.2344 574.3125,800.0938 573.4375,800.0938 C570.8125,800.0938 568.8125,802.1719 568.8125,804.8906 L568.8125,806.0156 C568.8125,808.5938 570.9219,810.4844 573.8125,810.4844 C575.0313,810.4844 576.1875,810.1875 576.9375,809.6406 C577.5156,809.2344 577.8438,808.7813 577.8438,808.3906 C577.8438,807.9375 577.4531,807.5469 576.9844,807.5469 C576.7656,807.5469 576.5625,807.625 576.375,807.8125 C575.9219,808.2969 575.9219,808.2969 575.7344,808.3906 C575.3125,808.6563 574.625,808.7813 573.8594,808.7813 C571.8125,808.7813 570.5156,807.6875 570.5156,805.9844 L570.5156,804.8906 C570.5156,803.1094 571.7656,801.7969 573.5,801.7969 C574.0781,801.7969 574.6875,801.9531 575.1563,802.2031 C575.6406,802.4844 575.8125,802.7031 575.9063,803.1094 C575.9688,803.5156 576,803.6406 576.1406,803.7656 C576.2813,803.9063 576.5156,804.0156 576.7344,804.0156 C577,804.0156 577.2656,803.875 577.4375,803.6563 C577.5469,803.5 577.5781,803.3125 577.5781,802.8906 L577.5781,801.4688 C577.5781,801.0313 577.5625,800.9063 577.4688,800.75 C577.3125,800.4844 577.0313,800.3438 576.7344,800.3438 C576.4375,800.3438 576.2344,800.4375 576.0156,800.75 L575.8438,800.6719 Z " fill="#000000"/><text fill="#000000" font-family="sans-serif" font-size="14" lengthAdjust="spacing" textLength="45" x="587.5" y="809.8467">Spade</text><line style="stroke:#181818;stroke-width:0.5;" x1="559.5" x2="634.5" y1="821" y2="821"/><line style="stroke:#181818;stroke-width:0.5;" x1="559.5" x2="634.5" y1="829" y2="829"/></g><!--MD5=[2a32276ae8faf0cd977a8dc45df70324]
class Diamon--><g id="elem_Diamon"><rect fill="#F1F1F1" height="48" id="Diamon" rx="2.5" ry="2.5" style="stroke:#181818;stroke-width:0.5;" width="87" x="284.5" y="711"/><ellipse cx="299.5" cy="727" fill="#ADD1B2" rx="11" ry="11" style="stroke:#181818;stroke-width:1.0;"/><path d="M301.8438,722.6719 C300.9063,722.2344 300.3125,722.0938 299.4375,722.0938 C296.8125,722.0938 294.8125,724.1719 294.8125,726.8906 L294.8125,728.0156 C294.8125,730.5938 296.9219,732.4844 299.8125,732.4844 C301.0313,732.4844 302.1875,732.1875 302.9375,731.6406 C303.5156,731.2344 303.8438,730.7813 303.8438,730.3906 C303.8438,729.9375 303.4531,729.5469 302.9844,729.5469 C302.7656,729.5469 302.5625,729.625 302.375,729.8125 C301.9219,730.2969 301.9219,730.2969 301.7344,730.3906 C301.3125,730.6563 300.625,730.7813 299.8594,730.7813 C297.8125,730.7813 296.5156,729.6875 296.5156,727.9844 L296.5156,726.8906 C296.5156,725.1094 297.7656,723.7969 299.5,723.7969 C300.0781,723.7969 300.6875,723.9531 301.1563,724.2031 C301.6406,724.4844 301.8125,724.7031 301.9063,725.1094 C301.9688,725.5156 302,725.6406 302.1406,725.7656 C302.2813,725.9063 302.5156,726.0156 302.7344,726.0156 C303,726.0156 303.2656,725.875 303.4375,725.6563 C303.5469,725.5 303.5781,725.3125 303.5781,724.8906 L303.5781,723.4688 C303.5781,723.0313 303.5625,722.9063 303.4688,722.75 C303.3125,722.4844 303.0313,722.3438 302.7344,722.3438 C302.4375,722.3438 302.2344,722.4375 302.0156,722.75 L301.8438,722.6719 Z " fill="#000000"/><text fill="#000000" font-family="sans-serif" font-size="14" lengthAdjust="spacing" textLength="55" x="313.5" y="731.8467">Diamon</text><line style="stroke:#181818;stroke-width:0.5;" x1="285.5" x2="370.5" y1="743" y2="743"/><line style="stroke:#181818;stroke-width:0.5;" x1="285.5" x2="370.5" y1="751" y2="751"/></g><!--MD5=[a7ca736ec2eaa3f5c977a8fac7fd0779]
class Club--><g id="elem_Club"><rect fill="#F1F1F1" height="48" id="Club" rx="2.5" ry="2.5" style="stroke:#181818;stroke-width:0.5;" width="64" x="624" y="633"/><ellipse cx="639" cy="649" fill="#ADD1B2" rx="11" ry="11" style="stroke:#181818;stroke-width:1.0;"/><path d="M641.3438,644.6719 C640.4063,644.2344 639.8125,644.0938 638.9375,644.0938 C636.3125,644.0938 634.3125,646.1719 634.3125,648.8906 L634.3125,650.0156 C634.3125,652.5938 636.4219,654.4844 639.3125,654.4844 C640.5313,654.4844 641.6875,654.1875 642.4375,653.6406 C643.0156,653.2344 643.3438,652.7813 643.3438,652.3906 C643.3438,651.9375 642.9531,651.5469 642.4844,651.5469 C642.2656,651.5469 642.0625,651.625 641.875,651.8125 C641.4219,652.2969 641.4219,652.2969 641.2344,652.3906 C640.8125,652.6563 640.125,652.7813 639.3594,652.7813 C637.3125,652.7813 636.0156,651.6875 636.0156,649.9844 L636.0156,648.8906 C636.0156,647.1094 637.2656,645.7969 639,645.7969 C639.5781,645.7969 640.1875,645.9531 640.6563,646.2031 C641.1406,646.4844 641.3125,646.7031 641.4063,647.1094 C641.4688,647.5156 641.5,647.6406 641.6406,647.7656 C641.7813,647.9063 642.0156,648.0156 642.2344,648.0156 C642.5,648.0156 642.7656,647.875 642.9375,647.6563 C643.0469,647.5 643.0781,647.3125 643.0781,646.8906 L643.0781,645.4688 C643.0781,645.0313 643.0625,644.9063 642.9688,644.75 C642.8125,644.4844 642.5313,644.3438 642.2344,644.3438 C641.9375,644.3438 641.7344,644.4375 641.5156,644.75 L641.3438,644.6719 Z " fill="#000000"/><text fill="#000000" font-family="sans-serif" font-size="14" lengthAdjust="spacing" textLength="32" x="653" y="653.8467">Club</text><line style="stroke:#181818;stroke-width:0.5;" x1="625" x2="687" y1="665" y2="665"/><line style="stroke:#181818;stroke-width:0.5;" x1="625" x2="687" y1="673" y2="673"/></g><!--MD5=[08be530975453a47bdc5b5370100f2fc]
class Red--><g id="elem_Red"><rect fill="#F1F1F1" height="48" id="Red" rx="2.5" ry="2.5" style="stroke:#181818;stroke-width:0.5;" width="60" x="395" y="976"/><ellipse cx="410" cy="992" fill="#ADD1B2" rx="11" ry="11" style="stroke:#181818;stroke-width:1.0;"/><path d="M412.3438,987.6719 C411.4063,987.2344 410.8125,987.0938 409.9375,987.0938 C407.3125,987.0938 405.3125,989.1719 405.3125,991.8906 L405.3125,993.0156 C405.3125,995.5938 407.4219,997.4844 410.3125,997.4844 C411.5313,997.4844 412.6875,997.1875 413.4375,996.6406 C414.0156,996.2344 414.3438,995.7813 414.3438,995.3906 C414.3438,994.9375 413.9531,994.5469 413.4844,994.5469 C413.2656,994.5469 413.0625,994.625 412.875,994.8125 C412.4219,995.2969 412.4219,995.2969 412.2344,995.3906 C411.8125,995.6563 411.125,995.7813 410.3594,995.7813 C408.3125,995.7813 407.0156,994.6875 407.0156,992.9844 L407.0156,991.8906 C407.0156,990.1094 408.2656,988.7969 410,988.7969 C410.5781,988.7969 411.1875,988.9531 411.6563,989.2031 C412.1406,989.4844 412.3125,989.7031 412.4063,990.1094 C412.4688,990.5156 412.5,990.6406 412.6406,990.7656 C412.7813,990.9063 413.0156,991.0156 413.2344,991.0156 C413.5,991.0156 413.7656,990.875 413.9375,990.6563 C414.0469,990.5 414.0781,990.3125 414.0781,989.8906 L414.0781,988.4688 C414.0781,988.0313 414.0625,987.9063 413.9688,987.75 C413.8125,987.4844 413.5313,987.3438 413.2344,987.3438 C412.9375,987.3438 412.7344,987.4375 412.5156,987.75 L412.3438,987.6719 Z " fill="#000000"/><text fill="#000000" font-family="sans-serif" font-size="14" lengthAdjust="spacing" textLength="28" x="424" y="996.8467">Red</text><line style="stroke:#181818;stroke-width:0.5;" x1="396" x2="454" y1="1008" y2="1008"/><line style="stroke:#181818;stroke-width:0.5;" x1="396" x2="454" y1="1016" y2="1016"/></g><!--MD5=[365150d8163e865a226452c70cc7ad9f]
class Black--><g id="elem_Black"><rect fill="#F1F1F1" height="48" id="Black" rx="2.5" ry="2.5" style="stroke:#181818;stroke-width:0.5;" width="71" x="565.5" y="976"/><ellipse cx="580.5" cy="992" fill="#ADD1B2" rx="11" ry="11" style="stroke:#181818;stroke-width:1.0;"/><path d="M582.8438,987.6719 C581.9063,987.2344 581.3125,987.0938 580.4375,987.0938 C577.8125,987.0938 575.8125,989.1719 575.8125,991.8906 L575.8125,993.0156 C575.8125,995.5938 577.9219,997.4844 580.8125,997.4844 C582.0313,997.4844 583.1875,997.1875 583.9375,996.6406 C584.5156,996.2344 584.8438,995.7813 584.8438,995.3906 C584.8438,994.9375 584.4531,994.5469 583.9844,994.5469 C583.7656,994.5469 583.5625,994.625 583.375,994.8125 C582.9219,995.2969 582.9219,995.2969 582.7344,995.3906 C582.3125,995.6563 581.625,995.7813 580.8594,995.7813 C578.8125,995.7813 577.5156,994.6875 577.5156,992.9844 L577.5156,991.8906 C577.5156,990.1094 578.7656,988.7969 580.5,988.7969 C581.0781,988.7969 581.6875,988.9531 582.1563,989.2031 C582.6406,989.4844 582.8125,989.7031 582.9063,990.1094 C582.9688,990.5156 583,990.6406 583.1406,990.7656 C583.2813,990.9063 583.5156,991.0156 583.7344,991.0156 C584,991.0156 584.2656,990.875 584.4375,990.6563 C584.5469,990.5 584.5781,990.3125 584.5781,989.8906 L584.5781,988.4688 C584.5781,988.0313 584.5625,987.9063 584.4688,987.75 C584.3125,987.4844 584.0313,987.3438 583.7344,987.3438 C583.4375,987.3438 583.2344,987.4375 583.0156,987.75 L582.8438,987.6719 Z " fill="#000000"/><text fill="#000000" font-family="sans-serif" font-size="14" lengthAdjust="spacing" textLength="39" x="594.5" y="996.8467">Black</text><line style="stroke:#181818;stroke-width:0.5;" x1="566.5" x2="635.5" y1="1008" y2="1008"/><line style="stroke:#181818;stroke-width:0.5;" x1="566.5" x2="635.5" y1="1016" y2="1016"/></g><!--MD5=[4c0abcb474b56cdbbfb3c316b5e42628]
class AllCardsToFoundationsGoal--><g id="elem_AllCardsToFoundationsGoal"><rect fill="#F1F1F1" height="48" id="AllCardsToFoundationsGoal" rx="2.5" ry="2.5" style="stroke:#181818;stroke-width:0.5;" width="227" x="29.5" y="303"/><ellipse cx="44.5" cy="319" fill="#ADD1B2" rx="11" ry="11" style="stroke:#181818;stroke-width:1.0;"/><path d="M46.8438,314.6719 C45.9063,314.2344 45.3125,314.0938 44.4375,314.0938 C41.8125,314.0938 39.8125,316.1719 39.8125,318.8906 L39.8125,320.0156 C39.8125,322.5938 41.9219,324.4844 44.8125,324.4844 C46.0313,324.4844 47.1875,324.1875 47.9375,323.6406 C48.5156,323.2344 48.8438,322.7813 48.8438,322.3906 C48.8438,321.9375 48.4531,321.5469 47.9844,321.5469 C47.7656,321.5469 47.5625,321.625 47.375,321.8125 C46.9219,322.2969 46.9219,322.2969 46.7344,322.3906 C46.3125,322.6563 45.625,322.7813 44.8594,322.7813 C42.8125,322.7813 41.5156,321.6875 41.5156,319.9844 L41.5156,318.8906 C41.5156,317.1094 42.7656,315.7969 44.5,315.7969 C45.0781,315.7969 45.6875,315.9531 46.1563,316.2031 C46.6406,316.4844 46.8125,316.7031 46.9063,317.1094 C46.9688,317.5156 47,317.6406 47.1406,317.7656 C47.2813,317.9063 47.5156,318.0156 47.7344,318.0156 C48,318.0156 48.2656,317.875 48.4375,317.6563 C48.5469,317.5 48.5781,317.3125 48.5781,316.8906 L48.5781,315.4688 C48.5781,315.0313 48.5625,314.9063 48.4688,314.75 C48.3125,314.4844 48.0313,314.3438 47.7344,314.3438 C47.4375,314.3438 47.2344,314.4375 47.0156,314.75 L46.8438,314.6719 Z " fill="#000000"/><text fill="#000000" font-family="sans-serif" font-size="14" lengthAdjust="spacing" textLength="195" x="58.5" y="323.8467">AllCardsToFoundationsGoal</text><line style="stroke:#181818;stroke-width:0.5;" x1="30.5" x2="255.5" y1="335" y2="335"/><line style="stroke:#181818;stroke-width:0.5;" x1="30.5" x2="255.5" y1="343" y2="343"/></g><!--MD5=[d0e37a71a001f6053d69fd29d330fd4f]
link Klondike to Player--><g id="link_Klondike_Player"><path codeLine="2" d="M425.3574,37.9484 C425.3574,37.9484 308.106,58.235 254,85 C242.508,90.685 231.288,98.781 221.492,106.98 " fill="none" id="Klondike-Player" style="stroke:#181818;stroke-width:1.0;"/><polygon fill="#181818" points="211.477,115.808,220.8737,112.858,215.228,112.502,215.5841,106.8564,211.477,115.808" style="stroke:#181818;stroke-width:1.0;"/><line style="stroke:#181818;stroke-width:1.0;" x1="215.228" x2="221.2295" y1="112.502" y2="107.2115"/><polygon fill="#181818" points="437.257,36.399,430.7908,33.2072,425.3574,37.9484,431.8237,41.1402,437.257,36.399" style="stroke:#181818;stroke-width:1.0;"/></g><!--MD5=[7d7afaf8cc2ad62f66d9fb1ba9e5e8a9]
link Klondike to Deck--><g id="link_Klondike_Deck"><path codeLine="3" d="M491.466,66.9154 C491.466,66.9154 510.934,172.042 518.322,211.938 " fill="none" id="Klondike-Deck" style="stroke:#181818;stroke-width:1.0;"/><polygon fill="#181818" points="520.69,224.724,522.9844,215.1461,519.7796,219.8076,515.1181,216.6028,520.69,224.724" style="stroke:#181818;stroke-width:1.0;"/><line style="stroke:#181818;stroke-width:1.0;" x1="519.7796" x2="518.322" y1="219.8076" y2="211.9415"/><polygon fill="#181818" points="489.281,55.116,486.4404,61.744,491.466,66.9154,494.3066,60.2874,489.281,55.116" style="stroke:#181818;stroke-width:1.0;"/></g><!--MD5=[c905f1b8e8f3426bca82a4905da2e16e]
link Deck to Card--><g id="link_Deck_Card"><path codeLine="4" d="M547.3321,283.6423 C547.3321,283.6423 553.369,296.808 555,303 C560.434,323.63 562.741,331.121 555,351 C552.326,357.866 548.479,364.427 544.035,370.531 " fill="none" id="Deck-Card" style="stroke:#181818;stroke-width:1.0;"/><polygon fill="#181818" points="535.515,380.991,544.3001,376.5388,538.6726,377.1142,538.0972,371.4867,535.515,380.991" style="stroke:#181818;stroke-width:1.0;"/><line style="stroke:#181818;stroke-width:1.0;" x1="538.6726" x2="543.725" y1="377.1142" y2="370.9115"/><polygon fill="#181818" points="541.525,273.141,540.9281,280.3274,547.3321,283.6423,547.929,276.456,541.525,273.141" style="stroke:#181818;stroke-width:1.0;"/><text fill="#000000" font-family="sans-serif" font-size="13" lengthAdjust="spacing" textLength="16" x="525.3962" y="369.8922">52</text></g><!--MD5=[d3883b6e5521bc1a4fbc628d87a10151]
link Klondike to Stock--><g id="link_Klondike_Stock"><path codeLine="5" d="M544.4366,38.0218 C544.4366,38.0218 689,73.655 689,139 C689,139 689,139 689,328 C689,398.043 657.449,474.91 636.412,518.377 " fill="none" id="Klondike-Stock" style="stroke:#181818;stroke-width:1.0;"/><polygon fill="#181818" points="630.53,530.234,638.1129,523.9491,632.752,525.7549,630.9463,520.3939,630.53,530.234" style="stroke:#181818;stroke-width:1.0;"/><line style="stroke:#181818;stroke-width:1.0;" x1="632.752" x2="636.307" y1="525.7549" y2="518.588"/><polygon fill="#181818" points="532.571,36.231,537.9069,41.0816,544.4366,38.0218,539.1007,33.1712,532.571,36.231" style="stroke:#181818;stroke-width:1.0;"/></g><!--MD5=[fc362caf7996dc1cff37dff6c24ba86b]
link Klondike to Waste--><g id="link_Klondike_Waste"><path codeLine="6" d="M425.5829,37.8699 C425.5829,37.8699 280,73.172 280,139 C280,139 280,139 280,414 C280,449.166 284.146,489.104 287.755,517.208 " fill="none" id="Klondike-Waste" style="stroke:#181818;stroke-width:1.0;"/><polygon fill="#181818" points="289.516,530.359,292.287,520.908,288.8528,525.4032,284.3577,521.969,289.516,530.359" style="stroke:#181818;stroke-width:1.0;"/><line style="stroke:#181818;stroke-width:1.0;" x1="288.8528" x2="287.791" y1="525.4032" y2="517.4745"/><polygon fill="#181818" points="437.454,36.116,430.9338,33.0359,425.5829,37.8699,432.1031,40.95,437.454,36.116" style="stroke:#181818;stroke-width:1.0;"/></g><!--MD5=[b1c209f4aa9271d424a51362b3ae8562]
link Klondike to Tableau--><g id="link_Klondike_Tableau"><path codeLine="7" d="M544.6299,37.7936 C544.6299,37.7936 836,79.022 836,139 C836,139 836,139 836,414 C836,453.409 813.216,492.935 793.461,519.799 " fill="none" id="Klondike-Tableau" style="stroke:#181818;stroke-width:1.0;"/><polygon fill="#181818" points="785.536,530.148,794.1841,525.4352,788.5763,526.1785,787.8329,520.5707,785.536,530.148" style="stroke:#181818;stroke-width:1.0;"/><line style="stroke:#181818;stroke-width:1.0;" x1="788.5763" x2="793.44" y1="526.1785" y2="519.8265"/><polygon fill="#181818" points="532.703,36.471,538.2256,41.1079,544.6299,37.7936,539.1073,33.1567,532.703,36.471" style="stroke:#181818;stroke-width:1.0;"/><text fill="#000000" font-family="sans-serif" font-size="13" lengthAdjust="spacing" textLength="8" x="781.5667" y="519.4672">7</text></g><!--MD5=[6a4057357f913d5657fa9fe87f0edd29]
link Klondike to Foundation--><g id="link_Klondike_Foundation"><path codeLine="8" d="M425.324,32.9169 C425.324,32.9169 6,54.234 6,139 C6,139 6,139 6,414 C6,461.836 47.5143,499.279 84.8376,523.275 " fill="none" id="Klondike-Foundation" style="stroke:#181818;stroke-width:1.0;"/><polygon fill="#181818" points="96.2355,530.287,90.6659,522.1642,91.9769,527.6671,86.474,528.9781,96.2355,530.287" style="stroke:#181818;stroke-width:1.0;"/><line style="stroke:#181818;stroke-width:1.0;" x1="91.9769" x2="85.1631" y1="527.6671" y2="523.4755"/><polygon fill="#181818" points="437.32,32.607,431.2187,28.7633,425.324,32.9169,431.4253,36.7606,437.32,32.607" style="stroke:#181818;stroke-width:1.0;"/><text fill="#000000" font-family="sans-serif" font-size="13" lengthAdjust="spacing" textLength="8" x="75.2271" y="519.2445">4</text></g><!--MD5=[37ea3813cdee931c7c4fe6bac0c00ff5]
link Klondike to Deal--><g id="link_Klondike_Deal"><path codeLine="9" d="M511.375,55.119 C521.875,64.37 534.045,75.149 545,85 C554.845,93.852 565.54,103.601 575.087,112.35 " fill="none" id="Klondike-to-Deal" style="stroke:#181818;stroke-width:1.0;stroke-dasharray:7.0,7.0;"/><polygon fill="#181818" points="578.824,115.777,574.8962,106.7453,575.1396,112.3969,569.488,112.6403,578.824,115.777" style="stroke:#181818;stroke-width:1.0;"/></g><!--MD5=[0ff07eb1f5857c11171404a1cb9605d1]
link Klondike to Shuffle--><g id="link_Klondike_Shuffle"><path codeLine="10" d="M471.764,55.217 C462.411,71.623 449.83,93.692 439.927,111.062 " fill="none" id="Klondike-to-Shuffle" style="stroke:#181818;stroke-width:1.0;stroke-dasharray:7.0,7.0;"/><polygon fill="#181818" points="437.21,115.828,445.1428,109.9911,439.6867,111.4845,438.1933,106.0283,437.21,115.828" style="stroke:#181818;stroke-width:1.0;"/></g><!--MD5=[9102f5662564cd3ee431b9c317221146]
link Shuffle to Deck--><g id="link_Shuffle_Deck"><path codeLine="11" d="M445.915,164.217 C461.665,180.903 482.946,203.448 499.465,220.949 " fill="none" id="Shuffle-to-Deck" style="stroke:#181818;stroke-width:1.0;"/><polygon fill="#181818" points="503.127,224.828,499.8586,215.5373,499.6951,221.1918,494.0406,221.0283,503.127,224.828" style="stroke:#181818;stroke-width:1.0;"/></g><!--MD5=[1e86053619627b495fa48f302576ab36]
link Deal to Deck--><g id="link_Deal_Deck"><path codeLine="12" d="M586.858,164.217 C574.642,180.763 558.173,203.07 545.299,220.506 " fill="none" id="Deal-to-Deck" style="stroke:#181818;stroke-width:1.0;"/><polygon fill="#181818" points="542.108,224.828,550.6716,219.9633,545.0777,220.8055,544.2355,215.2117,542.108,224.828" style="stroke:#181818;stroke-width:1.0;"/></g><!--MD5=[2e56af408f392f89dc42df43a7ca079e]
link Deal to Tableau--><g id="link_Deal_Tableau"><path codeLine="13" d="M624.434,164.164 C649.701,194.091 692.159,248.805 715,303 C747.173,379.339 759.016,477.648 763.067,525.219 " fill="none" id="Deal-to-Tableau" style="stroke:#181818;stroke-width:1.0;"/><polygon fill="#181818" points="763.502,530.488,766.7505,521.1903,763.092,525.5048,758.7774,521.8463,763.502,530.488" style="stroke:#181818;stroke-width:1.0;"/><text fill="#000000" font-family="sans-serif" font-size="13" lengthAdjust="spacing" textLength="8" x="754.0931" y="519.497">7</text></g><!--MD5=[4f1f0fb157b927240641f4f2c8c8aae8]
link Deal to Stock--><g id="link_Deal_Stock"><path codeLine="14" d="M604.783,164.062 C607.178,234.646 614.407,447.636 617.033,525.014 " fill="none" id="Deal-to-Stock" style="stroke:#181818;stroke-width:1.0;"/><polygon fill="#181818" points="617.214,530.347,620.9056,521.2162,617.044,525.3499,612.9102,521.4882,617.214,530.347" style="stroke:#181818;stroke-width:1.0;"/></g><!--MD5=[01ae9f68263e6bc4031c0aece6e20929]
link Card to Suit--><g id="link_Card_Suit"><path codeLine="15" d="M503.3407,457.247 C503.3407,457.247 507.531,499.009 509.333,516.956 " fill="none" id="Card-Suit" style="stroke:#181818;stroke-width:1.0;"/><polygon fill="#181818" points="510.653,530.112,513.734,520.7575,510.1536,525.137,505.774,521.5565,510.653,530.112" style="stroke:#181818;stroke-width:1.0;"/><line style="stroke:#181818;stroke-width:1.0;" x1="510.1536" x2="509.3545" y1="525.137" y2="517.1765"/><polygon fill="#181818" points="502.142,445.307,498.7614,451.6766,503.3407,457.247,506.7214,450.8774,502.142,445.307" style="stroke:#181818;stroke-width:1.0;"/></g><!--MD5=[dab4fdc688f775bd2cd14c67a04f3f7b]
link Card to Rank--><g id="link_Card_Rank"><path codeLine="16" d="M473.68,455.5546 C473.68,455.5546 457.718,481.751 450.004,494.411 " fill="none" id="Card-Rank" style="stroke:#181818;stroke-width:1.0;"/><polygon fill="#181818" points="443.032,505.853,451.1309,500.2487,445.6337,501.5832,444.2992,496.086,443.032,505.853" style="stroke:#181818;stroke-width:1.0;"/><line style="stroke:#181818;stroke-width:1.0;" x1="445.6337" x2="449.7965" y1="501.5832" y2="494.7515"/><polygon fill="#181818" points="479.924,445.307,473.3861,448.3494,473.68,455.5546,480.2178,452.5121,479.924,445.307" style="stroke:#181818;stroke-width:1.0;"/></g><!--MD5=[0cc7312144b7b0e8e85651666602557e]
reverse link Pile to Waste--><g id="link_Pile_Waste"><path codeLine="26" d="M346.748,454.845 C333.334,479.465 316.741,509.923 305.568,530.43 " fill="none" id="Pile-backto-Waste" style="stroke:#181818;stroke-width:1.0;"/><polygon fill="none" points="340.735,451.249,356.45,437.036,353.029,457.947,340.735,451.249" style="stroke:#181818;stroke-width:1.0;"/></g><!--MD5=[a3b0419bdb877a6921c502f7ab916277]
reverse link Pile to Stock--><g id="link_Pile_Stock"><path codeLine="27" d="M415.978,444.358 C480.517,477.2 504.908,472.811 560,506 C571.483,512.918 583.115,521.958 592.917,530.293 " fill="none" id="Pile-backto-Stock" style="stroke:#181818;stroke-width:1.0;"/><polygon fill="none" points="412.536,450.456,398.164,434.886,419.11,438.095,412.536,450.456" style="stroke:#181818;stroke-width:1.0;"/></g><!--MD5=[b0173922ba304e58e67aa3279a656791]
reverse link Pile to Tableau--><g id="link_Pile_Tableau"><path codeLine="28" d="M416.702,443.919 C526.782,489.54 567.53,467.554 672,506 C689.865,512.574 708.72,521.747 724.748,530.28 " fill="none" id="Pile-backto-Tableau" style="stroke:#181818;stroke-width:1.0;"/><polygon fill="none" points="413.598,450.203,398.035,435.823,419.169,437.359,413.598,450.203" style="stroke:#181818;stroke-width:1.0;"/></g><!--MD5=[6d28caff8698f66462643c822ec8500b]
reverse link Pile to Foundation--><g id="link_Pile_Foundation"><path codeLine="29" d="M322.674,442.595 C280.708,468.499 219.64,506.193 180.62,530.279 " fill="none" id="Pile-backto-Foundation" style="stroke:#181818;stroke-width:1.0;"/><polygon fill="none" points="319.221,436.5,339.917,431.952,326.575,448.413,319.221,436.5" style="stroke:#181818;stroke-width:1.0;"/></g><!--MD5=[1686cafc001cbb054836a454f368ddc9]
link Pile to Card--><g id="link_Pile_Card"><path codeLine="30" d="M410.199,413 C410.199,413 417.033,413 419.818,413 " fill="none" id="Pile-Card" style="stroke:#181818;stroke-width:1.0;"/><polygon fill="#181818" points="432.849,413,423.849,409,427.849,413,423.849,417,432.849,413" style="stroke:#181818;stroke-width:1.0;"/><line style="stroke:#181818;stroke-width:1.0;" x1="427.849" x2="419.8495" y1="413" y2="413"/><polygon fill="none" points="398.199,413,404.199,417,410.199,413,404.199,409,398.199,413" style="stroke:#181818;stroke-width:1.0;"/><text fill="#000000" font-family="sans-serif" font-size="13" lengthAdjust="spacing" textLength="24" x="406.1265" y="408.2837">0..n</text></g><!--MD5=[7e30d075c7e28ae86a5e6e748d3cd0b6]
link Player to Move--><g id="link_Player_Move"><path codeLine="31" d="M227.029,160.377 C264.397,179.416 321.186,208.352 359.164,227.703 " fill="none" id="Player-to-Move" style="stroke:#181818;stroke-width:1.0;stroke-dasharray:7.0,7.0;"/><polygon fill="#181818" points="363.7,230.014,357.4975,222.3636,359.2451,227.7437,353.865,229.4914,363.7,230.014" style="stroke:#181818;stroke-width:1.0;"/></g><!--MD5=[610353d3a72395b77e7f561f5987d448]
link Move to Card--><g id="link_Move_Card"><path codeLine="32" d="M434.152,269.355 C447.121,278.087 460.864,289.495 470,303 C484.587,324.562 491.845,353.126 495.451,375.603 " fill="none" id="Move-to-Card" style="stroke:#181818;stroke-width:1.0;"/><polygon fill="#181818" points="496.209,380.593,498.814,371.0949,495.4591,375.6496,490.9045,372.2947,496.209,380.593" style="stroke:#181818;stroke-width:1.0;"/><text fill="#000000" font-family="sans-serif" font-size="13" lengthAdjust="spacing" textLength="24" x="492" y="331.5669">1..n</text></g><!--MD5=[9c96613f90e0ef613e532dfde2be76fd]
link Move to Pile--><g id="link_Move_Pile"><path codeLine="33" d="M363.844,270.259 C352.47,278.783 341.201,289.814 335,303 C322.505,329.571 335.852,361.886 349.32,384.402 " fill="none" id="Move-to-Pile" style="stroke:#181818;stroke-width:1.0;"/><polygon fill="#181818" points="352.008,388.77,350.6989,379.0085,349.388,384.5114,343.8851,383.2006,352.008,388.77" style="stroke:#181818;stroke-width:1.0;"/><text fill="#000000" font-family="sans-serif" font-size="13" lengthAdjust="spacing" textLength="35" x="336" y="331.5669">origin</text></g><!--MD5=[9c96613f90e0ef613e532dfde2be76fd]
link Move to Pile--><g id="link_Move_Pile"><path codeLine="34" d="M394.702,273.211 C389.311,302.323 380.071,352.216 374.263,383.582 " fill="none" id="Move-to-Pile-1" style="stroke:#181818;stroke-width:1.0;"/><polygon fill="#181818" points="373.29,388.832,378.8633,380.7117,374.2013,383.9157,370.9973,379.2537,373.29,388.832" style="stroke:#181818;stroke-width:1.0;"/><text fill="#000000" font-family="sans-serif" font-size="13" lengthAdjust="spacing" textLength="71" x="390" y="331.5669">destination</text></g><!--MD5=[177767f5f369ddd7a2766db2fec86924]
link Suit to Color--><g id="link_Suit_Color"><path codeLine="35" d="M513,578.756 C513,638.416 513,796.755 513,861.651 " fill="none" id="Suit-to-Color" style="stroke:#181818;stroke-width:1.0;"/><polygon fill="#181818" points="513,866.898,517,857.898,513,861.898,509,857.898,513,866.898" style="stroke:#181818;stroke-width:1.0;"/></g><!--MD5=[4dce8a7c926835c26b617333aef55021]
reverse link Suit to Heart--><g id="link_Suit_Heart"><path codeLine="38" d="M484.289,595.026 C475.022,607.785 465.052,621.51 456.923,632.703 " fill="none" id="Suit-backto-Heart" style="stroke:#181818;stroke-width:1.0;"/><polygon fill="none" points="478.835,590.625,496.252,578.557,490.162,598.852,478.835,590.625" style="stroke:#181818;stroke-width:1.0;"/></g><!--MD5=[87a89b153beae7d393e9829af90018d5]
reverse link Suit to Spade--><g id="link_Suit_Spade"><path codeLine="39" d="M527.248,597.707 C531.087,609.151 535.222,621.544 539,633 C557.414,688.843 578.608,754.652 589.568,788.804 " fill="none" id="Suit-backto-Spade" style="stroke:#181818;stroke-width:1.0;"/><polygon fill="none" points="520.542,599.727,520.799,578.539,533.811,595.263,520.542,599.727" style="stroke:#181818;stroke-width:1.0;"/></g><!--MD5=[3240b0668addca4158fb3cca1bb15e32]
reverse link Suit to Diamon--><g id="link_Suit_Diamon"><path codeLine="40" d="M478.561,592.795 C474.209,596.514 469.647,600.011 465,603 C433.412,623.316 414.574,608.626 386,633 C361.386,653.996 344.883,688.2 335.967,710.9 " fill="none" id="Suit-backto-Diamon" style="stroke:#181818;stroke-width:1.0;"/><polygon fill="none" points="473.865,587.601,493.175,578.876,483.521,597.738,473.865,587.601" style="stroke:#181818;stroke-width:1.0;"/></g><!--MD5=[988cd1dee8ea1cf2960e884b4b0ffb8b]
reverse link Suit to Club--><g id="link_Suit_Club"><path codeLine="41" d="M549.664,592.384 C554.019,596.139 558.515,599.759 563,603 C585.885,619.538 594.553,618.873 619,633 C620.572,633.908 622.174,634.848 623.787,635.806 " fill="none" id="Suit-backto-Club" style="stroke:#181818;stroke-width:1.0;"/><polygon fill="none" points="544.706,597.335,534.766,578.621,554.207,587.052,544.706,597.335" style="stroke:#181818;stroke-width:1.0;"/></g><!--MD5=[39e04be43e1ad652dcf6d75fa160b251]
link Heart to Red--><g id="link_Heart_Red"><path codeLine="42" d="M438.981,681.17 C436.319,741.679 429.165,904.326 426.256,970.4541 " fill="none" id="Heart-to-Red" style="stroke:#181818;stroke-width:1.0;"/><polygon fill="#181818" points="426.021,975.7979,430.4128,966.9825,426.2408,970.8027,422.4206,966.6307,426.021,975.7979" style="stroke:#181818;stroke-width:1.0;"/></g><!--MD5=[c24cb79e4d35e118006c9454deabc9d6]
link Diamon to Red--><g id="link_Diamon_Red"><path codeLine="43" d="M334.715,759.043 C346.328,798.081 371.569,879.465 399,946 C402.397,954.239 406.486,962.9957 410.405,970.9678 " fill="none" id="Diamon-to-Red" style="stroke:#181818;stroke-width:1.0;"/><polygon fill="#181818" points="412.815,975.8185,412.3914,965.9788,410.5897,971.341,405.2274,969.5393,412.815,975.8185" style="stroke:#181818;stroke-width:1.0;"/></g><!--MD5=[5e71cd03c38ae2dc5991a4eb9d4f46b1]
link Spade to Black--><g id="link_Spade_Black"><path codeLine="44" d="M597.499,837.056 C598.231,870.938 599.597,934.1123 600.389,970.7397 " fill="none" id="Spade-to-Black" style="stroke:#181818;stroke-width:1.0;"/><polygon fill="#181818" points="600.502,975.9444,604.3064,966.86,600.3939,970.9456,596.3083,967.033,600.502,975.9444" style="stroke:#181818;stroke-width:1.0;"/></g><!--MD5=[378246b792e7d73afd082aeb5825fcc6]
link Club to Black--><g id="link_Club_Black"><path codeLine="45" d="M656.574,681.279 C657.113,715.533 656.984,781.469 650,837 C643.81,886.217 642.015,899.051 626,946 C623.144,954.3726 619.344,963.1721 615.571,971.1425 " fill="none" id="Club-to-Black" style="stroke:#181818;stroke-width:1.0;"/><polygon fill="#181818" points="613.233,975.9869,620.7467,969.6195,615.4059,971.4837,613.5416,966.1429,613.233,975.9869" style="stroke:#181818;stroke-width:1.0;"/></g><!--MD5=[af66b58f2992f2e4db4f382db65f0624]
reverse link Color to Black--><g id="link_Color_Black"><path codeLine="47" d="M544.828,930.7 C557.265,945.8219 571.11,962.6561 581.943,975.8279 " fill="none" id="Color-backto-Black" style="stroke:#181818;stroke-width:1.0;"/><polygon fill="none" points="539.392,935.1108,532.095,915.217,550.205,926.2179,539.392,935.1108" style="stroke:#181818;stroke-width:1.0;"/></g><!--MD5=[fab54b5999e935266d298ad54749f91a]
reverse link Color to Red--><g id="link_Color_Red"><path codeLine="48" d="M481.172,930.7 C468.735,945.8219 454.89,962.6561 444.057,975.8279 " fill="none" id="Color-backto-Red" style="stroke:#181818;stroke-width:1.0;"/><polygon fill="none" points="475.795,926.2179,493.905,915.217,486.608,935.1108,475.795,926.2179" style="stroke:#181818;stroke-width:1.0;"/></g><!--MD5=[0c4ac1459b76e36ae8c72ba408689077]
link Player to AllCardsToFoundationsGoal--><g id="link_Player_AllCardsToFoundationsGoal"><path codeLine="49" d="M183.267,164.056 C174.842,197.938 159.134,261.112 150.027,297.74 " fill="none" id="Player-to-AllCardsToFoundationsGoal" style="stroke:#181818;stroke-width:1.0;"/><polygon fill="#181818" points="148.733,302.944,154.7851,295.174,149.9386,298.0915,147.0211,293.2451,148.733,302.944" style="stroke:#181818;stroke-width:1.0;"/></g><!--MD5=[8214be69222729de39b9e1657fe05db9]
link AllCardsToFoundationsGoal to Foundation--><g id="link_AllCardsToFoundationsGoal_Foundation"><path codeLine="50" d="M143,351.283 C143,392.999 143,480.318 143,525.333 " fill="none" id="AllCardsToFoundationsGoal-to-Foundation" style="stroke:#181818;stroke-width:1.0;"/><polygon fill="#181818" points="143,530.344,147,521.344,143,525.344,139,521.344,143,530.344" style="stroke:#181818;stroke-width:1.0;"/><text fill="#000000" font-family="sans-serif" font-size="13" lengthAdjust="spacing" textLength="8" x="133.975" y="519.3161">4</text></g><!--MD5=[e5315179622ac574331cd25380cbb016]
@startuml
class Klondike
Klondike *-down-> Player
Klondike *-down-> Deck
Deck *-down-> "52"Card
Klondike *-down-> Stock
Klondike *-down-> Waste
Klondike *-down-> "7"Tableau
Klondike *-down-> "4" Foundation
Klondike..> Deal
Klondike..> Shuffle
Shuffle - -> Deck
Deal - -> Deck
Deal - -> "7" Tableau
Deal - -> Stock
Card *-down-> Suit
Card *-down-> Rank
enum Rank{
as
...
king
}

class Card{
faceup : boolean
}
Pile <|-down-Waste
Pile <|-down- Stock
Pile <|-down- Tableau
Pile <|-down- Foundation
Pile o-right->"0..n" Card
Player ..> Move
Move - -> Card : 1..n
Move -down-> Pile : origin
Move -down-> Pile : destination
Suit - -down-> Color
enum Color
Class Suit
Suit <|- Heart
Suit <|- Spade
Suit <|- Diamon
Suit <|- Club
Heart - -> Red
Diamon - -> Red
Spade - -> Black
Club - -> Black
class Color
Color <|-down- Black
Color <|-down- Red
Player - -> AllCardsToFoundationsGoal
AllCardsToFoundationsGoal - -> "4"Foundation
@enduml

PlantUML version 1.2022.3beta2(Unknown compile time)
(GPL source distribution)
Java Runtime: Java(TM) SE Runtime Environment
JVM: Java HotSpot(TM) 64-Bit Server VM
Default Encoding: UTF-8
Language: en
Country: US
--></g></svg>