<?xml version="1.0" encoding="UTF-8" standalone="no"?><svg xmlns="http://www.w3.org/2000/svg" xmlns:xlink="http://www.w3.org/1999/xlink" contentScriptType="application/ecmascript" contentStyleType="text/css" height="442px" preserveAspectRatio="none" style="width:1609px;height:442px;background:#FFFFFF;" version="1.1" viewBox="0 0 1609 442" width="1609px" zoomAndPan="magnify"><defs><filter height="300%" id="f1gpwny5mds3rl" width="300%" x="-1" y="-1"><feGaussianBlur result="blurOut" stdDeviation="2.0"/><feColorMatrix in="blurOut" result="blurOut2" type="matrix" values="0 0 0 0 0 0 0 0 0 0 0 0 0 0 0 0 0 0 .4 0"/><feOffset dx="4.0" dy="4.0" in="blurOut2" result="blurOut3"/><feBlend in="SourceGraphic" in2="blurOut3" mode="normal"/></filter></defs><g><text fill="#000000" font-family="sans-serif" font-size="18" lengthAdjust="spacing" textLength="229" x="683.75" y="16.708">INITIAL STATE KLONDIKE</text><rect fill="#FEFECE" filter="url(#f1gpwny5mds3rl)" height="33.9688" style="stroke:#A80036;stroke-width:1.5;" width="70" x="765.5" y="27.9531"/><text fill="#000000" font-family="sans-serif" font-size="12" lengthAdjust="spacing" textLength="56" x="772.5" y="41.0918">:Klondike</text><line style="stroke:#A80036;stroke-width:1.5;" x1="766.5" x2="834.5" y1="45.9219" y2="45.9219"/><rect fill="#FEFECE" filter="url(#f1gpwny5mds3rl)" height="33.9688" style="stroke:#A80036;stroke-width:1.5;" width="52" x="774.5" y="121.9531"/><text fill="#000000" font-family="sans-serif" font-size="12" lengthAdjust="spacing" textLength="38" x="781.5" y="135.0918">:Table</text><line style="stroke:#A80036;stroke-width:1.5;" x1="775.5" x2="825.5" y1="139.9219" y2="139.9219"/><rect fill="#FEFECE" filter="url(#f1gpwny5mds3rl)" height="33.9688" style="stroke:#A80036;stroke-width:1.5;" width="68" x="77.5" y="215.9531"/><text fill="#000000" font-family="sans-serif" font-size="12" lengthAdjust="spacing" textLength="54" x="84.5" y="229.0918">:Tableau</text><line style="stroke:#A80036;stroke-width:1.5;" x1="78.5" x2="144.5" y1="233.9219" y2="233.9219"/><rect fill="#FEFECE" filter="url(#f1gpwny5mds3rl)" height="33.9688" style="stroke:#A80036;stroke-width:1.5;" width="68" x="244.5" y="215.9531"/><text fill="#000000" font-family="sans-serif" font-size="12" lengthAdjust="spacing" textLength="54" x="251.5" y="229.0918">:Tableau</text><line style="stroke:#A80036;stroke-width:1.5;" x1="245.5" x2="311.5" y1="233.9219" y2="233.9219"/><rect fill="#FEFECE" filter="url(#f1gpwny5mds3rl)" height="33.9688" style="stroke:#A80036;stroke-width:1.5;" width="68" x="476.5" y="215.9531"/><text fill="#000000" font-family="sans-serif" font-size="12" lengthAdjust="spacing" textLength="54" x="483.5" y="229.0918">:Tableau</text><line style="stroke:#A80036;stroke-width:1.5;" x1="477.5" x2="543.5" y1="233.9219" y2="233.9219"/><rect fill="#FEFECE" filter="url(#f1gpwny5mds3rl)" height="33.9688" style="stroke:#A80036;stroke-width:1.5;" width="68" x="708.5" y="215.9531"/><text fill="#000000" font-family="sans-serif" font-size="12" lengthAdjust="spacing" textLength="54" x="715.5" y="229.0918">:Tableau</text><line style="stroke:#A80036;stroke-width:1.5;" x1="709.5" x2="775.5" y1="233.9219" y2="233.9219"/><rect fill="#FEFECE" filter="url(#f1gpwny5mds3rl)" height="33.9688" style="stroke:#A80036;stroke-width:1.5;" width="68" x="824.5" y="215.9531"/><text fill="#000000" font-family="sans-serif" font-size="12" lengthAdjust="spacing" textLength="54" x="831.5" y="229.0918">:Tableau</text><line style="stroke:#A80036;stroke-width:1.5;" x1="825.5" x2="891.5" y1="233.9219" y2="233.9219"/><rect fill="#FEFECE" filter="url(#f1gpwny5mds3rl)" height="33.9688" style="stroke:#A80036;stroke-width:1.5;" width="68" x="1056.5" y="215.9531"/><text fill="#000000" font-family="sans-serif" font-size="12" lengthAdjust="spacing" textLength="54" x="1063.5" y="229.0918">:Tableau</text><line style="stroke:#A80036;stroke-width:1.5;" x1="1057.5" x2="1123.5" y1="233.9219" y2="233.9219"/><rect fill="#FEFECE" filter="url(#f1gpwny5mds3rl)" height="33.9688" style="stroke:#A80036;stroke-width:1.5;" width="68" x="1288.5" y="215.9531"/><text fill="#000000" font-family="sans-serif" font-size="12" lengthAdjust="spacing" textLength="54" x="1295.5" y="229.0918">:Tableau</text><line style="stroke:#A80036;stroke-width:1.5;" x1="1289.5" x2="1355.5" y1="233.9219" y2="233.9219"/><rect fill="#FEFECE" filter="url(#f1gpwny5mds3rl)" height="33.9688" style="stroke:#A80036;stroke-width:1.5;" width="53" x="1460" y="215.9531"/><text fill="#000000" font-family="sans-serif" font-size="12" lengthAdjust="spacing" textLength="39" x="1467" y="229.0918">:Stock</text><line style="stroke:#A80036;stroke-width:1.5;" x1="1461" x2="1512" y1="233.9219" y2="233.9219"/><rect fill="#FEFECE" filter="url(#f1gpwny5mds3rl)" height="37.6094" style="stroke:#A80036;stroke-width:1.5;" width="82" x="1513.5" y="309.9531"/><text fill="#000000" font-family="sans-serif" font-size="12" lengthAdjust="spacing" textLength="36" x="1536.5" y="323.0918">card1</text><line style="stroke:#A80036;stroke-width:1.5;" x1="1514.5" x2="1594.5" y1="327.9219" y2="327.9219"/><text fill="#000000" font-family="sans-serif" font-size="10" lengthAdjust="spacing" textLength="70" x="1519.5" y="341.2041">faceup = false</text><path d="M1516.5,407.9531 L1516.5,433.0859 A0,0 0 0 0 1516.5,433.0859 L1592.5,433.0859 A0,0 0 0 0 1592.5,433.0859 L1592.5,417.9531 L1582.5,407.9531 L1558.5,407.9531 L1554.5,348.0631 L1550.5,407.9531 L1516.5,407.9531 A0,0 0 0 0 1516.5,407.9531 " fill="#FBFB77" filter="url(#f1gpwny5mds3rl)" style="stroke:#A80036;stroke-width:1.0;"/><path d="M1582.5,407.9531 L1582.5,417.9531 L1592.5,417.9531 L1582.5,407.9531 " fill="#FBFB77" style="stroke:#A80036;stroke-width:1.0;"/><text fill="#000000" font-family="sans-serif" font-size="13" lengthAdjust="spacing" textLength="55" x="1522.5" y="425.02">24 cards</text><rect fill="#FEFECE" filter="url(#f1gpwny5mds3rl)" height="37.6094" style="stroke:#A80036;stroke-width:1.5;" width="79" x="7" y="309.9531"/><text fill="#000000" font-family="sans-serif" font-size="12" lengthAdjust="spacing" textLength="33" x="30" y="323.0918">:Card</text><line style="stroke:#A80036;stroke-width:1.5;" x1="8" x2="85" y1="327.9219" y2="327.9219"/><text fill="#000000" font-family="sans-serif" font-size="10" lengthAdjust="spacing" textLength="67" x="13" y="341.2041">faceup = true</text><rect fill="#FEFECE" filter="url(#f1gpwny5mds3rl)" height="37.6094" style="stroke:#A80036;stroke-width:1.5;" width="82" x="121.5" y="309.9531"/><text fill="#000000" font-family="sans-serif" font-size="12" lengthAdjust="spacing" textLength="33" x="146" y="323.0918">:Card</text><line style="stroke:#A80036;stroke-width:1.5;" x1="122.5" x2="202.5" y1="327.9219" y2="327.9219"/><text fill="#000000" font-family="sans-serif" font-size="10" lengthAdjust="spacing" textLength="70" x="127.5" y="341.2041">faceup = false</text><rect fill="#FEFECE" filter="url(#f1gpwny5mds3rl)" height="37.6094" style="stroke:#A80036;stroke-width:1.5;" width="79" x="239" y="309.9531"/><text fill="#000000" font-family="sans-serif" font-size="12" lengthAdjust="spacing" textLength="33" x="262" y="323.0918">:Card</text><line style="stroke:#A80036;stroke-width:1.5;" x1="240" x2="317" y1="327.9219" y2="327.9219"/><text fill="#000000" font-family="sans-serif" font-size="10" lengthAdjust="spacing" textLength="67" x="245" y="341.2041">faceup = true</text><rect fill="#FEFECE" filter="url(#f1gpwny5mds3rl)" height="37.6094" style="stroke:#A80036;stroke-width:1.5;" width="82" x="353.5" y="309.9531"/><text fill="#000000" font-family="sans-serif" font-size="12" lengthAdjust="spacing" textLength="33" x="378" y="323.0918">:Card</text><line style="stroke:#A80036;stroke-width:1.5;" x1="354.5" x2="434.5" y1="327.9219" y2="327.9219"/><text fill="#000000" font-family="sans-serif" font-size="10" lengthAdjust="spacing" textLength="70" x="359.5" y="341.2041">faceup = false</text><path d="M362.5,407.9531 L362.5,433.0859 A0,0 0 0 0 362.5,433.0859 L426.5,433.0859 A0,0 0 0 0 426.5,433.0859 L426.5,417.9531 L416.5,407.9531 L398.5,407.9531 L394.5,348.0631 L390.5,407.9531 L362.5,407.9531 A0,0 0 0 0 362.5,407.9531 " fill="#FBFB77" filter="url(#f1gpwny5mds3rl)" style="stroke:#A80036;stroke-width:1.0;"/><path d="M416.5,407.9531 L416.5,417.9531 L426.5,417.9531 L416.5,407.9531 " fill="#FBFB77" style="stroke:#A80036;stroke-width:1.0;"/><text fill="#000000" font-family="sans-serif" font-size="13" lengthAdjust="spacing" textLength="43" x="368.5" y="425.02">2cards</text><rect fill="#FEFECE" filter="url(#f1gpwny5mds3rl)" height="37.6094" style="stroke:#A80036;stroke-width:1.5;" width="79" x="471" y="309.9531"/><text fill="#000000" font-family="sans-serif" font-size="12" lengthAdjust="spacing" textLength="33" x="494" y="323.0918">:Card</text><line style="stroke:#A80036;stroke-width:1.5;" x1="472" x2="549" y1="327.9219" y2="327.9219"/><text fill="#000000" font-family="sans-serif" font-size="10" lengthAdjust="spacing" textLength="67" x="477" y="341.2041">faceup = true</text><rect fill="#FEFECE" filter="url(#f1gpwny5mds3rl)" height="37.6094" style="stroke:#A80036;stroke-width:1.5;" width="82" x="585.5" y="309.9531"/><text fill="#000000" font-family="sans-serif" font-size="12" lengthAdjust="spacing" textLength="33" x="610" y="323.0918">:Card</text><line style="stroke:#A80036;stroke-width:1.5;" x1="586.5" x2="666.5" y1="327.9219" y2="327.9219"/><text fill="#000000" font-family="sans-serif" font-size="10" lengthAdjust="spacing" textLength="70" x="591.5" y="341.2041">faceup = false</text><path d="M594.5,407.9531 L594.5,433.0859 A0,0 0 0 0 594.5,433.0859 L658.5,433.0859 A0,0 0 0 0 658.5,433.0859 L658.5,417.9531 L648.5,407.9531 L630.5,407.9531 L626.5,348.0631 L622.5,407.9531 L594.5,407.9531 A0,0 0 0 0 594.5,407.9531 " fill="#FBFB77" filter="url(#f1gpwny5mds3rl)" style="stroke:#A80036;stroke-width:1.0;"/><path d="M648.5,407.9531 L648.5,417.9531 L658.5,417.9531 L648.5,407.9531 " fill="#FBFB77" style="stroke:#A80036;stroke-width:1.0;"/><text fill="#000000" font-family="sans-serif" font-size="13" lengthAdjust="spacing" textLength="43" x="600.5" y="425.02">3cards</text><rect fill="#FEFECE" filter="url(#f1gpwny5mds3rl)" height="37.6094" style="stroke:#A80036;stroke-width:1.5;" width="79" x="703" y="309.9531"/><text fill="#000000" font-family="sans-serif" font-size="12" lengthAdjust="spacing" textLength="33" x="726" y="323.0918">:Card</text><line style="stroke:#A80036;stroke-width:1.5;" x1="704" x2="781" y1="327.9219" y2="327.9219"/><text fill="#000000" font-family="sans-serif" font-size="10" lengthAdjust="spacing" textLength="67" x="709" y="341.2041">faceup = true</text><rect fill="#FEFECE" filter="url(#f1gpwny5mds3rl)" height="37.6094" style="stroke:#A80036;stroke-width:1.5;" width="82" x="817.5" y="309.9531"/><text fill="#000000" font-family="sans-serif" font-size="12" lengthAdjust="spacing" textLength="33" x="842" y="323.0918">:Card</text><line style="stroke:#A80036;stroke-width:1.5;" x1="818.5" x2="898.5" y1="327.9219" y2="327.9219"/><text fill="#000000" font-family="sans-serif" font-size="10" lengthAdjust="spacing" textLength="70" x="823.5" y="341.2041">faceup = false</text><path d="M826.5,407.9531 L826.5,433.0859 A0,0 0 0 0 826.5,433.0859 L890.5,433.0859 A0,0 0 0 0 890.5,433.0859 L890.5,417.9531 L880.5,407.9531 L862.5,407.9531 L858.5,348.0631 L854.5,407.9531 L826.5,407.9531 A0,0 0 0 0 826.5,407.9531 " fill="#FBFB77" filter="url(#f1gpwny5mds3rl)" style="stroke:#A80036;stroke-width:1.0;"/><path d="M880.5,407.9531 L880.5,417.9531 L890.5,417.9531 L880.5,407.9531 " fill="#FBFB77" style="stroke:#A80036;stroke-width:1.0;"/><text fill="#000000" font-family="sans-serif" font-size="13" lengthAdjust="spacing" textLength="43" x="832.5" y="425.02">4cards</text><rect fill="#FEFECE" filter="url(#f1gpwny5mds3rl)" height="37.6094" style="stroke:#A80036;stroke-width:1.5;" width="79" x="935" y="309.9531"/><text fill="#000000" font-family="sans-serif" font-size="12" lengthAdjust="spacing" textLength="33" x="958" y="323.0918">:Card</text><line style="stroke:#A80036;stroke-width:1.5;" x1="936" x2="1013" y1="327.9219" y2="327.9219"/><text fill="#000000" font-family="sans-serif" font-size="10" lengthAdjust="spacing" textLength="67" x="941" y="341.2041">faceup = true</text><rect fill="#FEFECE" filter="url(#f1gpwny5mds3rl)" height="37.6094" style="stroke:#A80036;stroke-width:1.5;" width="82" x="1049.5" y="309.9531"/><text fill="#000000" font-family="sans-serif" font-size="12" lengthAdjust="spacing" textLength="33" x="1074" y="323.0918">:Card</text><line style="stroke:#A80036;stroke-width:1.5;" x1="1050.5" x2="1130.5" y1="327.9219" y2="327.9219"/><text fill="#000000" font-family="sans-serif" font-size="10" lengthAdjust="spacing" textLength="70" x="1055.5" y="341.2041">faceup = false</text><path d="M1058.5,407.9531 L1058.5,433.0859 A0,0 0 0 0 1058.5,433.0859 L1122.5,433.0859 A0,0 0 0 0 1122.5,433.0859 L1122.5,417.9531 L1112.5,407.9531 L1094.5,407.9531 L1090.5,348.0631 L1086.5,407.9531 L1058.5,407.9531 A0,0 0 0 0 1058.5,407.9531 " fill="#FBFB77" filter="url(#f1gpwny5mds3rl)" style="stroke:#A80036;stroke-width:1.0;"/><path d="M1112.5,407.9531 L1112.5,417.9531 L1122.5,417.9531 L1112.5,407.9531 " fill="#FBFB77" style="stroke:#A80036;stroke-width:1.0;"/><text fill="#000000" font-family="sans-serif" font-size="13" lengthAdjust="spacing" textLength="43" x="1064.5" y="425.02">5cards</text><rect fill="#FEFECE" filter="url(#f1gpwny5mds3rl)" height="37.6094" style="stroke:#A80036;stroke-width:1.5;" width="79" x="1167" y="309.9531"/><text fill="#000000" font-family="sans-serif" font-size="12" lengthAdjust="spacing" textLength="33" x="1190" y="323.0918">:Card</text><line style="stroke:#A80036;stroke-width:1.5;" x1="1168" x2="1245" y1="327.9219" y2="327.9219"/><text fill="#000000" font-family="sans-serif" font-size="10" lengthAdjust="spacing" textLength="67" x="1173" y="341.2041">faceup = true</text><rect fill="#FEFECE" filter="url(#f1gpwny5mds3rl)" height="37.6094" style="stroke:#A80036;stroke-width:1.5;" width="82" x="1281.5" y="309.9531"/><text fill="#000000" font-family="sans-serif" font-size="12" lengthAdjust="spacing" textLength="33" x="1306" y="323.0918">:Card</text><line style="stroke:#A80036;stroke-width:1.5;" x1="1282.5" x2="1362.5" y1="327.9219" y2="327.9219"/><text fill="#000000" font-family="sans-serif" font-size="10" lengthAdjust="spacing" textLength="70" x="1287.5" y="341.2041">faceup = false</text><path d="M1290.5,407.9531 L1290.5,433.0859 A0,0 0 0 0 1290.5,433.0859 L1354.5,433.0859 A0,0 0 0 0 1354.5,433.0859 L1354.5,417.9531 L1344.5,407.9531 L1326.5,407.9531 L1322.5,348.0631 L1318.5,407.9531 L1290.5,407.9531 A0,0 0 0 0 1290.5,407.9531 " fill="#FBFB77" filter="url(#f1gpwny5mds3rl)" style="stroke:#A80036;stroke-width:1.0;"/><path d="M1344.5,407.9531 L1344.5,417.9531 L1354.5,417.9531 L1344.5,407.9531 " fill="#FBFB77" style="stroke:#A80036;stroke-width:1.0;"/><text fill="#000000" font-family="sans-serif" font-size="13" lengthAdjust="spacing" textLength="43" x="1296.5" y="425.02">6cards</text><rect fill="#FEFECE" filter="url(#f1gpwny5mds3rl)" height="37.6094" style="stroke:#A80036;stroke-width:1.5;" width="79" x="1399" y="309.9531"/><text fill="#000000" font-family="sans-serif" font-size="12" lengthAdjust="spacing" textLength="33" x="1422" y="323.0918">:Card</text><line style="stroke:#A80036;stroke-width:1.5;" x1="1400" x2="1477" y1="327.9219" y2="327.9219"/><text fill="#000000" font-family="sans-serif" font-size="10" lengthAdjust="spacing" textLength="67" x="1405" y="341.2041">faceup = true</text><!--MD5=[f7450677b51f79fe2729fec3f431c456]
link klondike to table--><path codeLine="15" d="M800.5,73.9831 C800.5,73.9831 800.5,97.9831 800.5,108.7331 " fill="none" id="klondike-table" style="stroke:#A80036;stroke-width:1.0;"/><polygon fill="#A80036" points="800.5,121.8031,804.5,112.8031,800.5,116.8031,796.5,112.8031,800.5,121.8031" style="stroke:#A80036;stroke-width:1.0;"/><line style="stroke:#A80036;stroke-width:1.0;" x1="800.5" x2="800.5" y1="116.8031" y2="108.8031"/><polygon fill="#A80036" points="800.5,61.9831,796.5,67.9831,800.5,73.9831,804.5,67.9831,800.5,61.9831" style="stroke:#A80036;stroke-width:1.0;"/><!--MD5=[5ad5f7e023fdfb6361980892f471126a]
link table to stock--><path codeLine="16" d="M838.6805,144.8951 C838.6805,144.8951 1173.02,188.4631 1373.5,215.9531 C1397.77,219.2831 1424.95,223.1231 1446.57,226.2131 " fill="none" id="table-stock" style="stroke:#A80036;stroke-width:1.0;"/><polygon fill="#A80036" points="1459.57,228.0731,1451.2278,222.8379,1454.6205,227.3645,1450.0939,230.7572,1459.57,228.0731" style="stroke:#A80036;stroke-width:1.0;"/><line style="stroke:#A80036;stroke-width:1.0;" x1="1454.6205" x2="1446.695" y1="227.3645" y2="226.2281"/><polygon fill="#A80036" points="826.78,143.3531,832.2163,148.0909,838.6805,144.8951,833.2442,140.1572,826.78,143.3531" style="stroke:#A80036;stroke-width:1.0;"/><!--MD5=[2bf5c00998ada9c70274a8a49a571124]
link stock to card1--><path codeLine="17" d="M1505.3721,260.0468 C1505.3721,260.0468 1524.76,286.8331 1533.51,298.9431 " fill="none" id="stock-card1" style="stroke:#A80036;stroke-width:1.0;"/><polygon fill="#A80036" points="1541.4,309.8431,1539.3733,300.205,1538.4725,305.7897,1532.8879,304.889,1541.4,309.8431" style="stroke:#A80036;stroke-width:1.0;"/><line style="stroke:#A80036;stroke-width:1.0;" x1="1538.4725" x2="1533.78" y1="305.7897" y2="299.3081"/><polygon fill="none" points="1498.34,250.3231,1498.6149,257.529,1505.3721,260.0468,1505.0973,252.8409,1498.34,250.3231" style="stroke:#A80036;stroke-width:1.0;"/><!--MD5=[bc10d52f6456711ef06467a064e3b202]
link table to tableau1--><path codeLine="24" d="M762.5612,144.898 C762.5612,144.898 427.6,188.6531 226.5,215.9531 C204.22,218.9831 179.51,222.4031 158.73,225.3131 " fill="none" id="table-tableau1" style="stroke:#A80036;stroke-width:1.0;"/><polygon fill="#A80036" points="145.71,227.1331,155.1802,229.8378,150.6611,226.4353,154.0636,221.9161,145.71,227.1331" style="stroke:#A80036;stroke-width:1.0;"/><line style="stroke:#A80036;stroke-width:1.0;" x1="150.6611" x2="158.585" y1="226.4353" y2="225.3281"/><polygon fill="#A80036" points="774.46,143.3431,767.9923,140.1543,762.5612,144.898,769.0289,148.0868,774.46,143.3431" style="stroke:#A80036;stroke-width:1.0;"/><!--MD5=[bb8d2c0da65194304766e7489c680cf0]
link tableau1 to card2--><path codeLine="28" d="M93.3632,260.1989 C93.3632,260.1989 74.76,287.0731 66.48,299.0531 " fill="none" id="tableau1-card2" style="stroke:#A80036;stroke-width:1.0;"/><polygon fill="#A80036" points="59.02,309.8431,67.4292,304.7161,61.8641,305.7308,60.8494,300.1657,59.02,309.8431" style="stroke:#A80036;stroke-width:1.0;"/><line style="stroke:#A80036;stroke-width:1.0;" x1="61.8641" x2="66.415" y1="305.7308" y2="299.1531"/><polygon fill="none" points="100.18,250.3231,93.4797,252.9888,93.3632,260.1989,100.0635,257.5333,100.18,250.3231" style="stroke:#A80036;stroke-width:1.0;"/><!--MD5=[92232a81d885cd8d62793a54dce773f8]
link table to tableau2--><path codeLine="31" d="M762.4423,146.667 C762.4423,146.667 427.55,205.6831 325.58,223.6531 " fill="none" id="table-tableau2" style="stroke:#A80036;stroke-width:1.0;"/><polygon fill="#A80036" points="312.7,225.9231,322.2574,228.3012,317.6242,225.0558,320.8697,220.4225,312.7,225.9231" style="stroke:#A80036;stroke-width:1.0;"/><line style="stroke:#A80036;stroke-width:1.0;" x1="317.6242" x2="325.51" y1="225.0558" y2="223.6681"/><polygon fill="#A80036" points="774.26,144.5831,767.6565,141.6859,762.4423,146.667,769.0458,149.5643,774.26,144.5831" style="stroke:#A80036;stroke-width:1.0;"/><!--MD5=[98c65ceb1887cf167382108c09cf4611]
link tableau2 to card3--><path codeLine="38" d="M249.2374,257.6688 C249.2374,257.6688 211.92,287.9031 195.31,301.3731 " fill="none" id="tableau2-card3" style="stroke:#A80036;stroke-width:1.0;"/><polygon fill="#A80036" points="184.95,309.7531,194.4605,307.1939,188.8344,306.6049,189.4234,300.9788,184.95,309.7531" style="stroke:#A80036;stroke-width:1.0;"/><line style="stroke:#A80036;stroke-width:1.0;" x1="188.8344" x2="195.055" y1="306.6049" y2="301.5681"/><polygon fill="none" points="258.56,250.1131,251.3801,250.7834,249.2374,257.6688,256.4172,256.9985,258.56,250.1131" style="stroke:#A80036;stroke-width:1.0;"/><!--MD5=[a910a18bbb6bb2fc85941fc481d27f80]
link tableau2 to card4--><path codeLine="39" d="M278.5,262.3231 C278.5,262.3231 278.5,286.1431 278.5,296.7731 " fill="none" id="tableau2-card4" style="stroke:#A80036;stroke-width:1.0;"/><polygon fill="#A80036" points="278.5,309.8431,282.5,300.8431,278.5,304.8431,274.5,300.8431,278.5,309.8431" style="stroke:#A80036;stroke-width:1.0;"/><line style="stroke:#A80036;stroke-width:1.0;" x1="278.5" x2="278.5" y1="304.8431" y2="296.8431"/><polygon fill="none" points="278.5,250.3231,274.5,256.3231,278.5,262.3231,282.5,256.3231,278.5,250.3231" style="stroke:#A80036;stroke-width:1.0;"/><!--MD5=[89835fbcdfec3968fa45db473a9c5a9e]
link table to tableau3--><path codeLine="42" d="M762.8116,151.9112 C762.8116,151.9112 614.15,199.0731 557.41,217.0731 " fill="none" id="table-tableau3" style="stroke:#A80036;stroke-width:1.0;"/><polygon fill="#A80036" points="544.88,221.0431,554.6682,222.1349,549.646,219.5314,552.2494,214.5093,544.88,221.0431" style="stroke:#A80036;stroke-width:1.0;"/><line style="stroke:#A80036;stroke-width:1.0;" x1="549.646" x2="557.265" y1="219.5314" y2="217.1181"/><polygon fill="#A80036" points="774.25,148.2831,767.3214,146.2844,762.8116,151.9112,769.7402,153.91,774.25,148.2831" style="stroke:#A80036;stroke-width:1.0;"/><!--MD5=[b736dbc6d55931ec00e179cd289a5703]
link tableau3 to card5--><path codeLine="50" d="M481.2374,257.6688 C481.2374,257.6688 443.92,287.9031 427.31,301.3731 " fill="none" id="tableau3-card5" style="stroke:#A80036;stroke-width:1.0;"/><polygon fill="#A80036" points="416.95,309.7531,426.4605,307.1939,420.8344,306.6049,421.4234,300.9788,416.95,309.7531" style="stroke:#A80036;stroke-width:1.0;"/><line style="stroke:#A80036;stroke-width:1.0;" x1="420.8344" x2="427.055" y1="306.6049" y2="301.5681"/><polygon fill="none" points="490.56,250.1131,483.3801,250.7834,481.2374,257.6688,488.4172,256.9985,490.56,250.1131" style="stroke:#A80036;stroke-width:1.0;"/><!--MD5=[334c963ce450c0404a75239568a066a0]
link tableau3 to card6--><path codeLine="51" d="M510.5,262.3231 C510.5,262.3231 510.5,286.1431 510.5,296.7731 " fill="none" id="tableau3-card6" style="stroke:#A80036;stroke-width:1.0;"/><polygon fill="#A80036" points="510.5,309.8431,514.5,300.8431,510.5,304.8431,506.5,300.8431,510.5,309.8431" style="stroke:#A80036;stroke-width:1.0;"/><line style="stroke:#A80036;stroke-width:1.0;" x1="510.5" x2="510.5" y1="304.8431" y2="296.8431"/><polygon fill="none" points="510.5,250.3231,506.5,256.3231,510.5,262.3231,514.5,256.3231,510.5,250.3231" style="stroke:#A80036;stroke-width:1.0;"/><!--MD5=[3f7f53b927f5d7ced0bc415ef012006f]
link table to tableau4--><path codeLine="54" d="M783.9985,166.1331 C783.9985,166.1331 767.1,192.9331 759.63,204.7731 " fill="none" id="table-tableau4" style="stroke:#A80036;stroke-width:1.0;"/><polygon fill="#A80036" points="752.68,215.8031,760.8644,210.3245,755.3473,211.574,754.0978,206.0568,752.68,215.8031" style="stroke:#A80036;stroke-width:1.0;"/><line style="stroke:#A80036;stroke-width:1.0;" x1="755.3473" x2="759.615" y1="211.574" y2="204.8081"/><polygon fill="#A80036" points="790.4,155.9831,783.816,158.9243,783.9985,166.1331,790.5826,163.1919,790.4,155.9831" style="stroke:#A80036;stroke-width:1.0;"/><!--MD5=[ea33bd9e5e4df755ee1d32ee7f662ab7]
link tableau4 to card7--><path codeLine="62" d="M713.2374,257.6688 C713.2374,257.6688 675.92,287.9031 659.31,301.3731 " fill="none" id="tableau4-card7" style="stroke:#A80036;stroke-width:1.0;"/><polygon fill="#A80036" points="648.95,309.7531,658.4605,307.1939,652.8344,306.6049,653.4234,300.9788,648.95,309.7531" style="stroke:#A80036;stroke-width:1.0;"/><line style="stroke:#A80036;stroke-width:1.0;" x1="652.8344" x2="659.055" y1="306.6049" y2="301.5681"/><polygon fill="none" points="722.56,250.1131,715.3801,250.7834,713.2374,257.6688,720.4172,256.9985,722.56,250.1131" style="stroke:#A80036;stroke-width:1.0;"/><!--MD5=[c85e82f72378ebf10955c8660d0556c1]
link tableau4 to card8--><path codeLine="63" d="M742.5,262.3231 C742.5,262.3231 742.5,286.1431 742.5,296.7731 " fill="none" id="tableau4-card8" style="stroke:#A80036;stroke-width:1.0;"/><polygon fill="#A80036" points="742.5,309.8431,746.5,300.8431,742.5,304.8431,738.5,300.8431,742.5,309.8431" style="stroke:#A80036;stroke-width:1.0;"/><line style="stroke:#A80036;stroke-width:1.0;" x1="742.5" x2="742.5" y1="304.8431" y2="296.8431"/><polygon fill="none" points="742.5,250.3231,738.5,256.3231,742.5,262.3231,746.5,256.3231,742.5,250.3231" style="stroke:#A80036;stroke-width:1.0;"/><!--MD5=[8c2149f0fa694fb9415d019b4314b859]
link table to tableau5--><path codeLine="67" d="M817.0015,166.1331 C817.0015,166.1331 833.9,192.9331 841.37,204.7731 " fill="none" id="table-tableau5" style="stroke:#A80036;stroke-width:1.0;"/><polygon fill="#A80036" points="848.32,215.8031,846.9022,206.0568,845.6527,211.574,840.1356,210.3245,848.32,215.8031" style="stroke:#A80036;stroke-width:1.0;"/><line style="stroke:#A80036;stroke-width:1.0;" x1="845.6527" x2="841.385" y1="211.574" y2="204.8081"/><polygon fill="#A80036" points="810.6,155.9831,810.4174,163.1919,817.0015,166.1331,817.184,158.9243,810.6,155.9831" style="stroke:#A80036;stroke-width:1.0;"/><!--MD5=[512dd39fa2719085612c45eb2d02485d]
link tableau5 to card9--><path codeLine="75" d="M858.5,262.3231 C858.5,262.3231 858.5,286.1431 858.5,296.7731 " fill="none" id="tableau5-card9" style="stroke:#A80036;stroke-width:1.0;"/><polygon fill="#A80036" points="858.5,309.8431,862.5,300.8431,858.5,304.8431,854.5,300.8431,858.5,309.8431" style="stroke:#A80036;stroke-width:1.0;"/><line style="stroke:#A80036;stroke-width:1.0;" x1="858.5" x2="858.5" y1="304.8431" y2="296.8431"/><polygon fill="none" points="858.5,250.3231,854.5,256.3231,858.5,262.3231,862.5,256.3231,858.5,250.3231" style="stroke:#A80036;stroke-width:1.0;"/><!--MD5=[c79af4e04de6e64d9d15a62976ed2abb]
link tableau5 to card10--><path codeLine="76" d="M887.7626,257.6688 C887.7626,257.6688 925.08,287.9031 941.69,301.3731 " fill="none" id="tableau5-card10" style="stroke:#A80036;stroke-width:1.0;"/><polygon fill="#A80036" points="952.05,309.7531,947.5766,300.9788,948.1656,306.6049,942.5395,307.1939,952.05,309.7531" style="stroke:#A80036;stroke-width:1.0;"/><line style="stroke:#A80036;stroke-width:1.0;" x1="948.1656" x2="941.945" y1="306.6049" y2="301.5681"/><polygon fill="none" points="878.44,250.1131,880.5828,256.9985,887.7626,257.6688,885.6199,250.7834,878.44,250.1131" style="stroke:#A80036;stroke-width:1.0;"/><!--MD5=[2a7d799a493266cbbd4edae137a6ba62]
link table to tableau6--><path codeLine="81" d="M838.1884,151.9112 C838.1884,151.9112 986.85,199.0731 1043.59,217.0731 " fill="none" id="table-tableau6" style="stroke:#A80036;stroke-width:1.0;"/><polygon fill="#A80036" points="1056.12,221.0431,1048.7506,214.5093,1051.354,219.5314,1046.3318,222.1349,1056.12,221.0431" style="stroke:#A80036;stroke-width:1.0;"/><line style="stroke:#A80036;stroke-width:1.0;" x1="1051.354" x2="1043.735" y1="219.5314" y2="217.1181"/><polygon fill="#A80036" points="826.75,148.2831,831.2598,153.91,838.1884,151.9112,833.6786,146.2844,826.75,148.2831" style="stroke:#A80036;stroke-width:1.0;"/><!--MD5=[9200c2cd76dbb8e6c89bd0bf9b757e5d]
link tableau6 to card11--><path codeLine="89" d="M1090.5,262.3231 C1090.5,262.3231 1090.5,286.1431 1090.5,296.7731 " fill="none" id="tableau6-card11" style="stroke:#A80036;stroke-width:1.0;"/><polygon fill="#A80036" points="1090.5,309.8431,1094.5,300.8431,1090.5,304.8431,1086.5,300.8431,1090.5,309.8431" style="stroke:#A80036;stroke-width:1.0;"/><line style="stroke:#A80036;stroke-width:1.0;" x1="1090.5" x2="1090.5" y1="304.8431" y2="296.8431"/><polygon fill="none" points="1090.5,250.3231,1086.5,256.3231,1090.5,262.3231,1094.5,256.3231,1090.5,250.3231" style="stroke:#A80036;stroke-width:1.0;"/><!--MD5=[8621e85c15af0695c6edc0f8220932eb]
link tableau6 to card12--><path codeLine="90" d="M1119.7626,257.6688 C1119.7626,257.6688 1157.08,287.9031 1173.69,301.3731 " fill="none" id="tableau6-card12" style="stroke:#A80036;stroke-width:1.0;"/><polygon fill="#A80036" points="1184.05,309.7531,1179.5766,300.9788,1180.1656,306.6049,1174.5395,307.1939,1184.05,309.7531" style="stroke:#A80036;stroke-width:1.0;"/><line style="stroke:#A80036;stroke-width:1.0;" x1="1180.1656" x2="1173.945" y1="306.6049" y2="301.5681"/><polygon fill="none" points="1110.44,250.1131,1112.5828,256.9985,1119.7626,257.6688,1117.6199,250.7834,1110.44,250.1131" style="stroke:#A80036;stroke-width:1.0;"/><!--MD5=[23154e4a906eda42af6008d17b8e9ddd]
link table to tableau7--><path codeLine="95" d="M838.5577,146.667 C838.5577,146.667 1173.45,205.6831 1275.42,223.6531 " fill="none" id="table-tableau7" style="stroke:#A80036;stroke-width:1.0;"/><polygon fill="#A80036" points="1288.3,225.9231,1280.1303,220.4225,1283.3758,225.0558,1278.7426,228.3012,1288.3,225.9231" style="stroke:#A80036;stroke-width:1.0;"/><line style="stroke:#A80036;stroke-width:1.0;" x1="1283.3758" x2="1275.49" y1="225.0558" y2="223.6681"/><polygon fill="#A80036" points="826.74,144.5831,831.9542,149.5643,838.5577,146.667,833.3435,141.6859,826.74,144.5831" style="stroke:#A80036;stroke-width:1.0;"/><!--MD5=[89c4cdecb7408085bb033479870f1036]
link tableau7 to card13--><path codeLine="103" d="M1322.5,262.3231 C1322.5,262.3231 1322.5,286.1431 1322.5,296.7731 " fill="none" id="tableau7-card13" style="stroke:#A80036;stroke-width:1.0;"/><polygon fill="#A80036" points="1322.5,309.8431,1326.5,300.8431,1322.5,304.8431,1318.5,300.8431,1322.5,309.8431" style="stroke:#A80036;stroke-width:1.0;"/><line style="stroke:#A80036;stroke-width:1.0;" x1="1322.5" x2="1322.5" y1="304.8431" y2="296.8431"/><polygon fill="none" points="1322.5,250.3231,1318.5,256.3231,1322.5,262.3231,1326.5,256.3231,1322.5,250.3231" style="stroke:#A80036;stroke-width:1.0;"/><!--MD5=[4ba418072b7e503591f788017d7a97d5]
link tableau7 to card14--><path codeLine="104" d="M1351.7626,257.6688 C1351.7626,257.6688 1389.08,287.9031 1405.69,301.3731 " fill="none" id="tableau7-card14" style="stroke:#A80036;stroke-width:1.0;"/><polygon fill="#A80036" points="1416.05,309.7531,1411.5766,300.9788,1412.1656,306.6049,1406.5395,307.1939,1416.05,309.7531" style="stroke:#A80036;stroke-width:1.0;"/><line style="stroke:#A80036;stroke-width:1.0;" x1="1412.1656" x2="1405.945" y1="306.6049" y2="301.5681"/><polygon fill="none" points="1342.44,250.1131,1344.5828,256.9985,1351.7626,257.6688,1349.6199,250.7834,1342.44,250.1131" style="stroke:#A80036;stroke-width:1.0;"/><!--MD5=[b87a3351d32e5502442d062aa1d94a9d]
@startuml
title INITIAL STATE KLONDIKE
object ":Klondike" as klondike
object ":Table" as table
object ":Tableau" as tableau1
object ":Tableau" as tableau2
object ":Tableau" as tableau3
object ":Tableau" as tableau4
object ":Tableau" as tableau5
object ":Tableau" as tableau6
object ":Tableau" as tableau7
object ":Stock" as stock



klondike *- -> table
table *- -> stock
stock o- -> card1
object ":Card" as card1{
faceup = false
}
note bottom: 24 cards


table *- -> tableau1
object ":Card" as card2{
faceup = true
}
tableau1 o- -> card2


table *- -> tableau2
object ":Card" as card3{
faceup = false
}
object ":Card" as card4{
faceup = true
}
tableau2 o- -> card3
tableau2 o- -> card4


table *- -> tableau3
object ":Card" as card5{
faceup = false
}
note bottom: 2cards
object ":Card" as card6{
faceup = true
}
tableau3 o- -> card5
tableau3 o- -> card6


table *- -> tableau4
object ":Card" as card7{
faceup = false
}
note bottom: 3cards
object ":Card" as card8{
faceup = true
}
tableau4 o- -> card7
tableau4 o- -> card8



table *- -> tableau5
object ":Card" as card9{
faceup = false
}
note bottom: 4cards
object ":Card" as card10{
faceup = true
}
tableau5 o- -> card9
tableau5 o- -> card10




table *- -> tableau6
object ":Card" as card11{
faceup = false
}
note bottom: 5cards
object ":Card" as card12{
faceup = true
}
tableau6 o- -> card11
tableau6 o- -> card12




table *- -> tableau7
object ":Card" as card13{
faceup = false
}
note bottom:6cards
object ":Card" as card14{
faceup = true
}
tableau7 o- -> card13
tableau7 o- -> card14
@enduml

PlantUML version 1.2022.1(Tue Feb 01 18:19:58 UTC 2022)
(GPL source distribution)
Java Runtime: OpenJDK Runtime Environment
JVM: OpenJDK 64-Bit Server VM
Default Encoding: UTF-8
Language: en
Country: null
--></g></svg>