<?xml version="1.0" encoding="UTF-8" standalone="no"?><svg xmlns="http://www.w3.org/2000/svg" xmlns:xlink="http://www.w3.org/1999/xlink" contentScriptType="application/ecmascript" contentStyleType="text/css" height="470px" preserveAspectRatio="none" style="width:898px;height:470px;background:#FFFFFF;" version="1.1" viewBox="0 0 898 470" width="898px" zoomAndPan="magnify"><defs><filter height="300%" id="f1802udluie8ku" width="300%" x="-1" y="-1"><feGaussianBlur result="blurOut" stdDeviation="2.0"/><feColorMatrix in="blurOut" result="blurOut2" type="matrix" values="0 0 0 0 0 0 0 0 0 0 0 0 0 0 0 0 0 0 .4 0"/><feOffset dx="4.0" dy="4.0" in="blurOut2" result="blurOut3"/><feBlend in="SourceGraphic" in2="blurOut3" mode="normal"/></filter></defs><g><text fill="#000000" font-family="sans-serif" font-size="18" lengthAdjust="spacing" textLength="215" x="335" y="16.708">FINAL STATE KLONDIKE</text><rect fill="#FEFECE" filter="url(#f1802udluie8ku)" height="33.9688" style="stroke:#A80036;stroke-width:1.5;" width="70" x="410.5" y="27.9531"/><text fill="#000000" font-family="sans-serif" font-size="12" lengthAdjust="spacing" textLength="56" x="417.5" y="41.0918">:Klondike</text><line style="stroke:#A80036;stroke-width:1.5;" x1="411.5" x2="479.5" y1="45.9219" y2="45.9219"/><rect fill="#FEFECE" filter="url(#f1802udluie8ku)" height="33.9688" style="stroke:#A80036;stroke-width:1.5;" width="52" x="419.5" y="121.9531"/><text fill="#000000" font-family="sans-serif" font-size="12" lengthAdjust="spacing" textLength="38" x="426.5" y="135.0918">:Table</text><line style="stroke:#A80036;stroke-width:1.5;" x1="420.5" x2="470.5" y1="139.9219" y2="139.9219"/><rect fill="#FEFECE" filter="url(#f1802udluie8ku)" height="33.9688" style="stroke:#A80036;stroke-width:1.5;" width="89" x="116" y="215.9531"/><text fill="#000000" font-family="sans-serif" font-size="12" lengthAdjust="spacing" textLength="75" x="123" y="229.0918">:Foundarion</text><line style="stroke:#A80036;stroke-width:1.5;" x1="117" x2="204" y1="233.9219" y2="233.9219"/><rect fill="#FEFECE" filter="url(#f1802udluie8ku)" height="33.9688" style="stroke:#A80036;stroke-width:1.5;" width="89" x="339" y="215.9531"/><text fill="#000000" font-family="sans-serif" font-size="12" lengthAdjust="spacing" textLength="75" x="346" y="229.0918">:Foundation</text><line style="stroke:#A80036;stroke-width:1.5;" x1="340" x2="427" y1="233.9219" y2="233.9219"/><rect fill="#FEFECE" filter="url(#f1802udluie8ku)" height="33.9688" style="stroke:#A80036;stroke-width:1.5;" width="89" x="463" y="215.9531"/><text fill="#000000" font-family="sans-serif" font-size="12" lengthAdjust="spacing" textLength="75" x="470" y="229.0918">:Foundation</text><line style="stroke:#A80036;stroke-width:1.5;" x1="464" x2="551" y1="233.9219" y2="233.9219"/><rect fill="#FEFECE" filter="url(#f1802udluie8ku)" height="33.9688" style="stroke:#A80036;stroke-width:1.5;" width="89" x="686" y="215.9531"/><text fill="#000000" font-family="sans-serif" font-size="12" lengthAdjust="spacing" textLength="75" x="693" y="229.0918">:Foundation</text><line style="stroke:#A80036;stroke-width:1.5;" x1="687" x2="774" y1="233.9219" y2="233.9219"/><rect fill="#FEFECE" filter="url(#f1802udluie8ku)" height="49.25" style="stroke:#A80036;stroke-width:1.5;" width="79" x="7" y="309.9531"/><text fill="#000000" font-family="sans-serif" font-size="12" lengthAdjust="spacing" textLength="33" x="30" y="323.0918">:Card</text><line style="stroke:#A80036;stroke-width:1.5;" x1="8" x2="85" y1="327.9219" y2="327.9219"/><text fill="#000000" font-family="sans-serif" font-size="10" lengthAdjust="spacing" textLength="67" x="13" y="341.2041">faceup = true</text><text fill="#000000" font-family="sans-serif" font-size="10" lengthAdjust="spacing" textLength="48" x="13" y="352.8447">rang = As</text><rect fill="#FEFECE" filter="url(#f1802udluie8ku)" height="37.6094" style="stroke:#A80036;stroke-width:1.5;" width="42" x="25.5" y="418.9531"/><text fill="#000000" font-family="sans-serif" font-size="12" lengthAdjust="spacing" textLength="28" x="32.5" y="432.0918">:Suit</text><line style="stroke:#A80036;stroke-width:1.5;" x1="26.5" x2="66.5" y1="436.9219" y2="436.9219"/><text fill="#000000" font-family="sans-serif" font-size="10" lengthAdjust="spacing" textLength="26" x="31.5" y="450.2041">heart</text><rect fill="#FEFECE" filter="url(#f1802udluie8ku)" height="49.25" style="stroke:#A80036;stroke-width:1.5;" width="79" x="121" y="309.9531"/><text fill="#000000" font-family="sans-serif" font-size="12" lengthAdjust="spacing" textLength="33" x="144" y="323.0918">:Card</text><line style="stroke:#A80036;stroke-width:1.5;" x1="122" x2="199" y1="327.9219" y2="327.9219"/><text fill="#000000" font-family="sans-serif" font-size="10" lengthAdjust="spacing" textLength="67" x="127" y="341.2041">faceup = true</text><text fill="#000000" font-family="sans-serif" font-size="10" lengthAdjust="spacing" textLength="57" x="127" y="352.8447">rang = King</text><rect fill="#FEFECE" filter="url(#f1802udluie8ku)" height="37.6094" style="stroke:#A80036;stroke-width:1.5;" width="42" x="139.5" y="418.9531"/><text fill="#000000" font-family="sans-serif" font-size="12" lengthAdjust="spacing" textLength="28" x="146.5" y="432.0918">:Suit</text><line style="stroke:#A80036;stroke-width:1.5;" x1="140.5" x2="180.5" y1="436.9219" y2="436.9219"/><text fill="#000000" font-family="sans-serif" font-size="10" lengthAdjust="spacing" textLength="26" x="145.5" y="450.2041">heart</text><rect fill="#FEFECE" filter="url(#f1802udluie8ku)" height="49.25" style="stroke:#A80036;stroke-width:1.5;" width="79" x="235" y="309.9531"/><text fill="#000000" font-family="sans-serif" font-size="12" lengthAdjust="spacing" textLength="33" x="258" y="323.0918">:Card</text><line style="stroke:#A80036;stroke-width:1.5;" x1="236" x2="313" y1="327.9219" y2="327.9219"/><text fill="#000000" font-family="sans-serif" font-size="10" lengthAdjust="spacing" textLength="67" x="241" y="341.2041">faceup = true</text><text fill="#000000" font-family="sans-serif" font-size="10" lengthAdjust="spacing" textLength="48" x="241" y="352.8447">rang = As</text><rect fill="#FEFECE" filter="url(#f1802udluie8ku)" height="37.6094" style="stroke:#A80036;stroke-width:1.5;" width="42" x="253.5" y="418.9531"/><text fill="#000000" font-family="sans-serif" font-size="12" lengthAdjust="spacing" textLength="28" x="260.5" y="432.0918">:Suit</text><line style="stroke:#A80036;stroke-width:1.5;" x1="254.5" x2="294.5" y1="436.9219" y2="436.9219"/><text fill="#000000" font-family="sans-serif" font-size="10" lengthAdjust="spacing" textLength="29" x="259.5" y="450.2041">spade</text><rect fill="#FEFECE" filter="url(#f1802udluie8ku)" height="49.25" style="stroke:#A80036;stroke-width:1.5;" width="79" x="349" y="309.9531"/><text fill="#000000" font-family="sans-serif" font-size="12" lengthAdjust="spacing" textLength="33" x="372" y="323.0918">:Card</text><line style="stroke:#A80036;stroke-width:1.5;" x1="350" x2="427" y1="327.9219" y2="327.9219"/><text fill="#000000" font-family="sans-serif" font-size="10" lengthAdjust="spacing" textLength="67" x="355" y="341.2041">faceup = true</text><text fill="#000000" font-family="sans-serif" font-size="10" lengthAdjust="spacing" textLength="57" x="355" y="352.8447">rang = King</text><rect fill="#FEFECE" filter="url(#f1802udluie8ku)" height="37.6094" style="stroke:#A80036;stroke-width:1.5;" width="42" x="367.5" y="418.9531"/><text fill="#000000" font-family="sans-serif" font-size="12" lengthAdjust="spacing" textLength="28" x="374.5" y="432.0918">:Suit</text><line style="stroke:#A80036;stroke-width:1.5;" x1="368.5" x2="408.5" y1="436.9219" y2="436.9219"/><text fill="#000000" font-family="sans-serif" font-size="10" lengthAdjust="spacing" textLength="29" x="373.5" y="450.2041">spade</text><rect fill="#FEFECE" filter="url(#f1802udluie8ku)" height="49.25" style="stroke:#A80036;stroke-width:1.5;" width="79" x="463" y="309.9531"/><text fill="#000000" font-family="sans-serif" font-size="12" lengthAdjust="spacing" textLength="33" x="486" y="323.0918">:Card</text><line style="stroke:#A80036;stroke-width:1.5;" x1="464" x2="541" y1="327.9219" y2="327.9219"/><text fill="#000000" font-family="sans-serif" font-size="10" lengthAdjust="spacing" textLength="67" x="469" y="341.2041">faceup = true</text><text fill="#000000" font-family="sans-serif" font-size="10" lengthAdjust="spacing" textLength="48" x="469" y="352.8447">rang = As</text><rect fill="#FEFECE" filter="url(#f1802udluie8ku)" height="37.6094" style="stroke:#A80036;stroke-width:1.5;" width="48" x="478.5" y="418.9531"/><text fill="#000000" font-family="sans-serif" font-size="12" lengthAdjust="spacing" textLength="28" x="488.5" y="432.0918">:Suit</text><line style="stroke:#A80036;stroke-width:1.5;" x1="479.5" x2="525.5" y1="436.9219" y2="436.9219"/><text fill="#000000" font-family="sans-serif" font-size="10" lengthAdjust="spacing" textLength="36" x="484.5" y="450.2041">diamon</text><rect fill="#FEFECE" filter="url(#f1802udluie8ku)" height="49.25" style="stroke:#A80036;stroke-width:1.5;" width="79" x="577" y="309.9531"/><text fill="#000000" font-family="sans-serif" font-size="12" lengthAdjust="spacing" textLength="33" x="600" y="323.0918">:Card</text><line style="stroke:#A80036;stroke-width:1.5;" x1="578" x2="655" y1="327.9219" y2="327.9219"/><text fill="#000000" font-family="sans-serif" font-size="10" lengthAdjust="spacing" textLength="67" x="583" y="341.2041">faceup = true</text><text fill="#000000" font-family="sans-serif" font-size="10" lengthAdjust="spacing" textLength="57" x="583" y="352.8447">rang = King</text><rect fill="#FEFECE" filter="url(#f1802udluie8ku)" height="37.6094" style="stroke:#A80036;stroke-width:1.5;" width="48" x="592.5" y="418.9531"/><text fill="#000000" font-family="sans-serif" font-size="12" lengthAdjust="spacing" textLength="28" x="602.5" y="432.0918">:Suit</text><line style="stroke:#A80036;stroke-width:1.5;" x1="593.5" x2="639.5" y1="436.9219" y2="436.9219"/><text fill="#000000" font-family="sans-serif" font-size="10" lengthAdjust="spacing" textLength="36" x="598.5" y="450.2041">diamon</text><rect fill="#FEFECE" filter="url(#f1802udluie8ku)" height="49.25" style="stroke:#A80036;stroke-width:1.5;" width="79" x="691" y="309.9531"/><text fill="#000000" font-family="sans-serif" font-size="12" lengthAdjust="spacing" textLength="33" x="714" y="323.0918">:Card</text><line style="stroke:#A80036;stroke-width:1.5;" x1="692" x2="769" y1="327.9219" y2="327.9219"/><text fill="#000000" font-family="sans-serif" font-size="10" lengthAdjust="spacing" textLength="67" x="697" y="341.2041">faceup = true</text><text fill="#000000" font-family="sans-serif" font-size="10" lengthAdjust="spacing" textLength="48" x="697" y="352.8447">rang = As</text><rect fill="#FEFECE" filter="url(#f1802udluie8ku)" height="37.6094" style="stroke:#A80036;stroke-width:1.5;" width="42" x="709.5" y="418.9531"/><text fill="#000000" font-family="sans-serif" font-size="12" lengthAdjust="spacing" textLength="28" x="716.5" y="432.0918">:Suit</text><line style="stroke:#A80036;stroke-width:1.5;" x1="710.5" x2="750.5" y1="436.9219" y2="436.9219"/><text fill="#000000" font-family="sans-serif" font-size="10" lengthAdjust="spacing" textLength="19" x="715.5" y="450.2041">club</text><rect fill="#FEFECE" filter="url(#f1802udluie8ku)" height="49.25" style="stroke:#A80036;stroke-width:1.5;" width="79" x="805" y="309.9531"/><text fill="#000000" font-family="sans-serif" font-size="12" lengthAdjust="spacing" textLength="33" x="828" y="323.0918">:Card</text><line style="stroke:#A80036;stroke-width:1.5;" x1="806" x2="883" y1="327.9219" y2="327.9219"/><text fill="#000000" font-family="sans-serif" font-size="10" lengthAdjust="spacing" textLength="67" x="811" y="341.2041">faceup = true</text><text fill="#000000" font-family="sans-serif" font-size="10" lengthAdjust="spacing" textLength="57" x="811" y="352.8447">rang = King</text><rect fill="#FEFECE" filter="url(#f1802udluie8ku)" height="37.6094" style="stroke:#A80036;stroke-width:1.5;" width="42" x="823.5" y="418.9531"/><text fill="#000000" font-family="sans-serif" font-size="12" lengthAdjust="spacing" textLength="28" x="830.5" y="432.0918">:Suit</text><line style="stroke:#A80036;stroke-width:1.5;" x1="824.5" x2="864.5" y1="436.9219" y2="436.9219"/><text fill="#000000" font-family="sans-serif" font-size="10" lengthAdjust="spacing" textLength="19" x="829.5" y="450.2041">club</text><path d="M516,32.4531 L516,57.5859 L801,57.5859 L801,42.4531 L791,32.4531 L516,32.4531 " fill="#FBFB77" filter="url(#f1802udluie8ku)" style="stroke:#A80036;stroke-width:1.0;"/><path d="M791,32.4531 L791,42.4531 L801,42.4531 L791,32.4531 " fill="#FBFB77" style="stroke:#A80036;stroke-width:1.0;"/><text fill="#000000" font-family="sans-serif" font-size="13" lengthAdjust="spacing" textLength="264" x="522" y="49.52">in foundation: cards order from as to king</text><!--MD5=[f7450677b51f79fe2729fec3f431c456]
link klondike to table--><path codeLine="9" d="M445.5,73.9831 C445.5,73.9831 445.5,97.9831 445.5,108.7331 " fill="none" id="klondike-table" style="stroke:#A80036;stroke-width:1.0;"/><polygon fill="#A80036" points="445.5,121.8031,449.5,112.8031,445.5,116.8031,441.5,112.8031,445.5,121.8031" style="stroke:#A80036;stroke-width:1.0;"/><line style="stroke:#A80036;stroke-width:1.0;" x1="445.5" x2="445.5" y1="116.8031" y2="108.8031"/><polygon fill="#A80036" points="445.5,61.9831,441.5,67.9831,445.5,73.9831,449.5,67.9831,445.5,61.9831" style="stroke:#A80036;stroke-width:1.0;"/><!--MD5=[2bcd3a944a1ecff11b503100e93d63ae]
link table to foundation1--><path codeLine="12" d="M408.032,152.0549 C408.032,152.0549 273.99,195.3131 217.72,213.4831 " fill="none" id="table-foundation1" style="stroke:#A80036;stroke-width:1.0;"/><polygon fill="#A80036" points="205.11,217.5531,214.9041,218.5903,209.8675,216.0149,212.4429,210.9783,205.11,217.5531" style="stroke:#A80036;stroke-width:1.0;"/><line style="stroke:#A80036;stroke-width:1.0;" x1="209.8675" x2="217.48" y1="216.0149" y2="213.5631"/><polygon fill="#A80036" points="419.45,148.3631,412.5104,146.403,408.032,152.0549,414.9716,154.015,419.45,148.3631" style="stroke:#A80036;stroke-width:1.0;"/><!--MD5=[ad56fe843df0ce99a386d27340ba1119]
link card2 to suit1--><path codeLine="21" d="M46.5,370.9931 C46.5,370.9931 46.5,395.0331 46.5,405.5731 " fill="none" id="card2-suit1" style="stroke:#A80036;stroke-width:1.0;"/><polygon fill="#A80036" points="46.5,418.9231,50.5,409.9231,46.5,413.9231,42.5,409.9231,46.5,418.9231" style="stroke:#A80036;stroke-width:1.0;"/><line style="stroke:#A80036;stroke-width:1.0;" x1="46.5" x2="46.5" y1="413.9231" y2="405.9231"/><polygon fill="#A80036" points="46.5,358.9931,42.5,364.9931,46.5,370.9931,50.5,364.9931,46.5,358.9931" style="stroke:#A80036;stroke-width:1.0;"/><!--MD5=[212fc411f942bcb3de86f956ecda2c19]
link card9 to suit2--><path codeLine="29" d="M160.5,370.9931 C160.5,370.9931 160.5,395.0331 160.5,405.5731 " fill="none" id="card9-suit2" style="stroke:#A80036;stroke-width:1.0;"/><polygon fill="#A80036" points="160.5,418.9231,164.5,409.9231,160.5,413.9231,156.5,409.9231,160.5,418.9231" style="stroke:#A80036;stroke-width:1.0;"/><line style="stroke:#A80036;stroke-width:1.0;" x1="160.5" x2="160.5" y1="413.9231" y2="405.9231"/><polygon fill="#A80036" points="160.5,358.9931,156.5,364.9931,160.5,370.9931,164.5,364.9931,160.5,358.9931" style="stroke:#A80036;stroke-width:1.0;"/><!--MD5=[b417a0a4d9205aacdfa38430acd28f71]
link foundation1 to card9--><path codeLine="30" d="M160.5,262.3831 C160.5,262.3831 160.5,285.7731 160.5,296.7131 " fill="none" id="foundation1-card9" style="stroke:#A80036;stroke-width:1.0;"/><polygon fill="#A80036" points="160.5,309.9231,164.5,300.9231,160.5,304.9231,156.5,300.9231,160.5,309.9231" style="stroke:#A80036;stroke-width:1.0;"/><line style="stroke:#A80036;stroke-width:1.0;" x1="160.5" x2="160.5" y1="304.9231" y2="296.9231"/><polygon fill="none" points="160.5,250.3831,156.5,256.3831,160.5,262.3831,164.5,256.3831,160.5,250.3831" style="stroke:#A80036;stroke-width:1.0;"/><!--MD5=[b4bc02a993c8811e01a95303864c0fbb]
link foundation1 to card2--><path codeLine="31" d="M132.8966,258.0624 C132.8966,258.0624 99.3,287.3731 83.54,301.1231 " fill="none" id="foundation1-card2" style="stroke:#A80036;stroke-width:1.0;"/><polygon fill="#A80036" points="73.58,309.8131,82.9881,306.8998,77.3439,306.5218,77.7219,300.8776,73.58,309.8131" style="stroke:#A80036;stroke-width:1.0;"/><line style="stroke:#A80036;stroke-width:1.0;" x1="77.3439" x2="83.375" y1="306.5218" y2="301.2681"/><polygon fill="none" points="141.93,250.1631,134.7802,251.1016,132.8966,258.0624,140.0464,257.1239,141.93,250.1631" style="stroke:#A80036;stroke-width:1.0;"/><!--MD5=[ce5c9354067a04466cf969ec000b0aba]
link table to foundation2--><path codeLine="34" d="M427.992,165.9331 C427.992,165.9331 409.8,192.9331 401.81,204.7731 " fill="none" id="table-foundation2" style="stroke:#A80036;stroke-width:1.0;"/><polygon fill="#A80036" points="394.38,215.8031,402.7261,210.5741,397.1738,211.6565,396.0915,206.1041,394.38,215.8031" style="stroke:#A80036;stroke-width:1.0;"/><line style="stroke:#A80036;stroke-width:1.0;" x1="397.1738" x2="401.65" y1="211.6565" y2="205.0231"/><polygon fill="#A80036" points="434.7,155.9831,428.0293,158.7221,427.992,165.9331,434.6627,163.1941,434.7,155.9831" style="stroke:#A80036;stroke-width:1.0;"/><!--MD5=[022650dfefc1fcf89a2ee42f13b498be]
link card3 to suit3--><path codeLine="42" d="M274.5,370.9931 C274.5,370.9931 274.5,395.0331 274.5,405.5731 " fill="none" id="card3-suit3" style="stroke:#A80036;stroke-width:1.0;"/><polygon fill="#A80036" points="274.5,418.9231,278.5,409.9231,274.5,413.9231,270.5,409.9231,274.5,418.9231" style="stroke:#A80036;stroke-width:1.0;"/><line style="stroke:#A80036;stroke-width:1.0;" x1="274.5" x2="274.5" y1="413.9231" y2="405.9231"/><polygon fill="#A80036" points="274.5,358.9931,270.5,364.9931,274.5,370.9931,278.5,364.9931,274.5,358.9931" style="stroke:#A80036;stroke-width:1.0;"/><!--MD5=[48e79cf5ed473b2e744a706ecd4d571a]
link card4 to suit4--><path codeLine="51" d="M388.5,370.9931 C388.5,370.9931 388.5,395.0331 388.5,405.5731 " fill="none" id="card4-suit4" style="stroke:#A80036;stroke-width:1.0;"/><polygon fill="#A80036" points="388.5,418.9231,392.5,409.9231,388.5,413.9231,384.5,409.9231,388.5,418.9231" style="stroke:#A80036;stroke-width:1.0;"/><line style="stroke:#A80036;stroke-width:1.0;" x1="388.5" x2="388.5" y1="413.9231" y2="405.9231"/><polygon fill="#A80036" points="388.5,358.9931,384.5,364.9931,388.5,370.9931,392.5,364.9931,388.5,358.9931" style="stroke:#A80036;stroke-width:1.0;"/><!--MD5=[0cb87836ec719a28c8203c2020e21157]
link foundation2 to card3--><path codeLine="52" d="M356.635,258.4709 C356.635,258.4709 324.85,287.4831 310.09,300.9631 " fill="none" id="foundation2-card3" style="stroke:#A80036;stroke-width:1.0;"/><polygon fill="#A80036" points="300.28,309.9231,309.6249,306.8129,303.974,306.5535,304.2334,300.9026,300.28,309.9231" style="stroke:#A80036;stroke-width:1.0;"/><line style="stroke:#A80036;stroke-width:1.0;" x1="303.974" x2="309.875" y1="306.5535" y2="301.1631"/><polygon fill="none" points="365.5,250.3831,358.3716,251.472,356.635,258.4709,363.7635,257.382,365.5,250.3831" style="stroke:#A80036;stroke-width:1.0;"/><!--MD5=[fe890556a49cf5763e580127e75ec643]
link foundation2 to card4--><path codeLine="53" d="M384.9233,262.3684 C384.9233,262.3684 386.1,285.7731 386.65,296.7131 " fill="none" id="foundation2-card4" style="stroke:#A80036;stroke-width:1.0;"/><polygon fill="#A80036" points="387.32,309.9231,390.86,300.7325,387.0673,304.9295,382.8702,301.1368,387.32,309.9231" style="stroke:#A80036;stroke-width:1.0;"/><line style="stroke:#A80036;stroke-width:1.0;" x1="387.0673" x2="386.665" y1="304.9295" y2="296.9431"/><polygon fill="none" points="384.33,250.3831,380.6316,256.5736,384.9233,262.3684,388.6218,256.178,384.33,250.3831" style="stroke:#A80036;stroke-width:1.0;"/><!--MD5=[2d1619d8a63f919946632b3f2d913798]
link table to foundation3--><path codeLine="56" d="M463.008,165.9331 C463.008,165.9331 481.2,192.9331 489.19,204.7731 " fill="none" id="table-foundation3" style="stroke:#A80036;stroke-width:1.0;"/><polygon fill="#A80036" points="496.62,215.8031,494.9085,206.1041,493.8262,211.6565,488.2739,210.5741,496.62,215.8031" style="stroke:#A80036;stroke-width:1.0;"/><line style="stroke:#A80036;stroke-width:1.0;" x1="493.8262" x2="489.35" y1="211.6565" y2="205.0231"/><polygon fill="#A80036" points="456.3,155.9831,456.3373,163.1941,463.008,165.9331,462.9707,158.7221,456.3,155.9831" style="stroke:#A80036;stroke-width:1.0;"/><!--MD5=[cd25e10bba7e40cf8ec3cb2d6c3a5032]
link card5 to suit5--><path codeLine="64" d="M502.5,370.9931 C502.5,370.9931 502.5,395.0331 502.5,405.5731 " fill="none" id="card5-suit5" style="stroke:#A80036;stroke-width:1.0;"/><polygon fill="#A80036" points="502.5,418.9231,506.5,409.9231,502.5,413.9231,498.5,409.9231,502.5,418.9231" style="stroke:#A80036;stroke-width:1.0;"/><line style="stroke:#A80036;stroke-width:1.0;" x1="502.5" x2="502.5" y1="413.9231" y2="405.9231"/><polygon fill="#A80036" points="502.5,358.9931,498.5,364.9931,502.5,370.9931,506.5,364.9931,502.5,358.9931" style="stroke:#A80036;stroke-width:1.0;"/><!--MD5=[93d554d312b95d8d9ffc4264565d178d]
link card6 to suit6--><path codeLine="73" d="M616.5,370.9931 C616.5,370.9931 616.5,395.0331 616.5,405.5731 " fill="none" id="card6-suit6" style="stroke:#A80036;stroke-width:1.0;"/><polygon fill="#A80036" points="616.5,418.9231,620.5,409.9231,616.5,413.9231,612.5,409.9231,616.5,418.9231" style="stroke:#A80036;stroke-width:1.0;"/><line style="stroke:#A80036;stroke-width:1.0;" x1="616.5" x2="616.5" y1="413.9231" y2="405.9231"/><polygon fill="#A80036" points="616.5,358.9931,612.5,364.9931,616.5,370.9931,620.5,364.9931,616.5,358.9931" style="stroke:#A80036;stroke-width:1.0;"/><!--MD5=[a6ff07f6bec76d9cb766adf4c7a92675]
link foundation3 to card5--><path codeLine="74" d="M506.0767,262.3684 C506.0767,262.3684 504.9,285.7731 504.35,296.7131 " fill="none" id="foundation3-card5" style="stroke:#A80036;stroke-width:1.0;"/><polygon fill="#A80036" points="503.68,309.9231,508.1298,301.1368,503.9327,304.9295,500.14,300.7325,503.68,309.9231" style="stroke:#A80036;stroke-width:1.0;"/><line style="stroke:#A80036;stroke-width:1.0;" x1="503.9327" x2="504.335" y1="304.9295" y2="296.9431"/><polygon fill="none" points="506.67,250.3831,502.3782,256.178,506.0767,262.3684,510.3684,256.5736,506.67,250.3831" style="stroke:#A80036;stroke-width:1.0;"/><!--MD5=[373ad3d948f5c287eb37741f5352bb25]
link foundation3 to card6--><path codeLine="75" d="M534.365,258.4709 C534.365,258.4709 566.15,287.4831 580.91,300.9631 " fill="none" id="foundation3-card6" style="stroke:#A80036;stroke-width:1.0;"/><polygon fill="#A80036" points="590.72,309.9231,586.7666,300.9026,587.026,306.5535,581.3751,306.8129,590.72,309.9231" style="stroke:#A80036;stroke-width:1.0;"/><line style="stroke:#A80036;stroke-width:1.0;" x1="587.026" x2="581.125" y1="306.5535" y2="301.1631"/><polygon fill="none" points="525.5,250.3831,527.2365,257.382,534.365,258.4709,532.6284,251.472,525.5,250.3831" style="stroke:#A80036;stroke-width:1.0;"/><!--MD5=[f1e4f967c6189f51fac380c4131bc3a9]
link table to foundation4--><path codeLine="78" d="M482.968,152.0549 C482.968,152.0549 617.01,195.3131 673.28,213.4831 " fill="none" id="table-foundation4" style="stroke:#A80036;stroke-width:1.0;"/><polygon fill="#A80036" points="685.89,217.5531,678.5571,210.9783,681.1325,216.0149,676.0959,218.5903,685.89,217.5531" style="stroke:#A80036;stroke-width:1.0;"/><line style="stroke:#A80036;stroke-width:1.0;" x1="681.1325" x2="673.52" y1="216.0149" y2="213.5631"/><polygon fill="#A80036" points="471.55,148.3631,476.0284,154.015,482.968,152.0549,478.4896,146.403,471.55,148.3631" style="stroke:#A80036;stroke-width:1.0;"/><!--MD5=[97e58a2654c261eb5bbc58a0122fe9d3]
link card7 to suit7--><path codeLine="86" d="M730.5,370.9931 C730.5,370.9931 730.5,395.0331 730.5,405.5731 " fill="none" id="card7-suit7" style="stroke:#A80036;stroke-width:1.0;"/><polygon fill="#A80036" points="730.5,418.9231,734.5,409.9231,730.5,413.9231,726.5,409.9231,730.5,418.9231" style="stroke:#A80036;stroke-width:1.0;"/><line style="stroke:#A80036;stroke-width:1.0;" x1="730.5" x2="730.5" y1="413.9231" y2="405.9231"/><polygon fill="#A80036" points="730.5,358.9931,726.5,364.9931,730.5,370.9931,734.5,364.9931,730.5,358.9931" style="stroke:#A80036;stroke-width:1.0;"/><!--MD5=[bbde68275f40e1d62f84cc08a3c94f2b]
link card8 to suit8--><path codeLine="95" d="M844.5,370.9931 C844.5,370.9931 844.5,395.0331 844.5,405.5731 " fill="none" id="card8-suit8" style="stroke:#A80036;stroke-width:1.0;"/><polygon fill="#A80036" points="844.5,418.9231,848.5,409.9231,844.5,413.9231,840.5,409.9231,844.5,418.9231" style="stroke:#A80036;stroke-width:1.0;"/><line style="stroke:#A80036;stroke-width:1.0;" x1="844.5" x2="844.5" y1="413.9231" y2="405.9231"/><polygon fill="#A80036" points="844.5,358.9931,840.5,364.9931,844.5,370.9931,848.5,364.9931,844.5,358.9931" style="stroke:#A80036;stroke-width:1.0;"/><!--MD5=[5c4e5ef17d67fb0aea373c1574a34132]
link foundation4 to card7--><path codeLine="96" d="M730.5,262.3831 C730.5,262.3831 730.5,285.7731 730.5,296.7131 " fill="none" id="foundation4-card7" style="stroke:#A80036;stroke-width:1.0;"/><polygon fill="#A80036" points="730.5,309.9231,734.5,300.9231,730.5,304.9231,726.5,300.9231,730.5,309.9231" style="stroke:#A80036;stroke-width:1.0;"/><line style="stroke:#A80036;stroke-width:1.0;" x1="730.5" x2="730.5" y1="304.9231" y2="296.9231"/><polygon fill="none" points="730.5,250.3831,726.5,256.3831,730.5,262.3831,734.5,256.3831,730.5,250.3831" style="stroke:#A80036;stroke-width:1.0;"/><!--MD5=[96eb07af2d2c1e63e12f6a66780bad4e]
link foundation4 to card8--><path codeLine="97" d="M758.1034,258.0624 C758.1034,258.0624 791.7,287.3731 807.46,301.1231 " fill="none" id="foundation4-card8" style="stroke:#A80036;stroke-width:1.0;"/><polygon fill="#A80036" points="817.42,309.8131,813.2781,300.8776,813.6561,306.5218,808.0119,306.8998,817.42,309.8131" style="stroke:#A80036;stroke-width:1.0;"/><line style="stroke:#A80036;stroke-width:1.0;" x1="813.6561" x2="807.625" y1="306.5218" y2="301.2681"/><polygon fill="none" points="749.07,250.1631,750.9536,257.1239,758.1034,258.0624,756.2198,251.1016,749.07,250.1631" style="stroke:#A80036;stroke-width:1.0;"/><!--MD5=[2403dcd1115dd3ad25c11f1899213900]
@startuml
title FINAL STATE KLONDIKE
object ":Klondike" as klondike
object ":Table" as table
object ":Foundarion" as foundation1
object ":Foundation" as foundation2
object ":Foundation" as foundation3
object ":Foundation" as foundation4

klondike *- -> table


table *- -> foundation1
object ":Card" as card2{
faceup = true
rang = As
}

object ":Suit" as suit1{
heart
}
card2 *- -> suit1
object ":Card" as card9{
faceup = true
rang = King
}
object ":Suit" as suit2{
heart
}
card9 *- -> suit2
foundation1 o- -> card9
foundation1 o- -> card2


table *- -> foundation2
object ":Card" as card3{
faceup = true
rang = As
}
object ":Suit" as suit3{
spade
}
card3 *- -> suit3

object ":Card" as card4{
faceup = true
rang = King
}
object ":Suit" as suit4{
spade
}
card4 *- -> suit4
foundation2 o- -> card3
foundation2 o- -> card4


table *- -> foundation3
object ":Card" as card5{
faceup = true
rang = As
}
object ":Suit" as suit5{
diamon
}
card5 *- -> suit5

object ":Card" as card6{
faceup = true
rang = King
}
object ":Suit" as suit6{
diamon
}
card6 *- -> suit6
foundation3 o- -> card5
foundation3 o- -> card6


table *- -> foundation4
object ":Card" as card7{
faceup = true
rang = As
}
object ":Suit" as suit7{
club
}
card7 *- -> suit7

object ":Card" as card8{
faceup = true
rang = King
}
object ":Suit" as suit8{
club
}
card8 *- -> suit8
foundation4 o- -> card7
foundation4 o- -> card8

note "in foundation: cards order from as to king" as N1
@enduml

PlantUML version 1.2022.1(Tue Feb 01 18:19:58 UTC 2022)
(GPL source distribution)
Java Runtime: OpenJDK Runtime Environment
JVM: OpenJDK 64-Bit Server VM
Default Encoding: UTF-8
Language: en
Country: null
--></g></svg>