<?xml version="1.0" encoding="UTF-8" standalone="no"?><svg xmlns="http://www.w3.org/2000/svg" xmlns:xlink="http://www.w3.org/1999/xlink" contentScriptType="application/ecmascript" contentStyleType="text/css" height="790px" preserveAspectRatio="none" style="width:747px;height:790px;background:#FFFFFF;" version="1.1" viewBox="0 0 747 790" width="747px" zoomAndPan="magnify"><defs><filter height="300%" id="fi2yniskjx6cz" width="300%" x="-1" y="-1"><feGaussianBlur result="blurOut" stdDeviation="2.0"/><feColorMatrix in="blurOut" result="blurOut2" type="matrix" values="0 0 0 0 0 0 0 0 0 0 0 0 0 0 0 0 0 0 .4 0"/><feOffset dx="4.0" dy="4.0" in="blurOut2" result="blurOut3"/><feBlend in="SourceGraphic" in2="blurOut3" mode="normal"/></filter></defs><g><!--MD5=[ce135f397e71694d574a1221b16fe9d6]
class Klondike--><rect codeLine="1" fill="#FEFECE" filter="url(#fi2yniskjx6cz)" height="48" id="Klondike" style="stroke:#A80036;stroke-width:1.5;" width="84" x="373.5" y="7"/><ellipse cx="388.5" cy="23" fill="#ADD1B2" rx="11" ry="11" style="stroke:#A80036;stroke-width:1.0;"/><path d="M391.4688,28.6406 Q390.8906,28.9375 390.25,29.0781 Q389.6094,29.2344 388.9063,29.2344 Q386.4063,29.2344 385.0781,27.5938 Q383.7656,25.9375 383.7656,22.8125 Q383.7656,19.6875 385.0781,18.0313 Q386.4063,16.375 388.9063,16.375 Q389.6094,16.375 390.25,16.5313 Q390.9063,16.6875 391.4688,16.9844 L391.4688,19.7031 Q390.8438,19.125 390.25,18.8594 Q389.6563,18.5781 389.0313,18.5781 Q387.6875,18.5781 387,19.6563 Q386.3125,20.7188 386.3125,22.8125 Q386.3125,24.9063 387,25.9844 Q387.6875,27.0469 389.0313,27.0469 Q389.6563,27.0469 390.25,26.7813 Q390.8438,26.5 391.4688,25.9219 L391.4688,28.6406 Z " fill="#000000"/><text fill="#000000" font-family="sans-serif" font-size="12" lengthAdjust="spacing" textLength="52" x="402.5" y="27.1543">Klondike</text><line style="stroke:#A80036;stroke-width:1.5;" x1="374.5" x2="456.5" y1="39" y2="39"/><line style="stroke:#A80036;stroke-width:1.5;" x1="374.5" x2="456.5" y1="47" y2="47"/><!--MD5=[c0b936abb008b3271898d4186b5531e4]
class Table--><rect fill="#FEFECE" filter="url(#fi2yniskjx6cz)" height="48" id="Table" style="stroke:#A80036;stroke-width:1.5;" width="66" x="328.5" y="356.5"/><ellipse cx="343.5" cy="372.5" fill="#ADD1B2" rx="11" ry="11" style="stroke:#A80036;stroke-width:1.0;"/><path d="M346.4688,378.1406 Q345.8906,378.4375 345.25,378.5781 Q344.6094,378.7344 343.9063,378.7344 Q341.4063,378.7344 340.0781,377.0938 Q338.7656,375.4375 338.7656,372.3125 Q338.7656,369.1875 340.0781,367.5313 Q341.4063,365.875 343.9063,365.875 Q344.6094,365.875 345.25,366.0313 Q345.9063,366.1875 346.4688,366.4844 L346.4688,369.2031 Q345.8438,368.625 345.25,368.3594 Q344.6563,368.0781 344.0313,368.0781 Q342.6875,368.0781 342,369.1563 Q341.3125,370.2188 341.3125,372.3125 Q341.3125,374.4063 342,375.4844 Q342.6875,376.5469 344.0313,376.5469 Q344.6563,376.5469 345.25,376.2813 Q345.8438,376 346.4688,375.4219 L346.4688,378.1406 Z " fill="#000000"/><text fill="#000000" font-family="sans-serif" font-size="12" lengthAdjust="spacing" textLength="34" x="357.5" y="376.6543">Table</text><line style="stroke:#A80036;stroke-width:1.5;" x1="329.5" x2="393.5" y1="388.5" y2="388.5"/><line style="stroke:#A80036;stroke-width:1.5;" x1="329.5" x2="393.5" y1="396.5" y2="396.5"/><!--MD5=[2cb47ba637a0d19583e6199456f6ad0b]
class Player--><rect fill="#FEFECE" filter="url(#fi2yniskjx6cz)" height="48" id="Player" style="stroke:#A80036;stroke-width:1.5;" width="70" x="289.5" y="116"/><ellipse cx="304.5" cy="132" fill="#ADD1B2" rx="11" ry="11" style="stroke:#A80036;stroke-width:1.0;"/><path d="M307.4688,137.6406 Q306.8906,137.9375 306.25,138.0781 Q305.6094,138.2344 304.9063,138.2344 Q302.4063,138.2344 301.0781,136.5938 Q299.7656,134.9375 299.7656,131.8125 Q299.7656,128.6875 301.0781,127.0313 Q302.4063,125.375 304.9063,125.375 Q305.6094,125.375 306.25,125.5313 Q306.9063,125.6875 307.4688,125.9844 L307.4688,128.7031 Q306.8438,128.125 306.25,127.8594 Q305.6563,127.5781 305.0313,127.5781 Q303.6875,127.5781 303,128.6563 Q302.3125,129.7188 302.3125,131.8125 Q302.3125,133.9063 303,134.9844 Q303.6875,136.0469 305.0313,136.0469 Q305.6563,136.0469 306.25,135.7813 Q306.8438,135.5 307.4688,134.9219 L307.4688,137.6406 Z " fill="#000000"/><text fill="#000000" font-family="sans-serif" font-size="12" lengthAdjust="spacing" textLength="38" x="318.5" y="136.1543">Player</text><line style="stroke:#A80036;stroke-width:1.5;" x1="290.5" x2="358.5" y1="148" y2="148"/><line style="stroke:#A80036;stroke-width:1.5;" x1="290.5" x2="358.5" y1="156" y2="156"/><!--MD5=[5e305716458bbdabbd2d7f572ed2bae2]
class Card--><rect codeLine="17" fill="#FEFECE" filter="url(#fi2yniskjx6cz)" height="60.8047" id="Card" style="stroke:#A80036;stroke-width:1.5;" width="107" x="433" y="350"/><ellipse cx="468.7" cy="366" fill="#ADD1B2" rx="11" ry="11" style="stroke:#A80036;stroke-width:1.0;"/><path d="M471.6688,371.6406 Q471.0906,371.9375 470.45,372.0781 Q469.8094,372.2344 469.1063,372.2344 Q466.6063,372.2344 465.2781,370.5938 Q463.9656,368.9375 463.9656,365.8125 Q463.9656,362.6875 465.2781,361.0313 Q466.6063,359.375 469.1063,359.375 Q469.8094,359.375 470.45,359.5313 Q471.1063,359.6875 471.6688,359.9844 L471.6688,362.7031 Q471.0438,362.125 470.45,361.8594 Q469.8563,361.5781 469.2313,361.5781 Q467.8875,361.5781 467.2,362.6563 Q466.5125,363.7188 466.5125,365.8125 Q466.5125,367.9063 467.2,368.9844 Q467.8875,370.0469 469.2313,370.0469 Q469.8563,370.0469 470.45,369.7813 Q471.0438,369.5 471.6688,368.9219 L471.6688,371.6406 Z " fill="#000000"/><text fill="#000000" font-family="sans-serif" font-size="12" lengthAdjust="spacing" textLength="29" x="487.3" y="370.1543">Card</text><line style="stroke:#A80036;stroke-width:1.5;" x1="434" x2="539" y1="382" y2="382"/><text fill="#000000" font-family="sans-serif" font-size="11" lengthAdjust="spacing" textLength="95" x="439" y="396.2104">faceup : boolean</text><line style="stroke:#A80036;stroke-width:1.5;" x1="434" x2="539" y1="402.8047" y2="402.8047"/><!--MD5=[a4cb0f987c11031dc931233a0e7767af]
class Stock--><rect fill="#FEFECE" filter="url(#fi2yniskjx6cz)" height="48" id="Stock" style="stroke:#A80036;stroke-width:1.5;" width="67" x="263" y="491"/><ellipse cx="278" cy="507" fill="#ADD1B2" rx="11" ry="11" style="stroke:#A80036;stroke-width:1.0;"/><path d="M280.9688,512.6406 Q280.3906,512.9375 279.75,513.0781 Q279.1094,513.2344 278.4063,513.2344 Q275.9063,513.2344 274.5781,511.5938 Q273.2656,509.9375 273.2656,506.8125 Q273.2656,503.6875 274.5781,502.0313 Q275.9063,500.375 278.4063,500.375 Q279.1094,500.375 279.75,500.5313 Q280.4063,500.6875 280.9688,500.9844 L280.9688,503.7031 Q280.3438,503.125 279.75,502.8594 Q279.1563,502.5781 278.5313,502.5781 Q277.1875,502.5781 276.5,503.6563 Q275.8125,504.7188 275.8125,506.8125 Q275.8125,508.9063 276.5,509.9844 Q277.1875,511.0469 278.5313,511.0469 Q279.1563,511.0469 279.75,510.7813 Q280.3438,510.5 280.9688,509.9219 L280.9688,512.6406 Z " fill="#000000"/><text fill="#000000" font-family="sans-serif" font-size="12" lengthAdjust="spacing" textLength="35" x="292" y="511.1543">Stock</text><line style="stroke:#A80036;stroke-width:1.5;" x1="264" x2="329" y1="523" y2="523"/><line style="stroke:#A80036;stroke-width:1.5;" x1="264" x2="329" y1="531" y2="531"/><!--MD5=[c3c256aac7e3870d53c0042288b21bdc]
class Waste--><rect fill="#FEFECE" filter="url(#fi2yniskjx6cz)" height="48" id="Waste" style="stroke:#A80036;stroke-width:1.5;" width="71" x="365" y="491"/><ellipse cx="380" cy="507" fill="#ADD1B2" rx="11" ry="11" style="stroke:#A80036;stroke-width:1.0;"/><path d="M382.9688,512.6406 Q382.3906,512.9375 381.75,513.0781 Q381.1094,513.2344 380.4063,513.2344 Q377.9063,513.2344 376.5781,511.5938 Q375.2656,509.9375 375.2656,506.8125 Q375.2656,503.6875 376.5781,502.0313 Q377.9063,500.375 380.4063,500.375 Q381.1094,500.375 381.75,500.5313 Q382.4063,500.6875 382.9688,500.9844 L382.9688,503.7031 Q382.3438,503.125 381.75,502.8594 Q381.1563,502.5781 380.5313,502.5781 Q379.1875,502.5781 378.5,503.6563 Q377.8125,504.7188 377.8125,506.8125 Q377.8125,508.9063 378.5,509.9844 Q379.1875,511.0469 380.5313,511.0469 Q381.1563,511.0469 381.75,510.7813 Q382.3438,510.5 382.9688,509.9219 L382.9688,512.6406 Z " fill="#000000"/><text fill="#000000" font-family="sans-serif" font-size="12" lengthAdjust="spacing" textLength="39" x="394" y="511.1543">Waste</text><line style="stroke:#A80036;stroke-width:1.5;" x1="366" x2="435" y1="523" y2="523"/><line style="stroke:#A80036;stroke-width:1.5;" x1="366" x2="435" y1="531" y2="531"/><!--MD5=[c033d16283544a66478df33ee92fe5a6]
class Tableau--><rect fill="#FEFECE" filter="url(#fi2yniskjx6cz)" height="48" id="Tableau" style="stroke:#A80036;stroke-width:1.5;" width="82" x="145.5" y="491"/><ellipse cx="160.5" cy="507" fill="#ADD1B2" rx="11" ry="11" style="stroke:#A80036;stroke-width:1.0;"/><path d="M163.4688,512.6406 Q162.8906,512.9375 162.25,513.0781 Q161.6094,513.2344 160.9063,513.2344 Q158.4063,513.2344 157.0781,511.5938 Q155.7656,509.9375 155.7656,506.8125 Q155.7656,503.6875 157.0781,502.0313 Q158.4063,500.375 160.9063,500.375 Q161.6094,500.375 162.25,500.5313 Q162.9063,500.6875 163.4688,500.9844 L163.4688,503.7031 Q162.8438,503.125 162.25,502.8594 Q161.6563,502.5781 161.0313,502.5781 Q159.6875,502.5781 159,503.6563 Q158.3125,504.7188 158.3125,506.8125 Q158.3125,508.9063 159,509.9844 Q159.6875,511.0469 161.0313,511.0469 Q161.6563,511.0469 162.25,510.7813 Q162.8438,510.5 163.4688,509.9219 L163.4688,512.6406 Z " fill="#000000"/><text fill="#000000" font-family="sans-serif" font-size="12" lengthAdjust="spacing" textLength="50" x="174.5" y="511.1543">Tableau</text><line style="stroke:#A80036;stroke-width:1.5;" x1="146.5" x2="226.5" y1="523" y2="523"/><line style="stroke:#A80036;stroke-width:1.5;" x1="146.5" x2="226.5" y1="531" y2="531"/><!--MD5=[d01ad859d436f6e28b36a553834670aa]
class Foundation--><rect fill="#FEFECE" filter="url(#fi2yniskjx6cz)" height="48" id="Foundation" style="stroke:#A80036;stroke-width:1.5;" width="103" x="7" y="491"/><ellipse cx="22" cy="507" fill="#ADD1B2" rx="11" ry="11" style="stroke:#A80036;stroke-width:1.0;"/><path d="M24.9688,512.6406 Q24.3906,512.9375 23.75,513.0781 Q23.1094,513.2344 22.4063,513.2344 Q19.9063,513.2344 18.5781,511.5938 Q17.2656,509.9375 17.2656,506.8125 Q17.2656,503.6875 18.5781,502.0313 Q19.9063,500.375 22.4063,500.375 Q23.1094,500.375 23.75,500.5313 Q24.4063,500.6875 24.9688,500.9844 L24.9688,503.7031 Q24.3438,503.125 23.75,502.8594 Q23.1563,502.5781 22.5313,502.5781 Q21.1875,502.5781 20.5,503.6563 Q19.8125,504.7188 19.8125,506.8125 Q19.8125,508.9063 20.5,509.9844 Q21.1875,511.0469 22.5313,511.0469 Q23.1563,511.0469 23.75,510.7813 Q24.3438,510.5 24.9688,509.9219 L24.9688,512.6406 Z " fill="#000000"/><text fill="#000000" font-family="sans-serif" font-size="12" lengthAdjust="spacing" textLength="71" x="36" y="511.1543">Foundation</text><line style="stroke:#A80036;stroke-width:1.5;" x1="8" x2="109" y1="523" y2="523"/><line style="stroke:#A80036;stroke-width:1.5;" x1="8" x2="109" y1="531" y2="531"/><!--MD5=[8afaa0cc9be9ac1cdc24999fa1642fa3]
class Suit--><rect codeLine="16" fill="#FEFECE" filter="url(#fi2yniskjx6cz)" height="48" id="Suit" style="stroke:#A80036;stroke-width:1.5;" width="56" x="471.5" y="491"/><ellipse cx="486.5" cy="507" fill="#ADD1B2" rx="11" ry="11" style="stroke:#A80036;stroke-width:1.0;"/><path d="M489.4688,512.6406 Q488.8906,512.9375 488.25,513.0781 Q487.6094,513.2344 486.9063,513.2344 Q484.4063,513.2344 483.0781,511.5938 Q481.7656,509.9375 481.7656,506.8125 Q481.7656,503.6875 483.0781,502.0313 Q484.4063,500.375 486.9063,500.375 Q487.6094,500.375 488.25,500.5313 Q488.9063,500.6875 489.4688,500.9844 L489.4688,503.7031 Q488.8438,503.125 488.25,502.8594 Q487.6563,502.5781 487.0313,502.5781 Q485.6875,502.5781 485,503.6563 Q484.3125,504.7188 484.3125,506.8125 Q484.3125,508.9063 485,509.9844 Q485.6875,511.0469 487.0313,511.0469 Q487.6563,511.0469 488.25,510.7813 Q488.8438,510.5 489.4688,509.9219 L489.4688,512.6406 Z " fill="#000000"/><text fill="#000000" font-family="sans-serif" font-size="12" lengthAdjust="spacing" textLength="24" x="500.5" y="511.1543">Suit</text><line style="stroke:#A80036;stroke-width:1.5;" x1="472.5" x2="526.5" y1="523" y2="523"/><line style="stroke:#A80036;stroke-width:1.5;" x1="472.5" x2="526.5" y1="531" y2="531"/><!--MD5=[0f690a215a17a0cf4b9f948ca5dd1b3e]
class Rank--><rect codeLine="11" fill="#FEFECE" filter="url(#fi2yniskjx6cz)" height="86.4141" id="Rank" style="stroke:#A80036;stroke-width:1.5;" width="63" x="563" y="472"/><ellipse cx="578" cy="488" fill="#EB937F" rx="11" ry="11" style="stroke:#A80036;stroke-width:1.0;"/><path d="M582.1094,494 L574.3906,494 L574.3906,481.6094 L582.1094,481.6094 L582.1094,483.7656 L576.8438,483.7656 L576.8438,486.4375 L581.6094,486.4375 L581.6094,488.5938 L576.8438,488.5938 L576.8438,491.8438 L582.1094,491.8438 L582.1094,494 Z " fill="#000000"/><text fill="#000000" font-family="sans-serif" font-size="12" lengthAdjust="spacing" textLength="31" x="592" y="492.1543">Rank</text><line style="stroke:#A80036;stroke-width:1.5;" x1="564" x2="625" y1="504" y2="504"/><text fill="#000000" font-family="sans-serif" font-size="11" lengthAdjust="spacing" textLength="14" x="569" y="518.2104">as</text><text fill="#000000" font-family="sans-serif" font-size="11" lengthAdjust="spacing" textLength="12" x="569" y="531.0151">...</text><text fill="#000000" font-family="sans-serif" font-size="11" lengthAdjust="spacing" textLength="23" x="569" y="543.8198">king</text><line style="stroke:#A80036;stroke-width:1.5;" x1="564" x2="625" y1="550.4141" y2="550.4141"/><!--MD5=[9d65f55e1ae89a5b4cf38812aa4a03f3]
class Pile--><rect fill="#FEFECE" filter="url(#fi2yniskjx6cz)" height="48" id="Pile" style="stroke:#A80036;stroke-width:1.5;" width="54" x="211.5" y="356.5"/><ellipse cx="226.5" cy="372.5" fill="#ADD1B2" rx="11" ry="11" style="stroke:#A80036;stroke-width:1.0;"/><path d="M229.4688,378.1406 Q228.8906,378.4375 228.25,378.5781 Q227.6094,378.7344 226.9063,378.7344 Q224.4063,378.7344 223.0781,377.0938 Q221.7656,375.4375 221.7656,372.3125 Q221.7656,369.1875 223.0781,367.5313 Q224.4063,365.875 226.9063,365.875 Q227.6094,365.875 228.25,366.0313 Q228.9063,366.1875 229.4688,366.4844 L229.4688,369.2031 Q228.8438,368.625 228.25,368.3594 Q227.6563,368.0781 227.0313,368.0781 Q225.6875,368.0781 225,369.1563 Q224.3125,370.2188 224.3125,372.3125 Q224.3125,374.4063 225,375.4844 Q225.6875,376.5469 227.0313,376.5469 Q227.6563,376.5469 228.25,376.2813 Q228.8438,376 229.4688,375.4219 L229.4688,378.1406 Z " fill="#000000"/><text fill="#000000" font-family="sans-serif" font-size="12" lengthAdjust="spacing" textLength="22" x="240.5" y="376.6543">Pile</text><line style="stroke:#A80036;stroke-width:1.5;" x1="212.5" x2="264.5" y1="388.5" y2="388.5"/><line style="stroke:#A80036;stroke-width:1.5;" x1="212.5" x2="264.5" y1="396.5" y2="396.5"/><!--MD5=[bc87bf052131b9ca3b54b8ba84b5b110]
class Movement--><rect fill="#FEFECE" filter="url(#fi2yniskjx6cz)" height="48" id="Movement" style="stroke:#A80036;stroke-width:1.5;" width="96" x="266.5" y="225"/><ellipse cx="281.5" cy="241" fill="#ADD1B2" rx="11" ry="11" style="stroke:#A80036;stroke-width:1.0;"/><path d="M284.4688,246.6406 Q283.8906,246.9375 283.25,247.0781 Q282.6094,247.2344 281.9063,247.2344 Q279.4063,247.2344 278.0781,245.5938 Q276.7656,243.9375 276.7656,240.8125 Q276.7656,237.6875 278.0781,236.0313 Q279.4063,234.375 281.9063,234.375 Q282.6094,234.375 283.25,234.5313 Q283.9063,234.6875 284.4688,234.9844 L284.4688,237.7031 Q283.8438,237.125 283.25,236.8594 Q282.6563,236.5781 282.0313,236.5781 Q280.6875,236.5781 280,237.6563 Q279.3125,238.7188 279.3125,240.8125 Q279.3125,242.9063 280,243.9844 Q280.6875,245.0469 282.0313,245.0469 Q282.6563,245.0469 283.25,244.7813 Q283.8438,244.5 284.4688,243.9219 L284.4688,246.6406 Z " fill="#000000"/><text fill="#000000" font-family="sans-serif" font-size="12" lengthAdjust="spacing" textLength="64" x="295.5" y="245.1543">Movement</text><line style="stroke:#A80036;stroke-width:1.5;" x1="267.5" x2="361.5" y1="257" y2="257"/><line style="stroke:#A80036;stroke-width:1.5;" x1="267.5" x2="361.5" y1="265" y2="265"/><!--MD5=[18eee71c88ab61f27581b8cbdd3ef5ee]
class Color--><rect codeLine="40" fill="#FEFECE" filter="url(#fi2yniskjx6cz)" height="48" id="Color" style="stroke:#A80036;stroke-width:1.5;" width="64" x="467.5" y="619"/><ellipse cx="482.5" cy="635" fill="#ADD1B2" rx="11" ry="11" style="stroke:#A80036;stroke-width:1.0;"/><path d="M485.4688,640.6406 Q484.8906,640.9375 484.25,641.0781 Q483.6094,641.2344 482.9063,641.2344 Q480.4063,641.2344 479.0781,639.5938 Q477.7656,637.9375 477.7656,634.8125 Q477.7656,631.6875 479.0781,630.0313 Q480.4063,628.375 482.9063,628.375 Q483.6094,628.375 484.25,628.5313 Q484.9063,628.6875 485.4688,628.9844 L485.4688,631.7031 Q484.8438,631.125 484.25,630.8594 Q483.6563,630.5781 483.0313,630.5781 Q481.6875,630.5781 481,631.6563 Q480.3125,632.7188 480.3125,634.8125 Q480.3125,636.9063 481,637.9844 Q481.6875,639.0469 483.0313,639.0469 Q483.6563,639.0469 484.25,638.7813 Q484.8438,638.5 485.4688,637.9219 L485.4688,640.6406 Z " fill="#000000"/><text fill="#000000" font-family="sans-serif" font-size="12" lengthAdjust="spacing" textLength="32" x="496.5" y="639.1543">Color</text><line style="stroke:#A80036;stroke-width:1.5;" x1="468.5" x2="530.5" y1="651" y2="651"/><line style="stroke:#A80036;stroke-width:1.5;" x1="468.5" x2="530.5" y1="659" y2="659"/><!--MD5=[9bb5813e59df3e2529d11a5afaed7800]
class Heart--><rect fill="#FEFECE" filter="url(#fi2yniskjx6cz)" height="48" id="Heart" style="stroke:#A80036;stroke-width:1.5;" width="67" x="365" y="619"/><ellipse cx="380" cy="635" fill="#ADD1B2" rx="11" ry="11" style="stroke:#A80036;stroke-width:1.0;"/><path d="M382.9688,640.6406 Q382.3906,640.9375 381.75,641.0781 Q381.1094,641.2344 380.4063,641.2344 Q377.9063,641.2344 376.5781,639.5938 Q375.2656,637.9375 375.2656,634.8125 Q375.2656,631.6875 376.5781,630.0313 Q377.9063,628.375 380.4063,628.375 Q381.1094,628.375 381.75,628.5313 Q382.4063,628.6875 382.9688,628.9844 L382.9688,631.7031 Q382.3438,631.125 381.75,630.8594 Q381.1563,630.5781 380.5313,630.5781 Q379.1875,630.5781 378.5,631.6563 Q377.8125,632.7188 377.8125,634.8125 Q377.8125,636.9063 378.5,637.9844 Q379.1875,639.0469 380.5313,639.0469 Q381.1563,639.0469 381.75,638.7813 Q382.3438,638.5 382.9688,637.9219 L382.9688,640.6406 Z " fill="#000000"/><text fill="#000000" font-family="sans-serif" font-size="12" lengthAdjust="spacing" textLength="35" x="394" y="639.1543">Heart</text><line style="stroke:#A80036;stroke-width:1.5;" x1="366" x2="431" y1="651" y2="651"/><line style="stroke:#A80036;stroke-width:1.5;" x1="366" x2="431" y1="659" y2="659"/><!--MD5=[e07683d003131b9e2f36793e1d14f746]
class Spade--><rect fill="#FEFECE" filter="url(#fi2yniskjx6cz)" height="48" id="Spade" style="stroke:#A80036;stroke-width:1.5;" width="72" x="566.5" y="619"/><ellipse cx="581.5" cy="635" fill="#ADD1B2" rx="11" ry="11" style="stroke:#A80036;stroke-width:1.0;"/><path d="M584.4688,640.6406 Q583.8906,640.9375 583.25,641.0781 Q582.6094,641.2344 581.9063,641.2344 Q579.4063,641.2344 578.0781,639.5938 Q576.7656,637.9375 576.7656,634.8125 Q576.7656,631.6875 578.0781,630.0313 Q579.4063,628.375 581.9063,628.375 Q582.6094,628.375 583.25,628.5313 Q583.9063,628.6875 584.4688,628.9844 L584.4688,631.7031 Q583.8438,631.125 583.25,630.8594 Q582.6563,630.5781 582.0313,630.5781 Q580.6875,630.5781 580,631.6563 Q579.3125,632.7188 579.3125,634.8125 Q579.3125,636.9063 580,637.9844 Q580.6875,639.0469 582.0313,639.0469 Q582.6563,639.0469 583.25,638.7813 Q583.8438,638.5 584.4688,637.9219 L584.4688,640.6406 Z " fill="#000000"/><text fill="#000000" font-family="sans-serif" font-size="12" lengthAdjust="spacing" textLength="40" x="595.5" y="639.1543">Spade</text><line style="stroke:#A80036;stroke-width:1.5;" x1="567.5" x2="637.5" y1="651" y2="651"/><line style="stroke:#A80036;stroke-width:1.5;" x1="567.5" x2="637.5" y1="659" y2="659"/><!--MD5=[2a32276ae8faf0cd977a8dc45df70324]
class Diamon--><rect fill="#FEFECE" filter="url(#fi2yniskjx6cz)" height="48" id="Diamon" style="stroke:#A80036;stroke-width:1.5;" width="79" x="251" y="619"/><ellipse cx="266" cy="635" fill="#ADD1B2" rx="11" ry="11" style="stroke:#A80036;stroke-width:1.0;"/><path d="M268.9688,640.6406 Q268.3906,640.9375 267.75,641.0781 Q267.1094,641.2344 266.4063,641.2344 Q263.9063,641.2344 262.5781,639.5938 Q261.2656,637.9375 261.2656,634.8125 Q261.2656,631.6875 262.5781,630.0313 Q263.9063,628.375 266.4063,628.375 Q267.1094,628.375 267.75,628.5313 Q268.4063,628.6875 268.9688,628.9844 L268.9688,631.7031 Q268.3438,631.125 267.75,630.8594 Q267.1563,630.5781 266.5313,630.5781 Q265.1875,630.5781 264.5,631.6563 Q263.8125,632.7188 263.8125,634.8125 Q263.8125,636.9063 264.5,637.9844 Q265.1875,639.0469 266.5313,639.0469 Q267.1563,639.0469 267.75,638.7813 Q268.3438,638.5 268.9688,637.9219 L268.9688,640.6406 Z " fill="#000000"/><text fill="#000000" font-family="sans-serif" font-size="12" lengthAdjust="spacing" textLength="47" x="280" y="639.1543">Diamon</text><line style="stroke:#A80036;stroke-width:1.5;" x1="252" x2="329" y1="651" y2="651"/><line style="stroke:#A80036;stroke-width:1.5;" x1="252" x2="329" y1="659" y2="659"/><!--MD5=[a7ca736ec2eaa3f5c977a8fac7fd0779]
class Club--><rect fill="#FEFECE" filter="url(#fi2yniskjx6cz)" height="48" id="Club" style="stroke:#A80036;stroke-width:1.5;" width="59" x="674" y="619"/><ellipse cx="689" cy="635" fill="#ADD1B2" rx="11" ry="11" style="stroke:#A80036;stroke-width:1.0;"/><path d="M691.9688,640.6406 Q691.3906,640.9375 690.75,641.0781 Q690.1094,641.2344 689.4063,641.2344 Q686.9063,641.2344 685.5781,639.5938 Q684.2656,637.9375 684.2656,634.8125 Q684.2656,631.6875 685.5781,630.0313 Q686.9063,628.375 689.4063,628.375 Q690.1094,628.375 690.75,628.5313 Q691.4063,628.6875 691.9688,628.9844 L691.9688,631.7031 Q691.3438,631.125 690.75,630.8594 Q690.1563,630.5781 689.5313,630.5781 Q688.1875,630.5781 687.5,631.6563 Q686.8125,632.7188 686.8125,634.8125 Q686.8125,636.9063 687.5,637.9844 Q688.1875,639.0469 689.5313,639.0469 Q690.1563,639.0469 690.75,638.7813 Q691.3438,638.5 691.9688,637.9219 L691.9688,640.6406 Z " fill="#000000"/><text fill="#000000" font-family="sans-serif" font-size="12" lengthAdjust="spacing" textLength="27" x="703" y="639.1543">Club</text><line style="stroke:#A80036;stroke-width:1.5;" x1="675" x2="732" y1="651" y2="651"/><line style="stroke:#A80036;stroke-width:1.5;" x1="675" x2="732" y1="659" y2="659"/><!--MD5=[08be530975453a47bdc5b5370100f2fc]
class Red--><rect fill="#FEFECE" filter="url(#fi2yniskjx6cz)" height="48" id="Red" style="stroke:#A80036;stroke-width:1.5;" width="56" x="370.5" y="728"/><ellipse cx="385.5" cy="744" fill="#ADD1B2" rx="11" ry="11" style="stroke:#A80036;stroke-width:1.0;"/><path d="M388.4688,749.6406 Q387.8906,749.9375 387.25,750.0781 Q386.6094,750.2344 385.9063,750.2344 Q383.4063,750.2344 382.0781,748.5938 Q380.7656,746.9375 380.7656,743.8125 Q380.7656,740.6875 382.0781,739.0313 Q383.4063,737.375 385.9063,737.375 Q386.6094,737.375 387.25,737.5313 Q387.9063,737.6875 388.4688,737.9844 L388.4688,740.7031 Q387.8438,740.125 387.25,739.8594 Q386.6563,739.5781 386.0313,739.5781 Q384.6875,739.5781 384,740.6563 Q383.3125,741.7188 383.3125,743.8125 Q383.3125,745.9063 384,746.9844 Q384.6875,748.0469 386.0313,748.0469 Q386.6563,748.0469 387.25,747.7813 Q387.8438,747.5 388.4688,746.9219 L388.4688,749.6406 Z " fill="#000000"/><text fill="#000000" font-family="sans-serif" font-size="12" lengthAdjust="spacing" textLength="24" x="399.5" y="748.1543">Red</text><line style="stroke:#A80036;stroke-width:1.5;" x1="371.5" x2="425.5" y1="760" y2="760"/><line style="stroke:#A80036;stroke-width:1.5;" x1="371.5" x2="425.5" y1="768" y2="768"/><!--MD5=[365150d8163e865a226452c70cc7ad9f]
class Black--><rect fill="#FEFECE" filter="url(#fi2yniskjx6cz)" height="48" id="Black" style="stroke:#A80036;stroke-width:1.5;" width="65" x="570" y="728"/><ellipse cx="585" cy="744" fill="#ADD1B2" rx="11" ry="11" style="stroke:#A80036;stroke-width:1.0;"/><path d="M587.9688,749.6406 Q587.3906,749.9375 586.75,750.0781 Q586.1094,750.2344 585.4063,750.2344 Q582.9063,750.2344 581.5781,748.5938 Q580.2656,746.9375 580.2656,743.8125 Q580.2656,740.6875 581.5781,739.0313 Q582.9063,737.375 585.4063,737.375 Q586.1094,737.375 586.75,737.5313 Q587.4063,737.6875 587.9688,737.9844 L587.9688,740.7031 Q587.3438,740.125 586.75,739.8594 Q586.1563,739.5781 585.5313,739.5781 Q584.1875,739.5781 583.5,740.6563 Q582.8125,741.7188 582.8125,743.8125 Q582.8125,745.9063 583.5,746.9844 Q584.1875,748.0469 585.5313,748.0469 Q586.1563,748.0469 586.75,747.7813 Q587.3438,747.5 587.9688,746.9219 L587.9688,749.6406 Z " fill="#000000"/><text fill="#000000" font-family="sans-serif" font-size="12" lengthAdjust="spacing" textLength="33" x="599" y="748.1543">Black</text><line style="stroke:#A80036;stroke-width:1.5;" x1="571" x2="634" y1="760" y2="760"/><line style="stroke:#A80036;stroke-width:1.5;" x1="571" x2="634" y1="768" y2="768"/><!--MD5=[ee609e11863f62e72209477163f47b3b]
link Klondike to Table--><path codeLine="2" d="M410.4674,67.1686 C410.4674,67.1686 391.04,200.53 379.5,273 C375.77,296.43 371.33,322.72 367.79,343.32 " fill="none" id="Klondike-Table" style="stroke:#A80036;stroke-width:1.0;"/><polygon fill="#A80036" points="365.56,356.25,371.0356,348.0636,366.4123,351.3232,363.1527,346.6999,365.56,356.25" style="stroke:#A80036;stroke-width:1.0;"/><line style="stroke:#A80036;stroke-width:1.0;" x1="366.4123" x2="367.77" y1="351.3232" y2="343.445"/><polygon fill="#A80036" points="412.17,55.29,407.3592,60.6618,410.4674,67.1686,415.2782,61.7968,412.17,55.29" style="stroke:#A80036;stroke-width:1.0;"/><!--MD5=[d0e37a71a001f6053d69fd29d330fd4f]
link Klondike to Player--><path codeLine="3" d="M387.9709,64.3571 C387.9709,64.3571 363.78,92.82 352.91,105.59 " fill="none" id="Klondike-Player" style="stroke:#A80036;stroke-width:1.0;"/><polygon fill="#A80036" points="344.21,115.83,353.0834,111.5565,347.4454,112.0179,346.984,106.3799,344.21,115.83" style="stroke:#A80036;stroke-width:1.0;"/><line style="stroke:#A80036;stroke-width:1.0;" x1="347.4454" x2="352.63" y1="112.0179" y2="105.925"/><polygon fill="#A80036" points="395.75,55.22,388.8148,57.1955,387.9709,64.3571,394.9062,62.3816,395.75,55.22" style="stroke:#A80036;stroke-width:1.0;"/><!--MD5=[66e773952485c2ebd2097a6df943c858]
link Klondike to Card--><path codeLine="4" d="M428.8035,66.5154 C428.8035,66.5154 432.98,79.27 434.5,85 C457.93,173.27 473.71,279.27 481.3,336.97 " fill="none" id="Klondike-Card" style="stroke:#A80036;stroke-width:1.0;"/><polygon fill="#A80036" points="482.96,349.88,485.7794,340.4433,482.3222,344.9208,477.8447,341.4637,482.96,349.88" style="stroke:#A80036;stroke-width:1.0;"/><line style="stroke:#A80036;stroke-width:1.0;" x1="482.3222" x2="481.3" y1="344.9208" y2="336.99"/><polygon fill="#A80036" points="424.78,55.21,423.0233,62.2039,428.8035,66.5154,430.5602,59.5215,424.78,55.21" style="stroke:#A80036;stroke-width:1.0;"/><text fill="#000000" font-family="sans-serif" font-size="13" lengthAdjust="spacing" textLength="16" x="464.5799" y="339.1185">52</text><!--MD5=[476341e4678e3b03baf9252c84536759]
link Table to Stock--><path codeLine="5" d="M344.9033,415.3576 C344.9033,415.3576 323.22,459.54 313.76,478.82 " fill="none" id="Table-Stock" style="stroke:#A80036;stroke-width:1.0;"/><polygon fill="#A80036" points="307.91,490.74,315.4663,484.4231,310.113,486.2515,308.2847,480.8983,307.91,490.74" style="stroke:#A80036;stroke-width:1.0;"/><line style="stroke:#A80036;stroke-width:1.0;" x1="310.113" x2="313.635" y1="486.2515" y2="479.065"/><polygon fill="#A80036" points="350.18,404.58,343.9491,408.2099,344.9033,415.3576,351.1342,411.7277,350.18,404.58" style="stroke:#A80036;stroke-width:1.0;"/><!--MD5=[189b5fbe052dec962506636578cea152]
link Table to Waste--><path codeLine="6" d="M372.784,416.0269 C372.784,416.0269 378.21,433.27 380.5,441 C384.08,453.08 387.79,466.36 391.02,478.24 " fill="none" id="Table-Waste" style="stroke:#A80036;stroke-width:1.0;"/><polygon fill="#A80036" points="394.44,490.92,395.9591,481.189,393.1384,486.0924,388.235,483.2716,394.44,490.92" style="stroke:#A80036;stroke-width:1.0;"/><line style="stroke:#A80036;stroke-width:1.0;" x1="393.1384" x2="391.055" y1="486.0924" y2="478.365"/><polygon fill="#A80036" points="369.12,404.6,367.143,411.5348,372.784,416.0269,374.761,409.0921,369.12,404.6" style="stroke:#A80036;stroke-width:1.0;"/><text fill="#000000" font-family="sans-serif" font-size="13" lengthAdjust="spacing" textLength="8" x="383.8621" y="479.9115">1</text><!--MD5=[d5bc8eff92b985f928a815ee5ccbe127]
link Table to Tableau--><path codeLine="7" d="M321.4534,411.8243 C321.4534,411.8243 255.49,461.76 227.54,482.92 " fill="none" id="Table-Tableau" style="stroke:#A80036;stroke-width:1.0;"/><polygon fill="#A80036" points="216.93,490.96,226.5178,488.7073,220.9135,487.9381,221.6827,482.3338,216.93,490.96" style="stroke:#A80036;stroke-width:1.0;"/><line style="stroke:#A80036;stroke-width:1.0;" x1="220.9135" x2="227.29" y1="487.9381" y2="483.115"/><polygon fill="#A80036" points="331.02,404.58,323.8219,405.0132,321.4534,411.8243,328.6514,411.391,331.02,404.58" style="stroke:#A80036;stroke-width:1.0;"/><text fill="#000000" font-family="sans-serif" font-size="13" lengthAdjust="spacing" textLength="8" x="215.7027" y="479.9618">7</text><!--MD5=[a5de70e882c03acda2826c4e67a122f5]
link Table to Foundation--><path codeLine="8" d="M317.2206,398.1408 C317.2206,398.1408 145.04,463.35 127.5,472 C120.07,475.66 112.4,479.87 104.99,484.18 " fill="none" id="Table-Foundation" style="stroke:#A80036;stroke-width:1.0;"/><polygon fill="#A80036" points="93.63,490.96,103.4083,489.7835,97.9238,488.398,99.3092,482.9135,93.63,490.96" style="stroke:#A80036;stroke-width:1.0;"/><line style="stroke:#A80036;stroke-width:1.0;" x1="97.9238" x2="104.79" y1="488.398" y2="484.295"/><polygon fill="#A80036" points="328.45,393.91,321.425,392.2823,317.2206,398.1408,324.2456,399.7686,328.45,393.91" style="stroke:#A80036;stroke-width:1.0;"/><text fill="#000000" font-family="sans-serif" font-size="13" lengthAdjust="spacing" textLength="8" x="93.6071" y="479.9618">4</text><!--MD5=[01ae9f68263e6bc4031c0aece6e20929]
link Card to Suit--><path codeLine="9" d="M490.5932,423.1825 C490.5932,423.1825 494.34,461.41 495.96,477.94 " fill="none" id="Card-Suit" style="stroke:#A80036;stroke-width:1.0;"/><polygon fill="#A80036" points="497.24,490.95,500.341,481.6021,496.7512,485.974,492.3793,482.3842,497.24,490.95" style="stroke:#A80036;stroke-width:1.0;"/><line style="stroke:#A80036;stroke-width:1.0;" x1="496.7512" x2="495.97" y1="485.974" y2="478.015"/><polygon fill="#A80036" points="489.42,411.24,486.0257,417.6023,490.5932,423.1825,493.9874,416.8202,489.42,411.24" style="stroke:#A80036;stroke-width:1.0;"/><!--MD5=[dab4fdc688f775bd2cd14c67a04f3f7b]
link Card to Rank--><path codeLine="10" d="M518.318,420.5445 C518.318,420.5445 542.93,450.73 554.63,465.09 " fill="none" id="Card-Rank" style="stroke:#A80036;stroke-width:1.0;"/><polygon fill="#A80036" points="562.96,475.3,560.3714,465.7974,559.7998,471.4253,554.1719,470.8537,562.96,475.3" style="stroke:#A80036;stroke-width:1.0;"/><line style="stroke:#A80036;stroke-width:1.0;" x1="559.7998" x2="554.745" y1="471.4253" y2="465.225"/><polygon fill="#A80036" points="510.74,411.24,511.4275,418.4183,518.318,420.5445,517.6305,413.3662,510.74,411.24" style="stroke:#A80036;stroke-width:1.0;"/><!--MD5=[0cc7312144b7b0e8e85651666602557e]
reverse link Pile to Waste--><path codeLine="20" d="M281.42,416.6 C310.14,440.09 347.13,470.35 372.21,490.86 " fill="none" id="Pile-backto-Waste" style="stroke:#A80036;stroke-width:1.0;"/><polygon fill="none" points="276.66,421.76,265.62,403.68,285.53,410.92,276.66,421.76" style="stroke:#A80036;stroke-width:1.0;"/><!--MD5=[a3b0419bdb877a6921c502f7ab916277]
reverse link Pile to Stock--><path codeLine="21" d="M256.72,423.12 C266.49,445.43 278.15,472.09 286.32,490.74 " fill="none" id="Pile-backto-Stock" style="stroke:#A80036;stroke-width:1.0;"/><polygon fill="none" points="250.21,425.71,248.6,404.58,263.04,420.09,250.21,425.71" style="stroke:#A80036;stroke-width:1.0;"/><!--MD5=[b0173922ba304e58e67aa3279a656791]
reverse link Pile to Tableau--><path codeLine="22" d="M219.97,422.9 C217.39,428.94 214.83,435.11 212.5,441 C205.96,457.51 199.25,476.4 194.29,490.83 " fill="none" id="Pile-backto-Tableau" style="stroke:#A80036;stroke-width:1.0;"/><polygon fill="none" points="213.58,420.04,228,404.51,226.41,425.64,213.58,420.04" style="stroke:#A80036;stroke-width:1.0;"/><!--MD5=[6d28caff8698f66462643c822ec8500b]
reverse link Pile to Foundation--><path codeLine="23" d="M194.92,413.58 C162.54,437.42 119.12,469.38 90.04,490.78 " fill="none" id="Pile-backto-Foundation" style="stroke:#A80036;stroke-width:1.0;"/><polygon fill="none" points="190.91,407.84,211.16,401.62,199.2,419.12,190.91,407.84" style="stroke:#A80036;stroke-width:1.0;"/><!--MD5=[1686cafc001cbb054836a454f368ddc9]
link Pile to Card--><path codeLine="24" d="M269.7812,348.1545 C269.7812,348.1545 306.67,318.77 328,311.5 C355.77,302.04 366.16,302.26 394,311.5 C412.67,317.7 430.62,329.29 445.66,341.22 " fill="none" id="Pile-Card" style="stroke:#A80036;stroke-width:1.0;"/><polygon fill="#A80036" points="456.07,349.9,451.7205,341.0636,452.2302,346.6975,446.5964,347.2072,456.07,349.9" style="stroke:#A80036;stroke-width:1.0;"/><line style="stroke:#A80036;stroke-width:1.0;" x1="452.2302" x2="446.085" y1="346.6975" y2="341.575"/><polygon fill="none" points="260.96,356.29,268.0824,355.1626,269.7812,348.1545,262.6587,349.2818,260.96,356.29" style="stroke:#A80036;stroke-width:1.0;"/><!--MD5=[1e5622e419e61827803d8907ecf40cdc]
link Player to Movement--><path codeLine="25" d="M322.33,164.22 C320.81,180.48 318.77,202.32 317.15,219.62 " fill="none" id="Player-to-Movement" style="stroke:#A80036;stroke-width:1.0;"/><polygon fill="#A80036" points="316.67,224.83,321.4773,216.2341,317.1278,219.851,313.5109,215.5015,316.67,224.83" style="stroke:#A80036;stroke-width:1.0;"/><!--MD5=[fc8ab0e1682ffba40cb9aaed004d6572]
link Movement to Card--><path codeLine="26" d="M345.25,273.15 C372.53,293.69 412.67,323.92 443.2,346.9 " fill="none" id="Movement-to-Card" style="stroke:#A80036;stroke-width:1.0;"/><polygon fill="#A80036" points="447.25,349.95,442.4696,341.3391,443.2569,346.9409,437.655,347.7281,447.25,349.95" style="stroke:#A80036;stroke-width:1.0;"/><!--MD5=[08d919769a497c9b194409ae2bcef7ba]
link Movement to Pile--><path codeLine="27" d="M301.95,273.17 C294.44,286.88 284.61,304.54 275.5,320 C269.29,330.54 262.25,341.99 255.98,352 " fill="none" id="Movement-to-Pile" style="stroke:#A80036;stroke-width:1.0;"/><polygon fill="#A80036" points="253.17,356.49,261.337,350.9854,255.8238,352.2524,254.5568,346.7393,253.17,356.49" style="stroke:#A80036;stroke-width:1.0;"/><text fill="#000000" font-family="sans-serif" font-size="13" lengthAdjust="spacing" textLength="35" x="285.5" y="316.0669">origin</text><!--MD5=[08d919769a497c9b194409ae2bcef7ba]
link Movement to Pile--><path codeLine="28" d="M266.44,258.18 C240.41,265.32 210.41,278.57 194.5,303 C183.94,319.21 194.51,338.05 207.93,352.97 " fill="none" id="Movement-to-Pile-1" style="stroke:#A80036;stroke-width:1.0;"/><polygon fill="#A80036" points="211.39,356.68,208.1539,347.378,207.9708,353.0319,202.3169,352.8487,211.39,356.68" style="stroke:#A80036;stroke-width:1.0;"/><text fill="#000000" font-family="sans-serif" font-size="13" lengthAdjust="spacing" textLength="71" x="195.5" y="316.0669">destination</text><!--MD5=[177767f5f369ddd7a2766db2fec86924]
link Suit to Color--><path codeLine="29" d="M499.5,551.11 C499.5,551.11 499.5,588.7 499.5,605.42 " fill="none" id="Suit-Color" style="stroke:#A80036;stroke-width:1.0;"/><polygon fill="#A80036" points="499.5,618.61,503.5,609.61,499.5,613.61,495.5,609.61,499.5,618.61" style="stroke:#A80036;stroke-width:1.0;"/><line style="stroke:#A80036;stroke-width:1.0;" x1="499.5" x2="499.5" y1="613.61" y2="605.61"/><polygon fill="#A80036" points="499.5,539.11,495.5,545.11,499.5,551.11,503.5,545.11,499.5,539.11" style="stroke:#A80036;stroke-width:1.0;"/><!--MD5=[78df3f3c41d22d209fefd30b8de26733]
link Suit to Heart--><path codeLine="32" d="M473.4756,548.474 C473.4756,548.474 440.11,590.09 425.44,608.39 " fill="none" id="Suit-Heart" style="stroke:#A80036;stroke-width:1.0;"/><polygon fill="#A80036" points="417.25,618.61,425.9996,614.0885,420.3768,614.7083,419.757,609.0855,417.25,618.61" style="stroke:#A80036;stroke-width:1.0;"/><line style="stroke:#A80036;stroke-width:1.0;" x1="420.3768" x2="425.38" y1="614.7083" y2="608.465"/><polygon fill="#A80036" points="480.98,539.11,474.1065,541.2905,473.4756,548.474,480.3491,546.2935,480.98,539.11" style="stroke:#A80036;stroke-width:1.0;"/><!--MD5=[184566a5967c59e2c0b743c5cfe51b46]
link Suit to Spade--><path codeLine="33" d="M525.9889,548.3975 C525.9889,548.3975 560.06,590.09 575.03,608.39 " fill="none" id="Suit-Spade" style="stroke:#A80036;stroke-width:1.0;"/><polygon fill="#A80036" points="583.38,618.61,580.7767,609.1114,580.2138,614.7402,574.585,614.1773,583.38,618.61" style="stroke:#A80036;stroke-width:1.0;"/><line style="stroke:#A80036;stroke-width:1.0;" x1="580.2138" x2="575.15" y1="614.7402" y2="608.54"/><polygon fill="#A80036" points="518.39,539.11,519.0936,546.2867,525.9889,548.3975,525.2853,541.2208,518.39,539.11" style="stroke:#A80036;stroke-width:1.0;"/><!--MD5=[d542ca67e5fab2a1ee983e6297d64a5c]
link Suit to Diamon--><path codeLine="34" d="M467.6377,546.9947 C467.6377,546.9947 457.99,554.87 453.5,558 C418.4,582.43 375.25,604.35 342.17,619.67 " fill="none" id="Suit-Diamon" style="stroke:#A80036;stroke-width:1.0;"/><polygon fill="#A80036" points="330.02,625.21,339.8685,625.121,334.5705,623.1381,336.5534,617.8401,330.02,625.21" style="stroke:#A80036;stroke-width:1.0;"/><line style="stroke:#A80036;stroke-width:1.0;" x1="334.5705" x2="341.845" y1="623.1381" y2="619.81"/><polygon fill="#A80036" points="476.64,539.06,469.494,540.0266,467.6377,546.9947,474.7837,546.0281,476.64,539.06" style="stroke:#A80036;stroke-width:1.0;"/><!--MD5=[1a02e8696962b284b6f2ffcf2d93993b]
link Suit to Club--><path codeLine="35" d="M531.4065,546.9412 C531.4065,546.9412 541.03,554.84 545.5,558 C565.8,572.32 622.42,601.54 662.04,621.45 " fill="none" id="Suit-Club" style="stroke:#A80036;stroke-width:1.0;"/><polygon fill="#A80036" points="673.73,627.3,667.4765,619.6912,669.2601,625.0595,663.8917,626.8431,673.73,627.3" style="stroke:#A80036;stroke-width:1.0;"/><line style="stroke:#A80036;stroke-width:1.0;" x1="669.2601" x2="662.11" y1="625.0595" y2="621.48"/><polygon fill="#A80036" points="522.41,539,524.2612,545.9694,531.4065,546.9412,529.5553,539.9718,522.41,539" style="stroke:#A80036;stroke-width:1.0;"/><!--MD5=[39e04be43e1ad652dcf6d75fa160b251]
link Heart to Red--><path codeLine="36" d="M398.5,667.22 C398.5,683.48 398.5,705.32 398.5,722.62 " fill="none" id="Heart-to-Red" style="stroke:#A80036;stroke-width:1.0;"/><polygon fill="#A80036" points="398.5,727.83,402.5,718.83,398.5,722.83,394.5,718.83,398.5,727.83" style="stroke:#A80036;stroke-width:1.0;"/><!--MD5=[c24cb79e4d35e118006c9454deabc9d6]
link Diamon to Red--><path codeLine="37" d="M313.93,667.22 C330.78,683.9 353.53,706.45 371.2,723.95 " fill="none" id="Diamon-to-Red" style="stroke:#A80036;stroke-width:1.0;"/><polygon fill="#A80036" points="375.11,727.83,371.5373,718.652,371.5602,724.3088,365.9034,724.3317,375.11,727.83" style="stroke:#A80036;stroke-width:1.0;"/><!--MD5=[5e71cd03c38ae2dc5991a4eb9d4f46b1]
link Spade to Black--><path codeLine="38" d="M602.5,667.22 C602.5,683.48 602.5,705.32 602.5,722.62 " fill="none" id="Spade-to-Black" style="stroke:#A80036;stroke-width:1.0;"/><polygon fill="#A80036" points="602.5,727.83,606.5,718.83,602.5,722.83,598.5,718.83,602.5,727.83" style="stroke:#A80036;stroke-width:1.0;"/><!--MD5=[378246b792e7d73afd082aeb5825fcc6]
link Club to Black--><path codeLine="39" d="M681.58,667.22 C665.83,683.9 644.55,706.45 628.03,723.95 " fill="none" id="Club-to-Black" style="stroke:#A80036;stroke-width:1.0;"/><polygon fill="#A80036" points="624.37,727.83,633.4511,724.0177,627.7968,724.189,627.6255,718.5347,624.37,727.83" style="stroke:#A80036;stroke-width:1.0;"/><!--MD5=[bb5bacd9b7a3df96c0a5e7fe1de7da1a]
link Color to Black--><path codeLine="41" d="M530.1755,675.8621 C530.1755,675.8621 558.39,705.17 570.99,718.26 " fill="none" id="Color-Black" style="stroke:#A80036;stroke-width:1.0;"/><polygon fill="#A80036" points="580.19,727.83,576.8337,718.5707,576.7238,724.2265,571.068,724.1166,580.19,727.83" style="stroke:#A80036;stroke-width:1.0;"/><line style="stroke:#A80036;stroke-width:1.0;" x1="576.7238" x2="571.18" y1="724.2265" y2="718.465"/><polygon fill="#A80036" points="521.85,667.22,523.132,674.3162,530.1755,675.8621,528.8934,668.7659,521.85,667.22" style="stroke:#A80036;stroke-width:1.0;"/><!--MD5=[02f84573c9257591cc6ecb265d87c085]
link Color to Red--><path codeLine="42" d="M469.349,675.9522 C469.349,675.9522 441.76,705.17 429.4,718.26 " fill="none" id="Color-Red" style="stroke:#A80036;stroke-width:1.0;"/><polygon fill="#A80036" points="420.37,727.83,429.457,724.0318,423.8025,724.1943,423.6399,718.5398,420.37,727.83" style="stroke:#A80036;stroke-width:1.0;"/><line style="stroke:#A80036;stroke-width:1.0;" x1="423.8025" x2="429.3" y1="724.1943" y2="718.375"/><polygon fill="#A80036" points="477.58,667.22,470.5538,668.8424,469.349,675.9522,476.3753,674.3298,477.58,667.22" style="stroke:#A80036;stroke-width:1.0;"/><!--MD5=[0f160f0ab9898907e9f7e4257d5e23f2]
@startuml
class Klondike
Klondike *-down->Table
Klondike *-down-> Player
Klondike *-down-> "52"Card
Table *-down-> Stock
Table *-down-> "1" Waste
Table *-down-> "7"Tableau
Table *-down-> "4" Foundation
Card *-down-> Suit
Card *-down-> Rank
enum Rank{
as
...
king
}
Class Suit
class Card{
faceup : boolean
}
Pile <|-down-Waste
Pile <|-down- Stock
Pile <|-down- Tableau
Pile <|-down- Foundation
Pile o-right-> Card
Player - -> Movement
Movement - -> Card
Movement -down-> Pile : origin
Movement -down-> Pile : destination
Suit *-down-> Color


Suit *- -> Heart
Suit *- -> Spade
Suit *- -> Diamon
Suit *- -> Club
Heart - -> Red
Diamon - -> Red
Spade - -> Black
Club - -> Black
class Color
Color *- -> Black
Color *- -> Red
@endum

PlantUML version 1.2022.1(Tue Feb 01 18:19:58 UTC 2022)
(GPL source distribution)
Java Runtime: OpenJDK Runtime Environment
JVM: OpenJDK 64-Bit Server VM
Default Encoding: UTF-8
Language: en
Country: null
--></g></svg>