<?xml version="1.0" encoding="UTF-8" standalone="no"?><svg xmlns="http://www.w3.org/2000/svg" xmlns:xlink="http://www.w3.org/1999/xlink" contentScriptType="application/ecmascript" contentStyleType="text/css" height="177px" preserveAspectRatio="none" style="width:1228px;height:177px;background:#FFFFFF;" version="1.1" viewBox="0 0 1228 177" width="1228px" zoomAndPan="magnify"><defs><filter height="300%" id="f1bgzveri51qp4" width="300%" x="-1" y="-1"><feGaussianBlur result="blurOut" stdDeviation="2.0"/><feColorMatrix in="blurOut" result="blurOut2" type="matrix" values="0 0 0 0 0 0 0 0 0 0 0 0 0 0 0 0 0 0 .4 0"/><feOffset dx="4.0" dy="4.0" in="blurOut2" result="blurOut3"/><feBlend in="SourceGraphic" in2="blurOut3" mode="normal"/></filter></defs><g><!--MD5=[bc87bf052131b9ca3b54b8ba84b5b110]
class Movement--><rect codeLine="1" fill="#FEFECE" filter="url(#f1bgzveri51qp4)" height="48" id="Movement" style="stroke:#A80036;stroke-width:1.5;" width="96" x="544.5" y="7"/><ellipse cx="559.5" cy="23" fill="#ADD1B2" rx="11" ry="11" style="stroke:#A80036;stroke-width:1.0;"/><path d="M562.4688,28.6406 Q561.8906,28.9375 561.25,29.0781 Q560.6094,29.2344 559.9063,29.2344 Q557.4063,29.2344 556.0781,27.5938 Q554.7656,25.9375 554.7656,22.8125 Q554.7656,19.6875 556.0781,18.0313 Q557.4063,16.375 559.9063,16.375 Q560.6094,16.375 561.25,16.5313 Q561.9063,16.6875 562.4688,16.9844 L562.4688,19.7031 Q561.8438,19.125 561.25,18.8594 Q560.6563,18.5781 560.0313,18.5781 Q558.6875,18.5781 558,19.6563 Q557.3125,20.7188 557.3125,22.8125 Q557.3125,24.9063 558,25.9844 Q558.6875,27.0469 560.0313,27.0469 Q560.6563,27.0469 561.25,26.7813 Q561.8438,26.5 562.4688,25.9219 L562.4688,28.6406 Z " fill="#000000"/><text fill="#000000" font-family="sans-serif" font-size="12" lengthAdjust="spacing" textLength="64" x="573.5" y="27.1543">Movement</text><line style="stroke:#A80036;stroke-width:1.5;" x1="545.5" x2="639.5" y1="39" y2="39"/><line style="stroke:#A80036;stroke-width:1.5;" x1="545.5" x2="639.5" y1="47" y2="47"/><!--MD5=[630ddcd668e8e86da4ecb4f1527017b6]
class StockToWaste--><rect fill="#FEFECE" filter="url(#f1bgzveri51qp4)" height="48" id="StockToWaste" style="stroke:#A80036;stroke-width:1.5;" width="121" x="7" y="115"/><ellipse cx="22" cy="131" fill="#ADD1B2" rx="11" ry="11" style="stroke:#A80036;stroke-width:1.0;"/><path d="M24.9688,136.6406 Q24.3906,136.9375 23.75,137.0781 Q23.1094,137.2344 22.4063,137.2344 Q19.9063,137.2344 18.5781,135.5938 Q17.2656,133.9375 17.2656,130.8125 Q17.2656,127.6875 18.5781,126.0313 Q19.9063,124.375 22.4063,124.375 Q23.1094,124.375 23.75,124.5313 Q24.4063,124.6875 24.9688,124.9844 L24.9688,127.7031 Q24.3438,127.125 23.75,126.8594 Q23.1563,126.5781 22.5313,126.5781 Q21.1875,126.5781 20.5,127.6563 Q19.8125,128.7188 19.8125,130.8125 Q19.8125,132.9063 20.5,133.9844 Q21.1875,135.0469 22.5313,135.0469 Q23.1563,135.0469 23.75,134.7813 Q24.3438,134.5 24.9688,133.9219 L24.9688,136.6406 Z " fill="#000000"/><text fill="#000000" font-family="sans-serif" font-size="12" lengthAdjust="spacing" textLength="89" x="36" y="135.1543">StockToWaste</text><line style="stroke:#A80036;stroke-width:1.5;" x1="8" x2="127" y1="147" y2="147"/><line style="stroke:#A80036;stroke-width:1.5;" x1="8" x2="127" y1="155" y2="155"/><!--MD5=[109a3f47ab116f822349cc24442c583a]
class WasteToTableau--><rect fill="#FEFECE" filter="url(#f1bgzveri51qp4)" height="48" id="WasteToTableau" style="stroke:#A80036;stroke-width:1.5;" width="136" x="163.5" y="115"/><ellipse cx="178.5" cy="131" fill="#ADD1B2" rx="11" ry="11" style="stroke:#A80036;stroke-width:1.0;"/><path d="M181.4688,136.6406 Q180.8906,136.9375 180.25,137.0781 Q179.6094,137.2344 178.9063,137.2344 Q176.4063,137.2344 175.0781,135.5938 Q173.7656,133.9375 173.7656,130.8125 Q173.7656,127.6875 175.0781,126.0313 Q176.4063,124.375 178.9063,124.375 Q179.6094,124.375 180.25,124.5313 Q180.9063,124.6875 181.4688,124.9844 L181.4688,127.7031 Q180.8438,127.125 180.25,126.8594 Q179.6563,126.5781 179.0313,126.5781 Q177.6875,126.5781 177,127.6563 Q176.3125,128.7188 176.3125,130.8125 Q176.3125,132.9063 177,133.9844 Q177.6875,135.0469 179.0313,135.0469 Q179.6563,135.0469 180.25,134.7813 Q180.8438,134.5 181.4688,133.9219 L181.4688,136.6406 Z " fill="#000000"/><text fill="#000000" font-family="sans-serif" font-size="12" lengthAdjust="spacing" textLength="104" x="192.5" y="135.1543">WasteToTableau</text><line style="stroke:#A80036;stroke-width:1.5;" x1="164.5" x2="298.5" y1="147" y2="147"/><line style="stroke:#A80036;stroke-width:1.5;" x1="164.5" x2="298.5" y1="155" y2="155"/><!--MD5=[690937d76b2f5dff6bed6ca7eb5e7caa]
class WasteToFoundation--><rect fill="#FEFECE" filter="url(#f1bgzveri51qp4)" height="48" id="WasteToFoundation" style="stroke:#A80036;stroke-width:1.5;" width="157" x="335" y="115"/><ellipse cx="350" cy="131" fill="#ADD1B2" rx="11" ry="11" style="stroke:#A80036;stroke-width:1.0;"/><path d="M352.9688,136.6406 Q352.3906,136.9375 351.75,137.0781 Q351.1094,137.2344 350.4063,137.2344 Q347.9063,137.2344 346.5781,135.5938 Q345.2656,133.9375 345.2656,130.8125 Q345.2656,127.6875 346.5781,126.0313 Q347.9063,124.375 350.4063,124.375 Q351.1094,124.375 351.75,124.5313 Q352.4063,124.6875 352.9688,124.9844 L352.9688,127.7031 Q352.3438,127.125 351.75,126.8594 Q351.1563,126.5781 350.5313,126.5781 Q349.1875,126.5781 348.5,127.6563 Q347.8125,128.7188 347.8125,130.8125 Q347.8125,132.9063 348.5,133.9844 Q349.1875,135.0469 350.5313,135.0469 Q351.1563,135.0469 351.75,134.7813 Q352.3438,134.5 352.9688,133.9219 L352.9688,136.6406 Z " fill="#000000"/><text fill="#000000" font-family="sans-serif" font-size="12" lengthAdjust="spacing" textLength="125" x="364" y="135.1543">WasteToFoundation</text><line style="stroke:#A80036;stroke-width:1.5;" x1="336" x2="491" y1="147" y2="147"/><line style="stroke:#A80036;stroke-width:1.5;" x1="336" x2="491" y1="155" y2="155"/><!--MD5=[1b42dd302e9626d6936de3ec394c5d2a]
class TableauToTable--><rect fill="#FEFECE" filter="url(#f1bgzveri51qp4)" height="48" id="TableauToTable" style="stroke:#A80036;stroke-width:1.5;" width="131" x="527" y="115"/><ellipse cx="542" cy="131" fill="#ADD1B2" rx="11" ry="11" style="stroke:#A80036;stroke-width:1.0;"/><path d="M544.9688,136.6406 Q544.3906,136.9375 543.75,137.0781 Q543.1094,137.2344 542.4063,137.2344 Q539.9063,137.2344 538.5781,135.5938 Q537.2656,133.9375 537.2656,130.8125 Q537.2656,127.6875 538.5781,126.0313 Q539.9063,124.375 542.4063,124.375 Q543.1094,124.375 543.75,124.5313 Q544.4063,124.6875 544.9688,124.9844 L544.9688,127.7031 Q544.3438,127.125 543.75,126.8594 Q543.1563,126.5781 542.5313,126.5781 Q541.1875,126.5781 540.5,127.6563 Q539.8125,128.7188 539.8125,130.8125 Q539.8125,132.9063 540.5,133.9844 Q541.1875,135.0469 542.5313,135.0469 Q543.1563,135.0469 543.75,134.7813 Q544.3438,134.5 544.9688,133.9219 L544.9688,136.6406 Z " fill="#000000"/><text fill="#000000" font-family="sans-serif" font-size="12" lengthAdjust="spacing" textLength="99" x="556" y="135.1543">TableauToTable</text><line style="stroke:#A80036;stroke-width:1.5;" x1="528" x2="657" y1="147" y2="147"/><line style="stroke:#A80036;stroke-width:1.5;" x1="528" x2="657" y1="155" y2="155"/><!--MD5=[e1bfd4b0a988483f4a99f0d6efc4440f]
class TableauToFoundation--><rect fill="#FEFECE" filter="url(#f1bgzveri51qp4)" height="48" id="TableauToFoundation" style="stroke:#A80036;stroke-width:1.5;" width="168" x="693.5" y="115"/><ellipse cx="708.5" cy="131" fill="#ADD1B2" rx="11" ry="11" style="stroke:#A80036;stroke-width:1.0;"/><path d="M711.4688,136.6406 Q710.8906,136.9375 710.25,137.0781 Q709.6094,137.2344 708.9063,137.2344 Q706.4063,137.2344 705.0781,135.5938 Q703.7656,133.9375 703.7656,130.8125 Q703.7656,127.6875 705.0781,126.0313 Q706.4063,124.375 708.9063,124.375 Q709.6094,124.375 710.25,124.5313 Q710.9063,124.6875 711.4688,124.9844 L711.4688,127.7031 Q710.8438,127.125 710.25,126.8594 Q709.6563,126.5781 709.0313,126.5781 Q707.6875,126.5781 707,127.6563 Q706.3125,128.7188 706.3125,130.8125 Q706.3125,132.9063 707,133.9844 Q707.6875,135.0469 709.0313,135.0469 Q709.6563,135.0469 710.25,134.7813 Q710.8438,134.5 711.4688,133.9219 L711.4688,136.6406 Z " fill="#000000"/><text fill="#000000" font-family="sans-serif" font-size="12" lengthAdjust="spacing" textLength="136" x="722.5" y="135.1543">TableauToFoundation</text><line style="stroke:#A80036;stroke-width:1.5;" x1="694.5" x2="860.5" y1="147" y2="147"/><line style="stroke:#A80036;stroke-width:1.5;" x1="694.5" x2="860.5" y1="155" y2="155"/><!--MD5=[dd0fc2da0f3a3b927157169f1e5ae786]
class RecicleWaste--><rect fill="#FEFECE" filter="url(#f1bgzveri51qp4)" height="48" id="RecicleWaste" style="stroke:#A80036;stroke-width:1.5;" width="115" x="896" y="115"/><ellipse cx="911" cy="131" fill="#ADD1B2" rx="11" ry="11" style="stroke:#A80036;stroke-width:1.0;"/><path d="M913.9688,136.6406 Q913.3906,136.9375 912.75,137.0781 Q912.1094,137.2344 911.4063,137.2344 Q908.9063,137.2344 907.5781,135.5938 Q906.2656,133.9375 906.2656,130.8125 Q906.2656,127.6875 907.5781,126.0313 Q908.9063,124.375 911.4063,124.375 Q912.1094,124.375 912.75,124.5313 Q913.4063,124.6875 913.9688,124.9844 L913.9688,127.7031 Q913.3438,127.125 912.75,126.8594 Q912.1563,126.5781 911.5313,126.5781 Q910.1875,126.5781 909.5,127.6563 Q908.8125,128.7188 908.8125,130.8125 Q908.8125,132.9063 909.5,133.9844 Q910.1875,135.0469 911.5313,135.0469 Q912.1563,135.0469 912.75,134.7813 Q913.3438,134.5 913.9688,133.9219 L913.9688,136.6406 Z " fill="#000000"/><text fill="#000000" font-family="sans-serif" font-size="12" lengthAdjust="spacing" textLength="83" x="925" y="135.1543">RecicleWaste</text><line style="stroke:#A80036;stroke-width:1.5;" x1="897" x2="1010" y1="147" y2="147"/><line style="stroke:#A80036;stroke-width:1.5;" x1="897" x2="1010" y1="155" y2="155"/><!--MD5=[b79ef1eb1faefcfff8240a7c186e9373]
class FoundationToTableau--><rect fill="#FEFECE" filter="url(#f1bgzveri51qp4)" height="48" id="FoundationToTableau" style="stroke:#A80036;stroke-width:1.5;" width="168" x="1046.5" y="115"/><ellipse cx="1061.5" cy="131" fill="#ADD1B2" rx="11" ry="11" style="stroke:#A80036;stroke-width:1.0;"/><path d="M1064.4688,136.6406 Q1063.8906,136.9375 1063.25,137.0781 Q1062.6094,137.2344 1061.9063,137.2344 Q1059.4063,137.2344 1058.0781,135.5938 Q1056.7656,133.9375 1056.7656,130.8125 Q1056.7656,127.6875 1058.0781,126.0313 Q1059.4063,124.375 1061.9063,124.375 Q1062.6094,124.375 1063.25,124.5313 Q1063.9063,124.6875 1064.4688,124.9844 L1064.4688,127.7031 Q1063.8438,127.125 1063.25,126.8594 Q1062.6563,126.5781 1062.0313,126.5781 Q1060.6875,126.5781 1060,127.6563 Q1059.3125,128.7188 1059.3125,130.8125 Q1059.3125,132.9063 1060,133.9844 Q1060.6875,135.0469 1062.0313,135.0469 Q1062.6563,135.0469 1063.25,134.7813 Q1063.8438,134.5 1064.4688,133.9219 L1064.4688,136.6406 Z " fill="#000000"/><text fill="#000000" font-family="sans-serif" font-size="12" lengthAdjust="spacing" textLength="136" x="1075.5" y="135.1543">FoundationToTableau</text><line style="stroke:#A80036;stroke-width:1.5;" x1="1047.5" x2="1213.5" y1="147" y2="147"/><line style="stroke:#A80036;stroke-width:1.5;" x1="1047.5" x2="1213.5" y1="155" y2="155"/><!--MD5=[ecbda47f8d08e2b9aa0e09b10882f309]
reverse link Movement to StockToWaste--><path codeLine="2" d="M524.42,42.4 C436.38,56.36 278.56,83.12 145.5,115 C139.87,116.35 134.04,117.86 128.23,119.43 " fill="none" id="Movement-backto-StockToWaste" style="stroke:#A80036;stroke-width:1.0;"/><polygon fill="none" points="523.35,35.48,544.2,39.29,525.53,49.31,523.35,35.48" style="stroke:#A80036;stroke-width:1.0;"/><!--MD5=[6d7dc40fbaaf5799febfcd206ec30287]
reverse link Movement to WasteToTableau--><path codeLine="3" d="M524.9,51.85 C460.5,70.76 364.07,99.07 299.54,118.02 " fill="none" id="Movement-backto-WasteToTableau" style="stroke:#A80036;stroke-width:1.0;"/><polygon fill="none" points="523.03,45.1,544.19,46.19,526.97,58.54,523.03,45.1" style="stroke:#A80036;stroke-width:1.0;"/><!--MD5=[573c93effcd4f46db082010fd9baacf6]
reverse link Movement to WasteToFoundation--><path codeLine="4" d="M536.18,65.35 C508.99,81.45 477.05,100.37 452.57,114.86 " fill="none" id="Movement-backto-WasteToFoundation" style="stroke:#A80036;stroke-width:1.0;"/><polygon fill="none" points="532.88,59.17,553.66,55,540.02,71.21,532.88,59.17" style="stroke:#A80036;stroke-width:1.0;"/><!--MD5=[12d92586b4fd5fed9ae0a244d72edc45]
reverse link Movement to TableauToTable--><path codeLine="5" d="M592.5,75.02 C592.5,88.58 592.5,103.04 592.5,114.68 " fill="none" id="Movement-backto-TableauToTable" style="stroke:#A80036;stroke-width:1.0;"/><polygon fill="none" points="585.5,75,592.5,55,599.5,75,585.5,75" style="stroke:#A80036;stroke-width:1.0;"/><!--MD5=[82a9e2b3b7176dea9a03040be6462f8d]
reverse link Movement to TableauToFoundation--><path codeLine="6" d="M650.31,65.12 C678.49,81.27 711.7,100.3 737.12,114.86 " fill="none" id="Movement-backto-TableauToFoundation" style="stroke:#A80036;stroke-width:1.0;"/><polygon fill="none" points="646.52,71.02,632.64,55,653.48,58.87,646.52,71.02" style="stroke:#A80036;stroke-width:1.0;"/><!--MD5=[61d291ae771a29dc924e19f8f58c613a]
reverse link Movement to RecicleWaste--><path codeLine="7" d="M659.93,51.09 C718.16,67.68 804.51,92.5 879.5,115 C884.78,116.58 890.27,118.25 895.77,119.93 " fill="none" id="Movement-backto-RecicleWaste" style="stroke:#A80036;stroke-width:1.0;"/><polygon fill="none" points="657.9,57.79,640.57,45.59,661.73,44.33,657.9,57.79" style="stroke:#A80036;stroke-width:1.0;"/><!--MD5=[033b5905253d7582e0edcffaf6e65da4]
reverse link Movement to FoundationToTableau--><path codeLine="8" d="M660.51,44.22 C746.42,59.81 898.69,88.02 1028.5,115 C1034.37,116.22 1040.41,117.51 1046.5,118.82 " fill="none" id="Movement-backto-FoundationToTableau" style="stroke:#A80036;stroke-width:1.0;"/><polygon fill="none" points="659.1,51.07,640.67,40.62,661.6,37.3,659.1,51.07" style="stroke:#A80036;stroke-width:1.0;"/><!--MD5=[088bd80ecae40cc9b19ef2ca6ce9798b]
@startuml
class Movement
Movement <|- - StockToWaste
Movement <|- - WasteToTableau
Movement <|- - WasteToFoundation
Movement <|- - TableauToTable
Movement <|- - TableauToFoundation
Movement <|- - RecicleWaste
Movement <|- - FoundationToTableau
@endum

PlantUML version 1.2022.1(Tue Feb 01 18:19:58 UTC 2022)
(GPL source distribution)
Java Runtime: OpenJDK Runtime Environment
JVM: OpenJDK 64-Bit Server VM
Default Encoding: UTF-8
Language: en
Country: null
--></g></svg>