<?xml version="1.0" encoding="UTF-8" standalone="no"?><svg xmlns="http://www.w3.org/2000/svg" xmlns:xlink="http://www.w3.org/1999/xlink" contentStyleType="text/css" height="774px" preserveAspectRatio="none" style="width:622px;height:774px;background:#FFFFFF;" version="1.1" viewBox="0 0 622 774" width="622px" zoomAndPan="magnify"><defs/><g><!--MD5=[10b1f240992e2c34b6908209bf85bfd2]
class Connect4--><g id="elem_Connect4"><rect codeLine="1" fill="#F1F1F1" height="48" id="Connect4" rx="2.5" ry="2.5" style="stroke:#181818;stroke-width:0.5;" width="101" x="125.5" y="7"/><ellipse cx="140.5" cy="23" fill="#ADD1B2" rx="11" ry="11" style="stroke:#181818;stroke-width:1.0;"/><path d="M142.8438,18.6719 C141.9063,18.2344 141.3125,18.0938 140.4375,18.0938 C137.8125,18.0938 135.8125,20.1719 135.8125,22.8906 L135.8125,24.0156 C135.8125,26.5938 137.9219,28.4844 140.8125,28.4844 C142.0313,28.4844 143.1875,28.1875 143.9375,27.6406 C144.5156,27.2344 144.8438,26.7813 144.8438,26.3906 C144.8438,25.9375 144.4531,25.5469 143.9844,25.5469 C143.7656,25.5469 143.5625,25.625 143.375,25.8125 C142.9219,26.2969 142.9219,26.2969 142.7344,26.3906 C142.3125,26.6563 141.625,26.7813 140.8594,26.7813 C138.8125,26.7813 137.5156,25.6875 137.5156,23.9844 L137.5156,22.8906 C137.5156,21.1094 138.7656,19.7969 140.5,19.7969 C141.0781,19.7969 141.6875,19.9531 142.1563,20.2031 C142.6406,20.4844 142.8125,20.7031 142.9063,21.1094 C142.9688,21.5156 143,21.6406 143.1406,21.7656 C143.2813,21.9063 143.5156,22.0156 143.7344,22.0156 C144,22.0156 144.2656,21.875 144.4375,21.6563 C144.5469,21.5 144.5781,21.3125 144.5781,20.8906 L144.5781,19.4688 C144.5781,19.0313 144.5625,18.9063 144.4688,18.75 C144.3125,18.4844 144.0313,18.3438 143.7344,18.3438 C143.4375,18.3438 143.2344,18.4375 143.0156,18.75 L142.8438,18.6719 Z " fill="#000000"/><text fill="#000000" font-family="sans-serif" font-size="14" lengthAdjust="spacing" textLength="69" x="154.5" y="27.8467">Connect4</text><line style="stroke:#181818;stroke-width:0.5;" x1="126.5" x2="225.5" y1="39" y2="39"/><line style="stroke:#181818;stroke-width:0.5;" x1="126.5" x2="225.5" y1="47" y2="47"/></g><!--MD5=[dd91eae41778c45e12552e5329e240e8]
class Turn--><g id="elem_Turn"><rect codeLine="9" fill="#F1F1F1" height="64.2969" id="Turn" rx="2.5" ry="2.5" style="stroke:#181818;stroke-width:0.5;" width="157" x="97.5" y="115"/><ellipse cx="155.75" cy="131" fill="#ADD1B2" rx="11" ry="11" style="stroke:#181818;stroke-width:1.0;"/><path d="M158.0938,126.6719 C157.1563,126.2344 156.5625,126.0938 155.6875,126.0938 C153.0625,126.0938 151.0625,128.1719 151.0625,130.8906 L151.0625,132.0156 C151.0625,134.5938 153.1719,136.4844 156.0625,136.4844 C157.2813,136.4844 158.4375,136.1875 159.1875,135.6406 C159.7656,135.2344 160.0938,134.7813 160.0938,134.3906 C160.0938,133.9375 159.7031,133.5469 159.2344,133.5469 C159.0156,133.5469 158.8125,133.625 158.625,133.8125 C158.1719,134.2969 158.1719,134.2969 157.9844,134.3906 C157.5625,134.6563 156.875,134.7813 156.1094,134.7813 C154.0625,134.7813 152.7656,133.6875 152.7656,131.9844 L152.7656,130.8906 C152.7656,129.1094 154.0156,127.7969 155.75,127.7969 C156.3281,127.7969 156.9375,127.9531 157.4063,128.2031 C157.8906,128.4844 158.0625,128.7031 158.1563,129.1094 C158.2188,129.5156 158.25,129.6406 158.3906,129.7656 C158.5313,129.9063 158.7656,130.0156 158.9844,130.0156 C159.25,130.0156 159.5156,129.875 159.6875,129.6563 C159.7969,129.5 159.8281,129.3125 159.8281,128.8906 L159.8281,127.4688 C159.8281,127.0313 159.8125,126.9063 159.7188,126.75 C159.5625,126.4844 159.2813,126.3438 158.9844,126.3438 C158.6875,126.3438 158.4844,126.4375 158.2656,126.75 L158.0938,126.6719 Z " fill="#000000"/><text fill="#000000" font-family="sans-serif" font-size="14" lengthAdjust="spacing" textLength="32" x="176.25" y="135.8467">Turn</text><line style="stroke:#181818;stroke-width:0.5;" x1="98.5" x2="253.5" y1="147" y2="147"/><text fill="#000000" font-family="sans-serif" font-size="14" lengthAdjust="spacing" textLength="145" x="103.5" y="163.9951">activePlayer : Player</text><line style="stroke:#181818;stroke-width:0.5;" x1="98.5" x2="253.5" y1="171.2969" y2="171.2969"/></g><!--MD5=[9563755d011c5cec7ec66dc53565a59e]
class Board--><g id="elem_Board"><rect codeLine="3" fill="#F1F1F1" height="48" id="Board" rx="2.5" ry="2.5" style="stroke:#181818;stroke-width:0.5;" width="74" x="7" y="347"/><ellipse cx="22" cy="363" fill="#ADD1B2" rx="11" ry="11" style="stroke:#181818;stroke-width:1.0;"/><path d="M24.3438,358.6719 C23.4063,358.2344 22.8125,358.0938 21.9375,358.0938 C19.3125,358.0938 17.3125,360.1719 17.3125,362.8906 L17.3125,364.0156 C17.3125,366.5938 19.4219,368.4844 22.3125,368.4844 C23.5313,368.4844 24.6875,368.1875 25.4375,367.6406 C26.0156,367.2344 26.3438,366.7813 26.3438,366.3906 C26.3438,365.9375 25.9531,365.5469 25.4844,365.5469 C25.2656,365.5469 25.0625,365.625 24.875,365.8125 C24.4219,366.2969 24.4219,366.2969 24.2344,366.3906 C23.8125,366.6563 23.125,366.7813 22.3594,366.7813 C20.3125,366.7813 19.0156,365.6875 19.0156,363.9844 L19.0156,362.8906 C19.0156,361.1094 20.2656,359.7969 22,359.7969 C22.5781,359.7969 23.1875,359.9531 23.6563,360.2031 C24.1406,360.4844 24.3125,360.7031 24.4063,361.1094 C24.4688,361.5156 24.5,361.6406 24.6406,361.7656 C24.7813,361.9063 25.0156,362.0156 25.2344,362.0156 C25.5,362.0156 25.7656,361.875 25.9375,361.6563 C26.0469,361.5 26.0781,361.3125 26.0781,360.8906 L26.0781,359.4688 C26.0781,359.0313 26.0625,358.9063 25.9688,358.75 C25.8125,358.4844 25.5313,358.3438 25.2344,358.3438 C24.9375,358.3438 24.7344,358.4375 24.5156,358.75 L24.3438,358.6719 Z " fill="#000000"/><text fill="#000000" font-family="sans-serif" font-size="14" lengthAdjust="spacing" textLength="42" x="36" y="367.8467">Board</text><line style="stroke:#181818;stroke-width:0.5;" x1="8" x2="80" y1="379" y2="379"/><line style="stroke:#181818;stroke-width:0.5;" x1="8" x2="80" y1="387" y2="387"/></g><!--MD5=[2cb47ba637a0d19583e6199456f6ad0b]
class Player--><g id="elem_Player"><rect codeLine="4" fill="#F1F1F1" height="48" id="Player" rx="2.5" ry="2.5" style="stroke:#181818;stroke-width:0.5;" width="76" x="173" y="239"/><ellipse cx="188" cy="255" fill="#ADD1B2" rx="11" ry="11" style="stroke:#181818;stroke-width:1.0;"/><path d="M190.3438,250.6719 C189.4063,250.2344 188.8125,250.0938 187.9375,250.0938 C185.3125,250.0938 183.3125,252.1719 183.3125,254.8906 L183.3125,256.0156 C183.3125,258.5938 185.4219,260.4844 188.3125,260.4844 C189.5313,260.4844 190.6875,260.1875 191.4375,259.6406 C192.0156,259.2344 192.3438,258.7813 192.3438,258.3906 C192.3438,257.9375 191.9531,257.5469 191.4844,257.5469 C191.2656,257.5469 191.0625,257.625 190.875,257.8125 C190.4219,258.2969 190.4219,258.2969 190.2344,258.3906 C189.8125,258.6563 189.125,258.7813 188.3594,258.7813 C186.3125,258.7813 185.0156,257.6875 185.0156,255.9844 L185.0156,254.8906 C185.0156,253.1094 186.2656,251.7969 188,251.7969 C188.5781,251.7969 189.1875,251.9531 189.6563,252.2031 C190.1406,252.4844 190.3125,252.7031 190.4063,253.1094 C190.4688,253.5156 190.5,253.6406 190.6406,253.7656 C190.7813,253.9063 191.0156,254.0156 191.2344,254.0156 C191.5,254.0156 191.7656,253.875 191.9375,253.6563 C192.0469,253.5 192.0781,253.3125 192.0781,252.8906 L192.0781,251.4688 C192.0781,251.0313 192.0625,250.9063 191.9688,250.75 C191.8125,250.4844 191.5313,250.3438 191.2344,250.3438 C190.9375,250.3438 190.7344,250.4375 190.5156,250.75 L190.3438,250.6719 Z " fill="#000000"/><text fill="#000000" font-family="sans-serif" font-size="14" lengthAdjust="spacing" textLength="44" x="202" y="259.8467">Player</text><line style="stroke:#181818;stroke-width:0.5;" x1="174" x2="248" y1="271" y2="271"/><line style="stroke:#181818;stroke-width:0.5;" x1="174" x2="248" y1="279" y2="279"/></g><!--MD5=[5655ee3e2a0d028d03fe20f829576392]
class Square--><g id="elem_Square"><rect codeLine="31" fill="#F1F1F1" height="64.2969" id="Square" rx="2.5" ry="2.5" style="stroke:#181818;stroke-width:0.5;" width="131" x="18.5" y="563"/><ellipse cx="56" cy="579" fill="#ADD1B2" rx="11" ry="11" style="stroke:#181818;stroke-width:1.0;"/><path d="M58.3438,574.6719 C57.4063,574.2344 56.8125,574.0938 55.9375,574.0938 C53.3125,574.0938 51.3125,576.1719 51.3125,578.8906 L51.3125,580.0156 C51.3125,582.5938 53.4219,584.4844 56.3125,584.4844 C57.5313,584.4844 58.6875,584.1875 59.4375,583.6406 C60.0156,583.2344 60.3438,582.7813 60.3438,582.3906 C60.3438,581.9375 59.9531,581.5469 59.4844,581.5469 C59.2656,581.5469 59.0625,581.625 58.875,581.8125 C58.4219,582.2969 58.4219,582.2969 58.2344,582.3906 C57.8125,582.6563 57.125,582.7813 56.3594,582.7813 C54.3125,582.7813 53.0156,581.6875 53.0156,579.9844 L53.0156,578.8906 C53.0156,577.1094 54.2656,575.7969 56,575.7969 C56.5781,575.7969 57.1875,575.9531 57.6563,576.2031 C58.1406,576.4844 58.3125,576.7031 58.4063,577.1094 C58.4688,577.5156 58.5,577.6406 58.6406,577.7656 C58.7813,577.9063 59.0156,578.0156 59.2344,578.0156 C59.5,578.0156 59.7656,577.875 59.9375,577.6563 C60.0469,577.5 60.0781,577.3125 60.0781,576.8906 L60.0781,575.4688 C60.0781,575.0313 60.0625,574.9063 59.9688,574.75 C59.8125,574.4844 59.5313,574.3438 59.2344,574.3438 C58.9375,574.3438 58.7344,574.4375 58.5156,574.75 L58.3438,574.6719 Z " fill="#000000"/><text fill="#000000" font-family="sans-serif" font-size="14" lengthAdjust="spacing" textLength="49" x="75" y="583.8467">Square</text><line style="stroke:#181818;stroke-width:0.5;" x1="19.5" x2="148.5" y1="595" y2="595"/><text fill="#000000" font-family="sans-serif" font-size="14" lengthAdjust="spacing" textLength="119" x="24.5" y="611.9951">empty : boolean</text><line style="stroke:#181818;stroke-width:0.5;" x1="19.5" x2="148.5" y1="619.2969" y2="619.2969"/></g><!--MD5=[d8c8cfd5ca149094f5b67f9f607a5ec7]
class Token--><g id="elem_Token"><rect codeLine="6" fill="#F1F1F1" height="48" id="Token" rx="2.5" ry="2.5" style="stroke:#181818;stroke-width:0.5;" width="77" x="381.5" y="571"/><ellipse cx="396.5" cy="587" fill="#ADD1B2" rx="11" ry="11" style="stroke:#181818;stroke-width:1.0;"/><path d="M398.8438,582.6719 C397.9063,582.2344 397.3125,582.0938 396.4375,582.0938 C393.8125,582.0938 391.8125,584.1719 391.8125,586.8906 L391.8125,588.0156 C391.8125,590.5938 393.9219,592.4844 396.8125,592.4844 C398.0313,592.4844 399.1875,592.1875 399.9375,591.6406 C400.5156,591.2344 400.8438,590.7813 400.8438,590.3906 C400.8438,589.9375 400.4531,589.5469 399.9844,589.5469 C399.7656,589.5469 399.5625,589.625 399.375,589.8125 C398.9219,590.2969 398.9219,590.2969 398.7344,590.3906 C398.3125,590.6563 397.625,590.7813 396.8594,590.7813 C394.8125,590.7813 393.5156,589.6875 393.5156,587.9844 L393.5156,586.8906 C393.5156,585.1094 394.7656,583.7969 396.5,583.7969 C397.0781,583.7969 397.6875,583.9531 398.1563,584.2031 C398.6406,584.4844 398.8125,584.7031 398.9063,585.1094 C398.9688,585.5156 399,585.6406 399.1406,585.7656 C399.2813,585.9063 399.5156,586.0156 399.7344,586.0156 C400,586.0156 400.2656,585.875 400.4375,585.6563 C400.5469,585.5 400.5781,585.3125 400.5781,584.8906 L400.5781,583.4688 C400.5781,583.0313 400.5625,582.9063 400.4688,582.75 C400.3125,582.4844 400.0313,582.3438 399.7344,582.3438 C399.4375,582.3438 399.2344,582.4375 399.0156,582.75 L398.8438,582.6719 Z " fill="#000000"/><text fill="#000000" font-family="sans-serif" font-size="14" lengthAdjust="spacing" textLength="45" x="410.5" y="591.8467">Token</text><line style="stroke:#181818;stroke-width:0.5;" x1="382.5" x2="457.5" y1="603" y2="603"/><line style="stroke:#181818;stroke-width:0.5;" x1="382.5" x2="457.5" y1="611" y2="611"/></g><!--MD5=[4dfb8d343c35f5c8a84d0e773314d62e]
class 4InLineGoal--><g id="elem_4InLineGoal"><rect codeLine="7" fill="#F1F1F1" height="48" id="4InLineGoal" rx="2.5" ry="2.5" style="stroke:#181818;stroke-width:0.5;" width="115" x="188.5" y="347"/><ellipse cx="203.5" cy="363" fill="#ADD1B2" rx="11" ry="11" style="stroke:#181818;stroke-width:1.0;"/><path d="M205.8438,358.6719 C204.9063,358.2344 204.3125,358.0938 203.4375,358.0938 C200.8125,358.0938 198.8125,360.1719 198.8125,362.8906 L198.8125,364.0156 C198.8125,366.5938 200.9219,368.4844 203.8125,368.4844 C205.0313,368.4844 206.1875,368.1875 206.9375,367.6406 C207.5156,367.2344 207.8438,366.7813 207.8438,366.3906 C207.8438,365.9375 207.4531,365.5469 206.9844,365.5469 C206.7656,365.5469 206.5625,365.625 206.375,365.8125 C205.9219,366.2969 205.9219,366.2969 205.7344,366.3906 C205.3125,366.6563 204.625,366.7813 203.8594,366.7813 C201.8125,366.7813 200.5156,365.6875 200.5156,363.9844 L200.5156,362.8906 C200.5156,361.1094 201.7656,359.7969 203.5,359.7969 C204.0781,359.7969 204.6875,359.9531 205.1563,360.2031 C205.6406,360.4844 205.8125,360.7031 205.9063,361.1094 C205.9688,361.5156 206,361.6406 206.1406,361.7656 C206.2813,361.9063 206.5156,362.0156 206.7344,362.0156 C207,362.0156 207.2656,361.875 207.4375,361.6563 C207.5469,361.5 207.5781,361.3125 207.5781,360.8906 L207.5781,359.4688 C207.5781,359.0313 207.5625,358.9063 207.4688,358.75 C207.3125,358.4844 207.0313,358.3438 206.7344,358.3438 C206.4375,358.3438 206.2344,358.4375 206.0156,358.75 L205.8438,358.6719 Z " fill="#000000"/><text fill="#000000" font-family="sans-serif" font-size="14" lengthAdjust="spacing" textLength="83" x="217.5" y="367.8467">4InLineGoal</text><line style="stroke:#181818;stroke-width:0.5;" x1="189.5" x2="302.5" y1="379" y2="379"/><line style="stroke:#181818;stroke-width:0.5;" x1="189.5" x2="302.5" y1="387" y2="387"/></g><!--MD5=[18eee71c88ab61f27581b8cbdd3ef5ee]
class Color--><g id="elem_Color"><rect codeLine="23" fill="#F1F1F1" height="80.5938" id="Color" rx="2.5" ry="2.5" style="stroke:#181818;stroke-width:0.5;" width="70" x="385" y="687"/><ellipse cx="400" cy="703" fill="#EB937F" rx="11" ry="11" style="stroke:#181818;stroke-width:1.0;"/><path d="M398.7969,703.875 L400.25,703.875 L400.25,703.9844 C400.25,704.3906 400.2813,704.5469 400.3594,704.7031 C400.5156,704.9531 400.7969,705.1094 401.0938,705.1094 C401.3438,705.1094 401.6094,704.9688 401.7656,704.75 C401.8906,704.5938 401.9219,704.4375 401.9219,703.9844 L401.9219,702.0625 C401.9219,701.9063 401.9219,701.8594 401.9063,701.7031 C401.8438,701.2344 401.5313,700.9219 401.0781,700.9219 C400.8281,700.9219 400.5625,701.0625 400.3906,701.2813 C400.2813,701.4531 400.25,701.6094 400.25,702.0625 L400.25,702.1875 L398.7969,702.1875 L398.7969,699.7813 L402.7813,699.7813 L402.7813,700.6406 C402.7813,701.0469 402.8125,701.2188 402.8906,701.375 C403.0625,701.625 403.3438,701.7813 403.625,701.7813 C403.8906,701.7813 404.1563,701.6406 404.3281,701.4219 C404.4375,701.25 404.4688,701.1094 404.4688,700.6406 L404.4688,698.0938 L396.8438,698.0938 C396.4063,698.0938 396.2813,698.1094 396.125,698.2031 C395.875,698.3594 395.7188,698.6563 395.7188,698.9375 C395.7188,699.2188 395.8594,699.4688 396.0781,699.6406 C396.2344,699.75 396.4219,699.7813 396.8438,699.7813 L397.0938,699.7813 L397.0938,706.2969 L396.8438,706.2969 C396.4375,706.2969 396.2813,706.3125 396.125,706.4219 C395.875,706.5938 395.7188,706.8594 395.7188,707.1563 C395.7188,707.4219 395.8594,707.6719 396.0781,707.8281 C396.2188,707.9531 396.4531,708 396.8438,708 L404.8438,708 L404.8438,705.4219 C404.8438,704.9844 404.8125,704.8438 404.7344,704.6875 C404.5625,704.4375 404.2813,704.2813 404,704.2813 C403.7344,704.2813 403.4688,704.3906 403.2969,704.6406 C403.1875,704.7969 403.1563,704.9375 403.1563,705.4219 L403.1563,706.2969 L398.7969,706.2969 L398.7969,703.875 Z " fill="#000000"/><text fill="#000000" font-family="sans-serif" font-size="14" lengthAdjust="spacing" textLength="38" x="414" y="707.8467">Color</text><line style="stroke:#181818;stroke-width:0.5;" x1="386" x2="454" y1="719" y2="719"/><text fill="#000000" font-family="sans-serif" font-size="14" lengthAdjust="spacing" textLength="24" x="391" y="735.9951">red</text><text fill="#000000" font-family="sans-serif" font-size="14" lengthAdjust="spacing" textLength="45" x="391" y="752.292">yellow</text><line style="stroke:#181818;stroke-width:0.5;" x1="386" x2="454" y1="759.5938" y2="759.5938"/></g><!--MD5=[80913b1cc667c5997af01db625a44293]
class Put--><g id="elem_Put"><rect fill="#F1F1F1" height="48" id="Put" rx="2.5" ry="2.5" style="stroke:#181818;stroke-width:0.5;" width="56" x="97" y="455"/><ellipse cx="112" cy="471" fill="#ADD1B2" rx="11" ry="11" style="stroke:#181818;stroke-width:1.0;"/><path d="M114.3438,466.6719 C113.4063,466.2344 112.8125,466.0938 111.9375,466.0938 C109.3125,466.0938 107.3125,468.1719 107.3125,470.8906 L107.3125,472.0156 C107.3125,474.5938 109.4219,476.4844 112.3125,476.4844 C113.5313,476.4844 114.6875,476.1875 115.4375,475.6406 C116.0156,475.2344 116.3438,474.7813 116.3438,474.3906 C116.3438,473.9375 115.9531,473.5469 115.4844,473.5469 C115.2656,473.5469 115.0625,473.625 114.875,473.8125 C114.4219,474.2969 114.4219,474.2969 114.2344,474.3906 C113.8125,474.6563 113.125,474.7813 112.3594,474.7813 C110.3125,474.7813 109.0156,473.6875 109.0156,471.9844 L109.0156,470.8906 C109.0156,469.1094 110.2656,467.7969 112,467.7969 C112.5781,467.7969 113.1875,467.9531 113.6563,468.2031 C114.1406,468.4844 114.3125,468.7031 114.4063,469.1094 C114.4688,469.5156 114.5,469.6406 114.6406,469.7656 C114.7813,469.9063 115.0156,470.0156 115.2344,470.0156 C115.5,470.0156 115.7656,469.875 115.9375,469.6563 C116.0469,469.5 116.0781,469.3125 116.0781,468.8906 L116.0781,467.4688 C116.0781,467.0313 116.0625,466.9063 115.9688,466.75 C115.8125,466.4844 115.5313,466.3438 115.2344,466.3438 C114.9375,466.3438 114.7344,466.4375 114.5156,466.75 L114.3438,466.6719 Z " fill="#000000"/><text fill="#000000" font-family="sans-serif" font-size="14" lengthAdjust="spacing" textLength="24" x="126" y="475.8467">Put</text><line style="stroke:#181818;stroke-width:0.5;" x1="98" x2="152" y1="487" y2="487"/><line style="stroke:#181818;stroke-width:0.5;" x1="98" x2="152" y1="495" y2="495"/></g><!--MD5=[31b5ae40478c4e9e86c1d56782efcc17]
class 4InRow--><g id="elem_4InRow"><rect fill="#F1F1F1" height="48" id="4InRow" rx="2.5" ry="2.5" style="stroke:#181818;stroke-width:0.5;" width="83" x="338.5" y="455"/><ellipse cx="353.5" cy="471" fill="#ADD1B2" rx="11" ry="11" style="stroke:#181818;stroke-width:1.0;"/><path d="M355.8438,466.6719 C354.9063,466.2344 354.3125,466.0938 353.4375,466.0938 C350.8125,466.0938 348.8125,468.1719 348.8125,470.8906 L348.8125,472.0156 C348.8125,474.5938 350.9219,476.4844 353.8125,476.4844 C355.0313,476.4844 356.1875,476.1875 356.9375,475.6406 C357.5156,475.2344 357.8438,474.7813 357.8438,474.3906 C357.8438,473.9375 357.4531,473.5469 356.9844,473.5469 C356.7656,473.5469 356.5625,473.625 356.375,473.8125 C355.9219,474.2969 355.9219,474.2969 355.7344,474.3906 C355.3125,474.6563 354.625,474.7813 353.8594,474.7813 C351.8125,474.7813 350.5156,473.6875 350.5156,471.9844 L350.5156,470.8906 C350.5156,469.1094 351.7656,467.7969 353.5,467.7969 C354.0781,467.7969 354.6875,467.9531 355.1563,468.2031 C355.6406,468.4844 355.8125,468.7031 355.9063,469.1094 C355.9688,469.5156 356,469.6406 356.1406,469.7656 C356.2813,469.9063 356.5156,470.0156 356.7344,470.0156 C357,470.0156 357.2656,469.875 357.4375,469.6563 C357.5469,469.5 357.5781,469.3125 357.5781,468.8906 L357.5781,467.4688 C357.5781,467.0313 357.5625,466.9063 357.4688,466.75 C357.3125,466.4844 357.0313,466.3438 356.7344,466.3438 C356.4375,466.3438 356.2344,466.4375 356.0156,466.75 L355.8438,466.6719 Z " fill="#000000"/><text fill="#000000" font-family="sans-serif" font-size="14" lengthAdjust="spacing" textLength="51" x="367.5" y="475.8467">4InRow</text><line style="stroke:#181818;stroke-width:0.5;" x1="339.5" x2="420.5" y1="487" y2="487"/><line style="stroke:#181818;stroke-width:0.5;" x1="339.5" x2="420.5" y1="495" y2="495"/></g><!--MD5=[a118334562be5e28683d6a8e2de634f6]
class 4InColunm--><g id="elem_4InColunm"><rect fill="#F1F1F1" height="48" id="4InColunm" rx="2.5" ry="2.5" style="stroke:#181818;stroke-width:0.5;" width="107" x="456.5" y="455"/><ellipse cx="471.5" cy="471" fill="#ADD1B2" rx="11" ry="11" style="stroke:#181818;stroke-width:1.0;"/><path d="M473.8438,466.6719 C472.9063,466.2344 472.3125,466.0938 471.4375,466.0938 C468.8125,466.0938 466.8125,468.1719 466.8125,470.8906 L466.8125,472.0156 C466.8125,474.5938 468.9219,476.4844 471.8125,476.4844 C473.0313,476.4844 474.1875,476.1875 474.9375,475.6406 C475.5156,475.2344 475.8438,474.7813 475.8438,474.3906 C475.8438,473.9375 475.4531,473.5469 474.9844,473.5469 C474.7656,473.5469 474.5625,473.625 474.375,473.8125 C473.9219,474.2969 473.9219,474.2969 473.7344,474.3906 C473.3125,474.6563 472.625,474.7813 471.8594,474.7813 C469.8125,474.7813 468.5156,473.6875 468.5156,471.9844 L468.5156,470.8906 C468.5156,469.1094 469.7656,467.7969 471.5,467.7969 C472.0781,467.7969 472.6875,467.9531 473.1563,468.2031 C473.6406,468.4844 473.8125,468.7031 473.9063,469.1094 C473.9688,469.5156 474,469.6406 474.1406,469.7656 C474.2813,469.9063 474.5156,470.0156 474.7344,470.0156 C475,470.0156 475.2656,469.875 475.4375,469.6563 C475.5469,469.5 475.5781,469.3125 475.5781,468.8906 L475.5781,467.4688 C475.5781,467.0313 475.5625,466.9063 475.4688,466.75 C475.3125,466.4844 475.0313,466.3438 474.7344,466.3438 C474.4375,466.3438 474.2344,466.4375 474.0156,466.75 L473.8438,466.6719 Z " fill="#000000"/><text fill="#000000" font-family="sans-serif" font-size="14" lengthAdjust="spacing" textLength="75" x="485.5" y="475.8467">4InColunm</text><line style="stroke:#181818;stroke-width:0.5;" x1="457.5" x2="562.5" y1="487" y2="487"/><line style="stroke:#181818;stroke-width:0.5;" x1="457.5" x2="562.5" y1="495" y2="495"/></g><!--MD5=[a312c5c8a2540654e47dac18ff39e741]
class 4InDiagonal--><g id="elem_4InDiagonal"><rect fill="#F1F1F1" height="48" id="4InDiagonal" rx="2.5" ry="2.5" style="stroke:#181818;stroke-width:0.5;" width="115" x="188.5" y="455"/><ellipse cx="203.5" cy="471" fill="#ADD1B2" rx="11" ry="11" style="stroke:#181818;stroke-width:1.0;"/><path d="M205.8438,466.6719 C204.9063,466.2344 204.3125,466.0938 203.4375,466.0938 C200.8125,466.0938 198.8125,468.1719 198.8125,470.8906 L198.8125,472.0156 C198.8125,474.5938 200.9219,476.4844 203.8125,476.4844 C205.0313,476.4844 206.1875,476.1875 206.9375,475.6406 C207.5156,475.2344 207.8438,474.7813 207.8438,474.3906 C207.8438,473.9375 207.4531,473.5469 206.9844,473.5469 C206.7656,473.5469 206.5625,473.625 206.375,473.8125 C205.9219,474.2969 205.9219,474.2969 205.7344,474.3906 C205.3125,474.6563 204.625,474.7813 203.8594,474.7813 C201.8125,474.7813 200.5156,473.6875 200.5156,471.9844 L200.5156,470.8906 C200.5156,469.1094 201.7656,467.7969 203.5,467.7969 C204.0781,467.7969 204.6875,467.9531 205.1563,468.2031 C205.6406,468.4844 205.8125,468.7031 205.9063,469.1094 C205.9688,469.5156 206,469.6406 206.1406,469.7656 C206.2813,469.9063 206.5156,470.0156 206.7344,470.0156 C207,470.0156 207.2656,469.875 207.4375,469.6563 C207.5469,469.5 207.5781,469.3125 207.5781,468.8906 L207.5781,467.4688 C207.5781,467.0313 207.5625,466.9063 207.4688,466.75 C207.3125,466.4844 207.0313,466.3438 206.7344,466.3438 C206.4375,466.3438 206.2344,466.4375 206.0156,466.75 L205.8438,466.6719 Z " fill="#000000"/><text fill="#000000" font-family="sans-serif" font-size="14" lengthAdjust="spacing" textLength="83" x="217.5" y="475.8467">4InDiagonal</text><line style="stroke:#181818;stroke-width:0.5;" x1="189.5" x2="302.5" y1="487" y2="487"/><line style="stroke:#181818;stroke-width:0.5;" x1="189.5" x2="302.5" y1="495" y2="495"/></g><!--MD5=[6824fd9902778444ee49992acd2ffe7e]
link Connect4 to Turn--><g id="link_Connect4_Turn"><path codeLine="12" d="M176,67.07 C176,67.07 176,90.527 176,101.423 " fill="none" id="Connect4-Turn" style="stroke:#181818;stroke-width:1.0;"/><polygon fill="#181818" points="176,114.755,180,105.755,176,109.755,172,105.755,176,114.755" style="stroke:#181818;stroke-width:1.0;"/><line style="stroke:#181818;stroke-width:1.0;" x1="176" x2="176" y1="109.755" y2="101.755"/><polygon fill="#181818" points="176,55.07,172,61.07,176,67.07,180,61.07,176,55.07" style="stroke:#181818;stroke-width:1.0;"/></g><!--MD5=[46750473935a00282743b47f522de7be]
link Connect4 to Player--><g id="link_Connect4_Player"><path codeLine="13" d="M226.3788,62.3627 C226.3788,62.3627 262.514,94.259 272,115 C283.83,140.867 280.864,151.972 272,179 C266.049,197.145 254.45,214.593 242.949,228.769 " fill="none" id="Connect4-Player" style="stroke:#181818;stroke-width:1.0;"/><polygon fill="#181818" points="234.269,238.93,243.1562,234.6853,237.5168,235.1284,237.0737,229.4889,234.269,238.93" style="stroke:#181818;stroke-width:1.0;"/><line style="stroke:#181818;stroke-width:1.0;" x1="237.5168" x2="242.7135" y1="235.1284" y2="229.0455"/><polygon fill="#181818" points="216.689,55.284,219.1743,62.0533,226.3788,62.3627,223.8935,55.5935,216.689,55.284" style="stroke:#181818;stroke-width:1.0;"/><text fill="#000000" font-family="sans-serif" font-size="13" lengthAdjust="spacing" textLength="8" x="231.2067" y="227.9241">2</text></g><!--MD5=[5426a1d26e36fcd61d30da6b8a6545ec]
link Connect4 to Board--><g id="link_Connect4_Board"><path codeLine="14" d="M128.009,62.4308 C128.009,62.4308 91.0902,94.655 80,115 C41.6791,185.301 39.3552,282.03 41.4184,333.811 " fill="none" id="Connect4-Board" style="stroke:#181818;stroke-width:1.0;"/><polygon fill="#181818" points="42.0721,346.865,45.6161,337.6759,41.8216,341.8713,37.6261,338.0767,42.0721,346.865" style="stroke:#181818;stroke-width:1.0;"/><line style="stroke:#181818;stroke-width:1.0;" x1="41.8216" x2="41.4218" y1="341.8713" y2="333.881"/><polygon fill="#181818" points="137.639,55.271,130.4374,55.6409,128.009,62.4308,135.2106,62.0609,137.639,55.271" style="stroke:#181818;stroke-width:1.0;"/></g><!--MD5=[3cf0e70bd82bda810188b53a0d65a4fb]
link Player to 4InLineGoal--><g id="link_Player_4InLineGoal"><path codeLine="15" d="M218.594,287 C223.878,303.003 230.959,324.446 236.599,341.528 " fill="none" id="Player-to-4InLineGoal" style="stroke:#181818;stroke-width:1.0;"/><polygon fill="#181818" points="238.299,346.678,239.276,336.8777,236.7316,341.93,231.6793,339.3856,238.299,346.678" style="stroke:#181818;stroke-width:1.0;"/></g><!--MD5=[c1f7e88598f78d9459764ed93737eb14]
link Player to Board--><g id="link_Player_Board"><path codeLine="16" d="M174.763,287 C148.266,303.819 112.299,326.649 84.7929,344.107 " fill="none" id="Player-to-Board" style="stroke:#181818;stroke-width:1.0;"/><polygon fill="#181818" points="80.4538,346.862,90.196,345.4162,84.6752,344.1826,85.9089,338.6619,80.4538,346.862" style="stroke:#181818;stroke-width:1.0;"/></g><!--MD5=[6362d373c70c914ff64d9e096162a755]
link Player to Put--><g id="link_Player_Put"><path codeLine="17" d="M198.912,287.295 C190.583,303.759 179.523,326.464 171,347 C156.474,382.001 142.441,423.418 133.773,450.171 " fill="none" id="Player-to-Put" style="stroke:#181818;stroke-width:1.0;stroke-dasharray:7.0,7.0;"/><polygon fill="#181818" points="132.219,454.99,138.7898,447.6535,133.7546,450.2317,131.1765,445.1965,132.219,454.99" style="stroke:#181818;stroke-width:1.0;"/></g><!--MD5=[81f1826cba707dbfb80657083e3298b2]
link Put to Square--><g id="link_Put_Square"><path codeLine="18" d="M116.703,503.07 C111.057,518.77 103.4681,539.869 97.0224,557.791 " fill="none" id="Put-to-Square" style="stroke:#181818;stroke-width:1.0;"/><polygon fill="#181818" points="95.2373,562.755,102.0461,555.6389,96.9288,558.0498,94.5178,552.9325,95.2373,562.755" style="stroke:#181818;stroke-width:1.0;"/></g><!--MD5=[525e20984b3f0335f86e1ed389de5b3d]
link Player to Token--><g id="link_Player_Token"><path codeLine="19" d="M249.094,270.379 C327.744,285.834 506.912,333.378 581,455 C615.475,511.594 522.502,557.148 463.821,579.329 " fill="none" id="Player-to-Token" style="stroke:#181818;stroke-width:1.0;"/><polygon fill="#181818" points="458.957,581.145,468.7876,581.745,463.6413,579.3964,465.9899,574.2501,458.957,581.145" style="stroke:#181818;stroke-width:1.0;"/><text fill="#000000" font-family="sans-serif" font-size="13" lengthAdjust="spacing" textLength="36" x="466.6106" y="575.3512">6x7/2</text></g><!--MD5=[d81713d91ad05be3b975338c4816ee0b]
link Turn to Player--><g id="link_Turn_Player"><path codeLine="20" d="M185.564,179.151 C190.81,196.238 197.263,217.256 202.357,233.847 " fill="none" id="Turn-to-Player" style="stroke:#181818;stroke-width:1.0;"/><polygon fill="#181818" points="203.891,238.845,205.0741,229.0675,202.4239,234.0651,197.4263,231.4148,203.891,238.845" style="stroke:#181818;stroke-width:1.0;"/><text fill="#000000" font-family="sans-serif" font-size="13" lengthAdjust="spacing" textLength="8" x="193.0443" y="227.8173">2</text></g><!--MD5=[4ad96441c8a01d959d4bf4f2a5e1a798]
link Board to Square--><g id="link_Board_Square"><path codeLine="21" d="M50.3334,407.1477 C50.3334,407.1477 68.5663,508.343 76.0454,549.852 " fill="none" id="Board-Square" style="stroke:#181818;stroke-width:1.0;"/><polygon fill="#181818" points="78.3857,562.84,80.7271,553.2735,77.4994,557.9192,72.8537,554.6915,78.3857,562.84" style="stroke:#181818;stroke-width:1.0;"/><line style="stroke:#181818;stroke-width:1.0;" x1="77.4994" x2="76.0804" y1="557.9192" y2="550.0465"/><polygon fill="#181818" points="48.2051,395.338,45.3327,401.9523,50.3334,407.1477,53.2059,400.5334,48.2051,395.338" style="stroke:#181818;stroke-width:1.0;"/><text fill="#000000" font-family="sans-serif" font-size="13" lengthAdjust="spacing" textLength="24" x="50.7528" y="551.7101">6x7</text></g><!--MD5=[304335c530676c0c2555e056aeeb939b]
link Token to Color--><g id="link_Token_Color"><path codeLine="22" d="M420,619.03 C420,636.372 420,660.686 420,681.8025 " fill="none" id="Token-to-Color" style="stroke:#181818;stroke-width:1.0;"/><polygon fill="#181818" points="420,686.8142,424,677.8142,420,681.8142,416,677.8142,420,686.8142" style="stroke:#181818;stroke-width:1.0;"/></g><!--MD5=[6f432f55873de0427e3e2c379f7baca1]
reverse link 4InLineGoal to 4InRow--><g id="link_4InLineGoal_4InRow"><path codeLine="27" d="M291.048,407.635 C310.658,423.147 333.088,440.89 350.518,454.678 " fill="none" id="4InLineGoal-backto-4InRow" style="stroke:#181818;stroke-width:1.0;"/><polygon fill="none" points="286.419,412.899,275.076,395,295.105,401.919,286.419,412.899" style="stroke:#181818;stroke-width:1.0;"/></g><!--MD5=[99caf7ebc37c4e3218a129a7334a1e5e]
reverse link 4InLineGoal to 4InColunm--><g id="link_4InLineGoal_4InColunm"><path codeLine="28" d="M321.97,402.503 C364.987,419.775 417.753,440.961 456.427,456.489 " fill="none" id="4InLineGoal-backto-4InColunm" style="stroke:#181818;stroke-width:1.0;"/><polygon fill="none" points="319.236,408.948,303.284,395,324.452,395.957,319.236,408.948" style="stroke:#181818;stroke-width:1.0;"/></g><!--MD5=[30b24fcfb98994d099efb722048ea84c]
reverse link 4InLineGoal to 4InDiagonal--><g id="link_4InLineGoal_4InDiagonal"><path codeLine="29" d="M246,415.024 C246,428.579 246,443.038 246,454.678 " fill="none" id="4InLineGoal-backto-4InDiagonal" style="stroke:#181818;stroke-width:1.0;"/><polygon fill="none" points="239,415,246,395,253,415,239,415" style="stroke:#181818;stroke-width:1.0;"/></g><!--MD5=[cc9be1dc4e75d70a947802d19e5dc31b]
link Put to Token--><g id="link_Put_Token"><path codeLine="30" d="M153.473,494.863 C159.22,497.685 165.26,500.526 171,503 C241.63,533.448 326.151,562.921 376.331,579.717 " fill="none" id="Put-to-Token" style="stroke:#181818;stroke-width:1.0;"/><polygon fill="#181818" points="381.079,581.303,373.81,574.6576,376.3366,579.7189,371.2753,582.2455,381.079,581.303" style="stroke:#181818;stroke-width:1.0;"/></g><!--MD5=[81059af161f45272a1f1694a3968ab4e]
link 4InLineGoal to Put--><g id="link_4InLineGoal_Put"><path codeLine="34" d="M219.745,395 C200.848,411.555 175.305,433.931 155.502,451.279 " fill="none" id="4InLineGoal-to-Put" style="stroke:#181818;stroke-width:1.0;stroke-dasharray:7.0,7.0;"/><polygon fill="#181818" points="151.622,454.678,161.0279,451.7575,155.3834,451.3838,155.7571,445.7393,151.622,454.678" style="stroke:#181818;stroke-width:1.0;"/></g><!--MD5=[64599fce10dd7c679dcd3a48ff7ee77a]
@startuml
class Connect4
class Turn
class Board
class Player
class Square
class Token
class 4InLineGoal
class Color
class Turn{
activePlayer : Player
}
Connect4 *- -> Turn
Connect4 *- -> "2" Player
Connect4 *- -> Board
Player - -> 4InLineGoal
Player - -> Board
Player ..> Put
Put - -> Square
Player - -> "6x7/2"Token
Turn - ->"2" Player
Board *-> "6x7"Square
Token - -> Color
enum Color{
red
yellow
}
4InLineGoal <|-down- 4InRow
4InLineGoal <|-down- 4InColunm
4InLineGoal <|-down- 4InDiagonal
Put - -> Token
class Square{
empty : boolean
}
4InLineGoal ..> Put
@enduml

PlantUML version 1.2022.3beta2(Unknown compile time)
(GPL source distribution)
Java Runtime: Java(TM) SE Runtime Environment
JVM: Java HotSpot(TM) 64-Bit Server VM
Default Encoding: UTF-8
Language: en
Country: US
--></g></svg>