<?xml version="1.0" encoding="UTF-8" standalone="no"?><svg xmlns="http://www.w3.org/2000/svg" xmlns:xlink="http://www.w3.org/1999/xlink" contentStyleType="text/css" height="662px" preserveAspectRatio="none" style="width:773px;height:662px;background:#FFFFFF;" version="1.1" viewBox="0 0 773 662" width="773px" zoomAndPan="magnify"><defs/><g><rect height="26.2969" style="stroke:#00000000;stroke-width:1.0;fill:none;" width="327" x="216.4633" y="5"/><text fill="#000000" font-family="sans-serif" font-size="14" font-weight="bold" lengthAdjust="spacing" textLength="317" x="221.4633" y="22.9951">Card location with StateChart diagram</text><g id="elem_dealed"><polygon fill="#F1F1F1" points="549.9265,140.2969,561.9265,152.2969,549.9265,164.2969,537.9265,152.2969,549.9265,140.2969" style="stroke:#181818;stroke-width:0.5;"/></g><ellipse cx="549.9265" cy="53.2969" fill="#222222" rx="10" ry="10" style="stroke:none;stroke-width:1.0;"/><g id="CardInstock"><rect fill="#F1F1F1" height="50" rx="12.5" ry="12.5" style="stroke:#181818;stroke-width:0.5;" width="106" x="409.9265" y="225.2969"/><line style="stroke:#181818;stroke-width:0.5;" x1="409.9265" x2="515.9265" y1="251.5938" y2="251.5938"/><text fill="#000000" font-family="sans-serif" font-size="14" lengthAdjust="spacing" textLength="86" x="419.9265" y="243.292">CardInstock</text></g><g id="CardIntableau"><rect fill="#F1F1F1" height="50" rx="12.5" ry="12.5" style="stroke:#181818;stroke-width:0.5;" width="120" x="276.9265" y="606.2969"/><line style="stroke:#181818;stroke-width:0.5;" x1="276.9265" x2="396.9265" y1="632.5938" y2="632.5938"/><text fill="#000000" font-family="sans-serif" font-size="14" lengthAdjust="spacing" textLength="100" x="286.9265" y="624.292">CardIntableau</text></g><g id="CardInFoundation"><rect fill="#F1F1F1" height="50" rx="12.5" ry="12.5" style="stroke:#181818;stroke-width:0.5;" width="146" x="49.9265" y="479.2969"/><line style="stroke:#181818;stroke-width:0.5;" x1="49.9265" x2="195.9265" y1="505.5938" y2="505.5938"/><text fill="#000000" font-family="sans-serif" font-size="14" lengthAdjust="spacing" textLength="126" x="59.9265" y="497.292">CardInFoundation</text></g><g id="CardInWaste"><rect fill="#F1F1F1" height="50" rx="12.5" ry="12.5" style="stroke:#181818;stroke-width:0.5;" width="111" x="323.4265" y="352.2969"/><line style="stroke:#181818;stroke-width:0.5;" x1="323.4265" x2="434.4265" y1="378.5938" y2="378.5938"/><text fill="#000000" font-family="sans-serif" font-size="14" lengthAdjust="spacing" textLength="91" x="333.4265" y="370.292">CardInWaste</text></g><ellipse cx="17.9265" cy="631.2969" fill="none" rx="10" ry="10" style="stroke:#222222;stroke-width:1.0;"/><ellipse cx="18.4265" cy="631.7969" fill="#222222" rx="6" ry="6" style="stroke:none;stroke-width:1.0;"/><!--MD5=[44d0794c432c2055fbd7c5d08cd88e6e]
link *start to dealed--><g id="link_*start_dealed"><path d="M549.9265,63.5979 C549.9265,80.0519 549.9265,114.4839 549.9265,134.9689 " fill="none" id="*start-to-dealed" style="stroke:#181818;stroke-width:1.0;"/><polygon fill="#181818" points="549.9265,140.1029,553.9265,131.1029,549.9265,135.1029,545.9265,131.1029,549.9265,140.1029" style="stroke:#181818;stroke-width:1.0;"/><text fill="#000000" font-family="sans-serif" font-size="13" lengthAdjust="spacing" textLength="29" x="550.9265" y="106.3638">Deal</text></g><!--MD5=[bfa284960e328e962a743ae9261a5389]
link dealed to CardInstock--><g id="link_dealed_CardInstock"><path d="M544.4845,159.3019 C533.4875,171.4359 508.0035,199.5569 488.4255,221.1599 " fill="none" id="dealed-to-CardInstock" style="stroke:#181818;stroke-width:1.0;"/><polygon fill="#181818" points="484.8435,225.1129,493.8512,221.1302,488.2012,221.408,487.9234,215.758,484.8435,225.1129" style="stroke:#181818;stroke-width:1.0;"/></g><!--MD5=[29724ed2696024950777f03eb81ded8d]
link dealed to CardIntableau--><g id="link_dealed_CardIntableau"><path d="M553.8485,160.5229 C561.9805,176.2029 579.9265,214.7229 579.9265,249.2969 C579.9265,249.2969 579.9265,249.2969 579.9265,505.2969 C579.9265,585.4478 474.0945,614.2492 402.1155,624.569 " fill="none" id="dealed-to-CardIntableau" style="stroke:#181818;stroke-width:1.0;"/><polygon fill="#181818" points="396.9935,625.2805,406.4586,628.003,401.9459,624.5919,405.3569,620.0792,396.9935,625.2805" style="stroke:#181818;stroke-width:1.0;"/><text fill="#000000" font-family="sans-serif" font-size="13" lengthAdjust="spacing" textLength="185" x="580.9265" y="381.8638">[card is one of first 28 cards]</text></g><!--MD5=[e5e53f079f4c8e532f0e702d453dd5ae]
link CardIntableau to CardIntableau--><g id="link_CardIntableau_CardIntableau"><path d="M397.2265,619.6747 C416.5845,619.7939 431.9265,623.668 431.9265,631.2969 C431.9265,638.2106 419.3255,642.0405 402.5555,642.7865 " fill="none" id="CardIntableau-to-CardIntableau" style="stroke:#181818;stroke-width:1.0;"/><polygon fill="#181818" points="397.2265,642.9191,406.3232,646.6941,402.225,642.7948,406.1243,638.6966,397.2265,642.9191" style="stroke:#181818;stroke-width:1.0;"/><text fill="#000000" font-family="sans-serif" font-size="13" lengthAdjust="spacing" textLength="110" x="437.9265" y="635.8638">TableuToTableau</text></g><!--MD5=[ecb5c9a062345af69ca3c4aa0d9c19d1]
link CardIntableau to CardInFoundation--><g id="link_CardIntableau_CardInFoundation"><path d="M276.6915,626.5894 C206.8755,620.8886 98.1438,607.1944 72.9265,576.2969 C61.7733,562.6314 71.2587,546.6269 84.8474,533.2759 " fill="none" id="CardIntableau-to-CardInFoundation" style="stroke:#181818;stroke-width:1.0;"/><polygon fill="#181818" points="88.7751,529.5839,79.4771,532.8315,85.1312,533.0076,84.9551,538.6617,88.7751,529.5839" style="stroke:#181818;stroke-width:1.0;"/><text fill="#000000" font-family="sans-serif" font-size="13" lengthAdjust="spacing" textLength="138" x="73.9265" y="572.3638">TableauToFoundation</text></g><!--MD5=[a9c4923a4fcbb6ad09dea7d97be20bc6]
link CardInFoundation to CardIntableau--><g id="link_CardInFoundation_CardIntableau"><path d="M165.1065,529.3749 C181.3335,538.6779 200.0175,549.4379 216.9265,559.2969 C241.8245,573.8135 269.5205,590.1849 292.0255,603.5458 " fill="none" id="CardInFoundation-to-CardIntableau" style="stroke:#181818;stroke-width:1.0;"/><polygon fill="#181818" points="296.4545,606.1764,290.7604,598.1404,292.156,603.6224,286.674,605.018,296.4545,606.1764" style="stroke:#181818;stroke-width:1.0;"/><text fill="#000000" font-family="sans-serif" font-size="13" lengthAdjust="spacing" textLength="138" x="244.9265" y="572.3638">FoundationToTableau</text></g><!--MD5=[256cdbcfae363acf54c5954b58297578]
link CardInWaste to CardIntableau--><g id="link_CardInWaste_CardIntableau"><path d="M388.7825,402.3399 C392.0635,411.5459 395.2965,422.2499 396.9265,432.2969 C403.7675,474.4519 436.1065,476.5519 391.9265,576.2969 C387.6415,585.9703 380.7575,594.8192 373.2885,602.4303 " fill="none" id="CardInWaste-to-CardIntableau" style="stroke:#181818;stroke-width:1.0;"/><polygon fill="#181818" points="369.5835,606.0654,378.8093,602.6178,373.1527,602.5638,373.2067,596.9072,369.5835,606.0654" style="stroke:#181818;stroke-width:1.0;"/><text fill="#000000" font-family="sans-serif" font-size="13" lengthAdjust="spacing" textLength="106" x="415.9265" y="508.8638">wasteToTableau</text></g><!--MD5=[cbeaefd9bc4e20178409d9da18da60ff]
link CardInstock to CardInWaste--><g id="link_CardInstock_CardInWaste"><path d="M451.2015,275.3149 C443.9715,289.3969 434.1485,307.3089 423.9265,322.2969 C417.9585,331.0479 410.8645,340.0729 404.0945,348.1789 " fill="none" id="CardInstock-to-CardInWaste" style="stroke:#181818;stroke-width:1.0;"/><polygon fill="#181818" points="400.8025,352.0799,409.6635,347.7807,404.0269,348.2584,403.5491,342.6217,400.8025,352.0799" style="stroke:#181818;stroke-width:1.0;"/><text fill="#000000" font-family="sans-serif" font-size="13" lengthAdjust="spacing" textLength="92" x="435.9265" y="318.3638">StockToWaste</text></g><!--MD5=[e331e76deab492ca5263486c1ce16df5]
link CardInWaste to CardInstock--><g id="link_CardInWaste_CardInstock"><path d="M347.1955,352.2649 C332.9685,338.4929 321.4835,320.8979 331.9265,305.2969 C348.2875,280.8569 377.9385,267.4669 404.8985,260.1359 " fill="none" id="CardInWaste-to-CardInstock" style="stroke:#181818;stroke-width:1.0;"/><polygon fill="#181818" points="409.8975,258.8369,400.181,257.2279,405.0581,260.0939,402.1922,264.971,409.8975,258.8369" style="stroke:#181818;stroke-width:1.0;"/><text fill="#000000" font-family="sans-serif" font-size="13" lengthAdjust="spacing" textLength="82" x="332.9265" y="318.3638">recicleWaste</text></g><!--MD5=[d3f5f47797ea33fc51eff2c08006cd45]
link CardInWaste to CardInFoundation--><g id="link_CardInWaste_CardInFoundation"><path d="M326.2005,402.3859 C306.3015,411.5979 283.5045,422.2929 262.9265,432.2969 C233.2695,446.7149 200.3715,463.3649 173.9215,476.9159 " fill="none" id="CardInWaste-to-CardInFoundation" style="stroke:#181818;stroke-width:1.0;"/><polygon fill="#181818" points="169.3975,479.2359,179.2311,478.6869,173.8463,476.9537,175.5795,471.5689,169.3975,479.2359" style="stroke:#181818;stroke-width:1.0;"/><text fill="#000000" font-family="sans-serif" font-size="13" lengthAdjust="spacing" textLength="128" x="263.9265" y="445.3638">WasteToFoundation</text></g><!--MD5=[9385b8b3ff4c23eed56d5a3e7d839fab]
link CardInFoundation to *end--><g id="link_CardInFoundation_*end"><path d="M73.5273,529.5059 C61.1332,537.5389 48.8412,547.5029 39.9265,559.2969 C27.175,576.1673 21.7338,600.533 19.469,615.8849 " fill="none" id="CardInFoundation-to-*end" style="stroke:#181818;stroke-width:1.0;"/><polygon fill="#181818" points="18.7707,621.1025,23.9293,612.7127,19.434,616.1467,16,611.6514,18.7707,621.1025" style="stroke:#181818;stroke-width:1.0;"/></g><!--MD5=[d6070ac2c985c81f9bee5bb00bd68f72]
@startuml
title Card location with StateChart diagram
state dealed  <<choice>>
[*] - -> dealed : Deal
dealed - -> CardInstock 
dealed - -> CardIntableau : [card is one of first 28 cards]
CardIntableau -down-> CardIntableau : TableuToTableau
CardIntableau -down-> CardInFoundation :TableauToFoundation
CardInFoundation -down-> CardIntableau :FoundationToTableau
CardInWaste -down-> CardIntableau :wasteToTableau
CardInstock -down-> CardInWaste :StockToWaste
CardInWaste -down-> CardInstock :recicleWaste
CardInWaste -down-> CardInFoundation :WasteToFoundation
CardInFoundation - -> [*]
@enduml

PlantUML version 1.2022.3beta2(Unknown compile time)
(GPL source distribution)
Java Runtime: Java(TM) SE Runtime Environment
JVM: Java HotSpot(TM) 64-Bit Server VM
Default Encoding: UTF-8
Language: en
Country: US
--></g></svg>