<?xml version="1.0" encoding="UTF-8" standalone="no"?><svg xmlns="http://www.w3.org/2000/svg" xmlns:xlink="http://www.w3.org/1999/xlink" contentStyleType="text/css" height="632px" preserveAspectRatio="none" style="width:459px;height:632px;background:#FFFFFF;" version="1.1" viewBox="0 0 459 632" width="459px" zoomAndPan="magnify"><defs/><g><rect height="26.2969" style="stroke:#00000000;stroke-width:1.0;fill:none;" width="185" x="130.25" y="5"/><text fill="#000000" font-family="sans-serif" font-size="14" font-weight="bold" lengthAdjust="spacing" textLength="175" x="135.25" y="22.9951">Klondike game states</text><ellipse cx="145.5" cy="53.2969" fill="#222222" rx="10" ry="10" style="stroke:none;stroke-width:1.0;"/><g id="INITIAL_STATE"><rect fill="#F1F1F1" height="50" rx="12.5" ry="12.5" style="stroke:#181818;stroke-width:0.5;" width="122" x="84.5" y="140.2969"/><line style="stroke:#181818;stroke-width:0.5;" x1="84.5" x2="206.5" y1="166.5938" y2="166.5938"/><text fill="#000000" font-family="sans-serif" font-size="14" lengthAdjust="spacing" textLength="102" x="94.5" y="158.292">INITIAL_STATE</text></g><g id="."><rect fill="#F1F1F1" height="50" rx="12.5" ry="12.5" style="stroke:#181818;stroke-width:0.5;" width="50" x="120.5" y="267.2969"/><line style="stroke:#181818;stroke-width:0.5;" x1="120.5" x2="170.5" y1="293.5938" y2="293.5938"/><text fill="#000000" font-family="sans-serif" font-size="14" lengthAdjust="spacing" textLength="5" x="143" y="285.292">.</text></g><g id="elem_afterMove"><polygon fill="#F1F1F1" points="145.5,394.2969,157.5,406.2969,145.5,418.2969,133.5,406.2969,145.5,394.2969" style="stroke:#181818;stroke-width:0.5;"/></g><g id="PLAYER_WINS"><rect fill="#F1F1F1" height="50" rx="12.5" ry="12.5" style="stroke:#181818;stroke-width:0.5;" width="119" x="7" y="495.2969"/><line style="stroke:#181818;stroke-width:0.5;" x1="7" x2="126" y1="521.5938" y2="521.5938"/><text fill="#000000" font-family="sans-serif" font-size="14" lengthAdjust="spacing" textLength="99" x="17" y="513.292">PLAYER_WINS</text></g><g id="PLAYER_LOSES"><rect fill="#F1F1F1" height="50" rx="12.5" ry="12.5" style="stroke:#181818;stroke-width:0.5;" width="128" x="169.5" y="495.2969"/><line style="stroke:#181818;stroke-width:0.5;" x1="169.5" x2="297.5" y1="521.5938" y2="521.5938"/><text fill="#000000" font-family="sans-serif" font-size="14" lengthAdjust="spacing" textLength="108" x="179.5" y="513.292">PLAYER_LOSES</text></g><ellipse cx="165.5" cy="616.2969" fill="none" rx="10" ry="10" style="stroke:#222222;stroke-width:1.0;"/><ellipse cx="166" cy="616.7969" fill="#222222" rx="6" ry="6" style="stroke:none;stroke-width:1.0;"/><!--MD5=[e8728b367a720fc094b25888f2962bca]
link *start to INITIAL_STATE--><g id="link_*start_INITIAL_STATE"><path d="M145.5,63.2989 C145.5,78.7549 145.5,110.9819 145.5,134.8969 " fill="none" id="*start-to-INITIAL_STATE" style="stroke:#181818;stroke-width:1.0;"/><polygon fill="#181818" points="145.5,140.1699,149.5,131.1699,145.5,135.1699,141.5,131.1699,145.5,140.1699" style="stroke:#181818;stroke-width:1.0;"/><text fill="#000000" font-family="sans-serif" font-size="13" lengthAdjust="spacing" textLength="29" x="146.5" y="106.3638">Deal</text></g><!--MD5=[0b74f610ee1b74a5bbfa88b965b79ecf]
link INITIAL_STATE to .--><g id="link_INITIAL_STATE_."><path d="M145.5,190.3979 C145.5,210.8899 145.5,240.3729 145.5,262.1809 " fill="none" id="INITIAL_STATE-to-." style="stroke:#181818;stroke-width:1.0;"/><polygon fill="#181818" points="145.5,267.2699,149.5,258.2699,145.5,262.2699,141.5,258.2699,145.5,267.2699" style="stroke:#181818;stroke-width:1.0;"/><text fill="#000000" font-family="sans-serif" font-size="13" lengthAdjust="spacing" textLength="88" x="146.5" y="233.3638">Player moves</text></g><!--MD5=[704eb2c9e363cb5142e991b5d090ddca]
link . to afterMove--><g id="link_._afterMove"><path d="M120.223,307.1919 C99.3589,320.6219 74.916,342.1409 86.5,364.2969 C96.0737,382.6079 117.962,394.3889 132.219,400.4239 " fill="none" id=".-to-afterMove" style="stroke:#181818;stroke-width:1.0;"/><polygon fill="#181818" points="137.09,402.3889,130.2391,395.3132,132.4529,400.5189,127.2471,402.7326,137.09,402.3889" style="stroke:#181818;stroke-width:1.0;"/><text fill="#000000" font-family="sans-serif" font-size="13" lengthAdjust="spacing" textLength="88" x="87.5" y="360.3638">Player moves</text></g><!--MD5=[853b4565d658817dc0cd84064bdd209f]
link afterMove to .--><g id="link_afterMove_."><path d="M151.948,400.3149 C160.395,393.3349 174.801,379.7509 180.5,364.2969 C183.114,357.2079 182.643,354.5419 180.5,347.2969 C177.854,338.3479 173.208,329.4899 168.149,321.6159 " fill="none" id="afterMove-to-." style="stroke:#181818;stroke-width:1.0;"/><polygon fill="#181818" points="165.306,317.3479,166.9678,327.0555,168.0785,321.5088,173.6253,322.6195,165.306,317.3479" style="stroke:#181818;stroke-width:1.0;"/></g><!--MD5=[fd04d7098b5c9a39167b67e1eebaa20d]
link afterMove to PLAYER_WINS--><g id="link_afterMove_PLAYER_WINS"><path d="M135.073,408.0019 C114.028,410.0529 66.7582,417.9799 46.5,448.2969 C38.126,460.8289 41.6792,476.8449 47.9626,490.4919 " fill="none" id="afterMove-to-PLAYER_WINS" style="stroke:#181818;stroke-width:1.0;"/><polygon fill="#181818" points="50.1848,495.0219,49.8108,485.1801,47.982,490.5332,42.6289,488.7045,50.1848,495.0219" style="stroke:#181818;stroke-width:1.0;"/><text fill="#000000" font-family="sans-serif" font-size="13" lengthAdjust="spacing" textLength="151" x="47.5" y="461.3638">[AllCardsInFoundations]</text></g><!--MD5=[e5d0e10ff2c7264050b1e002bc760f0d]
link afterMove to PLAYER_LOSES--><g id="link_afterMove_PLAYER_LOSES"><path d="M153.307,411.0069 C165.536,417.1729 189.275,430.6199 203.5,448.2969 C213.363,460.5529 220.494,476.5259 225.322,490.2169 " fill="none" id="afterMove-to-PLAYER_LOSES" style="stroke:#181818;stroke-width:1.0;"/><polygon fill="#181818" points="226.997,495.1459,227.8854,485.3372,225.3867,490.4123,220.3116,487.9136,226.997,495.1459" style="stroke:#181818;stroke-width:1.0;"/><text fill="#000000" font-family="sans-serif" font-size="13" lengthAdjust="spacing" textLength="236" x="215.5" y="461.3638">[Player cant make any more moves]</text></g><!--MD5=[4a8789bddc5b45dac5a2fbbbcb65832f]
link PLAYER_LOSES to *end--><g id="link_PLAYER_LOSES_*end"><path d="M215.988,545.5042 C202.579,564.0402 184.656,588.8168 174.166,603.3174 " fill="none" id="PLAYER_LOSES-to-*end" style="stroke:#181818;stroke-width:1.0;"/><polygon fill="#181818" points="171.162,607.4693,179.6778,602.5214,174.0924,603.418,173.1958,597.8327,171.162,607.4693" style="stroke:#181818;stroke-width:1.0;"/></g><!--MD5=[306d36c84d708d2543fa54b2db9d1396]
link PLAYER_WINS to *end--><g id="link_PLAYER_WINS_*end"><path d="M91.995,545.5042 C112.314,564.7967 139.752,590.8495 154.698,605.0402 " fill="none" id="PLAYER_WINS-to-*end" style="stroke:#181818;stroke-width:1.0;"/><polygon fill="#181818" points="158.566,608.7127,154.7936,599.6149,154.9401,605.2699,149.2851,605.4164,158.566,608.7127" style="stroke:#181818;stroke-width:1.0;"/></g><!--MD5=[090d61c295710d188459eefe5e1cb11e]
@startuml
title Klondike game states
[*] - -> INITIAL_STATE : Deal
INITIAL_STATE - -> . : Player moves
state afterMove  <<choice>>
. - -> afterMove : Player moves
afterMove - -> PLAYER_WINS : [AllCardsInFoundations]
afterMove - -> PLAYER_LOSES : [Player cant make any more moves]
afterMove - -> .
PLAYER_LOSES - -> [*]
PLAYER_WINS - -> [*]
@enduml

PlantUML version 1.2022.3beta2(Unknown compile time)
(GPL source distribution)
Java Runtime: Java(TM) SE Runtime Environment
JVM: Java HotSpot(TM) 64-Bit Server VM
Default Encoding: UTF-8
Language: en
Country: US
--></g></svg>