<?xml version="1.0" encoding="UTF-8" standalone="no"?><svg xmlns="http://www.w3.org/2000/svg" xmlns:xlink="http://www.w3.org/1999/xlink" contentStyleType="text/css" height="1078px" preserveAspectRatio="none" style="width:1003px;height:1078px;background:#FFFFFF;" version="1.1" viewBox="0 0 1003 1078" width="1003px" zoomAndPan="magnify"><defs/><g><!--MD5=[ce135f397e71694d574a1221b16fe9d6]
class Klondike--><g id="elem_Klondike"><rect codeLine="1" fill="#F1F1F1" height="48" id="Klondike" rx="2.5" ry="2.5" style="stroke:#181818;stroke-width:0.5;" width="95" x="493.5" y="7"/><ellipse cx="508.5" cy="23" fill="#ADD1B2" rx="11" ry="11" style="stroke:#181818;stroke-width:1.0;"/><path d="M510.8438,18.6719 C509.9063,18.2344 509.3125,18.0938 508.4375,18.0938 C505.8125,18.0938 503.8125,20.1719 503.8125,22.8906 L503.8125,24.0156 C503.8125,26.5938 505.9219,28.4844 508.8125,28.4844 C510.0313,28.4844 511.1875,28.1875 511.9375,27.6406 C512.5156,27.2344 512.8438,26.7813 512.8438,26.3906 C512.8438,25.9375 512.4531,25.5469 511.9844,25.5469 C511.7656,25.5469 511.5625,25.625 511.375,25.8125 C510.9219,26.2969 510.9219,26.2969 510.7344,26.3906 C510.3125,26.6563 509.625,26.7813 508.8594,26.7813 C506.8125,26.7813 505.5156,25.6875 505.5156,23.9844 L505.5156,22.8906 C505.5156,21.1094 506.7656,19.7969 508.5,19.7969 C509.0781,19.7969 509.6875,19.9531 510.1563,20.2031 C510.6406,20.4844 510.8125,20.7031 510.9063,21.1094 C510.9688,21.5156 511,21.6406 511.1406,21.7656 C511.2813,21.9063 511.5156,22.0156 511.7344,22.0156 C512,22.0156 512.2656,21.875 512.4375,21.6563 C512.5469,21.5 512.5781,21.3125 512.5781,20.8906 L512.5781,19.4688 C512.5781,19.0313 512.5625,18.9063 512.4688,18.75 C512.3125,18.4844 512.0313,18.3438 511.7344,18.3438 C511.4375,18.3438 511.2344,18.4375 511.0156,18.75 L510.8438,18.6719 Z " fill="#000000"/><text fill="#000000" font-family="sans-serif" font-size="14" lengthAdjust="spacing" textLength="63" x="522.5" y="27.8467">Klondike</text><line style="stroke:#181818;stroke-width:0.5;" x1="494.5" x2="587.5" y1="39" y2="39"/><line style="stroke:#181818;stroke-width:0.5;" x1="494.5" x2="587.5" y1="47" y2="47"/></g><!--MD5=[2cb47ba637a0d19583e6199456f6ad0b]
class Player--><g id="elem_Player"><rect fill="#F1F1F1" height="48" id="Player" rx="2.5" ry="2.5" style="stroke:#181818;stroke-width:0.5;" width="76" x="412" y="116"/><ellipse cx="427" cy="132" fill="#ADD1B2" rx="11" ry="11" style="stroke:#181818;stroke-width:1.0;"/><path d="M429.3438,127.6719 C428.4063,127.2344 427.8125,127.0938 426.9375,127.0938 C424.3125,127.0938 422.3125,129.1719 422.3125,131.8906 L422.3125,133.0156 C422.3125,135.5938 424.4219,137.4844 427.3125,137.4844 C428.5313,137.4844 429.6875,137.1875 430.4375,136.6406 C431.0156,136.2344 431.3438,135.7813 431.3438,135.3906 C431.3438,134.9375 430.9531,134.5469 430.4844,134.5469 C430.2656,134.5469 430.0625,134.625 429.875,134.8125 C429.4219,135.2969 429.4219,135.2969 429.2344,135.3906 C428.8125,135.6563 428.125,135.7813 427.3594,135.7813 C425.3125,135.7813 424.0156,134.6875 424.0156,132.9844 L424.0156,131.8906 C424.0156,130.1094 425.2656,128.7969 427,128.7969 C427.5781,128.7969 428.1875,128.9531 428.6563,129.2031 C429.1406,129.4844 429.3125,129.7031 429.4063,130.1094 C429.4688,130.5156 429.5,130.6406 429.6406,130.7656 C429.7813,130.9063 430.0156,131.0156 430.2344,131.0156 C430.5,131.0156 430.7656,130.875 430.9375,130.6563 C431.0469,130.5 431.0781,130.3125 431.0781,129.8906 L431.0781,128.4688 C431.0781,128.0313 431.0625,127.9063 430.9688,127.75 C430.8125,127.4844 430.5313,127.3438 430.2344,127.3438 C429.9375,127.3438 429.7344,127.4375 429.5156,127.75 L429.3438,127.6719 Z " fill="#000000"/><text fill="#000000" font-family="sans-serif" font-size="14" lengthAdjust="spacing" textLength="44" x="441" y="136.8467">Player</text><line style="stroke:#181818;stroke-width:0.5;" x1="413" x2="487" y1="148" y2="148"/><line style="stroke:#181818;stroke-width:0.5;" x1="413" x2="487" y1="156" y2="156"/></g><!--MD5=[5e305716458bbdabbd2d7f572ed2bae2]
class Card--><g id="elem_Card"><rect codeLine="18" fill="#F1F1F1" height="64.2969" id="Card" rx="2.5" ry="2.5" style="stroke:#181818;stroke-width:0.5;" width="132" x="701" y="428"/><ellipse cx="746.25" cy="444" fill="#ADD1B2" rx="11" ry="11" style="stroke:#181818;stroke-width:1.0;"/><path d="M748.5938,439.6719 C747.6563,439.2344 747.0625,439.0938 746.1875,439.0938 C743.5625,439.0938 741.5625,441.1719 741.5625,443.8906 L741.5625,445.0156 C741.5625,447.5938 743.6719,449.4844 746.5625,449.4844 C747.7813,449.4844 748.9375,449.1875 749.6875,448.6406 C750.2656,448.2344 750.5938,447.7813 750.5938,447.3906 C750.5938,446.9375 750.2031,446.5469 749.7344,446.5469 C749.5156,446.5469 749.3125,446.625 749.125,446.8125 C748.6719,447.2969 748.6719,447.2969 748.4844,447.3906 C748.0625,447.6563 747.375,447.7813 746.6094,447.7813 C744.5625,447.7813 743.2656,446.6875 743.2656,444.9844 L743.2656,443.8906 C743.2656,442.1094 744.5156,440.7969 746.25,440.7969 C746.8281,440.7969 747.4375,440.9531 747.9063,441.2031 C748.3906,441.4844 748.5625,441.7031 748.6563,442.1094 C748.7188,442.5156 748.75,442.6406 748.8906,442.7656 C749.0313,442.9063 749.2656,443.0156 749.4844,443.0156 C749.75,443.0156 750.0156,442.875 750.1875,442.6563 C750.2969,442.5 750.3281,442.3125 750.3281,441.8906 L750.3281,440.4688 C750.3281,440.0313 750.3125,439.9063 750.2188,439.75 C750.0625,439.4844 749.7813,439.3438 749.4844,439.3438 C749.1875,439.3438 748.9844,439.4375 748.7656,439.75 L748.5938,439.6719 Z " fill="#000000"/><text fill="#000000" font-family="sans-serif" font-size="14" lengthAdjust="spacing" textLength="33" x="766.75" y="448.8467">Card</text><line style="stroke:#181818;stroke-width:0.5;" x1="702" x2="832" y1="460" y2="460"/><text fill="#000000" font-family="sans-serif" font-size="14" lengthAdjust="spacing" textLength="120" x="707" y="476.9951">faceup : boolean</text><line style="stroke:#181818;stroke-width:0.5;" x1="702" x2="832" y1="484.2969" y2="484.2969"/></g><!--MD5=[a4cb0f987c11031dc931233a0e7767af]
class Stock--><g id="elem_Stock"><rect fill="#F1F1F1" height="48" id="Stock" rx="2.5" ry="2.5" style="stroke:#181818;stroke-width:0.5;" width="74" x="9" y="577.5"/><ellipse cx="24" cy="593.5" fill="#ADD1B2" rx="11" ry="11" style="stroke:#181818;stroke-width:1.0;"/><path d="M26.3438,589.1719 C25.4063,588.7344 24.8125,588.5938 23.9375,588.5938 C21.3125,588.5938 19.3125,590.6719 19.3125,593.3906 L19.3125,594.5156 C19.3125,597.0938 21.4219,598.9844 24.3125,598.9844 C25.5313,598.9844 26.6875,598.6875 27.4375,598.1406 C28.0156,597.7344 28.3438,597.2813 28.3438,596.8906 C28.3438,596.4375 27.9531,596.0469 27.4844,596.0469 C27.2656,596.0469 27.0625,596.125 26.875,596.3125 C26.4219,596.7969 26.4219,596.7969 26.2344,596.8906 C25.8125,597.1563 25.125,597.2813 24.3594,597.2813 C22.3125,597.2813 21.0156,596.1875 21.0156,594.4844 L21.0156,593.3906 C21.0156,591.6094 22.2656,590.2969 24,590.2969 C24.5781,590.2969 25.1875,590.4531 25.6563,590.7031 C26.1406,590.9844 26.3125,591.2031 26.4063,591.6094 C26.4688,592.0156 26.5,592.1406 26.6406,592.2656 C26.7813,592.4063 27.0156,592.5156 27.2344,592.5156 C27.5,592.5156 27.7656,592.375 27.9375,592.1563 C28.0469,592 28.0781,591.8125 28.0781,591.3906 L28.0781,589.9688 C28.0781,589.5313 28.0625,589.4063 27.9688,589.25 C27.8125,588.9844 27.5313,588.8438 27.2344,588.8438 C26.9375,588.8438 26.7344,588.9375 26.5156,589.25 L26.3438,589.1719 Z " fill="#000000"/><text fill="#000000" font-family="sans-serif" font-size="14" lengthAdjust="spacing" textLength="42" x="38" y="598.3467">Stock</text><line style="stroke:#181818;stroke-width:0.5;" x1="10" x2="82" y1="609.5" y2="609.5"/><line style="stroke:#181818;stroke-width:0.5;" x1="10" x2="82" y1="617.5" y2="617.5"/></g><!--MD5=[c3c256aac7e3870d53c0042288b21bdc]
class Waste--><g id="elem_Waste"><rect fill="#F1F1F1" height="48" id="Waste" rx="2.5" ry="2.5" style="stroke:#181818;stroke-width:0.5;" width="77" x="443.5" y="577.5"/><ellipse cx="458.5" cy="593.5" fill="#ADD1B2" rx="11" ry="11" style="stroke:#181818;stroke-width:1.0;"/><path d="M460.8438,589.1719 C459.9063,588.7344 459.3125,588.5938 458.4375,588.5938 C455.8125,588.5938 453.8125,590.6719 453.8125,593.3906 L453.8125,594.5156 C453.8125,597.0938 455.9219,598.9844 458.8125,598.9844 C460.0313,598.9844 461.1875,598.6875 461.9375,598.1406 C462.5156,597.7344 462.8438,597.2813 462.8438,596.8906 C462.8438,596.4375 462.4531,596.0469 461.9844,596.0469 C461.7656,596.0469 461.5625,596.125 461.375,596.3125 C460.9219,596.7969 460.9219,596.7969 460.7344,596.8906 C460.3125,597.1563 459.625,597.2813 458.8594,597.2813 C456.8125,597.2813 455.5156,596.1875 455.5156,594.4844 L455.5156,593.3906 C455.5156,591.6094 456.7656,590.2969 458.5,590.2969 C459.0781,590.2969 459.6875,590.4531 460.1563,590.7031 C460.6406,590.9844 460.8125,591.2031 460.9063,591.6094 C460.9688,592.0156 461,592.1406 461.1406,592.2656 C461.2813,592.4063 461.5156,592.5156 461.7344,592.5156 C462,592.5156 462.2656,592.375 462.4375,592.1563 C462.5469,592 462.5781,591.8125 462.5781,591.3906 L462.5781,589.9688 C462.5781,589.5313 462.5625,589.4063 462.4688,589.25 C462.3125,588.9844 462.0313,588.8438 461.7344,588.8438 C461.4375,588.8438 461.2344,588.9375 461.0156,589.25 L460.8438,589.1719 Z " fill="#000000"/><text fill="#000000" font-family="sans-serif" font-size="14" lengthAdjust="spacing" textLength="45" x="472.5" y="598.3467">Waste</text><line style="stroke:#181818;stroke-width:0.5;" x1="444.5" x2="519.5" y1="609.5" y2="609.5"/><line style="stroke:#181818;stroke-width:0.5;" x1="444.5" x2="519.5" y1="617.5" y2="617.5"/></g><!--MD5=[c033d16283544a66478df33ee92fe5a6]
class Tableau--><g id="elem_Tableau"><rect fill="#F1F1F1" height="48" id="Tableau" rx="2.5" ry="2.5" style="stroke:#181818;stroke-width:0.5;" width="88" x="568" y="577.5"/><ellipse cx="583" cy="593.5" fill="#ADD1B2" rx="11" ry="11" style="stroke:#181818;stroke-width:1.0;"/><path d="M585.3438,589.1719 C584.4063,588.7344 583.8125,588.5938 582.9375,588.5938 C580.3125,588.5938 578.3125,590.6719 578.3125,593.3906 L578.3125,594.5156 C578.3125,597.0938 580.4219,598.9844 583.3125,598.9844 C584.5313,598.9844 585.6875,598.6875 586.4375,598.1406 C587.0156,597.7344 587.3438,597.2813 587.3438,596.8906 C587.3438,596.4375 586.9531,596.0469 586.4844,596.0469 C586.2656,596.0469 586.0625,596.125 585.875,596.3125 C585.4219,596.7969 585.4219,596.7969 585.2344,596.8906 C584.8125,597.1563 584.125,597.2813 583.3594,597.2813 C581.3125,597.2813 580.0156,596.1875 580.0156,594.4844 L580.0156,593.3906 C580.0156,591.6094 581.2656,590.2969 583,590.2969 C583.5781,590.2969 584.1875,590.4531 584.6563,590.7031 C585.1406,590.9844 585.3125,591.2031 585.4063,591.6094 C585.4688,592.0156 585.5,592.1406 585.6406,592.2656 C585.7813,592.4063 586.0156,592.5156 586.2344,592.5156 C586.5,592.5156 586.7656,592.375 586.9375,592.1563 C587.0469,592 587.0781,591.8125 587.0781,591.3906 L587.0781,589.9688 C587.0781,589.5313 587.0625,589.4063 586.9688,589.25 C586.8125,588.9844 586.5313,588.8438 586.2344,588.8438 C585.9375,588.8438 585.7344,588.9375 585.5156,589.25 L585.3438,589.1719 Z " fill="#000000"/><text fill="#000000" font-family="sans-serif" font-size="14" lengthAdjust="spacing" textLength="56" x="597" y="598.3467">Tableau</text><line style="stroke:#181818;stroke-width:0.5;" x1="569" x2="655" y1="609.5" y2="609.5"/><line style="stroke:#181818;stroke-width:0.5;" x1="569" x2="655" y1="617.5" y2="617.5"/></g><!--MD5=[d01ad859d436f6e28b36a553834670aa]
class Foundation--><g id="elem_Foundation"><rect fill="#F1F1F1" height="48" id="Foundation" rx="2.5" ry="2.5" style="stroke:#181818;stroke-width:0.5;" width="112" x="158" y="577.5"/><ellipse cx="173" cy="593.5" fill="#ADD1B2" rx="11" ry="11" style="stroke:#181818;stroke-width:1.0;"/><path d="M175.3438,589.1719 C174.4063,588.7344 173.8125,588.5938 172.9375,588.5938 C170.3125,588.5938 168.3125,590.6719 168.3125,593.3906 L168.3125,594.5156 C168.3125,597.0938 170.4219,598.9844 173.3125,598.9844 C174.5313,598.9844 175.6875,598.6875 176.4375,598.1406 C177.0156,597.7344 177.3438,597.2813 177.3438,596.8906 C177.3438,596.4375 176.9531,596.0469 176.4844,596.0469 C176.2656,596.0469 176.0625,596.125 175.875,596.3125 C175.4219,596.7969 175.4219,596.7969 175.2344,596.8906 C174.8125,597.1563 174.125,597.2813 173.3594,597.2813 C171.3125,597.2813 170.0156,596.1875 170.0156,594.4844 L170.0156,593.3906 C170.0156,591.6094 171.2656,590.2969 173,590.2969 C173.5781,590.2969 174.1875,590.4531 174.6563,590.7031 C175.1406,590.9844 175.3125,591.2031 175.4063,591.6094 C175.4688,592.0156 175.5,592.1406 175.6406,592.2656 C175.7813,592.4063 176.0156,592.5156 176.2344,592.5156 C176.5,592.5156 176.7656,592.375 176.9375,592.1563 C177.0469,592 177.0781,591.8125 177.0781,591.3906 L177.0781,589.9688 C177.0781,589.5313 177.0625,589.4063 176.9688,589.25 C176.8125,588.9844 176.5313,588.8438 176.2344,588.8438 C175.9375,588.8438 175.7344,588.9375 175.5156,589.25 L175.3438,589.1719 Z " fill="#000000"/><text fill="#000000" font-family="sans-serif" font-size="14" lengthAdjust="spacing" textLength="80" x="187" y="598.3467">Foundation</text><line style="stroke:#181818;stroke-width:0.5;" x1="159" x2="269" y1="609.5" y2="609.5"/><line style="stroke:#181818;stroke-width:0.5;" x1="159" x2="269" y1="617.5" y2="617.5"/></g><!--MD5=[fe139ee4e479f23285df0f8136f9d541]
class Deal--><g id="elem_Deal"><rect fill="#F1F1F1" height="48" id="Deal" rx="2.5" ry="2.5" style="stroke:#181818;stroke-width:0.5;" width="64" x="758" y="194"/><ellipse cx="773" cy="210" fill="#ADD1B2" rx="11" ry="11" style="stroke:#181818;stroke-width:1.0;"/><path d="M775.3438,205.6719 C774.4063,205.2344 773.8125,205.0938 772.9375,205.0938 C770.3125,205.0938 768.3125,207.1719 768.3125,209.8906 L768.3125,211.0156 C768.3125,213.5938 770.4219,215.4844 773.3125,215.4844 C774.5313,215.4844 775.6875,215.1875 776.4375,214.6406 C777.0156,214.2344 777.3438,213.7813 777.3438,213.3906 C777.3438,212.9375 776.9531,212.5469 776.4844,212.5469 C776.2656,212.5469 776.0625,212.625 775.875,212.8125 C775.4219,213.2969 775.4219,213.2969 775.2344,213.3906 C774.8125,213.6563 774.125,213.7813 773.3594,213.7813 C771.3125,213.7813 770.0156,212.6875 770.0156,210.9844 L770.0156,209.8906 C770.0156,208.1094 771.2656,206.7969 773,206.7969 C773.5781,206.7969 774.1875,206.9531 774.6563,207.2031 C775.1406,207.4844 775.3125,207.7031 775.4063,208.1094 C775.4688,208.5156 775.5,208.6406 775.6406,208.7656 C775.7813,208.9063 776.0156,209.0156 776.2344,209.0156 C776.5,209.0156 776.7656,208.875 776.9375,208.6563 C777.0469,208.5 777.0781,208.3125 777.0781,207.8906 L777.0781,206.4688 C777.0781,206.0313 777.0625,205.9063 776.9688,205.75 C776.8125,205.4844 776.5313,205.3438 776.2344,205.3438 C775.9375,205.3438 775.7344,205.4375 775.5156,205.75 L775.3438,205.6719 Z " fill="#000000"/><text fill="#000000" font-family="sans-serif" font-size="14" lengthAdjust="spacing" textLength="32" x="787" y="214.8467">Deal</text><line style="stroke:#181818;stroke-width:0.5;" x1="759" x2="821" y1="226" y2="226"/><line style="stroke:#181818;stroke-width:0.5;" x1="759" x2="821" y1="234" y2="234"/></g><!--MD5=[8afaa0cc9be9ac1cdc24999fa1642fa3]
class Suit--><g id="elem_Suit"><rect codeLine="32" fill="#F1F1F1" height="48" id="Suit" rx="2.5" ry="2.5" style="stroke:#181818;stroke-width:0.5;" width="60" x="800" y="577.5"/><ellipse cx="815" cy="593.5" fill="#ADD1B2" rx="11" ry="11" style="stroke:#181818;stroke-width:1.0;"/><path d="M817.3438,589.1719 C816.4063,588.7344 815.8125,588.5938 814.9375,588.5938 C812.3125,588.5938 810.3125,590.6719 810.3125,593.3906 L810.3125,594.5156 C810.3125,597.0938 812.4219,598.9844 815.3125,598.9844 C816.5313,598.9844 817.6875,598.6875 818.4375,598.1406 C819.0156,597.7344 819.3438,597.2813 819.3438,596.8906 C819.3438,596.4375 818.9531,596.0469 818.4844,596.0469 C818.2656,596.0469 818.0625,596.125 817.875,596.3125 C817.4219,596.7969 817.4219,596.7969 817.2344,596.8906 C816.8125,597.1563 816.125,597.2813 815.3594,597.2813 C813.3125,597.2813 812.0156,596.1875 812.0156,594.4844 L812.0156,593.3906 C812.0156,591.6094 813.2656,590.2969 815,590.2969 C815.5781,590.2969 816.1875,590.4531 816.6563,590.7031 C817.1406,590.9844 817.3125,591.2031 817.4063,591.6094 C817.4688,592.0156 817.5,592.1406 817.6406,592.2656 C817.7813,592.4063 818.0156,592.5156 818.2344,592.5156 C818.5,592.5156 818.7656,592.375 818.9375,592.1563 C819.0469,592 819.0781,591.8125 819.0781,591.3906 L819.0781,589.9688 C819.0781,589.5313 819.0625,589.4063 818.9688,589.25 C818.8125,588.9844 818.5313,588.8438 818.2344,588.8438 C817.9375,588.8438 817.7344,588.9375 817.5156,589.25 L817.3438,589.1719 Z " fill="#000000"/><text fill="#000000" font-family="sans-serif" font-size="14" lengthAdjust="spacing" textLength="28" x="829" y="598.3467">Suit</text><line style="stroke:#181818;stroke-width:0.5;" x1="801" x2="859" y1="609.5" y2="609.5"/><line style="stroke:#181818;stroke-width:0.5;" x1="801" x2="859" y1="617.5" y2="617.5"/></g><!--MD5=[0f690a215a17a0cf4b9f948ca5dd1b3e]
class Rank--><g id="elem_Rank"><rect codeLine="12" fill="#F1F1F1" height="96.8906" id="Rank" rx="2.5" ry="2.5" style="stroke:#181818;stroke-width:0.5;" width="68" x="697" y="553"/><ellipse cx="712" cy="569" fill="#EB937F" rx="11" ry="11" style="stroke:#181818;stroke-width:1.0;"/><path d="M710.7969,569.875 L712.25,569.875 L712.25,569.9844 C712.25,570.3906 712.2813,570.5469 712.3594,570.7031 C712.5156,570.9531 712.7969,571.1094 713.0938,571.1094 C713.3438,571.1094 713.6094,570.9688 713.7656,570.75 C713.8906,570.5938 713.9219,570.4375 713.9219,569.9844 L713.9219,568.0625 C713.9219,567.9063 713.9219,567.8594 713.9063,567.7031 C713.8438,567.2344 713.5313,566.9219 713.0781,566.9219 C712.8281,566.9219 712.5625,567.0625 712.3906,567.2813 C712.2813,567.4531 712.25,567.6094 712.25,568.0625 L712.25,568.1875 L710.7969,568.1875 L710.7969,565.7813 L714.7813,565.7813 L714.7813,566.6406 C714.7813,567.0469 714.8125,567.2188 714.8906,567.375 C715.0625,567.625 715.3438,567.7813 715.625,567.7813 C715.8906,567.7813 716.1563,567.6406 716.3281,567.4219 C716.4375,567.25 716.4688,567.1094 716.4688,566.6406 L716.4688,564.0938 L708.8438,564.0938 C708.4063,564.0938 708.2813,564.1094 708.125,564.2031 C707.875,564.3594 707.7188,564.6563 707.7188,564.9375 C707.7188,565.2188 707.8594,565.4688 708.0781,565.6406 C708.2344,565.75 708.4219,565.7813 708.8438,565.7813 L709.0938,565.7813 L709.0938,572.2969 L708.8438,572.2969 C708.4375,572.2969 708.2813,572.3125 708.125,572.4219 C707.875,572.5938 707.7188,572.8594 707.7188,573.1563 C707.7188,573.4219 707.8594,573.6719 708.0781,573.8281 C708.2188,573.9531 708.4531,574 708.8438,574 L716.8438,574 L716.8438,571.4219 C716.8438,570.9844 716.8125,570.8438 716.7344,570.6875 C716.5625,570.4375 716.2813,570.2813 716,570.2813 C715.7344,570.2813 715.4688,570.3906 715.2969,570.6406 C715.1875,570.7969 715.1563,570.9375 715.1563,571.4219 L715.1563,572.2969 L710.7969,572.2969 L710.7969,569.875 Z " fill="#000000"/><text fill="#000000" font-family="sans-serif" font-size="14" lengthAdjust="spacing" textLength="36" x="726" y="573.8467">Rank</text><line style="stroke:#181818;stroke-width:0.5;" x1="698" x2="764" y1="585" y2="585"/><text fill="#000000" font-family="sans-serif" font-size="14" lengthAdjust="spacing" textLength="15" x="703" y="601.9951">as</text><text fill="#000000" font-family="sans-serif" font-size="14" lengthAdjust="spacing" textLength="15" x="703" y="618.292">...</text><text fill="#000000" font-family="sans-serif" font-size="14" lengthAdjust="spacing" textLength="31" x="703" y="634.5889">king</text><line style="stroke:#181818;stroke-width:0.5;" x1="698" x2="764" y1="641.8906" y2="641.8906"/></g><!--MD5=[9d65f55e1ae89a5b4cf38812aa4a03f3]
class Pile--><g id="elem_Pile"><rect fill="#F1F1F1" height="48" id="Pile" rx="2.5" ry="2.5" style="stroke:#181818;stroke-width:0.5;" width="58" x="430" y="436"/><ellipse cx="445" cy="452" fill="#ADD1B2" rx="11" ry="11" style="stroke:#181818;stroke-width:1.0;"/><path d="M447.3438,447.6719 C446.4063,447.2344 445.8125,447.0938 444.9375,447.0938 C442.3125,447.0938 440.3125,449.1719 440.3125,451.8906 L440.3125,453.0156 C440.3125,455.5938 442.4219,457.4844 445.3125,457.4844 C446.5313,457.4844 447.6875,457.1875 448.4375,456.6406 C449.0156,456.2344 449.3438,455.7813 449.3438,455.3906 C449.3438,454.9375 448.9531,454.5469 448.4844,454.5469 C448.2656,454.5469 448.0625,454.625 447.875,454.8125 C447.4219,455.2969 447.4219,455.2969 447.2344,455.3906 C446.8125,455.6563 446.125,455.7813 445.3594,455.7813 C443.3125,455.7813 442.0156,454.6875 442.0156,452.9844 L442.0156,451.8906 C442.0156,450.1094 443.2656,448.7969 445,448.7969 C445.5781,448.7969 446.1875,448.9531 446.6563,449.2031 C447.1406,449.4844 447.3125,449.7031 447.4063,450.1094 C447.4688,450.5156 447.5,450.6406 447.6406,450.7656 C447.7813,450.9063 448.0156,451.0156 448.2344,451.0156 C448.5,451.0156 448.7656,450.875 448.9375,450.6563 C449.0469,450.5 449.0781,450.3125 449.0781,449.8906 L449.0781,448.4688 C449.0781,448.0313 449.0625,447.9063 448.9688,447.75 C448.8125,447.4844 448.5313,447.3438 448.2344,447.3438 C447.9375,447.3438 447.7344,447.4375 447.5156,447.75 L447.3438,447.6719 Z " fill="#000000"/><text fill="#000000" font-family="sans-serif" font-size="14" lengthAdjust="spacing" textLength="26" x="459" y="456.8467">Pile</text><line style="stroke:#181818;stroke-width:0.5;" x1="431" x2="487" y1="468" y2="468"/><line style="stroke:#181818;stroke-width:0.5;" x1="431" x2="487" y1="476" y2="476"/></g><!--MD5=[1981719fa3982d92ef7fd3f06d73b3e7]
class Move--><g id="elem_Move"><rect fill="#F1F1F1" height="48" id="Move" rx="2.5" ry="2.5" style="stroke:#181818;stroke-width:0.5;" width="70" x="417" y="272"/><ellipse cx="432" cy="288" fill="#ADD1B2" rx="11" ry="11" style="stroke:#181818;stroke-width:1.0;"/><path d="M434.3438,283.6719 C433.4063,283.2344 432.8125,283.0938 431.9375,283.0938 C429.3125,283.0938 427.3125,285.1719 427.3125,287.8906 L427.3125,289.0156 C427.3125,291.5938 429.4219,293.4844 432.3125,293.4844 C433.5313,293.4844 434.6875,293.1875 435.4375,292.6406 C436.0156,292.2344 436.3438,291.7813 436.3438,291.3906 C436.3438,290.9375 435.9531,290.5469 435.4844,290.5469 C435.2656,290.5469 435.0625,290.625 434.875,290.8125 C434.4219,291.2969 434.4219,291.2969 434.2344,291.3906 C433.8125,291.6563 433.125,291.7813 432.3594,291.7813 C430.3125,291.7813 429.0156,290.6875 429.0156,288.9844 L429.0156,287.8906 C429.0156,286.1094 430.2656,284.7969 432,284.7969 C432.5781,284.7969 433.1875,284.9531 433.6563,285.2031 C434.1406,285.4844 434.3125,285.7031 434.4063,286.1094 C434.4688,286.5156 434.5,286.6406 434.6406,286.7656 C434.7813,286.9063 435.0156,287.0156 435.2344,287.0156 C435.5,287.0156 435.7656,286.875 435.9375,286.6563 C436.0469,286.5 436.0781,286.3125 436.0781,285.8906 L436.0781,284.4688 C436.0781,284.0313 436.0625,283.9063 435.9688,283.75 C435.8125,283.4844 435.5313,283.3438 435.2344,283.3438 C434.9375,283.3438 434.7344,283.4375 434.5156,283.75 L434.3438,283.6719 Z " fill="#000000"/><text fill="#000000" font-family="sans-serif" font-size="14" lengthAdjust="spacing" textLength="38" x="446" y="292.8467">Move</text><line style="stroke:#181818;stroke-width:0.5;" x1="418" x2="486" y1="304" y2="304"/><line style="stroke:#181818;stroke-width:0.5;" x1="418" x2="486" y1="312" y2="312"/></g><!--MD5=[18eee71c88ab61f27581b8cbdd3ef5ee]
class Color--><g id="elem_Color"><rect codeLine="41" fill="#F1F1F1" height="48" id="Color" rx="2.5" ry="2.5" style="stroke:#181818;stroke-width:0.5;" width="70" x="778" y="914"/><ellipse cx="793" cy="930" fill="#ADD1B2" rx="11" ry="11" style="stroke:#181818;stroke-width:1.0;"/><path d="M795.3438,925.6719 C794.4063,925.2344 793.8125,925.0938 792.9375,925.0938 C790.3125,925.0938 788.3125,927.1719 788.3125,929.8906 L788.3125,931.0156 C788.3125,933.5938 790.4219,935.4844 793.3125,935.4844 C794.5313,935.4844 795.6875,935.1875 796.4375,934.6406 C797.0156,934.2344 797.3438,933.7813 797.3438,933.3906 C797.3438,932.9375 796.9531,932.5469 796.4844,932.5469 C796.2656,932.5469 796.0625,932.625 795.875,932.8125 C795.4219,933.2969 795.4219,933.2969 795.2344,933.3906 C794.8125,933.6563 794.125,933.7813 793.3594,933.7813 C791.3125,933.7813 790.0156,932.6875 790.0156,930.9844 L790.0156,929.8906 C790.0156,928.1094 791.2656,926.7969 793,926.7969 C793.5781,926.7969 794.1875,926.9531 794.6563,927.2031 C795.1406,927.4844 795.3125,927.7031 795.4063,928.1094 C795.4688,928.5156 795.5,928.6406 795.6406,928.7656 C795.7813,928.9063 796.0156,929.0156 796.2344,929.0156 C796.5,929.0156 796.7656,928.875 796.9375,928.6563 C797.0469,928.5 797.0781,928.3125 797.0781,927.8906 L797.0781,926.4688 C797.0781,926.0313 797.0625,925.9063 796.9688,925.75 C796.8125,925.4844 796.5313,925.3438 796.2344,925.3438 C795.9375,925.3438 795.7344,925.4375 795.5156,925.75 L795.3438,925.6719 Z " fill="#000000"/><text fill="#000000" font-family="sans-serif" font-size="14" lengthAdjust="spacing" textLength="38" x="807" y="934.8467">Color</text><line style="stroke:#181818;stroke-width:0.5;" x1="779" x2="847" y1="946" y2="946"/><line style="stroke:#181818;stroke-width:0.5;" x1="779" x2="847" y1="954" y2="954"/></g><!--MD5=[9bb5813e59df3e2529d11a5afaed7800]
class Heart--><g id="elem_Heart"><rect fill="#F1F1F1" height="48" id="Heart" rx="2.5" ry="2.5" style="stroke:#181818;stroke-width:0.5;" width="72" x="619" y="680"/><ellipse cx="634" cy="696" fill="#ADD1B2" rx="11" ry="11" style="stroke:#181818;stroke-width:1.0;"/><path d="M636.3438,691.6719 C635.4063,691.2344 634.8125,691.0938 633.9375,691.0938 C631.3125,691.0938 629.3125,693.1719 629.3125,695.8906 L629.3125,697.0156 C629.3125,699.5938 631.4219,701.4844 634.3125,701.4844 C635.5313,701.4844 636.6875,701.1875 637.4375,700.6406 C638.0156,700.2344 638.3438,699.7813 638.3438,699.3906 C638.3438,698.9375 637.9531,698.5469 637.4844,698.5469 C637.2656,698.5469 637.0625,698.625 636.875,698.8125 C636.4219,699.2969 636.4219,699.2969 636.2344,699.3906 C635.8125,699.6563 635.125,699.7813 634.3594,699.7813 C632.3125,699.7813 631.0156,698.6875 631.0156,696.9844 L631.0156,695.8906 C631.0156,694.1094 632.2656,692.7969 634,692.7969 C634.5781,692.7969 635.1875,692.9531 635.6563,693.2031 C636.1406,693.4844 636.3125,693.7031 636.4063,694.1094 C636.4688,694.5156 636.5,694.6406 636.6406,694.7656 C636.7813,694.9063 637.0156,695.0156 637.2344,695.0156 C637.5,695.0156 637.7656,694.875 637.9375,694.6563 C638.0469,694.5 638.0781,694.3125 638.0781,693.8906 L638.0781,692.4688 C638.0781,692.0313 638.0625,691.9063 637.9688,691.75 C637.8125,691.4844 637.5313,691.3438 637.2344,691.3438 C636.9375,691.3438 636.7344,691.4375 636.5156,691.75 L636.3438,691.6719 Z " fill="#000000"/><text fill="#000000" font-family="sans-serif" font-size="14" lengthAdjust="spacing" textLength="40" x="648" y="700.8467">Heart</text><line style="stroke:#181818;stroke-width:0.5;" x1="620" x2="690" y1="712" y2="712"/><line style="stroke:#181818;stroke-width:0.5;" x1="620" x2="690" y1="720" y2="720"/></g><!--MD5=[e07683d003131b9e2f36793e1d14f746]
class Spade--><g id="elem_Spade"><rect fill="#F1F1F1" height="48" id="Spade" rx="2.5" ry="2.5" style="stroke:#181818;stroke-width:0.5;" width="77" x="862.5" y="836"/><ellipse cx="877.5" cy="852" fill="#ADD1B2" rx="11" ry="11" style="stroke:#181818;stroke-width:1.0;"/><path d="M879.8438,847.6719 C878.9063,847.2344 878.3125,847.0938 877.4375,847.0938 C874.8125,847.0938 872.8125,849.1719 872.8125,851.8906 L872.8125,853.0156 C872.8125,855.5938 874.9219,857.4844 877.8125,857.4844 C879.0313,857.4844 880.1875,857.1875 880.9375,856.6406 C881.5156,856.2344 881.8438,855.7813 881.8438,855.3906 C881.8438,854.9375 881.4531,854.5469 880.9844,854.5469 C880.7656,854.5469 880.5625,854.625 880.375,854.8125 C879.9219,855.2969 879.9219,855.2969 879.7344,855.3906 C879.3125,855.6563 878.625,855.7813 877.8594,855.7813 C875.8125,855.7813 874.5156,854.6875 874.5156,852.9844 L874.5156,851.8906 C874.5156,850.1094 875.7656,848.7969 877.5,848.7969 C878.0781,848.7969 878.6875,848.9531 879.1563,849.2031 C879.6406,849.4844 879.8125,849.7031 879.9063,850.1094 C879.9688,850.5156 880,850.6406 880.1406,850.7656 C880.2813,850.9063 880.5156,851.0156 880.7344,851.0156 C881,851.0156 881.2656,850.875 881.4375,850.6563 C881.5469,850.5 881.5781,850.3125 881.5781,849.8906 L881.5781,848.4688 C881.5781,848.0313 881.5625,847.9063 881.4688,847.75 C881.3125,847.4844 881.0313,847.3438 880.7344,847.3438 C880.4375,847.3438 880.2344,847.4375 880.0156,847.75 L879.8438,847.6719 Z " fill="#000000"/><text fill="#000000" font-family="sans-serif" font-size="14" lengthAdjust="spacing" textLength="45" x="891.5" y="856.8467">Spade</text><line style="stroke:#181818;stroke-width:0.5;" x1="863.5" x2="938.5" y1="868" y2="868"/><line style="stroke:#181818;stroke-width:0.5;" x1="863.5" x2="938.5" y1="876" y2="876"/></g><!--MD5=[2a32276ae8faf0cd977a8dc45df70324]
class Diamon--><g id="elem_Diamon"><rect fill="#F1F1F1" height="48" id="Diamon" rx="2.5" ry="2.5" style="stroke:#181818;stroke-width:0.5;" width="87" x="689.5" y="758"/><ellipse cx="704.5" cy="774" fill="#ADD1B2" rx="11" ry="11" style="stroke:#181818;stroke-width:1.0;"/><path d="M706.8438,769.6719 C705.9063,769.2344 705.3125,769.0938 704.4375,769.0938 C701.8125,769.0938 699.8125,771.1719 699.8125,773.8906 L699.8125,775.0156 C699.8125,777.5938 701.9219,779.4844 704.8125,779.4844 C706.0313,779.4844 707.1875,779.1875 707.9375,778.6406 C708.5156,778.2344 708.8438,777.7813 708.8438,777.3906 C708.8438,776.9375 708.4531,776.5469 707.9844,776.5469 C707.7656,776.5469 707.5625,776.625 707.375,776.8125 C706.9219,777.2969 706.9219,777.2969 706.7344,777.3906 C706.3125,777.6563 705.625,777.7813 704.8594,777.7813 C702.8125,777.7813 701.5156,776.6875 701.5156,774.9844 L701.5156,773.8906 C701.5156,772.1094 702.7656,770.7969 704.5,770.7969 C705.0781,770.7969 705.6875,770.9531 706.1563,771.2031 C706.6406,771.4844 706.8125,771.7031 706.9063,772.1094 C706.9688,772.5156 707,772.6406 707.1406,772.7656 C707.2813,772.9063 707.5156,773.0156 707.7344,773.0156 C708,773.0156 708.2656,772.875 708.4375,772.6563 C708.5469,772.5 708.5781,772.3125 708.5781,771.8906 L708.5781,770.4688 C708.5781,770.0313 708.5625,769.9063 708.4688,769.75 C708.3125,769.4844 708.0313,769.3438 707.7344,769.3438 C707.4375,769.3438 707.2344,769.4375 707.0156,769.75 L706.8438,769.6719 Z " fill="#000000"/><text fill="#000000" font-family="sans-serif" font-size="14" lengthAdjust="spacing" textLength="55" x="718.5" y="778.8467">Diamon</text><line style="stroke:#181818;stroke-width:0.5;" x1="690.5" x2="775.5" y1="790" y2="790"/><line style="stroke:#181818;stroke-width:0.5;" x1="690.5" x2="775.5" y1="798" y2="798"/></g><!--MD5=[a7ca736ec2eaa3f5c977a8fac7fd0779]
class Club--><g id="elem_Club"><rect fill="#F1F1F1" height="48" id="Club" rx="2.5" ry="2.5" style="stroke:#181818;stroke-width:0.5;" width="64" x="932" y="680"/><ellipse cx="947" cy="696" fill="#ADD1B2" rx="11" ry="11" style="stroke:#181818;stroke-width:1.0;"/><path d="M949.3438,691.6719 C948.4063,691.2344 947.8125,691.0938 946.9375,691.0938 C944.3125,691.0938 942.3125,693.1719 942.3125,695.8906 L942.3125,697.0156 C942.3125,699.5938 944.4219,701.4844 947.3125,701.4844 C948.5313,701.4844 949.6875,701.1875 950.4375,700.6406 C951.0156,700.2344 951.3438,699.7813 951.3438,699.3906 C951.3438,698.9375 950.9531,698.5469 950.4844,698.5469 C950.2656,698.5469 950.0625,698.625 949.875,698.8125 C949.4219,699.2969 949.4219,699.2969 949.2344,699.3906 C948.8125,699.6563 948.125,699.7813 947.3594,699.7813 C945.3125,699.7813 944.0156,698.6875 944.0156,696.9844 L944.0156,695.8906 C944.0156,694.1094 945.2656,692.7969 947,692.7969 C947.5781,692.7969 948.1875,692.9531 948.6563,693.2031 C949.1406,693.4844 949.3125,693.7031 949.4063,694.1094 C949.4688,694.5156 949.5,694.6406 949.6406,694.7656 C949.7813,694.9063 950.0156,695.0156 950.2344,695.0156 C950.5,695.0156 950.7656,694.875 950.9375,694.6563 C951.0469,694.5 951.0781,694.3125 951.0781,693.8906 L951.0781,692.4688 C951.0781,692.0313 951.0625,691.9063 950.9688,691.75 C950.8125,691.4844 950.5313,691.3438 950.2344,691.3438 C949.9375,691.3438 949.7344,691.4375 949.5156,691.75 L949.3438,691.6719 Z " fill="#000000"/><text fill="#000000" font-family="sans-serif" font-size="14" lengthAdjust="spacing" textLength="32" x="961" y="700.8467">Club</text><line style="stroke:#181818;stroke-width:0.5;" x1="933" x2="995" y1="712" y2="712"/><line style="stroke:#181818;stroke-width:0.5;" x1="933" x2="995" y1="720" y2="720"/></g><!--MD5=[08be530975453a47bdc5b5370100f2fc]
class Red--><g id="elem_Red"><rect fill="#F1F1F1" height="48" id="Red" rx="2.5" ry="2.5" style="stroke:#181818;stroke-width:0.5;" width="60" x="695" y="1023"/><ellipse cx="710" cy="1039" fill="#ADD1B2" rx="11" ry="11" style="stroke:#181818;stroke-width:1.0;"/><path d="M712.3438,1034.6719 C711.4063,1034.2344 710.8125,1034.0938 709.9375,1034.0938 C707.3125,1034.0938 705.3125,1036.1719 705.3125,1038.8906 L705.3125,1040.0156 C705.3125,1042.5938 707.4219,1044.4844 710.3125,1044.4844 C711.5313,1044.4844 712.6875,1044.1875 713.4375,1043.6406 C714.0156,1043.2344 714.3438,1042.7813 714.3438,1042.3906 C714.3438,1041.9375 713.9531,1041.5469 713.4844,1041.5469 C713.2656,1041.5469 713.0625,1041.625 712.875,1041.8125 C712.4219,1042.2969 712.4219,1042.2969 712.2344,1042.3906 C711.8125,1042.6563 711.125,1042.7813 710.3594,1042.7813 C708.3125,1042.7813 707.0156,1041.6875 707.0156,1039.9844 L707.0156,1038.8906 C707.0156,1037.1094 708.2656,1035.7969 710,1035.7969 C710.5781,1035.7969 711.1875,1035.9531 711.6563,1036.2031 C712.1406,1036.4844 712.3125,1036.7031 712.4063,1037.1094 C712.4688,1037.5156 712.5,1037.6406 712.6406,1037.7656 C712.7813,1037.9063 713.0156,1038.0156 713.2344,1038.0156 C713.5,1038.0156 713.7656,1037.875 713.9375,1037.6563 C714.0469,1037.5 714.0781,1037.3125 714.0781,1036.8906 L714.0781,1035.4688 C714.0781,1035.0313 714.0625,1034.9063 713.9688,1034.75 C713.8125,1034.4844 713.5313,1034.3438 713.2344,1034.3438 C712.9375,1034.3438 712.7344,1034.4375 712.5156,1034.75 L712.3438,1034.6719 Z " fill="#000000"/><text fill="#000000" font-family="sans-serif" font-size="14" lengthAdjust="spacing" textLength="28" x="724" y="1043.8467">Red</text><line style="stroke:#181818;stroke-width:0.5;" x1="696" x2="754" y1="1055" y2="1055"/><line style="stroke:#181818;stroke-width:0.5;" x1="696" x2="754" y1="1063" y2="1063"/></g><!--MD5=[365150d8163e865a226452c70cc7ad9f]
class Black--><g id="elem_Black"><rect fill="#F1F1F1" height="48" id="Black" rx="2.5" ry="2.5" style="stroke:#181818;stroke-width:0.5;" width="71" x="865.5" y="1023"/><ellipse cx="880.5" cy="1039" fill="#ADD1B2" rx="11" ry="11" style="stroke:#181818;stroke-width:1.0;"/><path d="M882.8438,1034.6719 C881.9063,1034.2344 881.3125,1034.0938 880.4375,1034.0938 C877.8125,1034.0938 875.8125,1036.1719 875.8125,1038.8906 L875.8125,1040.0156 C875.8125,1042.5938 877.9219,1044.4844 880.8125,1044.4844 C882.0313,1044.4844 883.1875,1044.1875 883.9375,1043.6406 C884.5156,1043.2344 884.8438,1042.7813 884.8438,1042.3906 C884.8438,1041.9375 884.4531,1041.5469 883.9844,1041.5469 C883.7656,1041.5469 883.5625,1041.625 883.375,1041.8125 C882.9219,1042.2969 882.9219,1042.2969 882.7344,1042.3906 C882.3125,1042.6563 881.625,1042.7813 880.8594,1042.7813 C878.8125,1042.7813 877.5156,1041.6875 877.5156,1039.9844 L877.5156,1038.8906 C877.5156,1037.1094 878.7656,1035.7969 880.5,1035.7969 C881.0781,1035.7969 881.6875,1035.9531 882.1563,1036.2031 C882.6406,1036.4844 882.8125,1036.7031 882.9063,1037.1094 C882.9688,1037.5156 883,1037.6406 883.1406,1037.7656 C883.2813,1037.9063 883.5156,1038.0156 883.7344,1038.0156 C884,1038.0156 884.2656,1037.875 884.4375,1037.6563 C884.5469,1037.5 884.5781,1037.3125 884.5781,1036.8906 L884.5781,1035.4688 C884.5781,1035.0313 884.5625,1034.9063 884.4688,1034.75 C884.3125,1034.4844 884.0313,1034.3438 883.7344,1034.3438 C883.4375,1034.3438 883.2344,1034.4375 883.0156,1034.75 L882.8438,1034.6719 Z " fill="#000000"/><text fill="#000000" font-family="sans-serif" font-size="14" lengthAdjust="spacing" textLength="39" x="894.5" y="1043.8467">Black</text><line style="stroke:#181818;stroke-width:0.5;" x1="866.5" x2="935.5" y1="1055" y2="1055"/><line style="stroke:#181818;stroke-width:0.5;" x1="866.5" x2="935.5" y1="1063" y2="1063"/></g><!--MD5=[4c0abcb474b56cdbbfb3c316b5e42628]
class AllCardsToFoundationsGoal--><g id="elem_AllCardsToFoundationsGoal"><rect fill="#F1F1F1" height="48" id="AllCardsToFoundationsGoal" rx="2.5" ry="2.5" style="stroke:#181818;stroke-width:0.5;" width="227" x="100.5" y="350"/><ellipse cx="115.5" cy="366" fill="#ADD1B2" rx="11" ry="11" style="stroke:#181818;stroke-width:1.0;"/><path d="M117.8438,361.6719 C116.9063,361.2344 116.3125,361.0938 115.4375,361.0938 C112.8125,361.0938 110.8125,363.1719 110.8125,365.8906 L110.8125,367.0156 C110.8125,369.5938 112.9219,371.4844 115.8125,371.4844 C117.0313,371.4844 118.1875,371.1875 118.9375,370.6406 C119.5156,370.2344 119.8438,369.7813 119.8438,369.3906 C119.8438,368.9375 119.4531,368.5469 118.9844,368.5469 C118.7656,368.5469 118.5625,368.625 118.375,368.8125 C117.9219,369.2969 117.9219,369.2969 117.7344,369.3906 C117.3125,369.6563 116.625,369.7813 115.8594,369.7813 C113.8125,369.7813 112.5156,368.6875 112.5156,366.9844 L112.5156,365.8906 C112.5156,364.1094 113.7656,362.7969 115.5,362.7969 C116.0781,362.7969 116.6875,362.9531 117.1563,363.2031 C117.6406,363.4844 117.8125,363.7031 117.9063,364.1094 C117.9688,364.5156 118,364.6406 118.1406,364.7656 C118.2813,364.9063 118.5156,365.0156 118.7344,365.0156 C119,365.0156 119.2656,364.875 119.4375,364.6563 C119.5469,364.5 119.5781,364.3125 119.5781,363.8906 L119.5781,362.4688 C119.5781,362.0313 119.5625,361.9063 119.4688,361.75 C119.3125,361.4844 119.0313,361.3438 118.7344,361.3438 C118.4375,361.3438 118.2344,361.4375 118.0156,361.75 L117.8438,361.6719 Z " fill="#000000"/><text fill="#000000" font-family="sans-serif" font-size="14" lengthAdjust="spacing" textLength="195" x="129.5" y="370.8467">AllCardsToFoundationsGoal</text><line style="stroke:#181818;stroke-width:0.5;" x1="101.5" x2="326.5" y1="382" y2="382"/><line style="stroke:#181818;stroke-width:0.5;" x1="101.5" x2="326.5" y1="390" y2="390"/></g><!--MD5=[d0e37a71a001f6053d69fd29d330fd4f]
link Klondike to Player--><g id="link_Klondike_Player"><path codeLine="2" d="M513.4763,64.3582 C513.4763,64.3582 489.276,92.818 478.41,105.595 " fill="none" id="Klondike-Player" style="stroke:#181818;stroke-width:1.0;"/><polygon fill="#181818" points="469.707,115.828,478.585,111.564,472.9465,112.0193,472.4911,106.3808,469.707,115.828" style="stroke:#181818;stroke-width:1.0;"/><line style="stroke:#181818;stroke-width:1.0;" x1="472.9465" x2="478.129" y1="112.0193" y2="105.925"/><polygon fill="#181818" points="521.254,55.22,514.3191,57.1965,513.4763,64.3582,520.4112,62.3817,521.254,55.22" style="stroke:#181818;stroke-width:1.0;"/></g><!--MD5=[66e773952485c2ebd2097a6df943c858]
link Klondike to Card--><g id="link_Klondike_Card"><path codeLine="3" d="M600.1284,42.8494 C600.1284,42.8494 655.402,63.69 674,85 C717.063,134.332 748.644,326.875 761.125,414.788 " fill="none" id="Klondike-Card" style="stroke:#181818;stroke-width:1.0;"/><polygon fill="#181818" points="762.929,427.714,765.6463,418.2474,762.2377,422.762,757.7232,419.3534,762.929,427.714" style="stroke:#181818;stroke-width:1.0;"/><line style="stroke:#181818;stroke-width:1.0;" x1="762.2377" x2="761.132" y1="422.762" y2="414.838"/><polygon fill="#181818" points="588.549,39.7,593.2889,45.1345,600.1284,42.8494,595.3885,37.4149,588.549,39.7" style="stroke:#181818;stroke-width:1.0;"/><text fill="#000000" font-family="sans-serif" font-size="13" lengthAdjust="spacing" textLength="16" x="744.5525" y="416.9319">52</text></g><!--MD5=[d3883b6e5521bc1a4fbc628d87a10151]
link Klondike to Stock--><g id="link_Klondike_Stock"><path codeLine="4" d="M481.051,31.5071 C481.051,31.5071 6,43.32 6,139 C6,139 6,139 6,461 C6,497.54 18.8382,537.451 29.9681,565.186 " fill="none" id="Klondike-Stock" style="stroke:#181818;stroke-width:1.0;"/><polygon fill="#181818" points="35.0698,577.386,35.2877,567.5396,33.1407,572.7731,27.9071,570.6261,35.0698,577.386" style="stroke:#181818;stroke-width:1.0;"/><line style="stroke:#181818;stroke-width:1.0;" x1="33.1407" x2="30.0542" y1="572.7731" y2="565.3925"/><polygon fill="#181818" points="493.051,31.49,487.0453,27.4986,481.051,31.5071,487.0567,35.4986,493.051,31.49" style="stroke:#181818;stroke-width:1.0;"/></g><!--MD5=[fc362caf7996dc1cff37dff6c24ba86b]
link Klondike to Waste--><g id="link_Klondike_Waste"><path codeLine="5" d="M541,67.38 C541,67.38 541,115.493 541,139 C541,139 541,139 541,461 C541,499.024 522.176,538.601 505.793,565.844 " fill="none" id="Klondike-Waste" style="stroke:#181818;stroke-width:1.0;"/><polygon fill="#181818" points="498.749,577.083,506.9175,571.5806,501.404,572.8461,500.1385,567.3326,498.749,577.083" style="stroke:#181818;stroke-width:1.0;"/><line style="stroke:#181818;stroke-width:1.0;" x1="501.404" x2="505.6525" y1="572.8461" y2="566.068"/><polygon fill="#181818" points="541,55.38,537,61.38,541,67.38,545,61.38,541,55.38" style="stroke:#181818;stroke-width:1.0;"/></g><!--MD5=[b1c209f4aa9271d424a51362b3ae8562]
link Klondike to Tableau--><g id="link_Klondike_Tableau"><path codeLine="6" d="M596.6645,61.8186 C596.6645,61.8186 648,106.703 648,139 C648,139 648,139 648,461 C648,497.276 636.446,537.222 626.429,565.037 " fill="none" id="Klondike-Tableau" style="stroke:#181818;stroke-width:1.0;"/><polygon fill="#181818" points="621.837,577.277,628.7432,570.2552,623.5931,572.5955,621.2528,567.4455,621.837,577.277" style="stroke:#181818;stroke-width:1.0;"/><line style="stroke:#181818;stroke-width:1.0;" x1="623.5931" x2="626.403" y1="572.5955" y2="565.105"/><polygon fill="#181818" points="586.688,55.15,589.4534,61.8098,596.6645,61.8186,593.8991,55.1588,586.688,55.15" style="stroke:#181818;stroke-width:1.0;"/><text fill="#000000" font-family="sans-serif" font-size="13" lengthAdjust="spacing" textLength="8" x="615.2598" y="566.6276">7</text></g><!--MD5=[6a4057357f913d5657fa9fe87f0edd29]
link Klondike to Foundation--><g id="link_Klondike_Foundation"><path codeLine="7" d="M481.0977,33.3624 C481.0977,33.3624 77,57.24 77,139 C77,139 77,139 77,461 C77,508.836 118.514,546.279 155.838,570.275 " fill="none" id="Klondike-Foundation" style="stroke:#181818;stroke-width:1.0;"/><polygon fill="#181818" points="167.236,577.287,161.6661,569.1645,162.9773,574.6672,157.4745,575.9784,167.236,577.287" style="stroke:#181818;stroke-width:1.0;"/><line style="stroke:#181818;stroke-width:1.0;" x1="162.9773" x2="156.163" y1="574.6672" y2="570.4755"/><polygon fill="#181818" points="493.091,32.96,486.9602,29.1635,481.0977,33.3624,487.2285,37.159,493.091,32.96" style="stroke:#181818;stroke-width:1.0;"/><text fill="#000000" font-family="sans-serif" font-size="13" lengthAdjust="spacing" textLength="8" x="146.2277" y="566.2445">4</text></g><!--MD5=[37ea3813cdee931c7c4fe6bac0c00ff5]
link Klondike to Deal--><g id="link_Klondike_Deal"><path codeLine="8" d="M588.735,32.04 C634.421,34.63 702.492,45.54 745,85 C774.188,112.094 784.445,158.865 788.049,188.841 " fill="none" id="Klondike-to-Deal" style="stroke:#181818;stroke-width:1.0;stroke-dasharray:7.0,7.0;"/><polygon fill="#181818" points="788.61,193.868,791.5875,184.48,788.0556,188.8988,783.6368,185.367,788.61,193.868" style="stroke:#181818;stroke-width:1.0;"/></g><!--MD5=[931d6dc4b147680a7f81f78f3f3bbe12]
link Deal to Card--><g id="link_Deal_Card"><path codeLine="9" d="M787.795,242.012 C783.784,283.867 775.266,372.742 770.47,422.791 " fill="none" id="Deal-to-Card" style="stroke:#181818;stroke-width:1.0;"/><polygon fill="#181818" points="769.989,427.807,774.8296,419.2298,770.4661,422.8298,766.8661,418.4664,769.989,427.807" style="stroke:#181818;stroke-width:1.0;"/><text fill="#000000" font-family="sans-serif" font-size="13" lengthAdjust="spacing" textLength="16" x="772.1525" y="417.0432">52</text></g><!--MD5=[01ae9f68263e6bc4031c0aece6e20929]
link Card to Suit--><g id="link_Card_Suit"><path codeLine="10" d="M786.0763,503.2438 C786.0763,503.2438 805.67,546.626 814.013,565.099 " fill="none" id="Card-Suit" style="stroke:#181818;stroke-width:1.0;"/><polygon fill="#181818" points="819.437,577.112,819.3789,567.2633,817.3794,572.555,812.0877,570.5555,819.437,577.112" style="stroke:#181818;stroke-width:1.0;"/><line style="stroke:#181818;stroke-width:1.0;" x1="817.3794" x2="814.087" y1="572.555" y2="565.2635"/><polygon fill="#181818" points="781.138,492.307,779.9616,499.4215,786.0763,503.2438,787.2527,496.1293,781.138,492.307" style="stroke:#181818;stroke-width:1.0;"/></g><!--MD5=[dab4fdc688f775bd2cd14c67a04f3f7b]
link Card to Rank--><g id="link_Card_Rank"><path codeLine="11" d="M755.9222,503.9263 C755.9222,503.9263 749.597,528.435 746.549,540.247 " fill="none" id="Card-Rank" style="stroke:#181818;stroke-width:1.0;"/><polygon fill="#181818" points="743.296,552.853,749.4182,545.1381,744.5455,548.0116,741.672,543.139,743.296,552.853" style="stroke:#181818;stroke-width:1.0;"/><line style="stroke:#181818;stroke-width:1.0;" x1="744.5455" x2="746.5445" y1="548.0116" y2="540.266"/><polygon fill="#181818" points="758.921,492.307,753.5485,497.117,755.9222,503.9263,761.2947,499.1162,758.921,492.307" style="stroke:#181818;stroke-width:1.0;"/></g><!--MD5=[0cc7312144b7b0e8e85651666602557e]
reverse link Pile to Waste--><g id="link_Pile_Waste"><path codeLine="21" d="M466.097,504.043 C470.089,528.257 474.915,557.529 478.196,577.43 " fill="none" id="Pile-backto-Waste" style="stroke:#181818;stroke-width:1.0;"/><polygon fill="none" points="459.145,504.908,462.798,484.036,472.958,502.63,459.145,504.908" style="stroke:#181818;stroke-width:1.0;"/></g><!--MD5=[a3b0419bdb877a6921c502f7ab916277]
reverse link Pile to Stock--><g id="link_Pile_Stock"><path codeLine="22" d="M409.931,472.121 C346.477,487.184 233.062,516.439 140,553 C120.769,560.555 100.2006,570.695 83.2223,579.666 " fill="none" id="Pile-backto-Stock" style="stroke:#181818;stroke-width:1.0;"/><polygon fill="none" points="408.737,465.211,429.805,467.481,411.92,478.844,408.737,465.211" style="stroke:#181818;stroke-width:1.0;"/></g><!--MD5=[b0173922ba304e58e67aa3279a656791]
reverse link Pile to Tableau--><g id="link_Pile_Tableau"><path codeLine="23" d="M499.079,497.543 C526.813,522.829 562.876,555.711 586.698,577.43 " fill="none" id="Pile-backto-Tableau" style="stroke:#181818;stroke-width:1.0;"/><polygon fill="none" points="494.328,502.683,484.265,484.036,503.76,492.338,494.328,502.683" style="stroke:#181818;stroke-width:1.0;"/></g><!--MD5=[6d28caff8698f66462643c822ec8500b]
reverse link Pile to Foundation--><g id="link_Pile_Foundation"><path codeLine="24" d="M412.51,487.471 C366.837,513.476 297.856,552.753 254.405,577.494 " fill="none" id="Pile-backto-Foundation" style="stroke:#181818;stroke-width:1.0;"/><polygon fill="none" points="409.089,481.363,429.933,477.55,416.017,493.529,409.089,481.363" style="stroke:#181818;stroke-width:1.0;"/></g><!--MD5=[1686cafc001cbb054836a454f368ddc9]
link Pile to Card--><g id="link_Pile_Card"><path codeLine="25" d="M500.176,460 C500.176,460 625.552,460 687.595,460 " fill="none" id="Pile-Card" style="stroke:#181818;stroke-width:1.0;"/><polygon fill="#181818" points="700.834,460,691.834,456,695.834,460,691.834,464,700.834,460" style="stroke:#181818;stroke-width:1.0;"/><line style="stroke:#181818;stroke-width:1.0;" x1="695.834" x2="687.834" y1="460" y2="460"/><polygon fill="none" points="488.176,460,494.176,464,500.176,460,494.176,456,488.176,460" style="stroke:#181818;stroke-width:1.0;"/><text fill="#000000" font-family="sans-serif" font-size="13" lengthAdjust="spacing" textLength="24" x="668.7731" y="456.285">0..n</text></g><!--MD5=[7e30d075c7e28ae86a5e6e748d3cd0b6]
link Player to Move--><g id="link_Player_Move"><path codeLine="26" d="M450.299,164.055 C450.654,191.386 451.246,236.94 451.629,266.468 " fill="none" id="Player-to-Move" style="stroke:#181818;stroke-width:1.0;stroke-dasharray:7.0,7.0;"/><polygon fill="#181818" points="451.699,271.787,455.5829,262.7363,451.6347,266.7874,447.5836,262.8392,451.699,271.787" style="stroke:#181818;stroke-width:1.0;"/></g><!--MD5=[610353d3a72395b77e7f561f5987d448]
link Move to Card--><g id="link_Move_Card"><path codeLine="27" d="M487.218,315.112 C539.034,341.76 636.701,391.989 701.822,425.48 " fill="none" id="Move-to-Card" style="stroke:#181818;stroke-width:1.0;"/><polygon fill="#181818" points="706.454,427.862,700.2809,420.1879,702.0079,425.5746,696.6211,427.3017,706.454,427.862" style="stroke:#181818;stroke-width:1.0;"/><text fill="#000000" font-family="sans-serif" font-size="13" lengthAdjust="spacing" textLength="24" x="648" y="378.5669">1..n</text></g><!--MD5=[9c96613f90e0ef613e532dfde2be76fd]
link Move to Pile--><g id="link_Move_Pile"><path codeLine="28" d="M453.003,320.211 C454.261,349.323 456.417,399.216 457.772,430.582 " fill="none" id="Move-to-Pile" style="stroke:#181818;stroke-width:1.0;"/><polygon fill="#181818" points="457.999,435.832,461.6043,426.6667,457.7818,430.8367,453.6118,427.0142,457.999,435.832" style="stroke:#181818;stroke-width:1.0;"/><text fill="#000000" font-family="sans-serif" font-size="13" lengthAdjust="spacing" textLength="35" x="458" y="378.5669">origin</text></g><!--MD5=[9c96613f90e0ef613e532dfde2be76fd]
link Move to Pile--><g id="link_Move_Pile"><path codeLine="29" d="M416.727,311.497 C400.612,320.119 383.117,332.782 374,350 C364.017,368.853 364.259,379.02 374,398 C384.704,418.856 406.219,434.187 424.924,444.263 " fill="none" id="Move-to-Pile-1" style="stroke:#181818;stroke-width:1.0;"/><polygon fill="#181818" points="429.611,446.712,423.487,438.9986,425.1796,444.3963,419.7819,446.0889,429.611,446.712" style="stroke:#181818;stroke-width:1.0;"/><text fill="#000000" font-family="sans-serif" font-size="13" lengthAdjust="spacing" textLength="71" x="375" y="378.5669">destination</text></g><!--MD5=[177767f5f369ddd7a2766db2fec86924]
link Suit to Color--><g id="link_Suit_Color"><path codeLine="30" d="M828.818,625.756 C825.786,685.416 817.739,843.755 814.441,908.651 " fill="none" id="Suit-to-Color" style="stroke:#181818;stroke-width:1.0;"/><polygon fill="#181818" points="814.174,913.898,818.624,905.1118,814.4268,908.9044,810.6342,904.7073,814.174,913.898" style="stroke:#181818;stroke-width:1.0;"/></g><!--MD5=[4dce8a7c926835c26b617333aef55021]
reverse link Suit to Heart--><g id="link_Suit_Heart"><path codeLine="33" d="M795.463,639.645 C791.129,643.391 786.598,646.936 782,650 C753.668,668.878 717.527,683.162 691.049,692.116 " fill="none" id="Suit-backto-Heart" style="stroke:#181818;stroke-width:1.0;"/><polygon fill="none" points="790.763,634.454,810.06,625.701,800.434,644.578,790.763,634.454" style="stroke:#181818;stroke-width:1.0;"/></g><!--MD5=[87a89b153beae7d393e9829af90018d5]
reverse link Suit to Spade--><g id="link_Suit_Spade"><path codeLine="34" d="M844.849,644.799 C848.662,656.173 852.633,668.509 856,680 C872.261,735.505 887.963,801.727 895.81,835.959 " fill="none" id="Suit-backto-Spade" style="stroke:#181818;stroke-width:1.0;"/><polygon fill="none" points="838.184,646.941,838.325,625.752,851.428,642.404,838.184,646.941" style="stroke:#181818;stroke-width:1.0;"/></g><!--MD5=[3240b0668addca4158fb3cca1bb15e32]
reverse link Suit to Diamon--><g id="link_Suit_Diamon"><path codeLine="35" d="M807.535,643.841 C788.259,679.312 761.186,729.132 745.53,757.941 " fill="none" id="Suit-backto-Diamon" style="stroke:#181818;stroke-width:1.0;"/><polygon fill="none" points="801.619,640.066,817.319,625.836,813.92,646.751,801.619,640.066" style="stroke:#181818;stroke-width:1.0;"/></g><!--MD5=[988cd1dee8ea1cf2960e884b4b0ffb8b]
reverse link Suit to Club--><g id="link_Suit_Club"><path codeLine="36" d="M876.139,637.104 C894.954,651.216 916.208,667.156 933.099,679.824 " fill="none" id="Suit-backto-Club" style="stroke:#181818;stroke-width:1.0;"/><polygon fill="none" points="871.872,642.654,860.072,625.054,880.272,631.454,871.872,642.654" style="stroke:#181818;stroke-width:1.0;"/></g><!--MD5=[39e04be43e1ad652dcf6d75fa160b251]
link Heart to Red--><g id="link_Heart_Red"><path codeLine="37" d="M658.583,728.327 C661.815,748.837 666.841,779.469 672,806 C686.979,883.034 707.79,973.2502 718.322,1017.9507 " fill="none" id="Heart-to-Red" style="stroke:#181818;stroke-width:1.0;"/><polygon fill="#181818" points="719.493,1022.9127,721.3183,1013.2345,718.3443,1018.0464,713.5323,1015.0724,719.493,1022.9127" style="stroke:#181818;stroke-width:1.0;"/></g><!--MD5=[c24cb79e4d35e118006c9454deabc9d6]
link Diamon to Red--><g id="link_Diamon_Red"><path codeLine="38" d="M732.29,806.339 C730.822,854.591 727.458,965.181 725.866,1017.5302 " fill="none" id="Diamon-to-Red" style="stroke:#181818;stroke-width:1.0;"/><polygon fill="#181818" points="725.708,1022.7128,729.98,1013.8387,725.8601,1017.7151,721.9837,1013.5953,725.708,1022.7128" style="stroke:#181818;stroke-width:1.0;"/></g><!--MD5=[5e71cd03c38ae2dc5991a4eb9d4f46b1]
link Spade to Black--><g id="link_Spade_Black"><path codeLine="39" d="M901,884.056 C901,917.938 901,981.1123 901,1017.7397 " fill="none" id="Spade-to-Black" style="stroke:#181818;stroke-width:1.0;"/><polygon fill="#181818" points="901,1022.9444,905,1013.9444,901,1017.9444,897,1013.9444,901,1022.9444" style="stroke:#181818;stroke-width:1.0;"/></g><!--MD5=[378246b792e7d73afd082aeb5825fcc6]
link Club to Black--><g id="link_Club_Black"><path codeLine="40" d="M964.173,728.12 C963.876,777.959 959.534,898.637 927,993 C924.123,1001.3448 920.239,1010.0735 916.351,1017.9832 " fill="none" id="Club-to-Black" style="stroke:#181818;stroke-width:1.0;"/><polygon fill="#181818" points="913.939,1022.7916,921.5504,1016.5413,916.1814,1018.3226,914.4,1012.9535,913.939,1022.7916" style="stroke:#181818;stroke-width:1.0;"/></g><!--MD5=[af66b58f2992f2e4db4f382db65f0624]
reverse link Color to Black--><g id="link_Color_Black"><path codeLine="42" d="M844.828,977.7 C857.265,992.8219 871.11,1009.6561 881.943,1022.8279 " fill="none" id="Color-backto-Black" style="stroke:#181818;stroke-width:1.0;"/><polygon fill="none" points="839.392,982.1108,832.095,962.217,850.205,973.2179,839.392,982.1108" style="stroke:#181818;stroke-width:1.0;"/></g><!--MD5=[fab54b5999e935266d298ad54749f91a]
reverse link Color to Red--><g id="link_Color_Red"><path codeLine="43" d="M781.172,977.7 C768.735,992.8219 754.89,1009.6561 744.057,1022.8279 " fill="none" id="Color-backto-Red" style="stroke:#181818;stroke-width:1.0;"/><polygon fill="none" points="775.795,973.2179,793.905,962.217,786.608,982.1108,775.795,973.2179" style="stroke:#181818;stroke-width:1.0;"/></g><!--MD5=[0c4ac1459b76e36ae8c72ba408689077]
link Player to AllCardsToFoundationsGoal--><g id="link_Player_AllCardsToFoundationsGoal"><path codeLine="44" d="M426.509,164.093 C382.623,207.235 288.404,299.858 241.581,345.886 " fill="none" id="Player-to-AllCardsToFoundationsGoal" style="stroke:#181818;stroke-width:1.0;"/><polygon fill="#181818" points="237.747,349.656,246.9691,346.1986,241.3124,346.1506,241.3604,340.4939,237.747,349.656" style="stroke:#181818;stroke-width:1.0;"/></g><!--MD5=[8214be69222729de39b9e1657fe05db9]
link AllCardsToFoundationsGoal to Foundation--><g id="link_AllCardsToFoundationsGoal_Foundation"><path codeLine="45" d="M214,398.283 C214,439.999 214,527.318 214,572.333 " fill="none" id="AllCardsToFoundationsGoal-to-Foundation" style="stroke:#181818;stroke-width:1.0;"/><polygon fill="#181818" points="214,577.344,218,568.344,214,572.344,210,568.344,214,577.344" style="stroke:#181818;stroke-width:1.0;"/><text fill="#000000" font-family="sans-serif" font-size="13" lengthAdjust="spacing" textLength="8" x="204.975" y="566.3161">4</text></g><!--MD5=[84474636b721dda6dbb94dfe1f4992a6]
@startuml
class Klondike
Klondike *-down-> Player
Klondike *-down-> "52"Card
Klondike *-down-> Stock
Klondike *-down-> Waste
Klondike *-down-> "7"Tableau
Klondike *-down-> "4" Foundation
Klondike..> Deal
Deal - -> "52" Card
Card *-down-> Suit
Card *-down-> Rank
enum Rank{
as
...
king
}

class Card{
faceup : boolean
}
Pile <|-down-Waste
Pile <|-down- Stock
Pile <|-down- Tableau
Pile <|-down- Foundation
Pile o-right->"0..n" Card
Player ..> Move
Move - -> Card : 1..n
Move -down-> Pile : origin
Move -down-> Pile : destination
Suit - -down-> Color
enum Color
Class Suit
Suit <|- Heart
Suit <|- Spade
Suit <|- Diamon
Suit <|- Club
Heart - -> Red
Diamon - -> Red
Spade - -> Black
Club - -> Black
class Color
Color <|-down- Black
Color <|-down- Red
Player - -> AllCardsToFoundationsGoal
AllCardsToFoundationsGoal - -> "4"Foundation
@enduml

PlantUML version 1.2022.3beta2(Unknown compile time)
(GPL source distribution)
Java Runtime: Java(TM) SE Runtime Environment
JVM: Java HotSpot(TM) 64-Bit Server VM
Default Encoding: UTF-8
Language: en
Country: US
--></g></svg>