<?xml version="1.0" encoding="UTF-8" standalone="no"?><svg xmlns="http://www.w3.org/2000/svg" xmlns:xlink="http://www.w3.org/1999/xlink" contentStyleType="text/css" height="1031px" preserveAspectRatio="none" style="width:1016px;height:1031px;background:#FFFFFF;" version="1.1" viewBox="0 0 1016 1031" width="1016px" zoomAndPan="magnify"><defs/><g><!--MD5=[ce135f397e71694d574a1221b16fe9d6]
class Klondike--><g id="elem_Klondike"><rect codeLine="1" fill="#F1F1F1" height="48" id="Klondike" rx="2.5" ry="2.5" style="stroke:#181818;stroke-width:0.5;" width="95" x="594.5" y="7"/><ellipse cx="609.5" cy="23" fill="#ADD1B2" rx="11" ry="11" style="stroke:#181818;stroke-width:1.0;"/><path d="M611.8438,18.6719 C610.9063,18.2344 610.3125,18.0938 609.4375,18.0938 C606.8125,18.0938 604.8125,20.1719 604.8125,22.8906 L604.8125,24.0156 C604.8125,26.5938 606.9219,28.4844 609.8125,28.4844 C611.0313,28.4844 612.1875,28.1875 612.9375,27.6406 C613.5156,27.2344 613.8438,26.7813 613.8438,26.3906 C613.8438,25.9375 613.4531,25.5469 612.9844,25.5469 C612.7656,25.5469 612.5625,25.625 612.375,25.8125 C611.9219,26.2969 611.9219,26.2969 611.7344,26.3906 C611.3125,26.6563 610.625,26.7813 609.8594,26.7813 C607.8125,26.7813 606.5156,25.6875 606.5156,23.9844 L606.5156,22.8906 C606.5156,21.1094 607.7656,19.7969 609.5,19.7969 C610.0781,19.7969 610.6875,19.9531 611.1563,20.2031 C611.6406,20.4844 611.8125,20.7031 611.9063,21.1094 C611.9688,21.5156 612,21.6406 612.1406,21.7656 C612.2813,21.9063 612.5156,22.0156 612.7344,22.0156 C613,22.0156 613.2656,21.875 613.4375,21.6563 C613.5469,21.5 613.5781,21.3125 613.5781,20.8906 L613.5781,19.4688 C613.5781,19.0313 613.5625,18.9063 613.4688,18.75 C613.3125,18.4844 613.0313,18.3438 612.7344,18.3438 C612.4375,18.3438 612.2344,18.4375 612.0156,18.75 L611.8438,18.6719 Z " fill="#000000"/><text fill="#000000" font-family="sans-serif" font-size="14" lengthAdjust="spacing" textLength="63" x="623.5" y="27.8467">Klondike</text><line style="stroke:#181818;stroke-width:0.5;" x1="595.5" x2="688.5" y1="39" y2="39"/><line style="stroke:#181818;stroke-width:0.5;" x1="595.5" x2="688.5" y1="47" y2="47"/></g><!--MD5=[2cb47ba637a0d19583e6199456f6ad0b]
class Player--><g id="elem_Player"><rect fill="#F1F1F1" height="48" id="Player" rx="2.5" ry="2.5" style="stroke:#181818;stroke-width:0.5;" width="76" x="478" y="116"/><ellipse cx="493" cy="132" fill="#ADD1B2" rx="11" ry="11" style="stroke:#181818;stroke-width:1.0;"/><path d="M495.3438,127.6719 C494.4063,127.2344 493.8125,127.0938 492.9375,127.0938 C490.3125,127.0938 488.3125,129.1719 488.3125,131.8906 L488.3125,133.0156 C488.3125,135.5938 490.4219,137.4844 493.3125,137.4844 C494.5313,137.4844 495.6875,137.1875 496.4375,136.6406 C497.0156,136.2344 497.3438,135.7813 497.3438,135.3906 C497.3438,134.9375 496.9531,134.5469 496.4844,134.5469 C496.2656,134.5469 496.0625,134.625 495.875,134.8125 C495.4219,135.2969 495.4219,135.2969 495.2344,135.3906 C494.8125,135.6563 494.125,135.7813 493.3594,135.7813 C491.3125,135.7813 490.0156,134.6875 490.0156,132.9844 L490.0156,131.8906 C490.0156,130.1094 491.2656,128.7969 493,128.7969 C493.5781,128.7969 494.1875,128.9531 494.6563,129.2031 C495.1406,129.4844 495.3125,129.7031 495.4063,130.1094 C495.4688,130.5156 495.5,130.6406 495.6406,130.7656 C495.7813,130.9063 496.0156,131.0156 496.2344,131.0156 C496.5,131.0156 496.7656,130.875 496.9375,130.6563 C497.0469,130.5 497.0781,130.3125 497.0781,129.8906 L497.0781,128.4688 C497.0781,128.0313 497.0625,127.9063 496.9688,127.75 C496.8125,127.4844 496.5313,127.3438 496.2344,127.3438 C495.9375,127.3438 495.7344,127.4375 495.5156,127.75 L495.3438,127.6719 Z " fill="#000000"/><text fill="#000000" font-family="sans-serif" font-size="14" lengthAdjust="spacing" textLength="44" x="507" y="136.8467">Player</text><line style="stroke:#181818;stroke-width:0.5;" x1="479" x2="553" y1="148" y2="148"/><line style="stroke:#181818;stroke-width:0.5;" x1="479" x2="553" y1="156" y2="156"/></g><!--MD5=[5e305716458bbdabbd2d7f572ed2bae2]
class Card--><g id="elem_Card"><rect codeLine="20" fill="#F1F1F1" height="64.2969" id="Card" rx="2.5" ry="2.5" style="stroke:#181818;stroke-width:0.5;" width="132" x="638" y="381"/><ellipse cx="683.25" cy="397" fill="#ADD1B2" rx="11" ry="11" style="stroke:#181818;stroke-width:1.0;"/><path d="M685.5938,392.6719 C684.6563,392.2344 684.0625,392.0938 683.1875,392.0938 C680.5625,392.0938 678.5625,394.1719 678.5625,396.8906 L678.5625,398.0156 C678.5625,400.5938 680.6719,402.4844 683.5625,402.4844 C684.7813,402.4844 685.9375,402.1875 686.6875,401.6406 C687.2656,401.2344 687.5938,400.7813 687.5938,400.3906 C687.5938,399.9375 687.2031,399.5469 686.7344,399.5469 C686.5156,399.5469 686.3125,399.625 686.125,399.8125 C685.6719,400.2969 685.6719,400.2969 685.4844,400.3906 C685.0625,400.6563 684.375,400.7813 683.6094,400.7813 C681.5625,400.7813 680.2656,399.6875 680.2656,397.9844 L680.2656,396.8906 C680.2656,395.1094 681.5156,393.7969 683.25,393.7969 C683.8281,393.7969 684.4375,393.9531 684.9063,394.2031 C685.3906,394.4844 685.5625,394.7031 685.6563,395.1094 C685.7188,395.5156 685.75,395.6406 685.8906,395.7656 C686.0313,395.9063 686.2656,396.0156 686.4844,396.0156 C686.75,396.0156 687.0156,395.875 687.1875,395.6563 C687.2969,395.5 687.3281,395.3125 687.3281,394.8906 L687.3281,393.4688 C687.3281,393.0313 687.3125,392.9063 687.2188,392.75 C687.0625,392.4844 686.7813,392.3438 686.4844,392.3438 C686.1875,392.3438 685.9844,392.4375 685.7656,392.75 L685.5938,392.6719 Z " fill="#000000"/><text fill="#000000" font-family="sans-serif" font-size="14" lengthAdjust="spacing" textLength="33" x="703.75" y="401.8467">Card</text><line style="stroke:#181818;stroke-width:0.5;" x1="639" x2="769" y1="413" y2="413"/><text fill="#000000" font-family="sans-serif" font-size="14" lengthAdjust="spacing" textLength="120" x="644" y="429.9951">faceup : boolean</text><line style="stroke:#181818;stroke-width:0.5;" x1="639" x2="769" y1="437.2969" y2="437.2969"/></g><!--MD5=[a4cb0f987c11031dc931233a0e7767af]
class Stock--><g id="elem_Stock"><rect fill="#F1F1F1" height="48" id="Stock" rx="2.5" ry="2.5" style="stroke:#181818;stroke-width:0.5;" width="74" x="548" y="530.5"/><ellipse cx="563" cy="546.5" fill="#ADD1B2" rx="11" ry="11" style="stroke:#181818;stroke-width:1.0;"/><path d="M565.3438,542.1719 C564.4063,541.7344 563.8125,541.5938 562.9375,541.5938 C560.3125,541.5938 558.3125,543.6719 558.3125,546.3906 L558.3125,547.5156 C558.3125,550.0938 560.4219,551.9844 563.3125,551.9844 C564.5313,551.9844 565.6875,551.6875 566.4375,551.1406 C567.0156,550.7344 567.3438,550.2813 567.3438,549.8906 C567.3438,549.4375 566.9531,549.0469 566.4844,549.0469 C566.2656,549.0469 566.0625,549.125 565.875,549.3125 C565.4219,549.7969 565.4219,549.7969 565.2344,549.8906 C564.8125,550.1563 564.125,550.2813 563.3594,550.2813 C561.3125,550.2813 560.0156,549.1875 560.0156,547.4844 L560.0156,546.3906 C560.0156,544.6094 561.2656,543.2969 563,543.2969 C563.5781,543.2969 564.1875,543.4531 564.6563,543.7031 C565.1406,543.9844 565.3125,544.2031 565.4063,544.6094 C565.4688,545.0156 565.5,545.1406 565.6406,545.2656 C565.7813,545.4063 566.0156,545.5156 566.2344,545.5156 C566.5,545.5156 566.7656,545.375 566.9375,545.1563 C567.0469,545 567.0781,544.8125 567.0781,544.3906 L567.0781,542.9688 C567.0781,542.5313 567.0625,542.4063 566.9688,542.25 C566.8125,541.9844 566.5313,541.8438 566.2344,541.8438 C565.9375,541.8438 565.7344,541.9375 565.5156,542.25 L565.3438,542.1719 Z " fill="#000000"/><text fill="#000000" font-family="sans-serif" font-size="14" lengthAdjust="spacing" textLength="42" x="577" y="551.3467">Stock</text><line style="stroke:#181818;stroke-width:0.5;" x1="549" x2="621" y1="562.5" y2="562.5"/><line style="stroke:#181818;stroke-width:0.5;" x1="549" x2="621" y1="570.5" y2="570.5"/></g><!--MD5=[c3c256aac7e3870d53c0042288b21bdc]
class Waste--><g id="elem_Waste"><rect fill="#F1F1F1" height="48" id="Waste" rx="2.5" ry="2.5" style="stroke:#181818;stroke-width:0.5;" width="77" x="265.5" y="530.5"/><ellipse cx="280.5" cy="546.5" fill="#ADD1B2" rx="11" ry="11" style="stroke:#181818;stroke-width:1.0;"/><path d="M282.8438,542.1719 C281.9063,541.7344 281.3125,541.5938 280.4375,541.5938 C277.8125,541.5938 275.8125,543.6719 275.8125,546.3906 L275.8125,547.5156 C275.8125,550.0938 277.9219,551.9844 280.8125,551.9844 C282.0313,551.9844 283.1875,551.6875 283.9375,551.1406 C284.5156,550.7344 284.8438,550.2813 284.8438,549.8906 C284.8438,549.4375 284.4531,549.0469 283.9844,549.0469 C283.7656,549.0469 283.5625,549.125 283.375,549.3125 C282.9219,549.7969 282.9219,549.7969 282.7344,549.8906 C282.3125,550.1563 281.625,550.2813 280.8594,550.2813 C278.8125,550.2813 277.5156,549.1875 277.5156,547.4844 L277.5156,546.3906 C277.5156,544.6094 278.7656,543.2969 280.5,543.2969 C281.0781,543.2969 281.6875,543.4531 282.1563,543.7031 C282.6406,543.9844 282.8125,544.2031 282.9063,544.6094 C282.9688,545.0156 283,545.1406 283.1406,545.2656 C283.2813,545.4063 283.5156,545.5156 283.7344,545.5156 C284,545.5156 284.2656,545.375 284.4375,545.1563 C284.5469,545 284.5781,544.8125 284.5781,544.3906 L284.5781,542.9688 C284.5781,542.5313 284.5625,542.4063 284.4688,542.25 C284.3125,541.9844 284.0313,541.8438 283.7344,541.8438 C283.4375,541.8438 283.2344,541.9375 283.0156,542.25 L282.8438,542.1719 Z " fill="#000000"/><text fill="#000000" font-family="sans-serif" font-size="14" lengthAdjust="spacing" textLength="45" x="294.5" y="551.3467">Waste</text><line style="stroke:#181818;stroke-width:0.5;" x1="266.5" x2="341.5" y1="562.5" y2="562.5"/><line style="stroke:#181818;stroke-width:0.5;" x1="266.5" x2="341.5" y1="570.5" y2="570.5"/></g><!--MD5=[c033d16283544a66478df33ee92fe5a6]
class Tableau--><g id="elem_Tableau"><rect fill="#F1F1F1" height="48" id="Tableau" rx="2.5" ry="2.5" style="stroke:#181818;stroke-width:0.5;" width="88" x="921" y="530.5"/><ellipse cx="936" cy="546.5" fill="#ADD1B2" rx="11" ry="11" style="stroke:#181818;stroke-width:1.0;"/><path d="M938.3438,542.1719 C937.4063,541.7344 936.8125,541.5938 935.9375,541.5938 C933.3125,541.5938 931.3125,543.6719 931.3125,546.3906 L931.3125,547.5156 C931.3125,550.0938 933.4219,551.9844 936.3125,551.9844 C937.5313,551.9844 938.6875,551.6875 939.4375,551.1406 C940.0156,550.7344 940.3438,550.2813 940.3438,549.8906 C940.3438,549.4375 939.9531,549.0469 939.4844,549.0469 C939.2656,549.0469 939.0625,549.125 938.875,549.3125 C938.4219,549.7969 938.4219,549.7969 938.2344,549.8906 C937.8125,550.1563 937.125,550.2813 936.3594,550.2813 C934.3125,550.2813 933.0156,549.1875 933.0156,547.4844 L933.0156,546.3906 C933.0156,544.6094 934.2656,543.2969 936,543.2969 C936.5781,543.2969 937.1875,543.4531 937.6563,543.7031 C938.1406,543.9844 938.3125,544.2031 938.4063,544.6094 C938.4688,545.0156 938.5,545.1406 938.6406,545.2656 C938.7813,545.4063 939.0156,545.5156 939.2344,545.5156 C939.5,545.5156 939.7656,545.375 939.9375,545.1563 C940.0469,545 940.0781,544.8125 940.0781,544.3906 L940.0781,542.9688 C940.0781,542.5313 940.0625,542.4063 939.9688,542.25 C939.8125,541.9844 939.5313,541.8438 939.2344,541.8438 C938.9375,541.8438 938.7344,541.9375 938.5156,542.25 L938.3438,542.1719 Z " fill="#000000"/><text fill="#000000" font-family="sans-serif" font-size="14" lengthAdjust="spacing" textLength="56" x="950" y="551.3467">Tableau</text><line style="stroke:#181818;stroke-width:0.5;" x1="922" x2="1008" y1="562.5" y2="562.5"/><line style="stroke:#181818;stroke-width:0.5;" x1="922" x2="1008" y1="570.5" y2="570.5"/></g><!--MD5=[d01ad859d436f6e28b36a553834670aa]
class Foundation--><g id="elem_Foundation"><rect fill="#F1F1F1" height="48" id="Foundation" rx="2.5" ry="2.5" style="stroke:#181818;stroke-width:0.5;" width="112" x="21" y="530.5"/><ellipse cx="36" cy="546.5" fill="#ADD1B2" rx="11" ry="11" style="stroke:#181818;stroke-width:1.0;"/><path d="M38.3438,542.1719 C37.4063,541.7344 36.8125,541.5938 35.9375,541.5938 C33.3125,541.5938 31.3125,543.6719 31.3125,546.3906 L31.3125,547.5156 C31.3125,550.0938 33.4219,551.9844 36.3125,551.9844 C37.5313,551.9844 38.6875,551.6875 39.4375,551.1406 C40.0156,550.7344 40.3438,550.2813 40.3438,549.8906 C40.3438,549.4375 39.9531,549.0469 39.4844,549.0469 C39.2656,549.0469 39.0625,549.125 38.875,549.3125 C38.4219,549.7969 38.4219,549.7969 38.2344,549.8906 C37.8125,550.1563 37.125,550.2813 36.3594,550.2813 C34.3125,550.2813 33.0156,549.1875 33.0156,547.4844 L33.0156,546.3906 C33.0156,544.6094 34.2656,543.2969 36,543.2969 C36.5781,543.2969 37.1875,543.4531 37.6563,543.7031 C38.1406,543.9844 38.3125,544.2031 38.4063,544.6094 C38.4688,545.0156 38.5,545.1406 38.6406,545.2656 C38.7813,545.4063 39.0156,545.5156 39.2344,545.5156 C39.5,545.5156 39.7656,545.375 39.9375,545.1563 C40.0469,545 40.0781,544.8125 40.0781,544.3906 L40.0781,542.9688 C40.0781,542.5313 40.0625,542.4063 39.9688,542.25 C39.8125,541.9844 39.5313,541.8438 39.2344,541.8438 C38.9375,541.8438 38.7344,541.9375 38.5156,542.25 L38.3438,542.1719 Z " fill="#000000"/><text fill="#000000" font-family="sans-serif" font-size="14" lengthAdjust="spacing" textLength="80" x="50" y="551.3467">Foundation</text><line style="stroke:#181818;stroke-width:0.5;" x1="22" x2="132" y1="562.5" y2="562.5"/><line style="stroke:#181818;stroke-width:0.5;" x1="22" x2="132" y1="570.5" y2="570.5"/></g><!--MD5=[fe139ee4e479f23285df0f8136f9d541]
class Deal--><g id="elem_Deal"><rect fill="#F1F1F1" height="48" id="Deal" rx="2.5" ry="2.5" style="stroke:#181818;stroke-width:0.5;" width="64" x="774" y="225"/><ellipse cx="789" cy="241" fill="#ADD1B2" rx="11" ry="11" style="stroke:#181818;stroke-width:1.0;"/><path d="M791.3438,236.6719 C790.4063,236.2344 789.8125,236.0938 788.9375,236.0938 C786.3125,236.0938 784.3125,238.1719 784.3125,240.8906 L784.3125,242.0156 C784.3125,244.5938 786.4219,246.4844 789.3125,246.4844 C790.5313,246.4844 791.6875,246.1875 792.4375,245.6406 C793.0156,245.2344 793.3438,244.7813 793.3438,244.3906 C793.3438,243.9375 792.9531,243.5469 792.4844,243.5469 C792.2656,243.5469 792.0625,243.625 791.875,243.8125 C791.4219,244.2969 791.4219,244.2969 791.2344,244.3906 C790.8125,244.6563 790.125,244.7813 789.3594,244.7813 C787.3125,244.7813 786.0156,243.6875 786.0156,241.9844 L786.0156,240.8906 C786.0156,239.1094 787.2656,237.7969 789,237.7969 C789.5781,237.7969 790.1875,237.9531 790.6563,238.2031 C791.1406,238.4844 791.3125,238.7031 791.4063,239.1094 C791.4688,239.5156 791.5,239.6406 791.6406,239.7656 C791.7813,239.9063 792.0156,240.0156 792.2344,240.0156 C792.5,240.0156 792.7656,239.875 792.9375,239.6563 C793.0469,239.5 793.0781,239.3125 793.0781,238.8906 L793.0781,237.4688 C793.0781,237.0313 793.0625,236.9063 792.9688,236.75 C792.8125,236.4844 792.5313,236.3438 792.2344,236.3438 C791.9375,236.3438 791.7344,236.4375 791.5156,236.75 L791.3438,236.6719 Z " fill="#000000"/><text fill="#000000" font-family="sans-serif" font-size="14" lengthAdjust="spacing" textLength="32" x="803" y="245.8467">Deal</text><line style="stroke:#181818;stroke-width:0.5;" x1="775" x2="837" y1="257" y2="257"/><line style="stroke:#181818;stroke-width:0.5;" x1="775" x2="837" y1="265" y2="265"/></g><!--MD5=[8afaa0cc9be9ac1cdc24999fa1642fa3]
class Suit--><g id="elem_Suit"><rect codeLine="34" fill="#F1F1F1" height="48" id="Suit" rx="2.5" ry="2.5" style="stroke:#181818;stroke-width:0.5;" width="60" x="674" y="530.5"/><ellipse cx="689" cy="546.5" fill="#ADD1B2" rx="11" ry="11" style="stroke:#181818;stroke-width:1.0;"/><path d="M691.3438,542.1719 C690.4063,541.7344 689.8125,541.5938 688.9375,541.5938 C686.3125,541.5938 684.3125,543.6719 684.3125,546.3906 L684.3125,547.5156 C684.3125,550.0938 686.4219,551.9844 689.3125,551.9844 C690.5313,551.9844 691.6875,551.6875 692.4375,551.1406 C693.0156,550.7344 693.3438,550.2813 693.3438,549.8906 C693.3438,549.4375 692.9531,549.0469 692.4844,549.0469 C692.2656,549.0469 692.0625,549.125 691.875,549.3125 C691.4219,549.7969 691.4219,549.7969 691.2344,549.8906 C690.8125,550.1563 690.125,550.2813 689.3594,550.2813 C687.3125,550.2813 686.0156,549.1875 686.0156,547.4844 L686.0156,546.3906 C686.0156,544.6094 687.2656,543.2969 689,543.2969 C689.5781,543.2969 690.1875,543.4531 690.6563,543.7031 C691.1406,543.9844 691.3125,544.2031 691.4063,544.6094 C691.4688,545.0156 691.5,545.1406 691.6406,545.2656 C691.7813,545.4063 692.0156,545.5156 692.2344,545.5156 C692.5,545.5156 692.7656,545.375 692.9375,545.1563 C693.0469,545 693.0781,544.8125 693.0781,544.3906 L693.0781,542.9688 C693.0781,542.5313 693.0625,542.4063 692.9688,542.25 C692.8125,541.9844 692.5313,541.8438 692.2344,541.8438 C691.9375,541.8438 691.7344,541.9375 691.5156,542.25 L691.3438,542.1719 Z " fill="#000000"/><text fill="#000000" font-family="sans-serif" font-size="14" lengthAdjust="spacing" textLength="28" x="703" y="551.3467">Suit</text><line style="stroke:#181818;stroke-width:0.5;" x1="675" x2="733" y1="562.5" y2="562.5"/><line style="stroke:#181818;stroke-width:0.5;" x1="675" x2="733" y1="570.5" y2="570.5"/></g><!--MD5=[0f690a215a17a0cf4b9f948ca5dd1b3e]
class Rank--><g id="elem_Rank"><rect codeLine="14" fill="#F1F1F1" height="96.8906" id="Rank" rx="2.5" ry="2.5" style="stroke:#181818;stroke-width:0.5;" width="68" x="818" y="506"/><ellipse cx="833" cy="522" fill="#EB937F" rx="11" ry="11" style="stroke:#181818;stroke-width:1.0;"/><path d="M831.7969,522.875 L833.25,522.875 L833.25,522.9844 C833.25,523.3906 833.2813,523.5469 833.3594,523.7031 C833.5156,523.9531 833.7969,524.1094 834.0938,524.1094 C834.3438,524.1094 834.6094,523.9688 834.7656,523.75 C834.8906,523.5938 834.9219,523.4375 834.9219,522.9844 L834.9219,521.0625 C834.9219,520.9063 834.9219,520.8594 834.9063,520.7031 C834.8438,520.2344 834.5313,519.9219 834.0781,519.9219 C833.8281,519.9219 833.5625,520.0625 833.3906,520.2813 C833.2813,520.4531 833.25,520.6094 833.25,521.0625 L833.25,521.1875 L831.7969,521.1875 L831.7969,518.7813 L835.7813,518.7813 L835.7813,519.6406 C835.7813,520.0469 835.8125,520.2188 835.8906,520.375 C836.0625,520.625 836.3438,520.7813 836.625,520.7813 C836.8906,520.7813 837.1563,520.6406 837.3281,520.4219 C837.4375,520.25 837.4688,520.1094 837.4688,519.6406 L837.4688,517.0938 L829.8438,517.0938 C829.4063,517.0938 829.2813,517.1094 829.125,517.2031 C828.875,517.3594 828.7188,517.6563 828.7188,517.9375 C828.7188,518.2188 828.8594,518.4688 829.0781,518.6406 C829.2344,518.75 829.4219,518.7813 829.8438,518.7813 L830.0938,518.7813 L830.0938,525.2969 L829.8438,525.2969 C829.4375,525.2969 829.2813,525.3125 829.125,525.4219 C828.875,525.5938 828.7188,525.8594 828.7188,526.1563 C828.7188,526.4219 828.8594,526.6719 829.0781,526.8281 C829.2188,526.9531 829.4531,527 829.8438,527 L837.8438,527 L837.8438,524.4219 C837.8438,523.9844 837.8125,523.8438 837.7344,523.6875 C837.5625,523.4375 837.2813,523.2813 837,523.2813 C836.7344,523.2813 836.4688,523.3906 836.2969,523.6406 C836.1875,523.7969 836.1563,523.9375 836.1563,524.4219 L836.1563,525.2969 L831.7969,525.2969 L831.7969,522.875 Z " fill="#000000"/><text fill="#000000" font-family="sans-serif" font-size="14" lengthAdjust="spacing" textLength="36" x="847" y="526.8467">Rank</text><line style="stroke:#181818;stroke-width:0.5;" x1="819" x2="885" y1="538" y2="538"/><text fill="#000000" font-family="sans-serif" font-size="14" lengthAdjust="spacing" textLength="15" x="824" y="554.9951">as</text><text fill="#000000" font-family="sans-serif" font-size="14" lengthAdjust="spacing" textLength="15" x="824" y="571.292">...</text><text fill="#000000" font-family="sans-serif" font-size="14" lengthAdjust="spacing" textLength="31" x="824" y="587.5889">king</text><line style="stroke:#181818;stroke-width:0.5;" x1="819" x2="885" y1="594.8906" y2="594.8906"/></g><!--MD5=[9d65f55e1ae89a5b4cf38812aa4a03f3]
class Pile--><g id="elem_Pile"><rect fill="#F1F1F1" height="48" id="Pile" rx="2.5" ry="2.5" style="stroke:#181818;stroke-width:0.5;" width="58" x="474" y="389"/><ellipse cx="489" cy="405" fill="#ADD1B2" rx="11" ry="11" style="stroke:#181818;stroke-width:1.0;"/><path d="M491.3438,400.6719 C490.4063,400.2344 489.8125,400.0938 488.9375,400.0938 C486.3125,400.0938 484.3125,402.1719 484.3125,404.8906 L484.3125,406.0156 C484.3125,408.5938 486.4219,410.4844 489.3125,410.4844 C490.5313,410.4844 491.6875,410.1875 492.4375,409.6406 C493.0156,409.2344 493.3438,408.7813 493.3438,408.3906 C493.3438,407.9375 492.9531,407.5469 492.4844,407.5469 C492.2656,407.5469 492.0625,407.625 491.875,407.8125 C491.4219,408.2969 491.4219,408.2969 491.2344,408.3906 C490.8125,408.6563 490.125,408.7813 489.3594,408.7813 C487.3125,408.7813 486.0156,407.6875 486.0156,405.9844 L486.0156,404.8906 C486.0156,403.1094 487.2656,401.7969 489,401.7969 C489.5781,401.7969 490.1875,401.9531 490.6563,402.2031 C491.1406,402.4844 491.3125,402.7031 491.4063,403.1094 C491.4688,403.5156 491.5,403.6406 491.6406,403.7656 C491.7813,403.9063 492.0156,404.0156 492.2344,404.0156 C492.5,404.0156 492.7656,403.875 492.9375,403.6563 C493.0469,403.5 493.0781,403.3125 493.0781,402.8906 L493.0781,401.4688 C493.0781,401.0313 493.0625,400.9063 492.9688,400.75 C492.8125,400.4844 492.5313,400.3438 492.2344,400.3438 C491.9375,400.3438 491.7344,400.4375 491.5156,400.75 L491.3438,400.6719 Z " fill="#000000"/><text fill="#000000" font-family="sans-serif" font-size="14" lengthAdjust="spacing" textLength="26" x="503" y="409.8467">Pile</text><line style="stroke:#181818;stroke-width:0.5;" x1="475" x2="531" y1="421" y2="421"/><line style="stroke:#181818;stroke-width:0.5;" x1="475" x2="531" y1="429" y2="429"/></g><!--MD5=[1981719fa3982d92ef7fd3f06d73b3e7]
class Move--><g id="elem_Move"><rect fill="#F1F1F1" height="48" id="Move" rx="2.5" ry="2.5" style="stroke:#181818;stroke-width:0.5;" width="70" x="481" y="225"/><ellipse cx="496" cy="241" fill="#ADD1B2" rx="11" ry="11" style="stroke:#181818;stroke-width:1.0;"/><path d="M498.3438,236.6719 C497.4063,236.2344 496.8125,236.0938 495.9375,236.0938 C493.3125,236.0938 491.3125,238.1719 491.3125,240.8906 L491.3125,242.0156 C491.3125,244.5938 493.4219,246.4844 496.3125,246.4844 C497.5313,246.4844 498.6875,246.1875 499.4375,245.6406 C500.0156,245.2344 500.3438,244.7813 500.3438,244.3906 C500.3438,243.9375 499.9531,243.5469 499.4844,243.5469 C499.2656,243.5469 499.0625,243.625 498.875,243.8125 C498.4219,244.2969 498.4219,244.2969 498.2344,244.3906 C497.8125,244.6563 497.125,244.7813 496.3594,244.7813 C494.3125,244.7813 493.0156,243.6875 493.0156,241.9844 L493.0156,240.8906 C493.0156,239.1094 494.2656,237.7969 496,237.7969 C496.5781,237.7969 497.1875,237.9531 497.6563,238.2031 C498.1406,238.4844 498.3125,238.7031 498.4063,239.1094 C498.4688,239.5156 498.5,239.6406 498.6406,239.7656 C498.7813,239.9063 499.0156,240.0156 499.2344,240.0156 C499.5,240.0156 499.7656,239.875 499.9375,239.6563 C500.0469,239.5 500.0781,239.3125 500.0781,238.8906 L500.0781,237.4688 C500.0781,237.0313 500.0625,236.9063 499.9688,236.75 C499.8125,236.4844 499.5313,236.3438 499.2344,236.3438 C498.9375,236.3438 498.7344,236.4375 498.5156,236.75 L498.3438,236.6719 Z " fill="#000000"/><text fill="#000000" font-family="sans-serif" font-size="14" lengthAdjust="spacing" textLength="38" x="510" y="245.8467">Move</text><line style="stroke:#181818;stroke-width:0.5;" x1="482" x2="550" y1="257" y2="257"/><line style="stroke:#181818;stroke-width:0.5;" x1="482" x2="550" y1="265" y2="265"/></g><!--MD5=[18eee71c88ab61f27581b8cbdd3ef5ee]
class Color--><g id="elem_Color"><rect codeLine="43" fill="#F1F1F1" height="48" id="Color" rx="2.5" ry="2.5" style="stroke:#181818;stroke-width:0.5;" width="70" x="652" y="867"/><ellipse cx="667" cy="883" fill="#ADD1B2" rx="11" ry="11" style="stroke:#181818;stroke-width:1.0;"/><path d="M669.3438,878.6719 C668.4063,878.2344 667.8125,878.0938 666.9375,878.0938 C664.3125,878.0938 662.3125,880.1719 662.3125,882.8906 L662.3125,884.0156 C662.3125,886.5938 664.4219,888.4844 667.3125,888.4844 C668.5313,888.4844 669.6875,888.1875 670.4375,887.6406 C671.0156,887.2344 671.3438,886.7813 671.3438,886.3906 C671.3438,885.9375 670.9531,885.5469 670.4844,885.5469 C670.2656,885.5469 670.0625,885.625 669.875,885.8125 C669.4219,886.2969 669.4219,886.2969 669.2344,886.3906 C668.8125,886.6563 668.125,886.7813 667.3594,886.7813 C665.3125,886.7813 664.0156,885.6875 664.0156,883.9844 L664.0156,882.8906 C664.0156,881.1094 665.2656,879.7969 667,879.7969 C667.5781,879.7969 668.1875,879.9531 668.6563,880.2031 C669.1406,880.4844 669.3125,880.7031 669.4063,881.1094 C669.4688,881.5156 669.5,881.6406 669.6406,881.7656 C669.7813,881.9063 670.0156,882.0156 670.2344,882.0156 C670.5,882.0156 670.7656,881.875 670.9375,881.6563 C671.0469,881.5 671.0781,881.3125 671.0781,880.8906 L671.0781,879.4688 C671.0781,879.0313 671.0625,878.9063 670.9688,878.75 C670.8125,878.4844 670.5313,878.3438 670.2344,878.3438 C669.9375,878.3438 669.7344,878.4375 669.5156,878.75 L669.3438,878.6719 Z " fill="#000000"/><text fill="#000000" font-family="sans-serif" font-size="14" lengthAdjust="spacing" textLength="38" x="681" y="887.8467">Color</text><line style="stroke:#181818;stroke-width:0.5;" x1="653" x2="721" y1="899" y2="899"/><line style="stroke:#181818;stroke-width:0.5;" x1="653" x2="721" y1="907" y2="907"/></g><!--MD5=[9bb5813e59df3e2529d11a5afaed7800]
class Heart--><g id="elem_Heart"><rect fill="#F1F1F1" height="48" id="Heart" rx="2.5" ry="2.5" style="stroke:#181818;stroke-width:0.5;" width="72" x="498" y="633"/><ellipse cx="513" cy="649" fill="#ADD1B2" rx="11" ry="11" style="stroke:#181818;stroke-width:1.0;"/><path d="M515.3438,644.6719 C514.4063,644.2344 513.8125,644.0938 512.9375,644.0938 C510.3125,644.0938 508.3125,646.1719 508.3125,648.8906 L508.3125,650.0156 C508.3125,652.5938 510.4219,654.4844 513.3125,654.4844 C514.5313,654.4844 515.6875,654.1875 516.4375,653.6406 C517.0156,653.2344 517.3438,652.7813 517.3438,652.3906 C517.3438,651.9375 516.9531,651.5469 516.4844,651.5469 C516.2656,651.5469 516.0625,651.625 515.875,651.8125 C515.4219,652.2969 515.4219,652.2969 515.2344,652.3906 C514.8125,652.6563 514.125,652.7813 513.3594,652.7813 C511.3125,652.7813 510.0156,651.6875 510.0156,649.9844 L510.0156,648.8906 C510.0156,647.1094 511.2656,645.7969 513,645.7969 C513.5781,645.7969 514.1875,645.9531 514.6563,646.2031 C515.1406,646.4844 515.3125,646.7031 515.4063,647.1094 C515.4688,647.5156 515.5,647.6406 515.6406,647.7656 C515.7813,647.9063 516.0156,648.0156 516.2344,648.0156 C516.5,648.0156 516.7656,647.875 516.9375,647.6563 C517.0469,647.5 517.0781,647.3125 517.0781,646.8906 L517.0781,645.4688 C517.0781,645.0313 517.0625,644.9063 516.9688,644.75 C516.8125,644.4844 516.5313,644.3438 516.2344,644.3438 C515.9375,644.3438 515.7344,644.4375 515.5156,644.75 L515.3438,644.6719 Z " fill="#000000"/><text fill="#000000" font-family="sans-serif" font-size="14" lengthAdjust="spacing" textLength="40" x="527" y="653.8467">Heart</text><line style="stroke:#181818;stroke-width:0.5;" x1="499" x2="569" y1="665" y2="665"/><line style="stroke:#181818;stroke-width:0.5;" x1="499" x2="569" y1="673" y2="673"/></g><!--MD5=[e07683d003131b9e2f36793e1d14f746]
class Spade--><g id="elem_Spade"><rect fill="#F1F1F1" height="48" id="Spade" rx="2.5" ry="2.5" style="stroke:#181818;stroke-width:0.5;" width="77" x="736.5" y="789"/><ellipse cx="751.5" cy="805" fill="#ADD1B2" rx="11" ry="11" style="stroke:#181818;stroke-width:1.0;"/><path d="M753.8438,800.6719 C752.9063,800.2344 752.3125,800.0938 751.4375,800.0938 C748.8125,800.0938 746.8125,802.1719 746.8125,804.8906 L746.8125,806.0156 C746.8125,808.5938 748.9219,810.4844 751.8125,810.4844 C753.0313,810.4844 754.1875,810.1875 754.9375,809.6406 C755.5156,809.2344 755.8438,808.7813 755.8438,808.3906 C755.8438,807.9375 755.4531,807.5469 754.9844,807.5469 C754.7656,807.5469 754.5625,807.625 754.375,807.8125 C753.9219,808.2969 753.9219,808.2969 753.7344,808.3906 C753.3125,808.6563 752.625,808.7813 751.8594,808.7813 C749.8125,808.7813 748.5156,807.6875 748.5156,805.9844 L748.5156,804.8906 C748.5156,803.1094 749.7656,801.7969 751.5,801.7969 C752.0781,801.7969 752.6875,801.9531 753.1563,802.2031 C753.6406,802.4844 753.8125,802.7031 753.9063,803.1094 C753.9688,803.5156 754,803.6406 754.1406,803.7656 C754.2813,803.9063 754.5156,804.0156 754.7344,804.0156 C755,804.0156 755.2656,803.875 755.4375,803.6563 C755.5469,803.5 755.5781,803.3125 755.5781,802.8906 L755.5781,801.4688 C755.5781,801.0313 755.5625,800.9063 755.4688,800.75 C755.3125,800.4844 755.0313,800.3438 754.7344,800.3438 C754.4375,800.3438 754.2344,800.4375 754.0156,800.75 L753.8438,800.6719 Z " fill="#000000"/><text fill="#000000" font-family="sans-serif" font-size="14" lengthAdjust="spacing" textLength="45" x="765.5" y="809.8467">Spade</text><line style="stroke:#181818;stroke-width:0.5;" x1="737.5" x2="812.5" y1="821" y2="821"/><line style="stroke:#181818;stroke-width:0.5;" x1="737.5" x2="812.5" y1="829" y2="829"/></g><!--MD5=[2a32276ae8faf0cd977a8dc45df70324]
class Diamon--><g id="elem_Diamon"><rect fill="#F1F1F1" height="48" id="Diamon" rx="2.5" ry="2.5" style="stroke:#181818;stroke-width:0.5;" width="87" x="563.5" y="711"/><ellipse cx="578.5" cy="727" fill="#ADD1B2" rx="11" ry="11" style="stroke:#181818;stroke-width:1.0;"/><path d="M580.8438,722.6719 C579.9063,722.2344 579.3125,722.0938 578.4375,722.0938 C575.8125,722.0938 573.8125,724.1719 573.8125,726.8906 L573.8125,728.0156 C573.8125,730.5938 575.9219,732.4844 578.8125,732.4844 C580.0313,732.4844 581.1875,732.1875 581.9375,731.6406 C582.5156,731.2344 582.8438,730.7813 582.8438,730.3906 C582.8438,729.9375 582.4531,729.5469 581.9844,729.5469 C581.7656,729.5469 581.5625,729.625 581.375,729.8125 C580.9219,730.2969 580.9219,730.2969 580.7344,730.3906 C580.3125,730.6563 579.625,730.7813 578.8594,730.7813 C576.8125,730.7813 575.5156,729.6875 575.5156,727.9844 L575.5156,726.8906 C575.5156,725.1094 576.7656,723.7969 578.5,723.7969 C579.0781,723.7969 579.6875,723.9531 580.1563,724.2031 C580.6406,724.4844 580.8125,724.7031 580.9063,725.1094 C580.9688,725.5156 581,725.6406 581.1406,725.7656 C581.2813,725.9063 581.5156,726.0156 581.7344,726.0156 C582,726.0156 582.2656,725.875 582.4375,725.6563 C582.5469,725.5 582.5781,725.3125 582.5781,724.8906 L582.5781,723.4688 C582.5781,723.0313 582.5625,722.9063 582.4688,722.75 C582.3125,722.4844 582.0313,722.3438 581.7344,722.3438 C581.4375,722.3438 581.2344,722.4375 581.0156,722.75 L580.8438,722.6719 Z " fill="#000000"/><text fill="#000000" font-family="sans-serif" font-size="14" lengthAdjust="spacing" textLength="55" x="592.5" y="731.8467">Diamon</text><line style="stroke:#181818;stroke-width:0.5;" x1="564.5" x2="649.5" y1="743" y2="743"/><line style="stroke:#181818;stroke-width:0.5;" x1="564.5" x2="649.5" y1="751" y2="751"/></g><!--MD5=[a7ca736ec2eaa3f5c977a8fac7fd0779]
class Club--><g id="elem_Club"><rect fill="#F1F1F1" height="48" id="Club" rx="2.5" ry="2.5" style="stroke:#181818;stroke-width:0.5;" width="64" x="806" y="633"/><ellipse cx="821" cy="649" fill="#ADD1B2" rx="11" ry="11" style="stroke:#181818;stroke-width:1.0;"/><path d="M823.3438,644.6719 C822.4063,644.2344 821.8125,644.0938 820.9375,644.0938 C818.3125,644.0938 816.3125,646.1719 816.3125,648.8906 L816.3125,650.0156 C816.3125,652.5938 818.4219,654.4844 821.3125,654.4844 C822.5313,654.4844 823.6875,654.1875 824.4375,653.6406 C825.0156,653.2344 825.3438,652.7813 825.3438,652.3906 C825.3438,651.9375 824.9531,651.5469 824.4844,651.5469 C824.2656,651.5469 824.0625,651.625 823.875,651.8125 C823.4219,652.2969 823.4219,652.2969 823.2344,652.3906 C822.8125,652.6563 822.125,652.7813 821.3594,652.7813 C819.3125,652.7813 818.0156,651.6875 818.0156,649.9844 L818.0156,648.8906 C818.0156,647.1094 819.2656,645.7969 821,645.7969 C821.5781,645.7969 822.1875,645.9531 822.6563,646.2031 C823.1406,646.4844 823.3125,646.7031 823.4063,647.1094 C823.4688,647.5156 823.5,647.6406 823.6406,647.7656 C823.7813,647.9063 824.0156,648.0156 824.2344,648.0156 C824.5,648.0156 824.7656,647.875 824.9375,647.6563 C825.0469,647.5 825.0781,647.3125 825.0781,646.8906 L825.0781,645.4688 C825.0781,645.0313 825.0625,644.9063 824.9688,644.75 C824.8125,644.4844 824.5313,644.3438 824.2344,644.3438 C823.9375,644.3438 823.7344,644.4375 823.5156,644.75 L823.3438,644.6719 Z " fill="#000000"/><text fill="#000000" font-family="sans-serif" font-size="14" lengthAdjust="spacing" textLength="32" x="835" y="653.8467">Club</text><line style="stroke:#181818;stroke-width:0.5;" x1="807" x2="869" y1="665" y2="665"/><line style="stroke:#181818;stroke-width:0.5;" x1="807" x2="869" y1="673" y2="673"/></g><!--MD5=[08be530975453a47bdc5b5370100f2fc]
class Red--><g id="elem_Red"><rect fill="#F1F1F1" height="48" id="Red" rx="2.5" ry="2.5" style="stroke:#181818;stroke-width:0.5;" width="60" x="569" y="976"/><ellipse cx="584" cy="992" fill="#ADD1B2" rx="11" ry="11" style="stroke:#181818;stroke-width:1.0;"/><path d="M586.3438,987.6719 C585.4063,987.2344 584.8125,987.0938 583.9375,987.0938 C581.3125,987.0938 579.3125,989.1719 579.3125,991.8906 L579.3125,993.0156 C579.3125,995.5938 581.4219,997.4844 584.3125,997.4844 C585.5313,997.4844 586.6875,997.1875 587.4375,996.6406 C588.0156,996.2344 588.3438,995.7813 588.3438,995.3906 C588.3438,994.9375 587.9531,994.5469 587.4844,994.5469 C587.2656,994.5469 587.0625,994.625 586.875,994.8125 C586.4219,995.2969 586.4219,995.2969 586.2344,995.3906 C585.8125,995.6563 585.125,995.7813 584.3594,995.7813 C582.3125,995.7813 581.0156,994.6875 581.0156,992.9844 L581.0156,991.8906 C581.0156,990.1094 582.2656,988.7969 584,988.7969 C584.5781,988.7969 585.1875,988.9531 585.6563,989.2031 C586.1406,989.4844 586.3125,989.7031 586.4063,990.1094 C586.4688,990.5156 586.5,990.6406 586.6406,990.7656 C586.7813,990.9063 587.0156,991.0156 587.2344,991.0156 C587.5,991.0156 587.7656,990.875 587.9375,990.6563 C588.0469,990.5 588.0781,990.3125 588.0781,989.8906 L588.0781,988.4688 C588.0781,988.0313 588.0625,987.9063 587.9688,987.75 C587.8125,987.4844 587.5313,987.3438 587.2344,987.3438 C586.9375,987.3438 586.7344,987.4375 586.5156,987.75 L586.3438,987.6719 Z " fill="#000000"/><text fill="#000000" font-family="sans-serif" font-size="14" lengthAdjust="spacing" textLength="28" x="598" y="996.8467">Red</text><line style="stroke:#181818;stroke-width:0.5;" x1="570" x2="628" y1="1008" y2="1008"/><line style="stroke:#181818;stroke-width:0.5;" x1="570" x2="628" y1="1016" y2="1016"/></g><!--MD5=[365150d8163e865a226452c70cc7ad9f]
class Black--><g id="elem_Black"><rect fill="#F1F1F1" height="48" id="Black" rx="2.5" ry="2.5" style="stroke:#181818;stroke-width:0.5;" width="71" x="739.5" y="976"/><ellipse cx="754.5" cy="992" fill="#ADD1B2" rx="11" ry="11" style="stroke:#181818;stroke-width:1.0;"/><path d="M756.8438,987.6719 C755.9063,987.2344 755.3125,987.0938 754.4375,987.0938 C751.8125,987.0938 749.8125,989.1719 749.8125,991.8906 L749.8125,993.0156 C749.8125,995.5938 751.9219,997.4844 754.8125,997.4844 C756.0313,997.4844 757.1875,997.1875 757.9375,996.6406 C758.5156,996.2344 758.8438,995.7813 758.8438,995.3906 C758.8438,994.9375 758.4531,994.5469 757.9844,994.5469 C757.7656,994.5469 757.5625,994.625 757.375,994.8125 C756.9219,995.2969 756.9219,995.2969 756.7344,995.3906 C756.3125,995.6563 755.625,995.7813 754.8594,995.7813 C752.8125,995.7813 751.5156,994.6875 751.5156,992.9844 L751.5156,991.8906 C751.5156,990.1094 752.7656,988.7969 754.5,988.7969 C755.0781,988.7969 755.6875,988.9531 756.1563,989.2031 C756.6406,989.4844 756.8125,989.7031 756.9063,990.1094 C756.9688,990.5156 757,990.6406 757.1406,990.7656 C757.2813,990.9063 757.5156,991.0156 757.7344,991.0156 C758,991.0156 758.2656,990.875 758.4375,990.6563 C758.5469,990.5 758.5781,990.3125 758.5781,989.8906 L758.5781,988.4688 C758.5781,988.0313 758.5625,987.9063 758.4688,987.75 C758.3125,987.4844 758.0313,987.3438 757.7344,987.3438 C757.4375,987.3438 757.2344,987.4375 757.0156,987.75 L756.8438,987.6719 Z " fill="#000000"/><text fill="#000000" font-family="sans-serif" font-size="14" lengthAdjust="spacing" textLength="39" x="768.5" y="996.8467">Black</text><line style="stroke:#181818;stroke-width:0.5;" x1="740.5" x2="809.5" y1="1008" y2="1008"/><line style="stroke:#181818;stroke-width:0.5;" x1="740.5" x2="809.5" y1="1016" y2="1016"/></g><!--MD5=[4c0abcb474b56cdbbfb3c316b5e42628]
class AllCardsToFoundationsGoal--><g id="elem_AllCardsToFoundationsGoal"><rect fill="#F1F1F1" height="48" id="AllCardsToFoundationsGoal" rx="2.5" ry="2.5" style="stroke:#181818;stroke-width:0.5;" width="227" x="135.5" y="303"/><ellipse cx="150.5" cy="319" fill="#ADD1B2" rx="11" ry="11" style="stroke:#181818;stroke-width:1.0;"/><path d="M152.8438,314.6719 C151.9063,314.2344 151.3125,314.0938 150.4375,314.0938 C147.8125,314.0938 145.8125,316.1719 145.8125,318.8906 L145.8125,320.0156 C145.8125,322.5938 147.9219,324.4844 150.8125,324.4844 C152.0313,324.4844 153.1875,324.1875 153.9375,323.6406 C154.5156,323.2344 154.8438,322.7813 154.8438,322.3906 C154.8438,321.9375 154.4531,321.5469 153.9844,321.5469 C153.7656,321.5469 153.5625,321.625 153.375,321.8125 C152.9219,322.2969 152.9219,322.2969 152.7344,322.3906 C152.3125,322.6563 151.625,322.7813 150.8594,322.7813 C148.8125,322.7813 147.5156,321.6875 147.5156,319.9844 L147.5156,318.8906 C147.5156,317.1094 148.7656,315.7969 150.5,315.7969 C151.0781,315.7969 151.6875,315.9531 152.1563,316.2031 C152.6406,316.4844 152.8125,316.7031 152.9063,317.1094 C152.9688,317.5156 153,317.6406 153.1406,317.7656 C153.2813,317.9063 153.5156,318.0156 153.7344,318.0156 C154,318.0156 154.2656,317.875 154.4375,317.6563 C154.5469,317.5 154.5781,317.3125 154.5781,316.8906 L154.5781,315.4688 C154.5781,315.0313 154.5625,314.9063 154.4688,314.75 C154.3125,314.4844 154.0313,314.3438 153.7344,314.3438 C153.4375,314.3438 153.2344,314.4375 153.0156,314.75 L152.8438,314.6719 Z " fill="#000000"/><text fill="#000000" font-family="sans-serif" font-size="14" lengthAdjust="spacing" textLength="195" x="164.5" y="323.8467">AllCardsToFoundationsGoal</text><line style="stroke:#181818;stroke-width:0.5;" x1="136.5" x2="361.5" y1="335" y2="335"/><line style="stroke:#181818;stroke-width:0.5;" x1="136.5" x2="361.5" y1="343" y2="343"/></g><!--MD5=[d0e37a71a001f6053d69fd29d330fd4f]
link Klondike to Player--><g id="link_Klondike_Player"><path codeLine="2" d="M605.5131,62.9845 C605.5131,62.9845 569.56,93.516 553.438,107.208 " fill="none" id="Klondike-Player" style="stroke:#181818;stroke-width:1.0;"/><polygon fill="#181818" points="543.287,115.828,552.7364,113.0514,547.0982,112.5915,547.558,106.9534,543.287,115.828" style="stroke:#181818;stroke-width:1.0;"/><line style="stroke:#181818;stroke-width:1.0;" x1="547.0982" x2="553.196" y1="112.5915" y2="107.413"/><polygon fill="#181818" points="614.66,55.217,607.4974,56.0518,605.5131,62.9845,612.6757,62.1497,614.66,55.217" style="stroke:#181818;stroke-width:1.0;"/></g><!--MD5=[66e773952485c2ebd2097a6df943c858]
link Klondike to Card--><g id="link_Klondike_Card"><path codeLine="3" d="M660.7034,65.8382 C660.7034,65.8382 666.234,78.923 668,85 C696.514,183.103 702.757,303.76 703.93,367.557 " fill="none" id="Klondike-Card" style="stroke:#181818;stroke-width:1.0;"/><polygon fill="#181818" points="704.114,380.65,707.988,371.5951,704.0442,375.6505,699.9888,371.7067,704.114,380.65" style="stroke:#181818;stroke-width:1.0;"/><line style="stroke:#181818;stroke-width:1.0;" x1="704.0442" x2="703.9315" y1="375.6505" y2="367.6515"/><polygon fill="#181818" points="655.467,55.041,654.4861,62.1851,660.7034,65.8382,661.6843,58.6941,655.467,55.041" style="stroke:#181818;stroke-width:1.0;"/><text fill="#000000" font-family="sans-serif" font-size="13" lengthAdjust="spacing" textLength="16" x="686.5614" y="369.8553">52</text></g><!--MD5=[d3883b6e5521bc1a4fbc628d87a10151]
link Klondike to Stock--><g id="link_Klondike_Stock"><path codeLine="4" d="M640.7458,67.283 C640.7458,67.283 632.305,248.953 620,351 C612.936,409.587 600.389,477 592.394,517.378 " fill="none" id="Klondike-Stock" style="stroke:#181818;stroke-width:1.0;"/><polygon fill="#181818" points="589.821,530.228,595.5096,522.1881,590.8023,525.3252,587.6652,520.618,589.821,530.228" style="stroke:#181818;stroke-width:1.0;"/><line style="stroke:#181818;stroke-width:1.0;" x1="590.8023" x2="592.3735" y1="525.3252" y2="517.481"/><polygon fill="#181818" points="641.21,55.292,636.9809,61.1328,640.7458,67.283,644.9749,61.4422,641.21,55.292" style="stroke:#181818;stroke-width:1.0;"/></g><!--MD5=[fc362caf7996dc1cff37dff6c24ba86b]
link Klondike to Waste--><g id="link_Klondike_Waste"><path codeLine="5" d="M582.7435,42.7637 C582.7435,42.7637 230.506,136.387 134,303 C86.3118,385.332 191.075,476.485 256.528,522.814 " fill="none" id="Klondike-Waste" style="stroke:#181818;stroke-width:1.0;"/><polygon fill="#181818" points="267.456,530.394,262.3404,521.9779,263.3475,527.5444,257.781,528.5515,267.456,530.394" style="stroke:#181818;stroke-width:1.0;"/><line style="stroke:#181818;stroke-width:1.0;" x1="263.3475" x2="256.774" y1="527.5444" y2="522.9845"/><polygon fill="#181818" points="594.491,40.315,587.801,37.6235,582.7435,42.7637,589.4335,45.4552,594.491,40.315" style="stroke:#181818;stroke-width:1.0;"/></g><!--MD5=[b1c209f4aa9271d424a51362b3ae8562]
link Klondike to Tableau--><g id="link_Klondike_Tableau"><path codeLine="6" d="M701.5468,39.3494 C701.5468,39.3494 965,84.329 965,139 C965,139 965,139 965,414 C965,449.014 965,488.972 965,517.122 " fill="none" id="Klondike-Tableau" style="stroke:#181818;stroke-width:1.0;"/><polygon fill="#181818" points="965,530.298,969,521.298,965,525.298,961,521.298,965,530.298" style="stroke:#181818;stroke-width:1.0;"/><line style="stroke:#181818;stroke-width:1.0;" x1="965" x2="965" y1="525.298" y2="517.298"/><polygon fill="#181818" points="689.66,37.705,695.0553,42.4895,701.5468,39.3494,696.1515,34.5649,689.66,37.705" style="stroke:#181818;stroke-width:1.0;"/><text fill="#000000" font-family="sans-serif" font-size="13" lengthAdjust="spacing" textLength="8" x="955.975" y="519.2583">7</text></g><!--MD5=[6a4057357f913d5657fa9fe87f0edd29]
link Klondike to Foundation--><g id="link_Klondike_Foundation"><path codeLine="7" d="M582.4846,35.7916 C582.4846,35.7916 6,81.031 6,139 C6,139 6,139 6,414 C6,453.409 28.7841,492.935 48.5387,519.799 " fill="none" id="Klondike-Foundation" style="stroke:#181818;stroke-width:1.0;"/><polygon fill="#181818" points="56.4639,530.148,54.1676,520.5706,53.4239,526.1783,47.8161,525.4346,56.4639,530.148" style="stroke:#181818;stroke-width:1.0;"/><line style="stroke:#181818;stroke-width:1.0;" x1="53.4239" x2="48.56" y1="526.1783" y2="519.8265"/><polygon fill="#181818" points="594.457,34.978,588.1996,31.394,582.4846,35.7916,588.742,39.3756,594.457,34.978" style="stroke:#181818;stroke-width:1.0;"/><text fill="#000000" font-family="sans-serif" font-size="13" lengthAdjust="spacing" textLength="8" x="42.4832" y="519.4672">4</text></g><!--MD5=[37ea3813cdee931c7c4fe6bac0c00ff5]
link Klondike to Deal--><g id="link_Klondike_Deal"><path codeLine="8" d="M689.899,50.142 C707.18,58.598 725.685,70.133 739,85 C774.213,124.32 792.393,184.668 800.506,219.847 " fill="none" id="Klondike-to-Deal" style="stroke:#181818;stroke-width:1.0;stroke-dasharray:7.0,7.0;"/><polygon fill="#181818" points="801.631,224.849,803.5615,215.1912,800.5353,219.9705,795.756,216.9443,801.631,224.849" style="stroke:#181818;stroke-width:1.0;"/></g><!--MD5=[931d6dc4b147680a7f81f78f3f3bbe12]
link Deal to Card--><g id="link_Deal_Card"><path codeLine="9" d="M791.386,273.211 C774.427,300.145 746.269,344.868 726.51,376.249 " fill="none" id="Deal-to-Card" style="stroke:#181818;stroke-width:1.0;"/><polygon fill="#181818" points="723.658,380.778,731.8383,375.2932,726.3221,376.5469,725.0685,371.0307,723.658,380.778" style="stroke:#181818;stroke-width:1.0;"/><text fill="#000000" font-family="sans-serif" font-size="13" lengthAdjust="spacing" textLength="16" x="709.9532" y="370.0085">52</text></g><!--MD5=[2e56af408f392f89dc42df43a7ca079e]
link Deal to Tableau--><g id="link_Deal_Tableau"><path codeLine="10" d="M826.798,273.068 C834.319,282.042 842.542,292.645 849,303 C896.568,379.272 936.701,478.245 954.76,525.714 " fill="none" id="Deal-to-Tableau" style="stroke:#181818;stroke-width:1.0;"/><polygon fill="#181818" points="956.542,530.42,957.094,520.5866,954.7706,525.7443,949.6129,523.4209,956.542,530.42" style="stroke:#181818;stroke-width:1.0;"/><text fill="#000000" font-family="sans-serif" font-size="13" lengthAdjust="spacing" textLength="8" x="945.3496" y="519.4115">7</text></g><!--MD5=[4f1f0fb157b927240641f4f2c8c8aae8]
link Deal to Stock--><g id="link_Deal_Stock"><path codeLine="11" d="M810.563,273.233 C816.914,312.538 823.852,392.948 787,445 C749.889,497.418 711.967,474.495 656,506 C644.477,512.487 632.367,520.217 621.478,527.538 " fill="none" id="Deal-to-Stock" style="stroke:#181818;stroke-width:1.0;"/><polygon fill="#181818" points="617.211,530.428,626.9061,528.6947,621.3514,527.6249,622.4212,522.0701,617.211,530.428" style="stroke:#181818;stroke-width:1.0;"/></g><!--MD5=[01ae9f68263e6bc4031c0aece6e20929]
link Card to Suit--><g id="link_Card_Suit"><path codeLine="12" d="M704,457.307 C704,457.307 704,499.009 704,516.956 " fill="none" id="Card-Suit" style="stroke:#181818;stroke-width:1.0;"/><polygon fill="#181818" points="704,530.112,708,521.112,704,525.112,700,521.112,704,530.112" style="stroke:#181818;stroke-width:1.0;"/><line style="stroke:#181818;stroke-width:1.0;" x1="704" x2="704" y1="525.112" y2="517.1115"/><polygon fill="#181818" points="704,445.307,700,451.307,704,457.307,708,451.307,704,445.307" style="stroke:#181818;stroke-width:1.0;"/></g><!--MD5=[dab4fdc688f775bd2cd14c67a04f3f7b]
link Card to Rank--><g id="link_Card_Rank"><path codeLine="13" d="M745.9461,453.538 C745.9461,453.538 788.962,494.083 808.36,512.366 " fill="none" id="Card-Rank" style="stroke:#181818;stroke-width:1.0;"/><polygon fill="#181818" points="817.87,521.33,814.0646,512.246,814.2316,517.9004,808.5772,518.0674,817.87,521.33" style="stroke:#181818;stroke-width:1.0;"/><line style="stroke:#181818;stroke-width:1.0;" x1="814.2316" x2="808.41" y1="517.9004" y2="512.414"/><polygon fill="#181818" points="737.214,445.307,738.8364,452.3332,745.9461,453.538,744.3237,446.5118,737.214,445.307" style="stroke:#181818;stroke-width:1.0;"/></g><!--MD5=[0cc7312144b7b0e8e85651666602557e]
reverse link Pile to Waste--><g id="link_Pile_Waste"><path codeLine="23" d="M456.889,446.324 C420.246,472.011 369.88,507.318 337.137,530.271 " fill="none" id="Pile-backto-Waste" style="stroke:#181818;stroke-width:1.0;"/><polygon fill="none" points="453.242,440.332,473.637,434.584,461.278,451.796,453.242,440.332" style="stroke:#181818;stroke-width:1.0;"/></g><!--MD5=[a3b0419bdb877a6921c502f7ab916277]
reverse link Pile to Stock--><g id="link_Pile_Stock"><path codeLine="24" d="M526.796,454.481 C541.305,479.165 559.326,509.822 571.439,530.43 " fill="none" id="Pile-backto-Stock" style="stroke:#181818;stroke-width:1.0;"/><polygon fill="none" points="520.641,457.825,516.541,437.036,532.71,450.73,520.641,457.825" style="stroke:#181818;stroke-width:1.0;"/></g><!--MD5=[b0173922ba304e58e67aa3279a656791]
reverse link Pile to Tableau--><g id="link_Pile_Tableau"><path codeLine="25" d="M551.683,427.451 C572.647,433.101 597.471,439.599 620,445 C745.544,475.097 787.009,451.409 904,506 C917.136,512.13 930.046,521.541 940.581,530.375 " fill="none" id="Pile-backto-Tableau" style="stroke:#181818;stroke-width:1.0;"/><polygon fill="none" points="549.693,434.165,532.233,422.158,553.37,420.656,549.693,434.165" style="stroke:#181818;stroke-width:1.0;"/></g><!--MD5=[6d28caff8698f66462643c822ec8500b]
reverse link Pile to Foundation--><g id="link_Pile_Foundation"><path codeLine="26" d="M454.637,429.837 C375.235,455.838 217.658,507.439 133.339,535.051 " fill="none" id="Pile-backto-Foundation" style="stroke:#181818;stroke-width:1.0;"/><polygon fill="none" points="452.534,423.16,473.719,423.588,456.891,436.465,452.534,423.16" style="stroke:#181818;stroke-width:1.0;"/></g><!--MD5=[1686cafc001cbb054836a454f368ddc9]
link Pile to Card--><g id="link_Pile_Card"><path codeLine="27" d="M544.051,413 C544.051,413 598.307,413 624.823,413 " fill="none" id="Pile-Card" style="stroke:#181818;stroke-width:1.0;"/><polygon fill="#181818" points="637.84,413,628.84,409,632.84,413,628.84,417,637.84,413" style="stroke:#181818;stroke-width:1.0;"/><line style="stroke:#181818;stroke-width:1.0;" x1="632.84" x2="624.84" y1="413" y2="413"/><polygon fill="none" points="532.051,413,538.051,417,544.051,413,538.051,409,532.051,413" style="stroke:#181818;stroke-width:1.0;"/><text fill="#000000" font-family="sans-serif" font-size="13" lengthAdjust="spacing" textLength="24" x="605.7798" y="409.285">0..n</text></g><!--MD5=[7e30d075c7e28ae86a5e6e748d3cd0b6]
link Player to Move--><g id="link_Player_Move"><path codeLine="28" d="M516,164.217 C516,180.482 516,202.315 516,219.616 " fill="none" id="Player-to-Move" style="stroke:#181818;stroke-width:1.0;stroke-dasharray:7.0,7.0;"/><polygon fill="#181818" points="516,224.828,520,215.828,516,219.828,512,215.828,516,224.828" style="stroke:#181818;stroke-width:1.0;"/></g><!--MD5=[610353d3a72395b77e7f561f5987d448]
link Move to Card--><g id="link_Move_Card"><path codeLine="29" d="M542.936,273.211 C574.577,300.476 627.373,345.97 663.847,377.4 " fill="none" id="Move-to-Card" style="stroke:#181818;stroke-width:1.0;"/><polygon fill="#181818" points="667.767,380.778,663.5614,371.8722,663.9797,377.5136,658.3383,377.9319,667.767,380.778" style="stroke:#181818;stroke-width:1.0;"/><text fill="#000000" font-family="sans-serif" font-size="13" lengthAdjust="spacing" textLength="24" x="634" y="331.5669">1..n</text></g><!--MD5=[9c96613f90e0ef613e532dfde2be76fd]
link Move to Pile--><g id="link_Move_Pile"><path codeLine="30" d="M514.137,273.211 C511.801,302.323 507.798,352.216 505.28,383.582 " fill="none" id="Move-to-Pile" style="stroke:#181818;stroke-width:1.0;"/><polygon fill="#181818" points="504.859,388.832,509.5661,380.1808,505.259,383.848,501.5918,379.5409,504.859,388.832" style="stroke:#181818;stroke-width:1.0;"/><text fill="#000000" font-family="sans-serif" font-size="13" lengthAdjust="spacing" textLength="35" x="513" y="331.5669">origin</text></g><!--MD5=[9c96613f90e0ef613e532dfde2be76fd]
link Move to Pile--><g id="link_Move_Pile"><path codeLine="31" d="M480.938,261.108 C461.323,269.325 438.552,282.675 427,303 C416.458,321.547 417.774,331.765 427,351 C435.895,369.545 453.481,384.233 469.498,394.545 " fill="none" id="Move-to-Pile-1" style="stroke:#181818;stroke-width:1.0;"/><polygon fill="#181818" points="473.965,397.337,468.453,389.175,469.725,394.687,464.213,395.959,473.965,397.337" style="stroke:#181818;stroke-width:1.0;"/><text fill="#000000" font-family="sans-serif" font-size="13" lengthAdjust="spacing" textLength="71" x="428" y="331.5669">destination</text></g><!--MD5=[177767f5f369ddd7a2766db2fec86924]
link Suit to Color--><g id="link_Suit_Color"><path codeLine="32" d="M702.818,578.756 C699.786,638.416 691.739,796.755 688.441,861.651 " fill="none" id="Suit-to-Color" style="stroke:#181818;stroke-width:1.0;"/><polygon fill="#181818" points="688.174,866.898,692.624,858.1118,688.4268,861.9044,684.6342,857.7073,688.174,866.898" style="stroke:#181818;stroke-width:1.0;"/></g><!--MD5=[4dce8a7c926835c26b617333aef55021]
reverse link Suit to Heart--><g id="link_Suit_Heart"><path codeLine="35" d="M658.357,590.277 C651.967,594.724 645.396,599.085 639,603 C616.881,616.539 590.867,629.688 570.266,639.503 " fill="none" id="Suit-backto-Heart" style="stroke:#181818;stroke-width:1.0;"/><polygon fill="none" points="654.296,584.575,674.611,578.548,662.489,595.928,654.296,584.575" style="stroke:#181818;stroke-width:1.0;"/></g><!--MD5=[87a89b153beae7d393e9829af90018d5]
reverse link Suit to Spade--><g id="link_Suit_Spade"><path codeLine="36" d="M718.849,597.799 C722.662,609.173 726.633,621.509 730,633 C746.261,688.505 761.963,754.727 769.81,788.959 " fill="none" id="Suit-backto-Spade" style="stroke:#181818;stroke-width:1.0;"/><polygon fill="none" points="712.184,599.941,712.325,578.752,725.428,595.404,712.184,599.941" style="stroke:#181818;stroke-width:1.0;"/></g><!--MD5=[3240b0668addca4158fb3cca1bb15e32]
reverse link Suit to Diamon--><g id="link_Suit_Diamon"><path codeLine="37" d="M681.535,596.841 C662.259,632.312 635.186,682.132 619.53,710.941 " fill="none" id="Suit-backto-Diamon" style="stroke:#181818;stroke-width:1.0;"/><polygon fill="none" points="675.619,593.066,691.319,578.836,687.92,599.751,675.619,593.066" style="stroke:#181818;stroke-width:1.0;"/></g><!--MD5=[988cd1dee8ea1cf2960e884b4b0ffb8b]
reverse link Suit to Club--><g id="link_Suit_Club"><path codeLine="38" d="M750.139,590.104 C768.954,604.216 790.208,620.156 807.099,632.824 " fill="none" id="Suit-backto-Club" style="stroke:#181818;stroke-width:1.0;"/><polygon fill="none" points="745.872,595.654,734.072,578.054,754.272,584.454,745.872,595.654" style="stroke:#181818;stroke-width:1.0;"/></g><!--MD5=[39e04be43e1ad652dcf6d75fa160b251]
link Heart to Red--><g id="link_Heart_Red"><path codeLine="39" d="M536.113,681.361 C538.127,701.892 541.517,732.537 546,759 C559.107,836.374 580.735,926.442 591.877,971.0317 " fill="none" id="Heart-to-Red" style="stroke:#181818;stroke-width:1.0;"/><polygon fill="#181818" points="593.117,975.9811,594.8092,966.2787,591.9016,971.1311,587.0492,968.2234,593.117,975.9811" style="stroke:#181818;stroke-width:1.0;"/></g><!--MD5=[c24cb79e4d35e118006c9454deabc9d6]
link Diamon to Red--><g id="link_Diamon_Red"><path codeLine="40" d="M606.29,759.339 C604.822,807.591 601.458,918.181 599.866,970.5302 " fill="none" id="Diamon-to-Red" style="stroke:#181818;stroke-width:1.0;"/><polygon fill="#181818" points="599.708,975.7128,603.98,966.8387,599.8601,970.7151,595.9837,966.5953,599.708,975.7128" style="stroke:#181818;stroke-width:1.0;"/></g><!--MD5=[5e71cd03c38ae2dc5991a4eb9d4f46b1]
link Spade to Black--><g id="link_Spade_Black"><path codeLine="41" d="M775,837.056 C775,870.938 775,934.1123 775,970.7397 " fill="none" id="Spade-to-Black" style="stroke:#181818;stroke-width:1.0;"/><polygon fill="#181818" points="775,975.9444,779,966.9444,775,970.9444,771,966.9444,775,975.9444" style="stroke:#181818;stroke-width:1.0;"/></g><!--MD5=[378246b792e7d73afd082aeb5825fcc6]
link Club to Black--><g id="link_Club_Black"><path codeLine="42" d="M838.173,681.12 C837.876,730.959 833.534,851.637 801,946 C798.123,954.3448 794.239,963.0735 790.351,970.9832 " fill="none" id="Club-to-Black" style="stroke:#181818;stroke-width:1.0;"/><polygon fill="#181818" points="787.939,975.7916,795.5504,969.5413,790.1814,971.3226,788.4,965.9535,787.939,975.7916" style="stroke:#181818;stroke-width:1.0;"/></g><!--MD5=[af66b58f2992f2e4db4f382db65f0624]
reverse link Color to Black--><g id="link_Color_Black"><path codeLine="44" d="M718.828,930.7 C731.265,945.8219 745.11,962.6561 755.943,975.8279 " fill="none" id="Color-backto-Black" style="stroke:#181818;stroke-width:1.0;"/><polygon fill="none" points="713.392,935.1108,706.095,915.217,724.205,926.2179,713.392,935.1108" style="stroke:#181818;stroke-width:1.0;"/></g><!--MD5=[fab54b5999e935266d298ad54749f91a]
reverse link Color to Red--><g id="link_Color_Red"><path codeLine="45" d="M655.172,930.7 C642.735,945.8219 628.89,962.6561 618.057,975.8279 " fill="none" id="Color-backto-Red" style="stroke:#181818;stroke-width:1.0;"/><polygon fill="none" points="649.795,926.2179,667.905,915.217,660.608,935.1108,649.795,926.2179" style="stroke:#181818;stroke-width:1.0;"/></g><!--MD5=[0c4ac1459b76e36ae8c72ba408689077]
link Player to AllCardsToFoundationsGoal--><g id="link_Player_AllCardsToFoundationsGoal"><path codeLine="46" d="M482.724,164.056 C432.823,198.632 338.894,263.714 286.586,299.957 " fill="none" id="Player-to-AllCardsToFoundationsGoal" style="stroke:#181818;stroke-width:1.0;"/><polygon fill="#181818" points="282.275,302.944,291.951,301.1071,286.3851,300.0968,287.3955,294.5309,282.275,302.944" style="stroke:#181818;stroke-width:1.0;"/></g><!--MD5=[8214be69222729de39b9e1657fe05db9]
link AllCardsToFoundationsGoal to Foundation--><g id="link_AllCardsToFoundationsGoal_Foundation"><path codeLine="47" d="M231.241,351.283 C199.228,393.253 132.008,481.382 97.8615,526.15 " fill="none" id="AllCardsToFoundationsGoal-to-Foundation" style="stroke:#181818;stroke-width:1.0;"/><polygon fill="#181818" points="94.6626,530.344,103.3005,525.6126,97.6943,526.368,96.939,520.7618,94.6626,530.344" style="stroke:#181818;stroke-width:1.0;"/><text fill="#000000" font-family="sans-serif" font-size="13" lengthAdjust="spacing" textLength="8" x="90.1636" y="519.3161">4</text></g><!--MD5=[c1e02f8ba9d9acba9429cd05bbced909]
@startuml
class Klondike
Klondike *-down-> Player
Klondike *-down-> "52"Card
Klondike *-down-> Stock
Klondike *-down-> Waste
Klondike *-down-> "7"Tableau
Klondike *-down-> "4" Foundation
Klondike..> Deal
Deal - -> "52" Card
Deal - -> "7" Tableau
Deal - -> Stock
Card *-down-> Suit
Card *-down-> Rank
enum Rank{
as
...
king
}

class Card{
faceup : boolean
}
Pile <|-down-Waste
Pile <|-down- Stock
Pile <|-down- Tableau
Pile <|-down- Foundation
Pile o-right->"0..n" Card
Player ..> Move
Move - -> Card : 1..n
Move -down-> Pile : origin
Move -down-> Pile : destination
Suit - -down-> Color
enum Color
Class Suit
Suit <|- Heart
Suit <|- Spade
Suit <|- Diamon
Suit <|- Club
Heart - -> Red
Diamon - -> Red
Spade - -> Black
Club - -> Black
class Color
Color <|-down- Black
Color <|-down- Red
Player - -> AllCardsToFoundationsGoal
AllCardsToFoundationsGoal - -> "4"Foundation
@enduml

PlantUML version 1.2022.3beta2(Unknown compile time)
(GPL source distribution)
Java Runtime: Java(TM) SE Runtime Environment
JVM: Java HotSpot(TM) 64-Bit Server VM
Default Encoding: UTF-8
Language: en
Country: US
--></g></svg>