<?xml version="1.0" encoding="UTF-8" standalone="no"?><svg xmlns="http://www.w3.org/2000/svg" xmlns:xlink="http://www.w3.org/1999/xlink" contentStyleType="text/css" height="745px" preserveAspectRatio="none" style="width:345px;height:745px;background:#FFFFFF;" version="1.1" viewBox="0 0 345 745" width="345px" zoomAndPan="magnify"><defs/><g><!--MD5=[10b1f240992e2c34b6908209bf85bfd2]
class Connect4--><g id="elem_Connect4"><rect codeLine="1" fill="#F1F1F1" height="48" id="Connect4" rx="2.5" ry="2.5" style="stroke:#181818;stroke-width:0.5;" width="93" x="67" y="7"/><ellipse cx="82" cy="23" fill="#ADD1B2" rx="11" ry="11" style="stroke:#181818;stroke-width:1.0;"/><path d="M84.7656,18.875 Q84.9219,18.6563 85.1094,18.5469 Q85.2969,18.4375 85.5156,18.4375 Q85.8906,18.4375 86.125,18.7031 Q86.3594,18.9531 86.3594,19.5625 L86.3594,21.0156 Q86.3594,21.625 86.125,21.8906 Q85.8906,22.1563 85.5156,22.1563 Q85.1719,22.1563 84.9688,21.9531 Q84.7656,21.7656 84.6563,21.25 Q84.6094,20.8906 84.4219,20.7031 Q84.0938,20.3281 83.4844,20.1094 Q82.875,19.8906 82.25,19.8906 Q81.4844,19.8906 80.8438,20.2188 Q80.2188,20.5469 79.7188,21.2969 Q79.2344,22.0469 79.2344,23.0781 L79.2344,24.1719 Q79.2344,25.4063 80.125,26.2344 Q81.0156,27.0469 82.6094,27.0469 Q83.5469,27.0469 84.2031,26.7969 Q84.5938,26.6406 85.0156,26.2031 Q85.2813,25.9375 85.4219,25.8594 Q85.5781,25.7813 85.7813,25.7813 Q86.1094,25.7813 86.3594,26.0469 Q86.625,26.2969 86.625,26.6406 Q86.625,26.9844 86.2813,27.3906 Q85.7813,27.9688 84.9844,28.2969 Q83.9063,28.75 82.6094,28.75 Q81.0938,28.75 79.8906,28.125 Q78.9063,27.625 78.2188,26.5625 Q77.5313,25.4844 77.5313,24.2031 L77.5313,23.0469 Q77.5313,21.7188 78.1406,20.5781 Q78.7656,19.4219 79.8594,18.8125 Q80.9531,18.1875 82.1875,18.1875 Q82.9219,18.1875 83.5625,18.3594 Q84.2188,18.5156 84.7656,18.875 Z " fill="#000000"/><text fill="#000000" font-family="sans-serif" font-size="14" lengthAdjust="spacing" textLength="61" x="96" y="28.7285">Connect4</text><line style="stroke:#181818;stroke-width:0.5;" x1="68" x2="159" y1="39" y2="39"/><line style="stroke:#181818;stroke-width:0.5;" x1="68" x2="159" y1="47" y2="47"/></g><!--MD5=[9563755d011c5cec7ec66dc53565a59e]
class Board--><g id="elem_Board"><rect codeLine="2" fill="#F1F1F1" height="48" id="Board" rx="2.5" ry="2.5" style="stroke:#181818;stroke-width:0.5;" width="70" x="36.5" y="223"/><ellipse cx="51.5" cy="239" fill="#ADD1B2" rx="11" ry="11" style="stroke:#181818;stroke-width:1.0;"/><path d="M54.2656,234.875 Q54.4219,234.6563 54.6094,234.5469 Q54.7969,234.4375 55.0156,234.4375 Q55.3906,234.4375 55.625,234.7031 Q55.8594,234.9531 55.8594,235.5625 L55.8594,237.0156 Q55.8594,237.625 55.625,237.8906 Q55.3906,238.1563 55.0156,238.1563 Q54.6719,238.1563 54.4688,237.9531 Q54.2656,237.7656 54.1563,237.25 Q54.1094,236.8906 53.9219,236.7031 Q53.5938,236.3281 52.9844,236.1094 Q52.375,235.8906 51.75,235.8906 Q50.9844,235.8906 50.3438,236.2188 Q49.7188,236.5469 49.2188,237.2969 Q48.7344,238.0469 48.7344,239.0781 L48.7344,240.1719 Q48.7344,241.4063 49.625,242.2344 Q50.5156,243.0469 52.1094,243.0469 Q53.0469,243.0469 53.7031,242.7969 Q54.0938,242.6406 54.5156,242.2031 Q54.7813,241.9375 54.9219,241.8594 Q55.0781,241.7813 55.2813,241.7813 Q55.6094,241.7813 55.8594,242.0469 Q56.125,242.2969 56.125,242.6406 Q56.125,242.9844 55.7813,243.3906 Q55.2813,243.9688 54.4844,244.2969 Q53.4063,244.75 52.1094,244.75 Q50.5938,244.75 49.3906,244.125 Q48.4063,243.625 47.7188,242.5625 Q47.0313,241.4844 47.0313,240.2031 L47.0313,239.0469 Q47.0313,237.7188 47.6406,236.5781 Q48.2656,235.4219 49.3594,234.8125 Q50.4531,234.1875 51.6875,234.1875 Q52.4219,234.1875 53.0625,234.3594 Q53.7188,234.5156 54.2656,234.875 Z " fill="#000000"/><text fill="#000000" font-family="sans-serif" font-size="14" lengthAdjust="spacing" textLength="38" x="65.5" y="244.7285">Board</text><line style="stroke:#181818;stroke-width:0.5;" x1="37.5" x2="105.5" y1="255" y2="255"/><line style="stroke:#181818;stroke-width:0.5;" x1="37.5" x2="105.5" y1="263" y2="263"/></g><!--MD5=[d8c8cfd5ca149094f5b67f9f607a5ec7]
class Token--><g id="elem_Token"><rect codeLine="3" fill="#F1F1F1" height="48" id="Token" rx="2.5" ry="2.5" style="stroke:#181818;stroke-width:0.5;" width="72" x="28.5" y="439"/><ellipse cx="43.5" cy="455" fill="#ADD1B2" rx="11" ry="11" style="stroke:#181818;stroke-width:1.0;"/><path d="M46.2656,450.875 Q46.4219,450.6563 46.6094,450.5469 Q46.7969,450.4375 47.0156,450.4375 Q47.3906,450.4375 47.625,450.7031 Q47.8594,450.9531 47.8594,451.5625 L47.8594,453.0156 Q47.8594,453.625 47.625,453.8906 Q47.3906,454.1563 47.0156,454.1563 Q46.6719,454.1563 46.4688,453.9531 Q46.2656,453.7656 46.1563,453.25 Q46.1094,452.8906 45.9219,452.7031 Q45.5938,452.3281 44.9844,452.1094 Q44.375,451.8906 43.75,451.8906 Q42.9844,451.8906 42.3438,452.2188 Q41.7188,452.5469 41.2188,453.2969 Q40.7344,454.0469 40.7344,455.0781 L40.7344,456.1719 Q40.7344,457.4063 41.625,458.2344 Q42.5156,459.0469 44.1094,459.0469 Q45.0469,459.0469 45.7031,458.7969 Q46.0938,458.6406 46.5156,458.2031 Q46.7813,457.9375 46.9219,457.8594 Q47.0781,457.7813 47.2813,457.7813 Q47.6094,457.7813 47.8594,458.0469 Q48.125,458.2969 48.125,458.6406 Q48.125,458.9844 47.7813,459.3906 Q47.2813,459.9688 46.4844,460.2969 Q45.4063,460.75 44.1094,460.75 Q42.5938,460.75 41.3906,460.125 Q40.4063,459.625 39.7188,458.5625 Q39.0313,457.4844 39.0313,456.2031 L39.0313,455.0469 Q39.0313,453.7188 39.6406,452.5781 Q40.2656,451.4219 41.3594,450.8125 Q42.4531,450.1875 43.6875,450.1875 Q44.4219,450.1875 45.0625,450.3594 Q45.7188,450.5156 46.2656,450.875 Z " fill="#000000"/><text fill="#000000" font-family="sans-serif" font-size="14" lengthAdjust="spacing" textLength="40" x="57.5" y="460.7285">Token</text><line style="stroke:#181818;stroke-width:0.5;" x1="29.5" x2="99.5" y1="471" y2="471"/><line style="stroke:#181818;stroke-width:0.5;" x1="29.5" x2="99.5" y1="479" y2="479"/></g><!--MD5=[dd91eae41778c45e12552e5329e240e8]
class Turn--><g id="elem_Turn"><rect codeLine="4" fill="#F1F1F1" height="48" id="Turn" rx="2.5" ry="2.5" style="stroke:#181818;stroke-width:0.5;" width="62" x="124.5" y="115"/><ellipse cx="139.5" cy="131" fill="#ADD1B2" rx="11" ry="11" style="stroke:#181818;stroke-width:1.0;"/><path d="M142.2656,126.875 Q142.4219,126.6563 142.6094,126.5469 Q142.7969,126.4375 143.0156,126.4375 Q143.3906,126.4375 143.625,126.7031 Q143.8594,126.9531 143.8594,127.5625 L143.8594,129.0156 Q143.8594,129.625 143.625,129.8906 Q143.3906,130.1563 143.0156,130.1563 Q142.6719,130.1563 142.4688,129.9531 Q142.2656,129.7656 142.1563,129.25 Q142.1094,128.8906 141.9219,128.7031 Q141.5938,128.3281 140.9844,128.1094 Q140.375,127.8906 139.75,127.8906 Q138.9844,127.8906 138.3438,128.2188 Q137.7188,128.5469 137.2188,129.2969 Q136.7344,130.0469 136.7344,131.0781 L136.7344,132.1719 Q136.7344,133.4063 137.625,134.2344 Q138.5156,135.0469 140.1094,135.0469 Q141.0469,135.0469 141.7031,134.7969 Q142.0938,134.6406 142.5156,134.2031 Q142.7813,133.9375 142.9219,133.8594 Q143.0781,133.7813 143.2813,133.7813 Q143.6094,133.7813 143.8594,134.0469 Q144.125,134.2969 144.125,134.6406 Q144.125,134.9844 143.7813,135.3906 Q143.2813,135.9688 142.4844,136.2969 Q141.4063,136.75 140.1094,136.75 Q138.5938,136.75 137.3906,136.125 Q136.4063,135.625 135.7188,134.5625 Q135.0313,133.4844 135.0313,132.2031 L135.0313,131.0469 Q135.0313,129.7188 135.6406,128.5781 Q136.2656,127.4219 137.3594,126.8125 Q138.4531,126.1875 139.6875,126.1875 Q140.4219,126.1875 141.0625,126.3594 Q141.7188,126.5156 142.2656,126.875 Z " fill="#000000"/><text fill="#000000" font-family="sans-serif" font-size="14" lengthAdjust="spacing" textLength="30" x="153.5" y="136.7285">Turn</text><line style="stroke:#181818;stroke-width:0.5;" x1="125.5" x2="185.5" y1="147" y2="147"/><line style="stroke:#181818;stroke-width:0.5;" x1="125.5" x2="185.5" y1="155" y2="155"/></g><!--MD5=[2cb47ba637a0d19583e6199456f6ad0b]
class Player--><g id="elem_Player"><rect codeLine="5" fill="#F1F1F1" height="48" id="Player" rx="2.5" ry="2.5" style="stroke:#181818;stroke-width:0.5;" width="72" x="132.5" y="331"/><ellipse cx="147.5" cy="347" fill="#ADD1B2" rx="11" ry="11" style="stroke:#181818;stroke-width:1.0;"/><path d="M150.2656,342.875 Q150.4219,342.6563 150.6094,342.5469 Q150.7969,342.4375 151.0156,342.4375 Q151.3906,342.4375 151.625,342.7031 Q151.8594,342.9531 151.8594,343.5625 L151.8594,345.0156 Q151.8594,345.625 151.625,345.8906 Q151.3906,346.1563 151.0156,346.1563 Q150.6719,346.1563 150.4688,345.9531 Q150.2656,345.7656 150.1563,345.25 Q150.1094,344.8906 149.9219,344.7031 Q149.5938,344.3281 148.9844,344.1094 Q148.375,343.8906 147.75,343.8906 Q146.9844,343.8906 146.3438,344.2188 Q145.7188,344.5469 145.2188,345.2969 Q144.7344,346.0469 144.7344,347.0781 L144.7344,348.1719 Q144.7344,349.4063 145.625,350.2344 Q146.5156,351.0469 148.1094,351.0469 Q149.0469,351.0469 149.7031,350.7969 Q150.0938,350.6406 150.5156,350.2031 Q150.7813,349.9375 150.9219,349.8594 Q151.0781,349.7813 151.2813,349.7813 Q151.6094,349.7813 151.8594,350.0469 Q152.125,350.2969 152.125,350.6406 Q152.125,350.9844 151.7813,351.3906 Q151.2813,351.9688 150.4844,352.2969 Q149.4063,352.75 148.1094,352.75 Q146.5938,352.75 145.3906,352.125 Q144.4063,351.625 143.7188,350.5625 Q143.0313,349.4844 143.0313,348.2031 L143.0313,347.0469 Q143.0313,345.7188 143.6406,344.5781 Q144.2656,343.4219 145.3594,342.8125 Q146.4531,342.1875 147.6875,342.1875 Q148.4219,342.1875 149.0625,342.3594 Q149.7188,342.5156 150.2656,342.875 Z " fill="#000000"/><text fill="#000000" font-family="sans-serif" font-size="14" lengthAdjust="spacing" textLength="40" x="161.5" y="352.7285">Player</text><line style="stroke:#181818;stroke-width:0.5;" x1="133.5" x2="203.5" y1="363" y2="363"/><line style="stroke:#181818;stroke-width:0.5;" x1="133.5" x2="203.5" y1="371" y2="371"/></g><!--MD5=[a1532312638e560355e472287ca7b7f1]
class Holes--><g id="elem_Holes"><rect codeLine="6" fill="#F1F1F1" height="48" id="Holes" rx="2.5" ry="2.5" style="stroke:#181818;stroke-width:0.5;" width="67" x="30" y="331"/><ellipse cx="45" cy="347" fill="#ADD1B2" rx="11" ry="11" style="stroke:#181818;stroke-width:1.0;"/><path d="M47.7656,342.875 Q47.9219,342.6563 48.1094,342.5469 Q48.2969,342.4375 48.5156,342.4375 Q48.8906,342.4375 49.125,342.7031 Q49.3594,342.9531 49.3594,343.5625 L49.3594,345.0156 Q49.3594,345.625 49.125,345.8906 Q48.8906,346.1563 48.5156,346.1563 Q48.1719,346.1563 47.9688,345.9531 Q47.7656,345.7656 47.6563,345.25 Q47.6094,344.8906 47.4219,344.7031 Q47.0938,344.3281 46.4844,344.1094 Q45.875,343.8906 45.25,343.8906 Q44.4844,343.8906 43.8438,344.2188 Q43.2188,344.5469 42.7188,345.2969 Q42.2344,346.0469 42.2344,347.0781 L42.2344,348.1719 Q42.2344,349.4063 43.125,350.2344 Q44.0156,351.0469 45.6094,351.0469 Q46.5469,351.0469 47.2031,350.7969 Q47.5938,350.6406 48.0156,350.2031 Q48.2813,349.9375 48.4219,349.8594 Q48.5781,349.7813 48.7813,349.7813 Q49.1094,349.7813 49.3594,350.0469 Q49.625,350.2969 49.625,350.6406 Q49.625,350.9844 49.2813,351.3906 Q48.7813,351.9688 47.9844,352.2969 Q46.9063,352.75 45.6094,352.75 Q44.0938,352.75 42.8906,352.125 Q41.9063,351.625 41.2188,350.5625 Q40.5313,349.4844 40.5313,348.2031 L40.5313,347.0469 Q40.5313,345.7188 41.1406,344.5781 Q41.7656,343.4219 42.8594,342.8125 Q43.9531,342.1875 45.1875,342.1875 Q45.9219,342.1875 46.5625,342.3594 Q47.2188,342.5156 47.7656,342.875 Z " fill="#000000"/><text fill="#000000" font-family="sans-serif" font-size="14" lengthAdjust="spacing" textLength="35" x="59" y="352.7285">Holes</text><line style="stroke:#181818;stroke-width:0.5;" x1="31" x2="96" y1="363" y2="363"/><line style="stroke:#181818;stroke-width:0.5;" x1="31" x2="96" y1="371" y2="371"/></g><!--MD5=[0992d3fdc9d3d7c02b735131bb70871d]
class Goal--><g id="elem_Goal"><rect codeLine="7" fill="#F1F1F1" height="48" id="Goal" rx="2.5" ry="2.5" style="stroke:#181818;stroke-width:0.5;" width="62" x="137.5" y="439"/><ellipse cx="152.5" cy="455" fill="#ADD1B2" rx="11" ry="11" style="stroke:#181818;stroke-width:1.0;"/><path d="M155.2656,450.875 Q155.4219,450.6563 155.6094,450.5469 Q155.7969,450.4375 156.0156,450.4375 Q156.3906,450.4375 156.625,450.7031 Q156.8594,450.9531 156.8594,451.5625 L156.8594,453.0156 Q156.8594,453.625 156.625,453.8906 Q156.3906,454.1563 156.0156,454.1563 Q155.6719,454.1563 155.4688,453.9531 Q155.2656,453.7656 155.1563,453.25 Q155.1094,452.8906 154.9219,452.7031 Q154.5938,452.3281 153.9844,452.1094 Q153.375,451.8906 152.75,451.8906 Q151.9844,451.8906 151.3438,452.2188 Q150.7188,452.5469 150.2188,453.2969 Q149.7344,454.0469 149.7344,455.0781 L149.7344,456.1719 Q149.7344,457.4063 150.625,458.2344 Q151.5156,459.0469 153.1094,459.0469 Q154.0469,459.0469 154.7031,458.7969 Q155.0938,458.6406 155.5156,458.2031 Q155.7813,457.9375 155.9219,457.8594 Q156.0781,457.7813 156.2813,457.7813 Q156.6094,457.7813 156.8594,458.0469 Q157.125,458.2969 157.125,458.6406 Q157.125,458.9844 156.7813,459.3906 Q156.2813,459.9688 155.4844,460.2969 Q154.4063,460.75 153.1094,460.75 Q151.5938,460.75 150.3906,460.125 Q149.4063,459.625 148.7188,458.5625 Q148.0313,457.4844 148.0313,456.2031 L148.0313,455.0469 Q148.0313,453.7188 148.6406,452.5781 Q149.2656,451.4219 150.3594,450.8125 Q151.4531,450.1875 152.6875,450.1875 Q153.4219,450.1875 154.0625,450.3594 Q154.7188,450.5156 155.2656,450.875 Z " fill="#000000"/><text fill="#000000" font-family="sans-serif" font-size="14" lengthAdjust="spacing" textLength="30" x="166.5" y="460.7285">Goal</text><line style="stroke:#181818;stroke-width:0.5;" x1="138.5" x2="198.5" y1="471" y2="471"/><line style="stroke:#181818;stroke-width:0.5;" x1="138.5" x2="198.5" y1="479" y2="479"/></g><!--MD5=[f2deb167c5d67bac922ffe673e7c823d]
class InLine--><g id="elem_InLine"><rect codeLine="8" fill="#F1F1F1" height="48" id="InLine" rx="2.5" ry="2.5" style="stroke:#181818;stroke-width:0.5;" width="70" x="133.5" y="564.5"/><ellipse cx="148.5" cy="580.5" fill="#ADD1B2" rx="11" ry="11" style="stroke:#181818;stroke-width:1.0;"/><path d="M151.2656,576.375 Q151.4219,576.1563 151.6094,576.0469 Q151.7969,575.9375 152.0156,575.9375 Q152.3906,575.9375 152.625,576.2031 Q152.8594,576.4531 152.8594,577.0625 L152.8594,578.5156 Q152.8594,579.125 152.625,579.3906 Q152.3906,579.6563 152.0156,579.6563 Q151.6719,579.6563 151.4688,579.4531 Q151.2656,579.2656 151.1563,578.75 Q151.1094,578.3906 150.9219,578.2031 Q150.5938,577.8281 149.9844,577.6094 Q149.375,577.3906 148.75,577.3906 Q147.9844,577.3906 147.3438,577.7188 Q146.7188,578.0469 146.2188,578.7969 Q145.7344,579.5469 145.7344,580.5781 L145.7344,581.6719 Q145.7344,582.9063 146.625,583.7344 Q147.5156,584.5469 149.1094,584.5469 Q150.0469,584.5469 150.7031,584.2969 Q151.0938,584.1406 151.5156,583.7031 Q151.7813,583.4375 151.9219,583.3594 Q152.0781,583.2813 152.2813,583.2813 Q152.6094,583.2813 152.8594,583.5469 Q153.125,583.7969 153.125,584.1406 Q153.125,584.4844 152.7813,584.8906 Q152.2813,585.4688 151.4844,585.7969 Q150.4063,586.25 149.1094,586.25 Q147.5938,586.25 146.3906,585.625 Q145.4063,585.125 144.7188,584.0625 Q144.0313,582.9844 144.0313,581.7031 L144.0313,580.5469 Q144.0313,579.2188 144.6406,578.0781 Q145.2656,576.9219 146.3594,576.3125 Q147.4531,575.6875 148.6875,575.6875 Q149.4219,575.6875 150.0625,575.8594 Q150.7188,576.0156 151.2656,576.375 Z " fill="#000000"/><text fill="#000000" font-family="sans-serif" font-size="14" lengthAdjust="spacing" textLength="38" x="162.5" y="586.2285">InLine</text><line style="stroke:#181818;stroke-width:0.5;" x1="134.5" x2="202.5" y1="596.5" y2="596.5"/><line style="stroke:#181818;stroke-width:0.5;" x1="134.5" x2="202.5" y1="604.5" y2="604.5"/></g><!--MD5=[c4df9b95f6f4e4e1c32bb5a44abd175a]
class Colors--><g id="elem_Colors"><rect codeLine="9" fill="#F1F1F1" height="83.2188" id="Colors" rx="2.5" ry="2.5" style="stroke:#181818;stroke-width:0.5;" width="73" x="25" y="547"/><ellipse cx="40" cy="563" fill="#EB937F" rx="11" ry="11" style="stroke:#181818;stroke-width:1.0;"/><path d="M38.8594,563.7969 L38.8594,566.2969 L43.1875,566.2969 L43.1875,565.375 Q43.1875,564.7656 43.4219,564.5 Q43.6719,564.2344 44.0469,564.2344 Q44.4219,564.2344 44.6563,564.5 Q44.8906,564.7656 44.8906,565.375 L44.8906,568 L36.8906,568 Q36.2656,568 36,567.7656 Q35.75,567.5313 35.75,567.1406 Q35.75,566.7656 36.0156,566.5313 Q36.2813,566.2969 36.8906,566.2969 L37.1563,566.2969 L37.1563,559.6406 L36.8906,559.6406 Q36.2656,559.6406 36,559.4063 Q35.75,559.1719 35.75,558.7813 Q35.75,558.4063 36,558.1719 Q36.2656,557.9375 36.8906,557.9375 L44.5156,557.9375 L44.5156,560.5313 Q44.5156,561.1406 44.2813,561.4063 Q44.0625,561.6563 43.6719,561.6563 Q43.2969,561.6563 43.0625,561.4063 Q42.8281,561.1406 42.8281,560.5313 L42.8281,559.6406 L38.8594,559.6406 L38.8594,562.0938 L40.3438,562.0938 Q40.3438,561.4375 40.4688,561.25 Q40.7344,560.8438 41.2031,560.8438 Q41.5781,560.8438 41.8125,561.1094 Q42.0469,561.3594 42.0469,561.9688 L42.0469,563.9375 Q42.0469,564.4844 41.9219,564.6719 Q41.6563,565.0625 41.2031,565.0625 Q40.7344,565.0625 40.4688,564.6563 Q40.3438,564.4688 40.3438,563.7969 L38.8594,563.7969 Z " fill="#000000"/><text fill="#000000" font-family="sans-serif" font-size="14" lengthAdjust="spacing" textLength="41" x="54" y="568.7285">Colors</text><line style="stroke:#181818;stroke-width:0.5;" x1="26" x2="97" y1="579" y2="579"/><text fill="#000000" font-family="sans-serif" font-size="14" lengthAdjust="spacing" textLength="26" x="31" y="597.5332">Red</text><text fill="#000000" font-family="sans-serif" font-size="14" lengthAdjust="spacing" textLength="40" x="31" y="615.1426">Yellow</text><line style="stroke:#181818;stroke-width:0.5;" x1="26" x2="97" y1="622.2188" y2="622.2188"/></g><!--MD5=[9ddfc9bd1e3a4b04466623ab197feef8]
class Vertical--><g id="elem_Vertical"><rect fill="#F1F1F1" height="48" id="Vertical" rx="2.5" ry="2.5" style="stroke:#181818;stroke-width:0.5;" width="79" x="7" y="690"/><ellipse cx="22" cy="706" fill="#ADD1B2" rx="11" ry="11" style="stroke:#181818;stroke-width:1.0;"/><path d="M24.7656,701.875 Q24.9219,701.6563 25.1094,701.5469 Q25.2969,701.4375 25.5156,701.4375 Q25.8906,701.4375 26.125,701.7031 Q26.3594,701.9531 26.3594,702.5625 L26.3594,704.0156 Q26.3594,704.625 26.125,704.8906 Q25.8906,705.1563 25.5156,705.1563 Q25.1719,705.1563 24.9688,704.9531 Q24.7656,704.7656 24.6563,704.25 Q24.6094,703.8906 24.4219,703.7031 Q24.0938,703.3281 23.4844,703.1094 Q22.875,702.8906 22.25,702.8906 Q21.4844,702.8906 20.8438,703.2188 Q20.2188,703.5469 19.7188,704.2969 Q19.2344,705.0469 19.2344,706.0781 L19.2344,707.1719 Q19.2344,708.4063 20.125,709.2344 Q21.0156,710.0469 22.6094,710.0469 Q23.5469,710.0469 24.2031,709.7969 Q24.5938,709.6406 25.0156,709.2031 Q25.2813,708.9375 25.4219,708.8594 Q25.5781,708.7813 25.7813,708.7813 Q26.1094,708.7813 26.3594,709.0469 Q26.625,709.2969 26.625,709.6406 Q26.625,709.9844 26.2813,710.3906 Q25.7813,710.9688 24.9844,711.2969 Q23.9063,711.75 22.6094,711.75 Q21.0938,711.75 19.8906,711.125 Q18.9063,710.625 18.2188,709.5625 Q17.5313,708.4844 17.5313,707.2031 L17.5313,706.0469 Q17.5313,704.7188 18.1406,703.5781 Q18.7656,702.4219 19.8594,701.8125 Q20.9531,701.1875 22.1875,701.1875 Q22.9219,701.1875 23.5625,701.3594 Q24.2188,701.5156 24.7656,701.875 Z " fill="#000000"/><text fill="#000000" font-family="sans-serif" font-size="14" lengthAdjust="spacing" textLength="47" x="36" y="711.7285">Vertical</text><line style="stroke:#181818;stroke-width:0.5;" x1="8" x2="85" y1="722" y2="722"/><line style="stroke:#181818;stroke-width:0.5;" x1="8" x2="85" y1="730" y2="730"/></g><!--MD5=[2808de09be71fab9caf2df132bae0681]
class Horizontal--><g id="elem_Horizontal"><rect fill="#F1F1F1" height="48" id="Horizontal" rx="2.5" ry="2.5" style="stroke:#181818;stroke-width:0.5;" width="94" x="121.5" y="690"/><ellipse cx="136.5" cy="706" fill="#ADD1B2" rx="11" ry="11" style="stroke:#181818;stroke-width:1.0;"/><path d="M139.2656,701.875 Q139.4219,701.6563 139.6094,701.5469 Q139.7969,701.4375 140.0156,701.4375 Q140.3906,701.4375 140.625,701.7031 Q140.8594,701.9531 140.8594,702.5625 L140.8594,704.0156 Q140.8594,704.625 140.625,704.8906 Q140.3906,705.1563 140.0156,705.1563 Q139.6719,705.1563 139.4688,704.9531 Q139.2656,704.7656 139.1563,704.25 Q139.1094,703.8906 138.9219,703.7031 Q138.5938,703.3281 137.9844,703.1094 Q137.375,702.8906 136.75,702.8906 Q135.9844,702.8906 135.3438,703.2188 Q134.7188,703.5469 134.2188,704.2969 Q133.7344,705.0469 133.7344,706.0781 L133.7344,707.1719 Q133.7344,708.4063 134.625,709.2344 Q135.5156,710.0469 137.1094,710.0469 Q138.0469,710.0469 138.7031,709.7969 Q139.0938,709.6406 139.5156,709.2031 Q139.7813,708.9375 139.9219,708.8594 Q140.0781,708.7813 140.2813,708.7813 Q140.6094,708.7813 140.8594,709.0469 Q141.125,709.2969 141.125,709.6406 Q141.125,709.9844 140.7813,710.3906 Q140.2813,710.9688 139.4844,711.2969 Q138.4063,711.75 137.1094,711.75 Q135.5938,711.75 134.3906,711.125 Q133.4063,710.625 132.7188,709.5625 Q132.0313,708.4844 132.0313,707.2031 L132.0313,706.0469 Q132.0313,704.7188 132.6406,703.5781 Q133.2656,702.4219 134.3594,701.8125 Q135.4531,701.1875 136.6875,701.1875 Q137.4219,701.1875 138.0625,701.3594 Q138.7188,701.5156 139.2656,701.875 Z " fill="#000000"/><text fill="#000000" font-family="sans-serif" font-size="14" lengthAdjust="spacing" textLength="62" x="150.5" y="711.7285">Horizontal</text><line style="stroke:#181818;stroke-width:0.5;" x1="122.5" x2="214.5" y1="722" y2="722"/><line style="stroke:#181818;stroke-width:0.5;" x1="122.5" x2="214.5" y1="730" y2="730"/></g><!--MD5=[a135607b44036ad87f368405615013d9]
class Diagonal--><g id="elem_Diagonal"><rect fill="#F1F1F1" height="48" id="Diagonal" rx="2.5" ry="2.5" style="stroke:#181818;stroke-width:0.5;" width="88" x="250.5" y="690"/><ellipse cx="265.5" cy="706" fill="#ADD1B2" rx="11" ry="11" style="stroke:#181818;stroke-width:1.0;"/><path d="M268.2656,701.875 Q268.4219,701.6563 268.6094,701.5469 Q268.7969,701.4375 269.0156,701.4375 Q269.3906,701.4375 269.625,701.7031 Q269.8594,701.9531 269.8594,702.5625 L269.8594,704.0156 Q269.8594,704.625 269.625,704.8906 Q269.3906,705.1563 269.0156,705.1563 Q268.6719,705.1563 268.4688,704.9531 Q268.2656,704.7656 268.1563,704.25 Q268.1094,703.8906 267.9219,703.7031 Q267.5938,703.3281 266.9844,703.1094 Q266.375,702.8906 265.75,702.8906 Q264.9844,702.8906 264.3438,703.2188 Q263.7188,703.5469 263.2188,704.2969 Q262.7344,705.0469 262.7344,706.0781 L262.7344,707.1719 Q262.7344,708.4063 263.625,709.2344 Q264.5156,710.0469 266.1094,710.0469 Q267.0469,710.0469 267.7031,709.7969 Q268.0938,709.6406 268.5156,709.2031 Q268.7813,708.9375 268.9219,708.8594 Q269.0781,708.7813 269.2813,708.7813 Q269.6094,708.7813 269.8594,709.0469 Q270.125,709.2969 270.125,709.6406 Q270.125,709.9844 269.7813,710.3906 Q269.2813,710.9688 268.4844,711.2969 Q267.4063,711.75 266.1094,711.75 Q264.5938,711.75 263.3906,711.125 Q262.4063,710.625 261.7188,709.5625 Q261.0313,708.4844 261.0313,707.2031 L261.0313,706.0469 Q261.0313,704.7188 261.6406,703.5781 Q262.2656,702.4219 263.3594,701.8125 Q264.4531,701.1875 265.6875,701.1875 Q266.4219,701.1875 267.0625,701.3594 Q267.7188,701.5156 268.2656,701.875 Z " fill="#000000"/><text fill="#000000" font-family="sans-serif" font-size="14" lengthAdjust="spacing" textLength="56" x="279.5" y="711.7285">Diagonal</text><line style="stroke:#181818;stroke-width:0.5;" x1="251.5" x2="337.5" y1="722" y2="722"/><line style="stroke:#181818;stroke-width:0.5;" x1="251.5" x2="337.5" y1="730" y2="730"/></g><!--MD5=[5426a1d26e36fcd61d30da6b8a6545ec]
link Connect4 to Board--><g id="link_Connect4_Board"><path codeLine="14" d="M106.6223,67.086 C106.6223,67.086 86.34,170.41 78.6,209.82 " fill="none" id="Connect4-Board" style="stroke:#181818;stroke-width:1.0;"/><polygon fill="#181818" points="76.07,222.72,81.7261,214.6572,77.0316,217.8133,73.8755,213.1188,76.07,222.72" style="stroke:#181818;stroke-width:1.0;"/><line style="stroke:#181818;stroke-width:1.0;" x1="77.0316" x2="78.575" y1="217.8133" y2="209.965"/><polygon fill="#181818" points="108.93,55.31,103.8508,60.4288,106.6223,67.086,111.7015,61.9672,108.93,55.31" style="stroke:#181818;stroke-width:1.0;"/></g><!--MD5=[6824fd9902778444ee49992acd2ffe7e]
link Connect4 to Turn--><g id="link_Connect4_Turn"><path codeLine="15" d="M127.028,66.1571 C127.028,66.1571 136.97,91.23 141.45,102.54 " fill="none" id="Connect4-Turn" style="stroke:#181818;stroke-width:1.0;"/><polygon fill="#181818" points="146.26,114.68,146.6655,104.8395,144.4192,110.0312,139.2275,107.7848,146.26,114.68" style="stroke:#181818;stroke-width:1.0;"/><line style="stroke:#181818;stroke-width:1.0;" x1="144.4192" x2="141.47" y1="110.0312" y2="102.595"/><polygon fill="#181818" points="122.61,55,121.1,62.0512,127.028,66.1571,128.538,59.1059,122.61,55" style="stroke:#181818;stroke-width:1.0;"/><text fill="#000000" font-family="sans-serif" font-size="13" lengthAdjust="spacing" textLength="29" x="111.4734" y="104.34">7..42</text></g><!--MD5=[1571e4e0b7cdbae74b04c97a95677c54]
link Player to Goal--><g id="link_Player_Goal"><path codeLine="16" d="M168.5,379 C168.5,395 168.5,416.45 168.5,433.53 " fill="none" id="Player-to-Goal" style="stroke:#181818;stroke-width:1.0;"/><polygon fill="#181818" points="168.5,438.68,172.5,429.68,168.5,433.68,164.5,429.68,168.5,438.68" style="stroke:#181818;stroke-width:1.0;"/></g><!--MD5=[0756a2b387b9bc51463d4da24a42c40c]
link Goal to InLine--><g id="link_Goal_InLine"><path codeLine="18" d="M168.5,499.23 C168.5,499.23 168.5,535.14 168.5,551.15 " fill="none" id="Goal-InLine" style="stroke:#181818;stroke-width:1.0;"/><polygon fill="#181818" points="168.5,564.37,172.5,555.37,168.5,559.37,164.5,555.37,168.5,564.37" style="stroke:#181818;stroke-width:1.0;"/><line style="stroke:#181818;stroke-width:1.0;" x1="168.5" x2="168.5" y1="559.37" y2="551.37"/><polygon fill="#181818" points="168.5,487.23,164.5,493.23,168.5,499.23,172.5,493.23,168.5,487.23" style="stroke:#181818;stroke-width:1.0;"/></g><!--MD5=[d2fe9019f400e3832cd5e824cbbaa897]
link Token to InLine--><g id="link_Token_InLine"><path codeLine="20" d="M84.06,487.23 C101.57,508.02 127.23,538.5 145.67,560.39 " fill="none" id="Token-to-InLine" style="stroke:#181818;stroke-width:1.0;"/><polygon fill="#181818" points="149.03,564.37,146.2685,554.9162,145.7996,560.5536,140.1623,560.0848,149.03,564.37" style="stroke:#181818;stroke-width:1.0;"/><text fill="#000000" font-family="sans-serif" font-size="13" lengthAdjust="spacing" textLength="7" x="80.9746" y="508.624">4</text></g><!--MD5=[be9d42ce6be79b8d3cb63a3c73ab3b23]
reverse link InLine to Vertical--><g id="link_InLine_Vertical"><path codeLine="22" d="M131.4,627.05 C111.17,647.53 86.78,672.22 69.34,689.87 " fill="none" id="InLine-backto-Vertical" style="stroke:#181818;stroke-width:1.0;"/><polygon fill="none" points="126.52,622.04,145.55,612.73,136.48,631.88,126.52,622.04" style="stroke:#181818;stroke-width:1.0;"/></g><!--MD5=[3135168f6bee9c0d10d1b3b48afa38ab]
reverse link InLine to Horizontal--><g id="link_InLine_Horizontal"><path codeLine="23" d="M168.5,632.85 C168.5,652.05 168.5,673.86 168.5,689.87 " fill="none" id="InLine-backto-Horizontal" style="stroke:#181818;stroke-width:1.0;"/><polygon fill="none" points="161.5,632.73,168.5,612.73,175.5,632.73,161.5,632.73" style="stroke:#181818;stroke-width:1.0;"/></g><!--MD5=[f7fe882bf086f9825140fa8a06051888]
reverse link InLine to Diagonal--><g id="link_InLine_Diagonal"><path codeLine="24" d="M206.51,626.76 C227.46,647.29 252.81,672.14 270.91,689.87 " fill="none" id="InLine-backto-Diagonal" style="stroke:#181818;stroke-width:1.0;"/><polygon fill="none" points="201.58,631.73,192.2,612.73,211.38,621.73,201.58,631.73" style="stroke:#181818;stroke-width:1.0;"/></g><!--MD5=[d81713d91ad05be3b975338c4816ee0b]
link Turn to Player--><g id="link_Turn_Player"><path codeLine="27" d="M157.6447,175.2881 C157.6447,175.2881 163.9,278.26 166.29,317.6 " fill="none" id="Turn-Player" style="stroke:#181818;stroke-width:1.0;"/><polygon fill="#181818" points="167.09,330.72,170.5385,321.4946,166.7877,325.7291,162.5532,321.9783,167.09,330.72" style="stroke:#181818;stroke-width:1.0;"/><line style="stroke:#181818;stroke-width:1.0;" x1="166.7877" x2="166.3" y1="325.7291" y2="317.745"/><polygon fill="none" points="156.92,163.31,153.2897,169.5406,157.6447,175.2881,161.2751,169.0575,156.92,163.31" style="stroke:#181818;stroke-width:1.0;"/><text fill="#000000" font-family="sans-serif" font-size="13" lengthAdjust="spacing" textLength="7" x="158.8318" y="319.9884">2</text></g><!--MD5=[6f5090b847d8e86036ad96926281238e]
reverse link Turn to Board--><g id="link_Turn_Board"><path codeLine="28" d="M133.9,167.25 C120.31,184.41 102.94,206.33 89.98,222.68 " fill="none" id="Turn-backto-Board" style="stroke:#181818;stroke-width:1.0;"/><polygon fill="#181818" points="137.27,163,128.5364,167.5524,134.157,166.9127,134.7967,172.5333,137.27,163" style="stroke:#181818;stroke-width:1.0;"/></g><!--MD5=[0f2235f5d721aae1f2cc61ae282599a2]
link Board to Holes--><g id="link_Board_Holes"><path codeLine="30" d="M68.8497,282.9654 C68.8497,282.9654 67.07,306.68 66.26,317.36 " fill="none" id="Board-Holes" style="stroke:#181818;stroke-width:1.0;"/><polygon fill="#181818" points="65.26,330.68,69.9305,322.009,65.6389,325.6944,61.9535,321.4028,65.26,330.68" style="stroke:#181818;stroke-width:1.0;"/><line style="stroke:#181818;stroke-width:1.0;" x1="65.6389" x2="66.24" y1="325.6944" y2="317.715"/><polygon fill="#181818" points="69.76,271,65.3164,276.6793,68.8497,282.9654,73.2933,277.2861,69.76,271" style="stroke:#181818;stroke-width:1.0;"/><text fill="#000000" font-family="sans-serif" font-size="13" lengthAdjust="spacing" textLength="21" x="42.1296" y="320.34">7x6</text></g><!--MD5=[6145148ce8061ed2b1358f75c397ca71]
link Holes to Token--><g id="link_Holes_Token"><path codeLine="32" d="M63.8255,390.9995 C63.8255,390.9995 64.05,414.68 64.15,425.36 " fill="none" id="Holes-Token" style="stroke:#181818;stroke-width:1.0;"/><polygon fill="#181818" points="64.28,438.68,68.2007,429.6452,64.236,433.6802,60.201,429.7155,64.28,438.68" style="stroke:#181818;stroke-width:1.0;"/><line style="stroke:#181818;stroke-width:1.0;" x1="64.236" x2="64.16" y1="433.6802" y2="425.68"/><polygon fill="none" points="63.72,379,59.7729,385.0349,63.8255,390.9995,67.7726,384.9646,63.72,379" style="stroke:#181818;stroke-width:1.0;"/><text fill="#000000" font-family="sans-serif" font-size="13" lengthAdjust="spacing" textLength="29" x="31.692" y="428.34">0..42</text></g><!--MD5=[525e20984b3f0335f86e1ed389de5b3d]
link Player to Token--><g id="link_Player_Token"><path codeLine="34" d="M145.93,379 C129.83,395.42 108.1,417.56 91.14,434.84 " fill="none" id="Player-to-Token" style="stroke:#181818;stroke-width:1.0;stroke-dasharray:7.0,7.0;"/><polygon fill="#181818" points="87.38,438.68,96.5362,435.0518,90.8796,435.1089,90.8225,429.4524,87.38,438.68" style="stroke:#181818;stroke-width:1.0;"/><text fill="#000000" font-family="sans-serif" font-size="13" lengthAdjust="spacing" textLength="14" x="77.2508" y="428.34">21</text></g><!--MD5=[d6208de9411c4b1d5190de2c034c83cb]
link Token to Colors--><g id="link_Token_Colors"><path codeLine="36" d="M63.65,499.2265 C63.65,499.2265 63.08,522.55 62.8,533.86 " fill="none" id="Token-Colors" style="stroke:#181818;stroke-width:1.0;"/><polygon fill="#181818" points="62.49,546.87,66.7064,537.9693,62.6108,541.8715,58.7087,537.776,62.49,546.87" style="stroke:#181818;stroke-width:1.0;"/><line style="stroke:#181818;stroke-width:1.0;" x1="62.6108" x2="62.8" y1="541.8715" y2="533.87"/><polygon fill="#181818" points="63.94,487.23,59.7962,493.1316,63.65,499.2265,67.7938,493.3249,63.94,487.23" style="stroke:#181818;stroke-width:1.0;"/></g><!--MD5=[f0639e3ee67a588b48c079df95a566fc]
@startuml
class Connect4
class Board
class Token
class Turn
class Player
class Holes
class Goal
class InLine
enum Colors{
Red
Yellow
}

Connect4 *- -> Board
Connect4 *- -> "7..42" Turn
Player - -> Goal

Goal *- -> InLine

Token "4" - ->  InLine

InLine <|- - Vertical
InLine <|- - Horizontal
InLine <|- - Diagonal


Turn o- -> "2" Player
Turn <- - Board

Board *- -> "7x6" Holes

Holes o- -> "0..42" Token

Player ..> "21" Token

Token *- -> Colors
@enduml

PlantUML version 1.2022.5(Sat Apr 30 12:55:52 CEST 2022)
(GPL source distribution)
Java Runtime: OpenJDK Runtime Environment
JVM: OpenJDK 64-Bit Server VM
Default Encoding: UTF-8
Language: es
Country: ES
--></g></svg>